<svg width="1253" height="210" viewBox="0 0 1253 210" fill="none" xmlns="http://www.w3.org/2000/svg">
<path d="M0.775391 20C0.775391 8.9543 9.7297 0 20.7754 0H1232.78C1243.82 0 1252.78 8.95431 1252.78 20V71H0.775391V20Z" fill="#FFA7CA"/>
<path d="M27.4189 45V26.0909H39.9664V29.3871H31.4167V33.0803H34.4913C35.987 33.0803 37.2766 33.3234 38.3599 33.8097C39.4494 34.2898 40.2896 34.9699 40.8805 35.8501C41.4714 36.7304 41.7669 37.7675 41.7669 38.9616C41.7669 40.1496 41.4714 41.1991 40.8805 42.1101C40.2896 43.0149 39.4494 43.7228 38.3599 44.2337C37.2766 44.7446 35.987 45 34.4913 45H27.4189ZM31.4167 41.7869H34.4913C35.2053 41.7869 35.8085 41.6577 36.301 41.3991C36.7934 41.1345 37.1658 40.7867 37.4181 40.3558C37.6767 39.9188 37.8059 39.4418 37.8059 38.9247C37.8059 38.1738 37.5197 37.5398 36.9473 37.0227C36.381 36.4995 35.5623 36.2379 34.4913 36.2379H31.4167V41.7869ZM43.4496 45L43.4311 41.8793H43.902C44.2344 41.8793 44.5206 41.7992 44.7607 41.6392C45.0069 41.473 45.21 41.2053 45.37 40.8359C45.5301 40.4666 45.6563 39.9773 45.7486 39.3679C45.8409 38.7524 45.9025 37.9953 45.9332 37.0966L46.1641 30.8182H56.9482V45H53.1996V33.9112H49.7003L49.4787 38.2415C49.4233 39.4295 49.2786 40.4512 49.0447 41.3068C48.817 42.1624 48.5 42.8641 48.0938 43.4119C47.6875 43.9536 47.1982 44.3537 46.6257 44.6122C46.0533 44.8707 45.3885 45 44.6314 45H43.4496ZM64.0414 45.2678C63.1365 45.2678 62.3302 45.1108 61.6223 44.7969C60.9145 44.4768 60.3543 44.0059 59.9419 43.3842C59.5357 42.7564 59.3326 41.9747 59.3326 41.0391C59.3326 40.2512 59.4772 39.5895 59.7665 39.054C60.0558 38.5185 60.4498 38.0876 60.9483 37.7614C61.4469 37.4351 62.0132 37.1889 62.6472 37.0227C63.2873 36.8565 63.9583 36.7396 64.66 36.6719C65.4848 36.5857 66.1496 36.5057 66.6543 36.4318C67.159 36.3518 67.5253 36.2348 67.753 36.081C67.9808 35.9271 68.0946 35.6993 68.0946 35.3977V35.3423C68.0946 34.7576 67.91 34.3052 67.5407 33.9851C67.1775 33.665 66.6605 33.505 65.9895 33.505C65.2817 33.505 64.7185 33.6619 64.2999 33.9759C63.8813 34.2836 63.6043 34.6714 63.4689 35.1392L59.8311 34.8438C60.0158 33.982 60.379 33.2372 60.9206 32.6094C61.4623 31.9754 62.1609 31.4891 63.0165 31.1506C63.8783 30.8059 64.8754 30.6335 66.008 30.6335C66.7959 30.6335 67.5499 30.7259 68.2701 30.9105C68.9964 31.0952 69.6396 31.3814 70.1998 31.7692C70.766 32.157 71.2123 32.6555 71.5385 33.2649C71.8648 33.8681 72.0279 34.5914 72.0279 35.4347V45H68.2978V43.0334H68.187C67.9592 43.4766 67.6545 43.8674 67.2729 44.206C66.8913 44.5384 66.4327 44.8 65.8972 44.9908C65.3617 45.1754 64.7431 45.2678 64.0414 45.2678ZM65.1678 42.5533C65.7464 42.5533 66.2573 42.4394 66.7005 42.2116C67.1436 41.9777 67.4914 41.6638 67.7438 41.2699C67.9962 40.8759 68.1223 40.4297 68.1223 39.9311V38.4261C67.9992 38.5062 67.83 38.58 67.6145 38.6477C67.4052 38.7093 67.1683 38.7678 66.9036 38.8232C66.6389 38.8724 66.3742 38.9186 66.1096 38.9616C65.8449 38.9986 65.6048 39.0324 65.3894 39.0632C64.9277 39.1309 64.5246 39.2386 64.1799 39.3864C63.8352 39.5341 63.5674 39.7341 63.3766 39.9865C63.1858 40.2327 63.0904 40.5405 63.0904 40.9098C63.0904 41.4453 63.2843 41.8546 63.6721 42.1378C64.066 42.4148 64.5646 42.5533 65.1678 42.5533ZM84.9494 36.3395V39.4325H77.5446V36.3395H84.9494ZM78.8372 30.8182V45H75.0794V30.8182H78.8372ZM87.4146 30.8182V45H83.6845V30.8182H87.4146ZM90.4661 30.8182H94.2239V41.8793H98.2218V30.8182H101.98V41.8793H105.977V30.8182H109.735V45H90.4661V30.8182ZM116.542 39.8111L121.648 30.8182H125.526V45H121.777V35.9794L116.69 45H112.784V30.8182H116.542V39.8111ZM138.549 36.3395V39.4325H131.144V36.3395H138.549ZM132.437 30.8182V45H128.679V30.8182H132.437ZM141.014 30.8182V45H137.284V30.8182H141.014ZM153.779 30.8182V33.9112H147.888V45H144.066V30.8182H153.779Z" fill="#14142A"/>
<path d="M1135.35 28V44H1132.07V28H1135.35ZM1122.41 44L1127.42 35.5625L1122.62 28H1126.78L1130.38 34.5859H1137.13L1140.63 28H1144.78L1140.1 35.5391L1145.02 44H1140.98L1137.6 37.7109H1129.88L1126.42 44H1122.41ZM1146.97 44V32H1150.3V44H1146.97ZM1148.64 30.4531C1148.15 30.4531 1147.73 30.2891 1147.37 29.9609C1147.02 29.6276 1146.85 29.2292 1146.85 28.7656C1146.85 28.3073 1147.02 27.9141 1147.37 27.5859C1147.73 27.2526 1148.15 27.0859 1148.64 27.0859C1149.14 27.0859 1149.56 27.2526 1149.91 27.5859C1150.26 27.9141 1150.44 28.3073 1150.44 28.7656C1150.44 29.2292 1150.26 29.6276 1149.91 29.9609C1149.56 30.2891 1149.14 30.4531 1148.64 30.4531ZM1161.32 36.6719V39.2891H1155.05V36.6719H1161.32ZM1156.15 32V44H1152.97V32H1156.15ZM1163.4 32V44H1160.25V32H1163.4ZM1172.96 27.25L1167.8 46.4062H1164.93L1170.09 27.25H1172.96ZM1175.27 28H1178.56V33.1562C1178.56 33.7708 1178.67 34.2656 1178.88 34.6406C1179.09 35.0104 1179.42 35.2786 1179.87 35.4453C1180.32 35.6068 1180.9 35.6875 1181.61 35.6875C1181.86 35.6875 1182.16 35.6797 1182.5 35.6641C1182.83 35.6432 1183.18 35.6146 1183.54 35.5781C1183.91 35.5417 1184.25 35.4974 1184.57 35.4453C1184.9 35.3932 1185.17 35.3333 1185.38 35.2656V37.9375C1185.16 38.0104 1184.89 38.0755 1184.56 38.1328C1184.24 38.1849 1183.89 38.2318 1183.54 38.2734C1183.18 38.3099 1182.83 38.3385 1182.49 38.3594C1182.15 38.3802 1181.86 38.3906 1181.61 38.3906C1180.33 38.3906 1179.21 38.2083 1178.25 37.8437C1177.3 37.474 1176.56 36.9036 1176.04 36.1328C1175.53 35.362 1175.27 34.3698 1175.27 33.1562V28ZM1184.79 28H1188.1V44H1184.79V28ZM1196.8 44.2344C1195.59 44.2344 1194.54 43.9766 1193.65 43.4609C1192.77 42.9401 1192.09 42.2161 1191.62 41.2891C1191.14 40.3568 1190.9 39.276 1190.9 38.0469C1190.9 36.8073 1191.14 35.724 1191.62 34.7969C1192.09 33.8646 1192.77 33.1406 1193.65 32.625C1194.54 32.1042 1195.59 31.8438 1196.8 31.8438C1198.02 31.8438 1199.06 32.1042 1199.94 32.625C1200.83 33.1406 1201.51 33.8646 1201.99 34.7969C1202.47 35.724 1202.71 36.8073 1202.71 38.0469C1202.71 39.276 1202.47 40.3568 1201.99 41.2891C1201.51 42.2161 1200.83 42.9401 1199.94 43.4609C1199.06 43.9766 1198.02 44.2344 1196.8 44.2344ZM1196.82 41.6562C1197.37 41.6562 1197.83 41.5 1198.2 41.1875C1198.57 40.8698 1198.85 40.4375 1199.04 39.8906C1199.23 39.3437 1199.33 38.7214 1199.33 38.0234C1199.33 37.3255 1199.23 36.7031 1199.04 36.1562C1198.85 35.6094 1198.57 35.1771 1198.2 34.8594C1197.83 34.5417 1197.37 34.3828 1196.82 34.3828C1196.26 34.3828 1195.79 34.5417 1195.41 34.8594C1195.04 35.1771 1194.75 35.6094 1194.56 36.1562C1194.37 36.7031 1194.28 37.3255 1194.28 38.0234C1194.28 38.7214 1194.37 39.3437 1194.56 39.8906C1194.75 40.4375 1195.04 40.8698 1195.41 41.1875C1195.79 41.5 1196.26 41.6562 1196.82 41.6562ZM1204.17 44L1204.15 41.3594H1204.55C1204.83 41.3594 1205.08 41.2917 1205.28 41.1562C1205.49 41.0156 1205.66 40.7891 1205.79 40.4766C1205.93 40.1641 1206.04 39.75 1206.12 39.2344C1206.19 38.7135 1206.25 38.0729 1206.27 37.3125L1206.47 32H1215.59V44H1212.42V34.6172H1209.46L1209.27 38.2812C1209.22 39.2865 1209.1 40.151 1208.9 40.875C1208.71 41.599 1208.44 42.1927 1208.1 42.6562C1207.76 43.1146 1207.34 43.4531 1206.86 43.6719C1206.37 43.8906 1205.81 44 1205.17 44H1204.17Z" fill="#14142A"/>
<mask id="path-4-inside-1_292_1993" fill="white">
<path d="M0.775391 71H1252.78V141H0.775391V71Z"/>
</mask>
<path d="M0.775391 71H1252.78V141H0.775391V71Z" fill="white"/>
<path d="M1252.78 141V142H1253.78V141H1252.78ZM0.775391 141H-0.224609V142H0.775391V141ZM1251.78 71V141H1253.78V71H1251.78ZM1252.78 140H0.775391V142H1252.78V140ZM1.77539 141V71H-0.224609V141H1.77539Z" fill="#FE68A4" mask="url(#path-4-inside-1_292_1993)"/>
<path d="M27.166 114.5V98.5H33.5723C34.7493 98.5 35.7311 98.6745 36.5176 99.0234C37.304 99.3724 37.8952 99.8568 38.291 100.477C38.6868 101.091 38.8848 101.799 38.8848 102.602C38.8848 103.227 38.7598 103.776 38.5098 104.25C38.2598 104.719 37.916 105.104 37.4785 105.406C37.0462 105.703 36.5514 105.914 35.9941 106.039V106.195C36.6035 106.221 37.1738 106.393 37.7051 106.711C38.2415 107.029 38.6764 107.474 39.0098 108.047C39.3431 108.615 39.5098 109.292 39.5098 110.078C39.5098 110.927 39.2988 111.685 38.877 112.352C38.4603 113.013 37.8431 113.536 37.0254 113.922C36.2077 114.307 35.1999 114.5 34.002 114.5H27.166ZM30.5488 111.734H33.3066C34.2493 111.734 34.9368 111.555 35.3691 111.195C35.8014 110.831 36.0176 110.346 36.0176 109.742C36.0176 109.299 35.9108 108.909 35.6973 108.57C35.4837 108.232 35.179 107.966 34.7832 107.773C34.3926 107.581 33.9264 107.484 33.3848 107.484H30.5488V111.734ZM30.5488 105.195H33.0566C33.5202 105.195 33.9316 105.115 34.291 104.953C34.6556 104.786 34.9421 104.552 35.1504 104.25C35.3639 103.948 35.4707 103.586 35.4707 103.164C35.4707 102.586 35.265 102.12 34.8535 101.766C34.4473 101.411 33.8691 101.234 33.1191 101.234H30.5488V105.195ZM47.1172 114.734C45.8828 114.734 44.8203 114.484 43.9297 113.984C43.0443 113.479 42.362 112.766 41.8828 111.844C41.4036 110.917 41.1641 109.82 41.1641 108.555C41.1641 107.32 41.4036 106.237 41.8828 105.305C42.362 104.372 43.0365 103.646 43.9063 103.125C44.7813 102.604 45.8073 102.344 46.9844 102.344C47.776 102.344 48.513 102.471 49.1953 102.727C49.8828 102.977 50.4818 103.354 50.9922 103.859C51.5078 104.365 51.9089 105 52.1953 105.766C52.4818 106.526 52.625 107.417 52.625 108.437V109.352H42.4922V107.289H49.4922C49.4922 106.81 49.388 106.385 49.1797 106.016C48.9714 105.646 48.6823 105.357 48.3125 105.148C47.9479 104.935 47.5234 104.828 47.0391 104.828C46.5339 104.828 46.0859 104.945 45.6953 105.18C45.3099 105.409 45.0078 105.719 44.7891 106.109C44.5703 106.495 44.4583 106.924 44.4531 107.398V109.359C44.4531 109.953 44.5625 110.466 44.7813 110.898C45.0052 111.331 45.3203 111.664 45.7266 111.898C46.1328 112.133 46.6146 112.25 47.1719 112.25C47.5417 112.25 47.8802 112.198 48.1875 112.094C48.4948 111.99 48.7578 111.833 48.9766 111.625C49.1953 111.417 49.362 111.161 49.4766 110.859L52.5547 111.062C52.3984 111.802 52.0781 112.448 51.5938 113C51.1146 113.547 50.4948 113.974 49.7344 114.281C48.9792 114.583 48.1068 114.734 47.1172 114.734ZM58.125 98.5V114.5H54.7969V98.5H58.125ZM66.2129 114.734C64.9993 114.734 63.9499 114.477 63.0645 113.961C62.1842 113.44 61.5046 112.716 61.0254 111.789C60.5462 110.857 60.3066 109.776 60.3066 108.547C60.3066 107.307 60.5462 106.224 61.0254 105.297C61.5046 104.365 62.1842 103.641 63.0645 103.125C63.9499 102.604 64.9993 102.344 66.2129 102.344C67.4264 102.344 68.4733 102.604 69.3535 103.125C70.2389 103.641 70.9212 104.365 71.4004 105.297C71.8796 106.224 72.1191 107.307 72.1191 108.547C72.1191 109.776 71.8796 110.857 71.4004 111.789C70.9212 112.716 70.2389 113.44 69.3535 113.961C68.4733 114.477 67.4264 114.734 66.2129 114.734ZM66.2285 112.156C66.7806 112.156 67.2415 112 67.6113 111.688C67.9811 111.37 68.2598 110.937 68.4473 110.391C68.64 109.844 68.7363 109.221 68.7363 108.523C68.7363 107.826 68.64 107.203 68.4473 106.656C68.2598 106.109 67.9811 105.677 67.6113 105.359C67.2415 105.042 66.7806 104.883 66.2285 104.883C65.6712 104.883 65.2025 105.042 64.8223 105.359C64.4473 105.677 64.1634 106.109 63.9707 106.656C63.7832 107.203 63.6895 107.826 63.6895 108.523C63.6895 109.221 63.7832 109.844 63.9707 110.391C64.1634 110.937 64.4473 111.37 64.8223 111.688C65.2025 112 65.6712 112.156 66.2285 112.156ZM80.666 102.5V105H73.4395V102.5H80.666ZM75.0801 99.625H78.4082V110.812C78.4082 111.12 78.4551 111.359 78.5488 111.531C78.6426 111.698 78.7728 111.815 78.9395 111.883C79.1113 111.951 79.3092 111.984 79.5332 111.984C79.6895 111.984 79.8457 111.971 80.002 111.945C80.1582 111.914 80.278 111.891 80.3613 111.875L80.8848 114.352C80.7181 114.404 80.4837 114.464 80.1816 114.531C79.8796 114.604 79.5124 114.648 79.0801 114.664C78.278 114.695 77.5749 114.589 76.9707 114.344C76.3717 114.099 75.9056 113.719 75.5723 113.203C75.2389 112.687 75.0749 112.036 75.0801 111.25V99.625ZM88.1738 114.734C86.9395 114.734 85.877 114.484 84.9863 113.984C84.1009 113.479 83.4186 112.766 82.9395 111.844C82.4603 110.917 82.2207 109.82 82.2207 108.555C82.2207 107.32 82.4603 106.237 82.9395 105.305C83.4186 104.372 84.0931 103.646 84.9629 103.125C85.8379 102.604 86.8639 102.344 88.041 102.344C88.8327 102.344 89.5697 102.471 90.252 102.727C90.9395 102.977 91.5384 103.354 92.0488 103.859C92.5645 104.365 92.9655 105 93.252 105.766C93.5384 106.526 93.6816 107.417 93.6816 108.437V109.352H83.5488V107.289H90.5488C90.5488 106.81 90.4447 106.385 90.2363 106.016C90.028 105.646 89.7389 105.357 89.3691 105.148C89.0046 104.935 88.5801 104.828 88.0957 104.828C87.5905 104.828 87.1426 104.945 86.752 105.18C86.3665 105.409 86.0645 105.719 85.8457 106.109C85.627 106.495 85.515 106.924 85.5098 107.398V109.359C85.5098 109.953 85.6191 110.466 85.8379 110.898C86.0618 111.331 86.377 111.664 86.7832 111.898C87.1895 112.133 87.6712 112.25 88.2285 112.25C88.5983 112.25 88.9368 112.198 89.2441 112.094C89.5514 111.99 89.8145 111.833 90.0332 111.625C90.252 111.417 90.4186 111.161 90.5332 110.859L93.6113 111.062C93.4551 111.802 93.1348 112.448 92.6504 113C92.1712 113.547 91.5514 113.974 90.791 114.281C90.0358 114.583 89.1634 114.734 88.1738 114.734ZM95.8535 114.5V102.5H99.0801V104.594H99.2051C99.4238 103.849 99.791 103.286 100.307 102.906C100.822 102.521 101.416 102.328 102.088 102.328C102.255 102.328 102.434 102.339 102.627 102.359C102.82 102.38 102.989 102.409 103.135 102.445V105.398C102.979 105.352 102.762 105.31 102.486 105.273C102.21 105.237 101.958 105.219 101.729 105.219C101.239 105.219 100.801 105.326 100.416 105.539C100.036 105.747 99.7337 106.039 99.5098 106.414C99.291 106.789 99.1816 107.221 99.1816 107.711V114.5H95.8535ZM109.719 114.734C108.505 114.734 107.456 114.477 106.57 113.961C105.69 113.44 105.01 112.716 104.531 111.789C104.052 110.857 103.813 109.776 103.813 108.547C103.813 107.307 104.052 106.224 104.531 105.297C105.01 104.365 105.69 103.641 106.57 103.125C107.456 102.604 108.505 102.344 109.719 102.344C110.932 102.344 111.979 102.604 112.859 103.125C113.745 103.641 114.427 104.365 114.906 105.297C115.385 106.224 115.625 107.307 115.625 108.547C115.625 109.776 115.385 110.857 114.906 111.789C114.427 112.716 113.745 113.44 112.859 113.961C111.979 114.477 110.932 114.734 109.719 114.734ZM109.734 112.156C110.286 112.156 110.747 112 111.117 111.688C111.487 111.37 111.766 110.937 111.953 110.391C112.146 109.844 112.242 109.221 112.242 108.523C112.242 107.826 112.146 107.203 111.953 106.656C111.766 106.109 111.487 105.677 111.117 105.359C110.747 105.042 110.286 104.883 109.734 104.883C109.177 104.883 108.708 105.042 108.328 105.359C107.953 105.677 107.669 106.109 107.477 106.656C107.289 107.203 107.195 107.826 107.195 108.523C107.195 109.221 107.289 109.844 107.477 110.391C107.669 110.937 107.953 111.37 108.328 111.688C108.708 112 109.177 112.156 109.734 112.156ZM131.623 103.102C131.561 102.471 131.292 101.982 130.818 101.633C130.344 101.284 129.701 101.109 128.889 101.109C128.337 101.109 127.87 101.187 127.49 101.344C127.11 101.495 126.818 101.706 126.615 101.977C126.417 102.247 126.318 102.555 126.318 102.898C126.308 103.185 126.368 103.435 126.498 103.648C126.633 103.862 126.818 104.047 127.053 104.203C127.287 104.354 127.558 104.487 127.865 104.602C128.173 104.711 128.501 104.805 128.85 104.883L130.287 105.227C130.985 105.383 131.626 105.591 132.209 105.852C132.792 106.112 133.298 106.432 133.725 106.812C134.152 107.193 134.482 107.641 134.717 108.156C134.956 108.672 135.079 109.263 135.084 109.93C135.079 110.909 134.829 111.758 134.334 112.477C133.844 113.19 133.136 113.745 132.209 114.141C131.287 114.531 130.175 114.727 128.873 114.727C127.581 114.727 126.456 114.529 125.498 114.133C124.545 113.737 123.8 113.151 123.264 112.375C122.732 111.594 122.454 110.628 122.428 109.477H125.701C125.738 110.013 125.891 110.461 126.162 110.82C126.438 111.174 126.805 111.443 127.264 111.625C127.727 111.802 128.251 111.891 128.834 111.891C129.407 111.891 129.904 111.807 130.326 111.641C130.753 111.474 131.084 111.242 131.318 110.945C131.553 110.648 131.67 110.307 131.67 109.922C131.67 109.562 131.563 109.26 131.35 109.016C131.141 108.771 130.834 108.562 130.428 108.391C130.027 108.219 129.535 108.062 128.951 107.922L127.209 107.484C125.86 107.156 124.795 106.643 124.014 105.945C123.232 105.247 122.844 104.307 122.85 103.125C122.844 102.156 123.102 101.31 123.623 100.586C124.149 99.862 124.87 99.2969 125.787 98.8906C126.704 98.4844 127.745 98.2812 128.912 98.2812C130.1 98.2812 131.136 98.4844 132.021 98.8906C132.912 99.2969 133.605 99.862 134.1 100.586C134.594 101.31 134.85 102.148 134.865 103.102H131.623ZM142.719 114.734C141.505 114.734 140.456 114.477 139.57 113.961C138.69 113.44 138.01 112.716 137.531 111.789C137.052 110.857 136.813 109.776 136.813 108.547C136.813 107.307 137.052 106.224 137.531 105.297C138.01 104.365 138.69 103.641 139.57 103.125C140.456 102.604 141.505 102.344 142.719 102.344C143.932 102.344 144.979 102.604 145.859 103.125C146.745 103.641 147.427 104.365 147.906 105.297C148.385 106.224 148.625 107.307 148.625 108.547C148.625 109.776 148.385 110.857 147.906 111.789C147.427 112.716 146.745 113.44 145.859 113.961C144.979 114.477 143.932 114.734 142.719 114.734ZM142.734 112.156C143.286 112.156 143.747 112 144.117 111.688C144.487 111.37 144.766 110.937 144.953 110.391C145.146 109.844 145.242 109.221 145.242 108.523C145.242 107.826 145.146 107.203 144.953 106.656C144.766 106.109 144.487 105.677 144.117 105.359C143.747 105.042 143.286 104.883 142.734 104.883C142.177 104.883 141.708 105.042 141.328 105.359C140.953 105.677 140.669 106.109 140.477 106.656C140.289 107.203 140.195 107.826 140.195 108.523C140.195 109.221 140.289 109.844 140.477 110.391C140.669 110.937 140.953 111.37 141.328 111.688C141.708 112 142.177 112.156 142.734 112.156ZM157.242 102.5V105H149.836V102.5H157.242ZM151.531 114.5V101.633C151.531 100.763 151.701 100.042 152.039 99.4687C152.383 98.8958 152.852 98.4661 153.445 98.1797C154.039 97.8932 154.714 97.75 155.469 97.75C155.979 97.75 156.445 97.7891 156.867 97.8672C157.294 97.9453 157.612 98.0156 157.82 98.0781L157.227 100.578C157.096 100.536 156.935 100.497 156.742 100.461C156.555 100.424 156.362 100.406 156.164 100.406C155.674 100.406 155.333 100.521 155.141 100.75C154.948 100.974 154.852 101.289 154.852 101.695V114.5H151.531ZM165.658 102.5V105H158.432V102.5H165.658ZM160.072 99.625H163.4V110.812C163.4 111.12 163.447 111.359 163.541 111.531C163.635 111.698 163.765 111.815 163.932 111.883C164.104 111.951 164.301 111.984 164.525 111.984C164.682 111.984 164.838 111.971 164.994 111.945C165.15 111.914 165.27 111.891 165.354 111.875L165.877 114.352C165.71 114.404 165.476 114.464 165.174 114.531C164.872 114.604 164.505 114.648 164.072 114.664C163.27 114.695 162.567 114.589 161.963 114.344C161.364 114.099 160.898 113.719 160.564 113.203C160.231 112.687 160.067 112.036 160.072 111.25V99.625ZM179.848 98.5V114.5H176.465V101.711H176.371L172.707 104.008V101.008L176.668 98.5H179.848ZM188.773 114.5V102.5H191.945V104.617H192.086C192.336 103.914 192.753 103.359 193.336 102.953C193.919 102.547 194.617 102.344 195.43 102.344C196.253 102.344 196.953 102.549 197.531 102.961C198.109 103.367 198.495 103.919 198.688 104.617H198.813C199.057 103.93 199.5 103.38 200.141 102.969C200.786 102.552 201.549 102.344 202.43 102.344C203.549 102.344 204.458 102.701 205.156 103.414C205.859 104.122 206.211 105.128 206.211 106.43V114.5H202.891V107.086C202.891 106.419 202.714 105.919 202.359 105.586C202.005 105.253 201.563 105.086 201.031 105.086C200.427 105.086 199.956 105.279 199.617 105.664C199.279 106.044 199.109 106.547 199.109 107.172V114.5H195.883V107.016C195.883 106.427 195.714 105.958 195.375 105.609C195.042 105.26 194.602 105.086 194.055 105.086C193.685 105.086 193.352 105.18 193.055 105.367C192.763 105.549 192.531 105.807 192.359 106.141C192.188 106.469 192.102 106.854 192.102 107.297V114.5H188.773ZM212.168 98.5V114.5H208.84V98.5H212.168Z" fill="black"/>
<path d="M1131.23 115.249C1130.29 115.243 1129.39 115.086 1128.52 114.778C1127.66 114.47 1126.88 113.97 1126.19 113.278C1125.51 112.585 1124.96 111.668 1124.56 110.526C1124.16 109.383 1123.97 107.981 1123.97 106.317C1123.97 104.79 1124.15 103.426 1124.49 102.225C1124.84 101.017 1125.34 99.9935 1125.98 99.1531C1126.63 98.3126 1127.41 97.6734 1128.32 97.2354C1129.22 96.7915 1130.24 96.5696 1131.36 96.5696C1132.57 96.5696 1133.64 96.8063 1134.57 97.2798C1135.5 97.7474 1136.25 98.3836 1136.81 99.1886C1137.38 99.9935 1137.72 100.896 1137.84 101.896H1134.05C1133.9 101.263 1133.59 100.766 1133.12 100.405C1132.64 100.044 1132.06 99.8633 1131.36 99.8633C1130.18 99.8633 1129.28 100.378 1128.66 101.408C1128.05 102.438 1127.74 103.838 1127.73 105.607H1127.85C1128.13 105.069 1128.49 104.61 1128.95 104.231C1129.42 103.846 1129.95 103.554 1130.54 103.352C1131.14 103.145 1131.77 103.042 1132.43 103.042C1133.51 103.042 1134.47 103.296 1135.31 103.805C1136.15 104.308 1136.81 105.001 1137.3 105.882C1137.78 106.764 1138.03 107.773 1138.03 108.91C1138.03 110.141 1137.74 111.236 1137.17 112.195C1136.6 113.153 1135.8 113.905 1134.78 114.45C1133.76 114.988 1132.58 115.254 1131.23 115.249ZM1131.21 112.23C1131.8 112.23 1132.33 112.088 1132.8 111.804C1133.27 111.52 1133.63 111.135 1133.9 110.65C1134.17 110.165 1134.3 109.62 1134.3 109.016C1134.3 108.413 1134.17 107.871 1133.9 107.392C1133.64 106.912 1133.28 106.531 1132.82 106.246C1132.35 105.962 1131.83 105.82 1131.24 105.82C1130.79 105.82 1130.38 105.903 1130 106.069C1129.63 106.235 1129.3 106.465 1129.02 106.761C1128.74 107.057 1128.52 107.401 1128.36 107.791C1128.2 108.176 1128.12 108.587 1128.12 109.025C1128.12 109.611 1128.25 110.147 1128.52 110.632C1128.79 111.117 1129.16 111.505 1129.62 111.795C1130.09 112.085 1130.62 112.23 1131.21 112.23ZM1147.54 115.249C1146.17 115.249 1144.95 115.027 1143.89 114.583C1142.83 114.133 1142 113.52 1141.39 112.745C1140.79 111.97 1140.49 111.091 1140.49 110.108C1140.49 109.351 1140.66 108.655 1141 108.022C1141.35 107.383 1141.82 106.853 1142.42 106.433C1143.02 106.007 1143.69 105.734 1144.43 105.616V105.492C1143.46 105.297 1142.67 104.826 1142.07 104.08C1141.46 103.329 1141.16 102.456 1141.16 101.461C1141.16 100.52 1141.44 99.6828 1141.99 98.9489C1142.54 98.209 1143.29 97.629 1144.25 97.2088C1145.22 96.7827 1146.31 96.5696 1147.54 96.5696C1148.76 96.5696 1149.85 96.7827 1150.81 97.2088C1151.78 97.6349 1152.53 98.2179 1153.08 98.9577C1153.63 99.6916 1153.91 100.526 1153.92 101.461C1153.91 102.462 1153.61 103.335 1153 104.08C1152.39 104.826 1151.6 105.297 1150.65 105.492V105.616C1151.38 105.734 1152.04 106.007 1152.63 106.433C1153.23 106.853 1153.7 107.383 1154.05 108.022C1154.41 108.655 1154.59 109.351 1154.59 110.108C1154.59 111.091 1154.28 111.97 1153.68 112.745C1153.08 113.52 1152.24 114.133 1151.18 114.583C1150.12 115.027 1148.9 115.249 1147.54 115.249ZM1147.54 112.425C1148.15 112.425 1148.68 112.316 1149.13 112.097C1149.59 111.872 1149.94 111.564 1150.2 111.174C1150.46 110.777 1150.59 110.321 1150.59 109.806C1150.59 109.28 1150.46 108.815 1150.19 108.413C1149.92 108.004 1149.56 107.685 1149.11 107.454C1148.65 107.217 1148.13 107.099 1147.54 107.099C1146.95 107.099 1146.43 107.217 1145.96 107.454C1145.5 107.685 1145.14 108.004 1144.87 108.413C1144.61 108.815 1144.48 109.28 1144.48 109.806C1144.48 110.321 1144.61 110.777 1144.86 111.174C1145.12 111.564 1145.48 111.872 1145.94 112.097C1146.4 112.316 1146.93 112.425 1147.54 112.425ZM1147.54 104.302C1148.04 104.302 1148.5 104.199 1148.89 103.991C1149.29 103.784 1149.6 103.497 1149.83 103.13C1150.05 102.763 1150.16 102.34 1150.16 101.861C1150.16 101.387 1150.05 100.973 1149.83 100.618C1149.6 100.257 1149.29 99.9757 1148.9 99.7745C1148.51 99.5674 1148.06 99.4638 1147.54 99.4638C1147.02 99.4638 1146.57 99.5674 1146.17 99.7745C1145.77 99.9757 1145.46 100.257 1145.24 100.618C1145.02 100.973 1144.91 101.387 1144.91 101.861C1144.91 102.34 1145.02 102.763 1145.25 103.13C1145.47 103.497 1145.78 103.784 1146.18 103.991C1146.57 104.199 1147.03 104.302 1147.54 104.302ZM1164.41 115.4C1162.88 115.394 1161.57 115.018 1160.47 114.272C1159.37 113.526 1158.53 112.446 1157.94 111.032C1157.35 109.617 1157.06 107.915 1157.07 105.927C1157.07 103.944 1157.36 102.254 1157.95 100.858C1158.54 99.4608 1159.38 98.3984 1160.48 97.6705C1161.58 96.9366 1162.89 96.5696 1164.41 96.5696C1165.93 96.5696 1167.24 96.9366 1168.33 97.6705C1169.44 98.4044 1170.28 99.4697 1170.87 100.866C1171.47 102.257 1171.76 103.944 1171.75 105.927C1171.75 107.921 1171.46 109.626 1170.86 111.04C1170.28 112.455 1169.44 113.535 1168.34 114.281C1167.25 115.027 1165.94 115.4 1164.41 115.4ZM1164.41 112.212C1165.45 112.212 1166.28 111.689 1166.9 110.641C1167.53 109.593 1167.83 108.022 1167.83 105.927C1167.83 104.548 1167.69 103.4 1167.4 102.482C1167.12 101.565 1166.73 100.875 1166.21 100.414C1165.7 99.9521 1165.1 99.7212 1164.41 99.7212C1163.37 99.7212 1162.55 100.239 1161.92 101.275C1161.3 102.311 1160.99 103.861 1160.98 105.927C1160.98 107.324 1161.12 108.49 1161.4 109.425C1161.68 110.354 1162.08 111.052 1162.6 111.52C1163.11 111.982 1163.72 112.212 1164.41 112.212ZM1181.62 115.4C1180.1 115.394 1178.78 115.018 1177.68 114.272C1176.59 113.526 1175.74 112.446 1175.15 111.032C1174.56 109.617 1174.27 107.915 1174.28 105.927C1174.28 103.944 1174.57 102.254 1175.16 100.858C1175.75 99.4608 1176.59 98.3984 1177.69 97.6705C1178.79 96.9366 1180.1 96.5696 1181.62 96.5696C1183.14 96.5696 1184.45 96.9366 1185.55 97.6705C1186.65 98.4044 1187.49 99.4697 1188.09 100.866C1188.68 102.257 1188.97 103.944 1188.96 105.927C1188.96 107.921 1188.67 109.626 1188.08 111.04C1187.49 112.455 1186.65 113.535 1185.56 114.281C1184.46 115.027 1183.15 115.4 1181.62 115.4ZM1181.62 112.212C1182.66 112.212 1183.5 111.689 1184.12 110.641C1184.74 109.593 1185.05 108.022 1185.04 105.927C1185.04 104.548 1184.9 103.4 1184.61 102.482C1184.34 101.565 1183.94 100.875 1183.42 100.414C1182.92 99.9521 1182.31 99.7212 1181.62 99.7212C1180.59 99.7212 1179.76 100.239 1179.14 101.275C1178.51 102.311 1178.2 103.861 1178.2 105.927C1178.2 107.324 1178.33 108.49 1178.61 109.425C1178.9 110.354 1179.3 111.052 1179.81 111.52C1180.33 111.982 1180.93 112.212 1181.62 112.212ZM1205.52 99.6946C1204.82 99.6946 1204.3 99.8337 1203.95 100.112C1203.6 100.39 1203.41 100.79 1203.39 101.31H1199.52C1199.58 100.292 1199.84 99.4312 1200.3 98.7269C1200.75 98.0226 1201.41 97.487 1202.26 97.12C1203.12 96.7531 1204.18 96.5696 1205.45 96.5696C1206.71 96.5696 1207.77 96.7442 1208.65 97.0934C1209.53 97.4426 1210.2 97.9279 1210.66 98.5494C1211.11 99.1708 1211.34 99.8988 1211.34 100.733C1211.34 101.13 1211.26 101.509 1211.11 101.87C1210.96 102.225 1210.75 102.55 1210.5 102.846C1210.24 103.136 1209.97 103.391 1209.67 103.61L1206.61 102.793C1206.92 102.556 1207.16 102.296 1207.31 102.012C1207.47 101.728 1207.55 101.402 1207.54 101.035C1207.55 100.627 1207.38 100.301 1207.03 100.059C1206.69 99.8159 1206.19 99.6946 1205.52 99.6946ZM1212.51 105.146H1198.28V102.598H1212.51V105.146ZM1212.51 108.972H1198.28V106.486H1212.51V108.972ZM1205.45 115.249C1203.4 115.249 1201.86 114.858 1200.81 114.077C1199.77 113.295 1199.25 112.224 1199.24 110.863C1199.25 110.455 1199.33 110.058 1199.51 109.673C1199.68 109.289 1199.9 108.942 1200.18 108.635C1200.46 108.327 1200.76 108.087 1201.1 107.915L1204.13 108.661C1203.79 108.898 1203.53 109.191 1203.35 109.54C1203.17 109.889 1203.08 110.23 1203.08 110.561C1203.08 111.07 1203.29 111.464 1203.71 111.742C1204.14 112.02 1204.72 112.159 1205.45 112.159C1206.17 112.159 1206.76 112.02 1207.2 111.742C1207.65 111.464 1207.9 110.984 1207.93 110.304H1211.85C1211.78 111.446 1211.51 112.381 1211.04 113.109C1210.57 113.837 1209.88 114.376 1208.95 114.725C1208.03 115.074 1206.86 115.249 1205.45 115.249Z" fill="#14142A"/>
<path d="M1.27539 140.5H1252.28V190C1252.28 200.77 1243.54 209.5 1232.78 209.5H20.7754C10.0059 209.5 1.27539 200.77 1.27539 190V140.5Z" fill="white"/>
<path d="M1.27539 140.5H1252.28V190C1252.28 200.77 1243.54 209.5 1232.78 209.5H20.7754C10.0059 209.5 1.27539 200.77 1.27539 190V140.5Z" stroke="#FE68A4"/>
<path d="M27.166 183.5V167.5H33.5723C34.7493 167.5 35.7311 167.674 36.5176 168.023C37.304 168.372 37.8952 168.857 38.291 169.477C38.6868 170.091 38.8848 170.799 38.8848 171.602C38.8848 172.227 38.7598 172.776 38.5098 173.25C38.2598 173.719 37.916 174.104 37.4785 174.406C37.0462 174.703 36.5514 174.914 35.9941 175.039V175.195C36.6035 175.221 37.1738 175.393 37.7051 175.711C38.2415 176.029 38.6764 176.474 39.0098 177.047C39.3431 177.615 39.5098 178.292 39.5098 179.078C39.5098 179.927 39.2988 180.685 38.877 181.352C38.4603 182.013 37.8431 182.536 37.0254 182.922C36.2077 183.307 35.1999 183.5 34.002 183.5H27.166ZM30.5488 180.734H33.3066C34.2493 180.734 34.9368 180.555 35.3691 180.195C35.8014 179.831 36.0176 179.346 36.0176 178.742C36.0176 178.299 35.9108 177.909 35.6973 177.57C35.4837 177.232 35.179 176.966 34.7832 176.773C34.3926 176.581 33.9264 176.484 33.3848 176.484H30.5488V180.734ZM30.5488 174.195H33.0566C33.5202 174.195 33.9316 174.115 34.291 173.953C34.6556 173.786 34.9421 173.552 35.1504 173.25C35.3639 172.948 35.4707 172.586 35.4707 172.164C35.4707 171.586 35.265 171.12 34.8535 170.766C34.4473 170.411 33.8691 170.234 33.1191 170.234H30.5488V174.195ZM47.1172 183.734C45.8828 183.734 44.8203 183.484 43.9297 182.984C43.0443 182.479 42.362 181.766 41.8828 180.844C41.4036 179.917 41.1641 178.82 41.1641 177.555C41.1641 176.32 41.4036 175.237 41.8828 174.305C42.362 173.372 43.0365 172.646 43.9063 172.125C44.7813 171.604 45.8073 171.344 46.9844 171.344C47.776 171.344 48.513 171.471 49.1953 171.727C49.8828 171.977 50.4818 172.354 50.9922 172.859C51.5078 173.365 51.9089 174 52.1953 174.766C52.4818 175.526 52.625 176.417 52.625 177.437V178.352H42.4922V176.289H49.4922C49.4922 175.81 49.388 175.385 49.1797 175.016C48.9714 174.646 48.6823 174.357 48.3125 174.148C47.9479 173.935 47.5234 173.828 47.0391 173.828C46.5339 173.828 46.0859 173.945 45.6953 174.18C45.3099 174.409 45.0078 174.719 44.7891 175.109C44.5703 175.495 44.4583 175.924 44.4531 176.398V178.359C44.4531 178.953 44.5625 179.466 44.7813 179.898C45.0052 180.331 45.3203 180.664 45.7266 180.898C46.1328 181.133 46.6146 181.25 47.1719 181.25C47.5417 181.25 47.8802 181.198 48.1875 181.094C48.4948 180.99 48.7578 180.833 48.9766 180.625C49.1953 180.417 49.362 180.161 49.4766 179.859L52.5547 180.062C52.3984 180.802 52.0781 181.448 51.5938 182C51.1146 182.547 50.4948 182.974 49.7344 183.281C48.9792 183.583 48.1068 183.734 47.1172 183.734ZM58.125 167.5V183.5H54.7969V167.5H58.125ZM66.2129 183.734C64.9993 183.734 63.9499 183.477 63.0645 182.961C62.1842 182.44 61.5046 181.716 61.0254 180.789C60.5462 179.857 60.3066 178.776 60.3066 177.547C60.3066 176.307 60.5462 175.224 61.0254 174.297C61.5046 173.365 62.1842 172.641 63.0645 172.125C63.9499 171.604 64.9993 171.344 66.2129 171.344C67.4264 171.344 68.4733 171.604 69.3535 172.125C70.2389 172.641 70.9212 173.365 71.4004 174.297C71.8796 175.224 72.1191 176.307 72.1191 177.547C72.1191 178.776 71.8796 179.857 71.4004 180.789C70.9212 181.716 70.2389 182.44 69.3535 182.961C68.4733 183.477 67.4264 183.734 66.2129 183.734ZM66.2285 181.156C66.7806 181.156 67.2415 181 67.6113 180.688C67.9811 180.37 68.2598 179.937 68.4473 179.391C68.64 178.844 68.7363 178.221 68.7363 177.523C68.7363 176.826 68.64 176.203 68.4473 175.656C68.2598 175.109 67.9811 174.677 67.6113 174.359C67.2415 174.042 66.7806 173.883 66.2285 173.883C65.6712 173.883 65.2025 174.042 64.8223 174.359C64.4473 174.677 64.1634 175.109 63.9707 175.656C63.7832 176.203 63.6895 176.826 63.6895 177.523C63.6895 178.221 63.7832 178.844 63.9707 179.391C64.1634 179.937 64.4473 180.37 64.8223 180.688C65.2025 181 65.6712 181.156 66.2285 181.156ZM80.666 171.5V174H73.4395V171.5H80.666ZM75.0801 168.625H78.4082V179.812C78.4082 180.12 78.4551 180.359 78.5488 180.531C78.6426 180.698 78.7728 180.815 78.9395 180.883C79.1113 180.951 79.3092 180.984 79.5332 180.984C79.6895 180.984 79.8457 180.971 80.002 180.945C80.1582 180.914 80.278 180.891 80.3613 180.875L80.8848 183.352C80.7181 183.404 80.4837 183.464 80.1816 183.531C79.8796 183.604 79.5124 183.648 79.0801 183.664C78.278 183.695 77.5749 183.589 76.9707 183.344C76.3717 183.099 75.9056 182.719 75.5723 182.203C75.2389 181.687 75.0749 181.036 75.0801 180.25V168.625ZM88.1738 183.734C86.9395 183.734 85.877 183.484 84.9863 182.984C84.1009 182.479 83.4186 181.766 82.9395 180.844C82.4603 179.917 82.2207 178.82 82.2207 177.555C82.2207 176.32 82.4603 175.237 82.9395 174.305C83.4186 173.372 84.0931 172.646 84.9629 172.125C85.8379 171.604 86.8639 171.344 88.041 171.344C88.8327 171.344 89.5697 171.471 90.252 171.727C90.9395 171.977 91.5384 172.354 92.0488 172.859C92.5645 173.365 92.9655 174 93.252 174.766C93.5384 175.526 93.6816 176.417 93.6816 177.437V178.352H83.5488V176.289H90.5488C90.5488 175.81 90.4447 175.385 90.2363 175.016C90.028 174.646 89.7389 174.357 89.3691 174.148C89.0046 173.935 88.5801 173.828 88.0957 173.828C87.5905 173.828 87.1426 173.945 86.752 174.18C86.3665 174.409 86.0645 174.719 85.8457 175.109C85.627 175.495 85.515 175.924 85.5098 176.398V178.359C85.5098 178.953 85.6191 179.466 85.8379 179.898C86.0618 180.331 86.377 180.664 86.7832 180.898C87.1895 181.133 87.6712 181.25 88.2285 181.25C88.5983 181.25 88.9368 181.198 89.2441 181.094C89.5514 180.99 89.8145 180.833 90.0332 180.625C90.252 180.417 90.4186 180.161 90.5332 179.859L93.6113 180.062C93.4551 180.802 93.1348 181.448 92.6504 182C92.1712 182.547 91.5514 182.974 90.791 183.281C90.0358 183.583 89.1634 183.734 88.1738 183.734ZM95.8535 183.5V171.5H99.0801V173.594H99.2051C99.4238 172.849 99.791 172.286 100.307 171.906C100.822 171.521 101.416 171.328 102.088 171.328C102.255 171.328 102.434 171.339 102.627 171.359C102.82 171.38 102.989 171.409 103.135 171.445V174.398C102.979 174.352 102.762 174.31 102.486 174.273C102.21 174.237 101.958 174.219 101.729 174.219C101.239 174.219 100.801 174.326 100.416 174.539C100.036 174.747 99.7337 175.039 99.5098 175.414C99.291 175.789 99.1816 176.221 99.1816 176.711V183.5H95.8535ZM109.719 183.734C108.505 183.734 107.456 183.477 106.57 182.961C105.69 182.44 105.01 181.716 104.531 180.789C104.052 179.857 103.813 178.776 103.813 177.547C103.813 176.307 104.052 175.224 104.531 174.297C105.01 173.365 105.69 172.641 106.57 172.125C107.456 171.604 108.505 171.344 109.719 171.344C110.932 171.344 111.979 171.604 112.859 172.125C113.745 172.641 114.427 173.365 114.906 174.297C115.385 175.224 115.625 176.307 115.625 177.547C115.625 178.776 115.385 179.857 114.906 180.789C114.427 181.716 113.745 182.44 112.859 182.961C111.979 183.477 110.932 183.734 109.719 183.734ZM109.734 181.156C110.286 181.156 110.747 181 111.117 180.688C111.487 180.37 111.766 179.937 111.953 179.391C112.146 178.844 112.242 178.221 112.242 177.523C112.242 176.826 112.146 176.203 111.953 175.656C111.766 175.109 111.487 174.677 111.117 174.359C110.747 174.042 110.286 173.883 109.734 173.883C109.177 173.883 108.708 174.042 108.328 174.359C107.953 174.677 107.669 175.109 107.477 175.656C107.289 176.203 107.195 176.826 107.195 177.523C107.195 178.221 107.289 178.844 107.477 179.391C107.669 179.937 107.953 180.37 108.328 180.688C108.708 181 109.177 181.156 109.734 181.156ZM122.943 183.5V167.5H129.35C130.527 167.5 131.508 167.674 132.295 168.023C133.081 168.372 133.673 168.857 134.068 169.477C134.464 170.091 134.662 170.799 134.662 171.602C134.662 172.227 134.537 172.776 134.287 173.25C134.037 173.719 133.693 174.104 133.256 174.406C132.824 174.703 132.329 174.914 131.771 175.039V175.195C132.381 175.221 132.951 175.393 133.482 175.711C134.019 176.029 134.454 176.474 134.787 177.047C135.12 177.615 135.287 178.292 135.287 179.078C135.287 179.927 135.076 180.685 134.654 181.352C134.238 182.013 133.62 182.536 132.803 182.922C131.985 183.307 130.977 183.5 129.779 183.5H122.943ZM126.326 180.734H129.084C130.027 180.734 130.714 180.555 131.146 180.195C131.579 179.831 131.795 179.346 131.795 178.742C131.795 178.299 131.688 177.909 131.475 177.57C131.261 177.232 130.956 176.966 130.561 176.773C130.17 176.581 129.704 176.484 129.162 176.484H126.326V180.734ZM126.326 174.195H128.834C129.298 174.195 129.709 174.115 130.068 173.953C130.433 173.786 130.719 173.552 130.928 173.25C131.141 172.948 131.248 172.586 131.248 172.164C131.248 171.586 131.042 171.12 130.631 170.766C130.225 170.411 129.646 170.234 128.896 170.234H126.326V174.195ZM140.848 183.727C140.082 183.727 139.4 183.594 138.801 183.328C138.202 183.057 137.728 182.659 137.379 182.133C137.035 181.602 136.863 180.94 136.863 180.148C136.863 179.482 136.986 178.922 137.23 178.469C137.475 178.016 137.809 177.651 138.23 177.375C138.652 177.099 139.132 176.891 139.668 176.75C140.21 176.609 140.777 176.51 141.371 176.453C142.069 176.38 142.632 176.312 143.059 176.25C143.486 176.182 143.796 176.083 143.988 175.953C144.181 175.823 144.277 175.63 144.277 175.375V175.328C144.277 174.833 144.121 174.451 143.809 174.18C143.501 173.909 143.064 173.773 142.496 173.773C141.897 173.773 141.421 173.906 141.066 174.172C140.712 174.432 140.478 174.76 140.363 175.156L137.285 174.906C137.441 174.177 137.749 173.547 138.207 173.016C138.665 172.479 139.257 172.068 139.98 171.781C140.71 171.49 141.553 171.344 142.512 171.344C143.178 171.344 143.816 171.422 144.426 171.578C145.04 171.734 145.585 171.977 146.059 172.305C146.538 172.633 146.915 173.055 147.191 173.57C147.467 174.081 147.605 174.693 147.605 175.406V183.5H144.449V181.836H144.355C144.163 182.211 143.905 182.542 143.582 182.828C143.259 183.109 142.871 183.331 142.418 183.492C141.965 183.648 141.441 183.727 140.848 183.727ZM141.801 181.43C142.29 181.43 142.723 181.333 143.098 181.141C143.473 180.943 143.767 180.677 143.98 180.344C144.194 180.01 144.301 179.633 144.301 179.211V177.938C144.197 178.005 144.053 178.068 143.871 178.125C143.694 178.177 143.493 178.227 143.27 178.273C143.046 178.315 142.822 178.354 142.598 178.391C142.374 178.422 142.171 178.451 141.988 178.477C141.598 178.534 141.257 178.625 140.965 178.75C140.673 178.875 140.447 179.044 140.285 179.258C140.124 179.466 140.043 179.727 140.043 180.039C140.043 180.492 140.207 180.839 140.535 181.078C140.868 181.312 141.29 181.43 141.801 181.43ZM153.516 167.5V183.5H150.188V167.5H153.516ZM159.604 183.727C158.838 183.727 158.156 183.594 157.557 183.328C156.958 183.057 156.484 182.659 156.135 182.133C155.791 181.602 155.619 180.94 155.619 180.148C155.619 179.482 155.742 178.922 155.986 178.469C156.231 178.016 156.564 177.651 156.986 177.375C157.408 177.099 157.887 176.891 158.424 176.75C158.965 176.609 159.533 176.51 160.127 176.453C160.825 176.38 161.387 176.312 161.814 176.25C162.242 176.182 162.551 176.083 162.744 175.953C162.937 175.823 163.033 175.63 163.033 175.375V175.328C163.033 174.833 162.877 174.451 162.564 174.18C162.257 173.909 161.82 173.773 161.252 173.773C160.653 173.773 160.176 173.906 159.822 174.172C159.468 174.432 159.234 174.76 159.119 175.156L156.041 174.906C156.197 174.177 156.505 173.547 156.963 173.016C157.421 172.479 158.012 172.068 158.736 171.781C159.465 171.49 160.309 171.344 161.268 171.344C161.934 171.344 162.572 171.422 163.182 171.578C163.796 171.734 164.34 171.977 164.814 172.305C165.294 172.633 165.671 173.055 165.947 173.57C166.223 174.081 166.361 174.693 166.361 175.406V183.5H163.205V181.836H163.111C162.919 182.211 162.661 182.542 162.338 182.828C162.015 183.109 161.627 183.331 161.174 183.492C160.721 183.648 160.197 183.727 159.604 183.727ZM160.557 181.43C161.046 181.43 161.479 181.333 161.854 181.141C162.229 180.943 162.523 180.677 162.736 180.344C162.95 180.01 163.057 179.633 163.057 179.211V177.938C162.952 178.005 162.809 178.068 162.627 178.125C162.45 178.177 162.249 178.227 162.025 178.273C161.801 178.315 161.577 178.354 161.354 178.391C161.13 178.422 160.926 178.451 160.744 178.477C160.354 178.534 160.012 178.625 159.721 178.75C159.429 178.875 159.202 179.044 159.041 179.258C158.88 179.466 158.799 179.727 158.799 180.039C158.799 180.492 158.963 180.839 159.291 181.078C159.624 181.312 160.046 181.43 160.557 181.43ZM172.271 176.563V183.5H168.943V171.5H172.115V173.617H172.256C172.521 172.919 172.967 172.367 173.592 171.961C174.217 171.549 174.975 171.344 175.865 171.344C176.699 171.344 177.425 171.526 178.045 171.891C178.665 172.255 179.146 172.776 179.49 173.453C179.834 174.125 180.006 174.927 180.006 175.859V183.5H176.678V176.453C176.683 175.719 176.495 175.146 176.115 174.734C175.735 174.318 175.212 174.109 174.545 174.109C174.097 174.109 173.701 174.206 173.357 174.398C173.019 174.591 172.753 174.872 172.561 175.242C172.373 175.607 172.277 176.047 172.271 176.563ZM188.051 183.734C186.822 183.734 185.764 183.474 184.879 182.953C183.999 182.427 183.322 181.698 182.848 180.766C182.379 179.833 182.145 178.76 182.145 177.547C182.145 176.318 182.382 175.24 182.855 174.312C183.335 173.38 184.014 172.654 184.895 172.133C185.775 171.607 186.822 171.344 188.035 171.344C189.082 171.344 189.999 171.534 190.785 171.914C191.572 172.294 192.194 172.828 192.652 173.516C193.111 174.203 193.363 175.01 193.41 175.938H190.27C190.181 175.339 189.947 174.857 189.566 174.492C189.191 174.122 188.699 173.937 188.09 173.937C187.574 173.937 187.124 174.078 186.738 174.359C186.358 174.635 186.061 175.039 185.848 175.57C185.634 176.102 185.527 176.745 185.527 177.5C185.527 178.266 185.632 178.917 185.84 179.453C186.053 179.99 186.353 180.398 186.738 180.68C187.124 180.961 187.574 181.102 188.09 181.102C188.47 181.102 188.811 181.023 189.113 180.867C189.421 180.711 189.673 180.484 189.871 180.187C190.074 179.885 190.207 179.523 190.27 179.102H193.41C193.358 180.018 193.108 180.826 192.66 181.523C192.217 182.216 191.605 182.758 190.824 183.148C190.043 183.539 189.118 183.734 188.051 183.734ZM201.01 183.734C199.775 183.734 198.713 183.484 197.822 182.984C196.937 182.479 196.255 181.766 195.775 180.844C195.296 179.917 195.057 178.82 195.057 177.555C195.057 176.32 195.296 175.237 195.775 174.305C196.255 173.372 196.929 172.646 197.799 172.125C198.674 171.604 199.7 171.344 200.877 171.344C201.669 171.344 202.406 171.471 203.088 171.727C203.775 171.977 204.374 172.354 204.885 172.859C205.4 173.365 205.801 174 206.088 174.766C206.374 175.526 206.518 176.417 206.518 177.437V178.352H196.385V176.289H203.385C203.385 175.81 203.281 175.385 203.072 175.016C202.864 174.646 202.575 174.357 202.205 174.148C201.84 173.935 201.416 173.828 200.932 173.828C200.426 173.828 199.979 173.945 199.588 174.18C199.202 174.409 198.9 174.719 198.682 175.109C198.463 175.495 198.351 175.924 198.346 176.398V178.359C198.346 178.953 198.455 179.466 198.674 179.898C198.898 180.331 199.213 180.664 199.619 180.898C200.025 181.133 200.507 181.25 201.064 181.25C201.434 181.25 201.773 181.198 202.08 181.094C202.387 180.99 202.65 180.833 202.869 180.625C203.088 180.417 203.255 180.161 203.369 179.859L206.447 180.062C206.291 180.802 205.971 181.448 205.486 182C205.007 182.547 204.387 182.974 203.627 183.281C202.872 183.583 201.999 183.734 201.01 183.734ZM220.711 167.5V183.5H217.328V170.711H217.234L213.57 173.008V170.008L217.531 167.5H220.711ZM229.637 183.5V171.5H232.809V173.617H232.949C233.199 172.914 233.616 172.359 234.199 171.953C234.783 171.547 235.48 171.344 236.293 171.344C237.116 171.344 237.816 171.549 238.395 171.961C238.973 172.367 239.358 172.919 239.551 173.617H239.676C239.921 172.93 240.363 172.38 241.004 171.969C241.65 171.552 242.413 171.344 243.293 171.344C244.413 171.344 245.322 171.701 246.02 172.414C246.723 173.122 247.074 174.128 247.074 175.43V183.5H243.754V176.086C243.754 175.419 243.577 174.919 243.223 174.586C242.868 174.253 242.426 174.086 241.895 174.086C241.29 174.086 240.819 174.279 240.48 174.664C240.142 175.044 239.973 175.547 239.973 176.172V183.5H236.746V176.016C236.746 175.427 236.577 174.958 236.238 174.609C235.905 174.26 235.465 174.086 234.918 174.086C234.548 174.086 234.215 174.18 233.918 174.367C233.626 174.549 233.395 174.807 233.223 175.141C233.051 175.469 232.965 175.854 232.965 176.297V183.5H229.637ZM253.031 167.5V183.5H249.703V167.5H253.031Z" fill="black"/>
<path d="M1124.97 184L1132.51 169.085V168.961H1123.73V165.818H1136.48V169.005L1128.94 184H1124.97ZM1145.86 184.4C1144.33 184.394 1143.01 184.018 1141.91 183.272C1140.82 182.526 1139.98 181.446 1139.38 180.032C1138.8 178.617 1138.51 176.915 1138.51 174.927C1138.51 172.944 1138.81 171.254 1139.39 169.858C1139.98 168.461 1140.83 167.398 1141.92 166.67C1143.02 165.937 1144.33 165.57 1145.86 165.57C1147.38 165.57 1148.68 165.937 1149.78 166.67C1150.88 167.404 1151.73 168.47 1152.32 169.866C1152.91 171.257 1153.2 172.944 1153.2 174.927C1153.2 176.921 1152.9 178.626 1152.31 180.04C1151.72 181.455 1150.88 182.535 1149.79 183.281C1148.69 184.027 1147.38 184.4 1145.86 184.4ZM1145.86 181.212C1146.9 181.212 1147.73 180.689 1148.35 179.641C1148.97 178.593 1149.28 177.022 1149.27 174.927C1149.27 173.548 1149.13 172.4 1148.85 171.482C1148.57 170.565 1148.17 169.875 1147.66 169.414C1147.15 168.952 1146.55 168.721 1145.86 168.721C1144.82 168.721 1143.99 169.239 1143.37 170.275C1142.75 171.311 1142.43 172.861 1142.43 174.927C1142.43 176.324 1142.57 177.49 1142.85 178.425C1143.13 179.354 1143.53 180.052 1144.04 180.52C1144.56 180.982 1145.16 181.212 1145.86 181.212ZM1163.07 184.4C1161.54 184.394 1160.23 184.018 1159.13 183.272C1158.03 182.526 1157.19 181.446 1156.6 180.032C1156.01 178.617 1155.72 176.915 1155.73 174.927C1155.73 172.944 1156.02 171.254 1156.6 169.858C1157.2 168.461 1158.04 167.398 1159.13 166.67C1160.24 165.937 1161.55 165.57 1163.07 165.57C1164.59 165.57 1165.9 165.937 1166.99 166.67C1168.09 167.404 1168.94 168.47 1169.53 169.866C1170.12 171.257 1170.42 172.944 1170.41 174.927C1170.41 176.921 1170.11 178.626 1169.52 180.04C1168.94 181.455 1168.1 182.535 1167 183.281C1165.91 184.027 1164.59 184.4 1163.07 184.4ZM1163.07 181.212C1164.11 181.212 1164.94 180.689 1165.56 179.641C1166.18 178.593 1166.49 177.022 1166.49 174.927C1166.49 173.548 1166.34 172.4 1166.06 171.482C1165.78 170.565 1165.38 169.875 1164.87 169.414C1164.36 168.952 1163.76 168.721 1163.07 168.721C1162.03 168.721 1161.2 169.239 1160.58 170.275C1159.96 171.311 1159.65 172.861 1159.64 174.927C1159.64 176.324 1159.78 177.49 1160.06 178.425C1160.34 179.354 1160.74 180.052 1161.26 180.52C1161.77 180.982 1162.38 181.212 1163.07 181.212ZM1180.28 184.4C1178.75 184.394 1177.44 184.018 1176.34 183.272C1175.24 182.526 1174.4 181.446 1173.81 180.032C1173.22 178.617 1172.93 176.915 1172.94 174.927C1172.94 172.944 1173.23 171.254 1173.82 169.858C1174.41 168.461 1175.25 167.398 1176.35 166.67C1177.45 165.937 1178.76 165.57 1180.28 165.57C1181.8 165.57 1183.11 165.937 1184.2 166.67C1185.3 167.404 1186.15 168.47 1186.74 169.866C1187.33 171.257 1187.63 172.944 1187.62 174.927C1187.62 176.921 1187.33 178.626 1186.73 180.04C1186.15 181.455 1185.31 182.535 1184.21 183.281C1183.12 184.027 1181.81 184.4 1180.28 184.4ZM1180.28 181.212C1181.32 181.212 1182.15 180.689 1182.77 179.641C1183.4 178.593 1183.7 177.022 1183.7 174.927C1183.7 173.548 1183.56 172.4 1183.27 171.482C1182.99 170.565 1182.6 169.875 1182.08 169.414C1181.57 168.952 1180.97 168.721 1180.28 168.721C1179.24 168.721 1178.42 169.239 1177.79 170.275C1177.17 171.311 1176.86 172.861 1176.85 174.927C1176.85 176.324 1176.99 177.49 1177.27 178.425C1177.55 179.354 1177.95 180.052 1178.47 180.52C1178.98 180.982 1179.59 181.212 1180.28 181.212ZM1204.17 168.695C1203.48 168.695 1202.96 168.834 1202.6 169.112C1202.25 169.39 1202.07 169.79 1202.04 170.31H1198.17C1198.24 169.292 1198.5 168.431 1198.95 167.727C1199.41 167.023 1200.06 166.487 1200.92 166.12C1201.77 165.753 1202.84 165.57 1204.1 165.57C1205.36 165.57 1206.43 165.744 1207.31 166.093C1208.19 166.443 1208.86 166.928 1209.31 167.549C1209.77 168.171 1210 168.899 1210 169.733C1210 170.13 1209.92 170.509 1209.77 170.87C1209.61 171.225 1209.41 171.55 1209.15 171.846C1208.9 172.136 1208.62 172.391 1208.33 172.61L1205.27 171.793C1205.58 171.556 1205.81 171.296 1205.97 171.012C1206.13 170.728 1206.2 170.402 1206.2 170.035C1206.2 169.627 1206.04 169.301 1205.69 169.059C1205.35 168.816 1204.84 168.695 1204.17 168.695ZM1211.17 174.146H1196.94V171.598H1211.17V174.146ZM1211.17 177.972H1196.94V175.486H1211.17V177.972ZM1204.1 184.249C1202.06 184.249 1200.52 183.858 1199.47 183.077C1198.43 182.295 1197.9 181.224 1197.9 179.863C1197.9 179.455 1197.99 179.058 1198.16 178.673C1198.34 178.289 1198.56 177.942 1198.84 177.635C1199.12 177.327 1199.42 177.087 1199.75 176.915L1202.79 177.661C1202.45 177.898 1202.19 178.191 1202.01 178.54C1201.83 178.889 1201.74 179.23 1201.73 179.561C1201.74 180.07 1201.95 180.464 1202.37 180.742C1202.8 181.02 1203.38 181.159 1204.1 181.159C1204.83 181.159 1205.42 181.02 1205.86 180.742C1206.31 180.464 1206.55 179.984 1206.59 179.304H1210.5C1210.44 180.446 1210.17 181.381 1209.7 182.109C1209.23 182.837 1208.53 183.376 1207.61 183.725C1206.69 184.074 1205.52 184.249 1204.1 184.249Z" fill="#14142A"/>
</svg>
