<svg width="1253" height="234" viewBox="0 0 1253 234" fill="none" xmlns="http://www.w3.org/2000/svg">
<path d="M0.775391 20C0.775391 8.9543 9.7297 0 20.7754 0H1232.78C1243.82 0 1252.78 8.95431 1252.78 20V71H0.775391V20Z" fill="#FFA7CA"/>
<path d="M38.8585 45L32.7832 36.9396H31.4167V45H27.4189V26.0909H31.4167V33.6435H32.22L38.4984 26.0909H43.475L36.0978 34.8622L43.8166 45H38.8585ZM51.1199 45.277C49.6857 45.277 48.4454 44.9723 47.399 44.3629C46.3587 43.7474 45.5555 42.8918 44.9892 41.7962C44.4229 40.6944 44.1397 39.4171 44.1397 37.9645C44.1397 36.4995 44.4229 35.2192 44.9892 34.1236C45.5555 33.0218 46.3587 32.1662 47.399 31.5568C48.4454 30.9413 49.6857 30.6335 51.1199 30.6335C52.554 30.6335 53.7913 30.9413 54.8315 31.5568C55.8779 32.1662 56.6842 33.0218 57.2505 34.1236C57.8168 35.2192 58.1 36.4995 58.1 37.9645C58.1 39.4171 57.8168 40.6944 57.2505 41.7962C56.6842 42.8918 55.8779 43.7474 54.8315 44.3629C53.7913 44.9723 52.554 45.277 51.1199 45.277ZM51.1383 42.2301C51.7908 42.2301 52.3355 42.0455 52.7725 41.6761C53.2096 41.3007 53.5389 40.7898 53.7605 40.1435C53.9882 39.4972 54.1021 38.7616 54.1021 37.9368C54.1021 37.112 53.9882 36.3764 53.7605 35.7301C53.5389 35.0838 53.2096 34.5729 52.7725 34.1974C52.3355 33.822 51.7908 33.6342 51.1383 33.6342C50.4797 33.6342 49.9257 33.822 49.4764 34.1974C49.0332 34.5729 48.6977 35.0838 48.47 35.7301C48.2484 36.3764 48.1376 37.112 48.1376 37.9368C48.1376 38.7616 48.2484 39.4972 48.47 40.1435C48.6977 40.7898 49.0332 41.3007 49.4764 41.6761C49.9257 42.0455 50.4797 42.2301 51.1383 42.2301ZM70.5275 36.3395V39.4325H63.1227V36.3395H70.5275ZM64.4153 30.8182V45H60.6575V30.8182H64.4153ZM72.9927 30.8182V45H69.2626V30.8182H72.9927ZM82.4519 45.277C80.9992 45.277 79.7497 44.9692 78.7033 44.3537C77.6631 43.732 76.8629 42.8703 76.3027 41.7685C75.7488 40.6667 75.4718 39.3987 75.4718 37.9645C75.4718 36.5118 75.7518 35.2377 76.312 34.142C76.8783 33.0402 77.6815 32.1816 78.7218 31.5661C79.762 30.9444 80.9992 30.6335 82.4334 30.6335C83.6706 30.6335 84.754 30.8582 85.6834 31.3075C86.6129 31.7569 87.3484 32.3878 87.8901 33.2003C88.4318 34.0128 88.7303 34.9669 88.7857 36.0625H85.074C84.9694 35.3546 84.6924 34.7853 84.2431 34.3544C83.7999 33.9174 83.2182 33.6989 82.498 33.6989C81.8887 33.6989 81.3562 33.8651 80.9007 34.1974C80.4514 34.5237 80.1006 35.0007 79.8482 35.6286C79.5958 36.2564 79.4696 37.0166 79.4696 37.9091C79.4696 38.8139 79.5927 39.5833 79.839 40.2173C80.0913 40.8513 80.4453 41.3345 80.9007 41.6669C81.3562 41.9993 81.8887 42.1655 82.498 42.1655C82.9474 42.1655 83.3506 42.0732 83.7076 41.8885C84.0707 41.7038 84.3693 41.4361 84.6032 41.0852C84.8432 40.7282 85.0002 40.3004 85.074 39.8018H88.7857C88.7241 40.8852 88.4287 41.8393 87.8993 42.6641C87.3761 43.4827 86.6529 44.1229 85.7296 44.5845C84.8063 45.0462 83.7137 45.277 82.4519 45.277ZM93.7322 50.3182C93.2337 50.3182 92.7659 50.2782 92.3288 50.1982C91.898 50.1243 91.541 50.0289 91.2578 49.9119L92.1442 46.9759C92.6058 47.1174 93.0213 47.1944 93.3906 47.2067C93.7661 47.219 94.0893 47.1328 94.3601 46.9482C94.6371 46.7635 94.8617 46.4496 95.0341 46.0064L95.2649 45.4062L90.1776 30.8182H94.3139L97.25 41.233H97.3977L100.362 30.8182H104.526L99.0135 46.5327C98.7488 47.2959 98.3887 47.9607 97.9332 48.527C97.4839 49.0994 96.9145 49.5395 96.2251 49.8473C95.5357 50.1612 94.7048 50.3182 93.7322 50.3182ZM104.565 45L104.546 41.8793H105.017C105.35 41.8793 105.636 41.7992 105.876 41.6392C106.122 41.473 106.325 41.2053 106.485 40.8359C106.645 40.4666 106.771 39.9773 106.864 39.3679C106.956 38.7524 107.018 37.9953 107.048 37.0966L107.279 30.8182H118.063V45H114.315V33.9112H110.816L110.594 38.2415C110.539 39.4295 110.394 40.4512 110.16 41.3068C109.932 42.1624 109.615 42.8641 109.209 43.4119C108.803 43.9536 108.313 44.3537 107.741 44.6122C107.169 44.8707 106.504 45 105.747 45H104.565ZM123.578 35.1761H127.816C129.693 35.1761 131.158 35.6255 132.211 36.5241C133.263 37.4167 133.789 38.6108 133.789 40.1065C133.789 41.0791 133.552 41.9347 133.078 42.6733C132.605 43.4058 131.921 43.9782 131.029 44.3906C130.136 44.7969 129.065 45 127.816 45H121.113V30.8182H124.87V41.907H127.816C128.474 41.907 129.016 41.7408 129.441 41.4084C129.865 41.076 130.081 40.6513 130.087 40.1342C130.081 39.5864 129.865 39.1402 129.441 38.7955C129.016 38.4446 128.474 38.2692 127.816 38.2692H123.578V35.1761ZM134.186 33.9112V30.8182H147.039V33.9112H142.468V45H138.72V33.9112H134.186ZM152.959 45.2678C152.055 45.2678 151.248 45.1108 150.54 44.7969C149.832 44.4768 149.272 44.0059 148.86 43.3842C148.454 42.7564 148.251 41.9747 148.251 41.0391C148.251 40.2512 148.395 39.5895 148.684 39.054C148.974 38.5185 149.368 38.0876 149.866 37.7614C150.365 37.4351 150.931 37.1889 151.565 37.0227C152.205 36.8565 152.876 36.7396 153.578 36.6719C154.403 36.5857 155.068 36.5057 155.572 36.4318C156.077 36.3518 156.443 36.2348 156.671 36.081C156.899 35.9271 157.013 35.6993 157.013 35.3977V35.3423C157.013 34.7576 156.828 34.3052 156.459 33.9851C156.095 33.665 155.578 33.505 154.907 33.505C154.2 33.505 153.636 33.6619 153.218 33.9759C152.799 34.2836 152.522 34.6714 152.387 35.1392L148.749 34.8438C148.934 33.982 149.297 33.2372 149.839 32.6094C150.38 31.9754 151.079 31.4891 151.934 31.1506C152.796 30.8059 153.793 30.6335 154.926 30.6335C155.714 30.6335 156.468 30.7259 157.188 30.9105C157.914 31.0952 158.558 31.3814 159.118 31.7692C159.684 32.157 160.13 32.6555 160.456 33.2649C160.783 33.8681 160.946 34.5914 160.946 35.4347V45H157.216V43.0334H157.105C156.877 43.4766 156.573 43.8674 156.191 44.206C155.809 44.5384 155.351 44.8 154.815 44.9908C154.28 45.1754 153.661 45.2678 152.959 45.2678ZM154.086 42.5533C154.664 42.5533 155.175 42.4394 155.618 42.2116C156.062 41.9777 156.409 41.6638 156.662 41.2699C156.914 40.8759 157.04 40.4297 157.04 39.9311V38.4261C156.917 38.5062 156.748 38.58 156.532 38.6477C156.323 38.7093 156.086 38.7678 155.822 38.8232C155.557 38.8724 155.292 38.9186 155.028 38.9616C154.763 38.9986 154.523 39.0324 154.307 39.0632C153.846 39.1309 153.443 39.2386 153.098 39.3864C152.753 39.5341 152.485 39.7341 152.295 39.9865C152.104 40.2327 152.008 40.5405 152.008 40.9098C152.008 41.4453 152.202 41.8546 152.59 42.1378C152.984 42.4148 153.483 42.5533 154.086 42.5533ZM176.397 30.8182V42.2855H178.659V49.5611H174.837V45H163.997V30.8182H167.755V41.907H172.686V30.8182H176.397ZM181.085 45V30.8182H185.018V45H181.085ZM183.061 28.9901C182.476 28.9901 181.975 28.7962 181.556 28.4084C181.144 28.0144 180.938 27.5436 180.938 26.9957C180.938 26.4541 181.144 25.9893 181.556 25.6016C181.975 25.2076 182.476 25.0107 183.061 25.0107C183.646 25.0107 184.144 25.2076 184.557 25.6016C184.975 25.9893 185.185 26.4541 185.185 26.9957C185.185 27.5436 184.975 28.0144 184.557 28.4084C184.144 28.7962 183.646 28.9901 183.061 28.9901ZM196.479 45V33.902H193.82C193.1 33.902 192.552 34.0682 192.176 34.4006C191.801 34.733 191.616 35.1269 191.622 35.5824C191.616 36.044 191.795 36.4349 192.158 36.755C192.527 37.0689 193.069 37.2259 193.783 37.2259H197.79V39.8849H193.783C192.57 39.8849 191.521 39.7003 190.634 39.331C189.748 38.9616 189.065 38.4477 188.585 37.7891C188.105 37.1243 187.868 36.3518 187.874 35.4716C187.868 34.5483 188.105 33.7389 188.585 33.0433C189.065 32.3416 189.751 31.7969 190.644 31.4091C191.542 31.0152 192.601 30.8182 193.82 30.8182H200.144V45H196.479ZM187.468 45L191.41 37.6136H195.168L191.235 45H187.468Z" fill="#14142A"/>
<mask id="path-3-inside-1_292_2035" fill="white">
<path d="M0.775391 71H1252.78V165H0.775391V71Z"/>
</mask>
<path d="M0.775391 71H1252.78V165H0.775391V71Z" fill="white"/>
<path d="M1252.78 165V166H1253.78V165H1252.78ZM0.775391 165H-0.224609V166H0.775391V165ZM1251.78 71V165H1253.78V71H1251.78ZM1252.78 164H0.775391V166H1252.78V164ZM1.77539 165V71H-0.224609V165H1.77539Z" fill="#FE68A4" mask="url(#path-3-inside-1_292_2035)"/>
<path d="M36.8457 113L31.7051 106.18H30.5488V113H27.166V97H30.5488V103.391H31.2285L36.541 97H40.752L34.5098 104.422L41.041 113H36.8457ZM47.2207 113.234C46.0072 113.234 44.9577 112.977 44.0723 112.461C43.1921 111.94 42.5124 111.216 42.0332 110.289C41.554 109.357 41.3145 108.276 41.3145 107.047C41.3145 105.807 41.554 104.724 42.0332 103.797C42.5124 102.865 43.1921 102.141 44.0723 101.625C44.9577 101.104 46.0072 100.844 47.2207 100.844C48.4342 100.844 49.4811 101.104 50.3613 101.625C51.2467 102.141 51.929 102.865 52.4082 103.797C52.8874 104.724 53.127 105.807 53.127 107.047C53.127 108.276 52.8874 109.357 52.4082 110.289C51.929 111.216 51.2467 111.94 50.3613 112.461C49.4811 112.977 48.4342 113.234 47.2207 113.234ZM47.2363 110.656C47.7884 110.656 48.2493 110.5 48.6191 110.188C48.9889 109.87 49.2676 109.437 49.4551 108.891C49.6478 108.344 49.7441 107.721 49.7441 107.023C49.7441 106.326 49.6478 105.703 49.4551 105.156C49.2676 104.609 48.9889 104.177 48.6191 103.859C48.2493 103.542 47.7884 103.383 47.2363 103.383C46.679 103.383 46.2103 103.542 45.8301 103.859C45.4551 104.177 45.1712 104.609 44.9785 105.156C44.791 105.703 44.6973 106.326 44.6973 107.023C44.6973 107.721 44.791 108.344 44.9785 108.891C45.1712 109.437 45.4551 109.87 45.8301 110.188C46.2103 110.5 46.679 110.656 47.2363 110.656ZM63.6426 105.672V108.289H57.377V105.672H63.6426ZM58.4707 101V113H55.291V101H58.4707ZM65.7285 101V113H62.5723V101H65.7285ZM73.7324 113.234C72.5033 113.234 71.446 112.974 70.5605 112.453C69.6803 111.927 69.0033 111.198 68.5293 110.266C68.0605 109.333 67.8262 108.26 67.8262 107.047C67.8262 105.818 68.0632 104.74 68.5371 103.812C69.0163 102.88 69.696 102.154 70.5762 101.633C71.4564 101.107 72.5033 100.844 73.7168 100.844C74.7637 100.844 75.6803 101.034 76.4668 101.414C77.2533 101.794 77.8757 102.328 78.334 103.016C78.7923 103.703 79.0449 104.51 79.0918 105.438H75.9512C75.8626 104.839 75.6283 104.357 75.248 103.992C74.873 103.622 74.3809 103.437 73.7715 103.437C73.2559 103.437 72.8053 103.578 72.4199 103.859C72.0397 104.135 71.7428 104.539 71.5293 105.07C71.3158 105.602 71.209 106.245 71.209 107C71.209 107.766 71.3132 108.417 71.5215 108.953C71.735 109.49 72.0345 109.898 72.4199 110.18C72.8053 110.461 73.2559 110.602 73.7715 110.602C74.1517 110.602 74.4928 110.523 74.7949 110.367C75.1022 110.211 75.3548 109.984 75.5527 109.687C75.7559 109.385 75.8887 109.023 75.9512 108.602H79.0918C79.0397 109.518 78.7897 110.326 78.3418 111.023C77.8991 111.716 77.2871 112.258 76.5059 112.648C75.7246 113.039 74.8001 113.234 73.7324 113.234ZM83.2773 117.5C82.8555 117.5 82.4596 117.466 82.0898 117.398C81.7253 117.336 81.4232 117.255 81.1836 117.156L81.9336 114.672C82.3242 114.792 82.6758 114.857 82.9883 114.867C83.306 114.878 83.5794 114.805 83.8086 114.648C84.043 114.492 84.2331 114.227 84.3789 113.852L84.5742 113.344L80.2695 101H83.7695L86.2539 109.812H86.3789L88.8867 101H92.4102L87.7461 114.297C87.5221 114.943 87.2174 115.505 86.832 115.984C86.4518 116.469 85.9701 116.841 85.3867 117.102C84.8034 117.367 84.1003 117.5 83.2773 117.5ZM92.4434 113L92.4277 110.359H92.8262C93.1074 110.359 93.3496 110.292 93.5527 110.156C93.7611 110.016 93.9329 109.789 94.0684 109.477C94.2038 109.164 94.3105 108.75 94.3887 108.234C94.4668 107.714 94.5189 107.073 94.5449 106.312L94.7402 101H103.865V113H100.693V103.617H97.7324L97.5449 107.281C97.498 108.286 97.3757 109.151 97.1777 109.875C96.985 110.599 96.7168 111.193 96.373 111.656C96.0293 112.115 95.6152 112.453 95.1309 112.672C94.6465 112.891 94.084 113 93.4434 113H92.4434ZM108.531 104.688H112.117C113.706 104.688 114.945 105.068 115.836 105.828C116.727 106.583 117.172 107.594 117.172 108.859C117.172 109.682 116.971 110.406 116.57 111.031C116.169 111.651 115.591 112.135 114.836 112.484C114.081 112.828 113.174 113 112.117 113H106.445V101H109.625V110.383H112.117C112.674 110.383 113.133 110.242 113.492 109.961C113.852 109.68 114.034 109.32 114.039 108.883C114.034 108.419 113.852 108.042 113.492 107.75C113.133 107.453 112.674 107.305 112.117 107.305H108.531V104.688ZM117.508 103.617V101H128.383V103.617H124.516V113H121.344V103.617H117.508ZM133.393 113.227C132.627 113.227 131.945 113.094 131.346 112.828C130.747 112.557 130.273 112.159 129.924 111.633C129.58 111.102 129.408 110.44 129.408 109.648C129.408 108.982 129.531 108.422 129.775 107.969C130.02 107.516 130.354 107.151 130.775 106.875C131.197 106.599 131.676 106.391 132.213 106.25C132.755 106.109 133.322 106.01 133.916 105.953C134.614 105.88 135.176 105.812 135.604 105.75C136.031 105.682 136.34 105.583 136.533 105.453C136.726 105.323 136.822 105.13 136.822 104.875V104.828C136.822 104.333 136.666 103.951 136.354 103.68C136.046 103.409 135.609 103.273 135.041 103.273C134.442 103.273 133.965 103.406 133.611 103.672C133.257 103.932 133.023 104.26 132.908 104.656L129.83 104.406C129.986 103.677 130.294 103.047 130.752 102.516C131.21 101.979 131.801 101.568 132.525 101.281C133.255 100.99 134.098 100.844 135.057 100.844C135.723 100.844 136.361 100.922 136.971 101.078C137.585 101.234 138.13 101.477 138.604 101.805C139.083 102.133 139.46 102.555 139.736 103.07C140.012 103.581 140.15 104.193 140.15 104.906V113H136.994V111.336H136.9C136.708 111.711 136.45 112.042 136.127 112.328C135.804 112.609 135.416 112.831 134.963 112.992C134.51 113.148 133.986 113.227 133.393 113.227ZM134.346 110.93C134.835 110.93 135.268 110.833 135.643 110.641C136.018 110.443 136.312 110.177 136.525 109.844C136.739 109.51 136.846 109.133 136.846 108.711V107.438C136.742 107.505 136.598 107.568 136.416 107.625C136.239 107.677 136.038 107.727 135.814 107.773C135.59 107.815 135.367 107.854 135.143 107.891C134.919 107.922 134.715 107.951 134.533 107.977C134.143 108.034 133.801 108.125 133.51 108.25C133.218 108.375 132.992 108.544 132.83 108.758C132.669 108.966 132.588 109.227 132.588 109.539C132.588 109.992 132.752 110.339 133.08 110.578C133.413 110.812 133.835 110.93 134.346 110.93ZM153.225 101V110.703H155.139V116.859H151.904V113H142.732V101H145.912V110.383H150.084V101H153.225ZM157.191 113V101H160.52V113H157.191ZM158.863 99.4531C158.368 99.4531 157.944 99.2891 157.59 98.9609C157.241 98.6276 157.066 98.2292 157.066 97.7656C157.066 97.3073 157.241 96.9141 157.59 96.5859C157.944 96.2526 158.368 96.0859 158.863 96.0859C159.358 96.0859 159.78 96.2526 160.129 96.5859C160.483 96.9141 160.66 97.3073 160.66 97.7656C160.66 98.2292 160.483 98.6276 160.129 98.9609C159.78 99.2891 159.358 99.4531 158.863 99.4531ZM170.217 113V103.609H167.967C167.357 103.609 166.894 103.75 166.576 104.031C166.258 104.312 166.102 104.646 166.107 105.031C166.102 105.422 166.253 105.753 166.561 106.023C166.873 106.289 167.331 106.422 167.936 106.422H171.326V108.672H167.936C166.91 108.672 166.021 108.516 165.271 108.203C164.521 107.891 163.943 107.456 163.537 106.898C163.131 106.336 162.93 105.682 162.936 104.937C162.93 104.156 163.131 103.471 163.537 102.883C163.943 102.289 164.524 101.828 165.279 101.5C166.04 101.167 166.936 101 167.967 101H173.318V113H170.217ZM162.592 113L165.928 106.75H169.107L165.779 113H162.592ZM180.059 116.516V110.359H180.98C181.246 110.193 181.46 109.927 181.621 109.562C181.788 109.198 181.923 108.768 182.027 108.273C182.137 107.779 182.22 107.245 182.277 106.672C182.34 106.094 182.395 105.51 182.441 104.922L182.754 101H191.957V110.359H193.816V116.516H190.645V113H183.309V116.516H180.059ZM184.293 110.359H188.816V103.562H185.582L185.457 104.922C185.368 106.203 185.241 107.292 185.074 108.188C184.908 109.078 184.647 109.802 184.293 110.359ZM201.225 113.234C199.99 113.234 198.928 112.984 198.037 112.484C197.152 111.979 196.469 111.266 195.99 110.344C195.511 109.417 195.271 108.32 195.271 107.055C195.271 105.82 195.511 104.737 195.99 103.805C196.469 102.872 197.144 102.146 198.014 101.625C198.889 101.104 199.915 100.844 201.092 100.844C201.883 100.844 202.62 100.971 203.303 101.227C203.99 101.477 204.589 101.854 205.1 102.359C205.615 102.865 206.016 103.5 206.303 104.266C206.589 105.026 206.732 105.917 206.732 106.937V107.852H196.6V105.789H203.6C203.6 105.31 203.495 104.885 203.287 104.516C203.079 104.146 202.79 103.857 202.42 103.648C202.055 103.435 201.631 103.328 201.146 103.328C200.641 103.328 200.193 103.445 199.803 103.68C199.417 103.909 199.115 104.219 198.896 104.609C198.678 104.995 198.566 105.424 198.561 105.898V107.859C198.561 108.453 198.67 108.966 198.889 109.398C199.113 109.831 199.428 110.164 199.834 110.398C200.24 110.633 200.722 110.75 201.279 110.75C201.649 110.75 201.988 110.698 202.295 110.594C202.602 110.49 202.865 110.333 203.084 110.125C203.303 109.917 203.469 109.661 203.584 109.359L206.662 109.562C206.506 110.302 206.186 110.948 205.701 111.5C205.222 112.047 204.602 112.474 203.842 112.781C203.087 113.083 202.214 113.234 201.225 113.234ZM208.904 117.5V101H212.186V103.016H212.334C212.48 102.693 212.691 102.365 212.967 102.031C213.248 101.693 213.613 101.411 214.061 101.188C214.514 100.958 215.076 100.844 215.748 100.844C216.623 100.844 217.43 101.073 218.17 101.531C218.91 101.984 219.501 102.669 219.943 103.586C220.386 104.497 220.607 105.641 220.607 107.016C220.607 108.354 220.391 109.484 219.959 110.406C219.532 111.323 218.949 112.018 218.209 112.492C217.475 112.961 216.652 113.195 215.74 113.195C215.094 113.195 214.545 113.089 214.092 112.875C213.644 112.661 213.277 112.393 212.99 112.07C212.704 111.742 212.485 111.411 212.334 111.078H212.232V117.5H208.904ZM212.162 107C212.162 107.714 212.261 108.336 212.459 108.867C212.657 109.398 212.943 109.812 213.318 110.109C213.693 110.401 214.149 110.547 214.686 110.547C215.227 110.547 215.686 110.398 216.061 110.102C216.436 109.799 216.719 109.383 216.912 108.852C217.11 108.315 217.209 107.698 217.209 107C217.209 106.307 217.113 105.698 216.92 105.172C216.727 104.646 216.443 104.234 216.068 103.937C215.693 103.641 215.232 103.492 214.686 103.492C214.144 103.492 213.686 103.635 213.311 103.922C212.941 104.208 212.657 104.615 212.459 105.141C212.261 105.667 212.162 106.286 212.162 107ZM229.92 109.32L233.17 101H235.701L231.021 113H228.811L224.24 101H226.764L229.92 109.32ZM226.006 101V113H222.826V101H226.006ZM233.998 113V101H237.139V113H233.998ZM243.135 113.227C242.369 113.227 241.687 113.094 241.088 112.828C240.489 112.557 240.015 112.159 239.666 111.633C239.322 111.102 239.15 110.44 239.15 109.648C239.15 108.982 239.273 108.422 239.518 107.969C239.762 107.516 240.096 107.151 240.518 106.875C240.939 106.599 241.419 106.391 241.955 106.25C242.497 106.109 243.064 106.01 243.658 105.953C244.356 105.88 244.919 105.812 245.346 105.75C245.773 105.682 246.083 105.583 246.275 105.453C246.468 105.323 246.564 105.13 246.564 104.875V104.828C246.564 104.333 246.408 103.951 246.096 103.68C245.788 103.409 245.351 103.273 244.783 103.273C244.184 103.273 243.708 103.406 243.354 103.672C242.999 103.932 242.765 104.26 242.65 104.656L239.572 104.406C239.729 103.677 240.036 103.047 240.494 102.516C240.952 101.979 241.544 101.568 242.268 101.281C242.997 100.99 243.84 100.844 244.799 100.844C245.465 100.844 246.104 100.922 246.713 101.078C247.327 101.234 247.872 101.477 248.346 101.805C248.825 102.133 249.202 102.555 249.479 103.07C249.755 103.581 249.893 104.193 249.893 104.906V113H246.736V111.336H246.643C246.45 111.711 246.192 112.042 245.869 112.328C245.546 112.609 245.158 112.831 244.705 112.992C244.252 113.148 243.729 113.227 243.135 113.227ZM244.088 110.93C244.577 110.93 245.01 110.833 245.385 110.641C245.76 110.443 246.054 110.177 246.268 109.844C246.481 109.51 246.588 109.133 246.588 108.711V107.438C246.484 107.505 246.34 107.568 246.158 107.625C245.981 107.677 245.781 107.727 245.557 107.773C245.333 107.815 245.109 107.854 244.885 107.891C244.661 107.922 244.458 107.951 244.275 107.977C243.885 108.034 243.544 108.125 243.252 108.25C242.96 108.375 242.734 108.544 242.572 108.758C242.411 108.966 242.33 109.227 242.33 109.539C242.33 109.992 242.494 110.339 242.822 110.578C243.156 110.812 243.577 110.93 244.088 110.93ZM251.27 103.617V101H262.145V103.617H258.277V113H255.105V103.617H251.27ZM269.154 113.234C267.941 113.234 266.891 112.977 266.006 112.461C265.126 111.94 264.446 111.216 263.967 110.289C263.488 109.357 263.248 108.276 263.248 107.047C263.248 105.807 263.488 104.724 263.967 103.797C264.446 102.865 265.126 102.141 266.006 101.625C266.891 101.104 267.941 100.844 269.154 100.844C270.368 100.844 271.415 101.104 272.295 101.625C273.18 102.141 273.863 102.865 274.342 103.797C274.821 104.724 275.061 105.807 275.061 107.047C275.061 108.276 274.821 109.357 274.342 110.289C273.863 111.216 273.18 111.94 272.295 112.461C271.415 112.977 270.368 113.234 269.154 113.234ZM269.17 110.656C269.722 110.656 270.183 110.5 270.553 110.188C270.923 109.87 271.201 109.437 271.389 108.891C271.581 108.344 271.678 107.721 271.678 107.023C271.678 106.326 271.581 105.703 271.389 105.156C271.201 104.609 270.923 104.177 270.553 103.859C270.183 103.542 269.722 103.383 269.17 103.383C268.613 103.383 268.144 103.542 267.764 103.859C267.389 104.177 267.105 104.609 266.912 105.156C266.725 105.703 266.631 106.326 266.631 107.023C266.631 107.721 266.725 108.344 266.912 108.891C267.105 109.437 267.389 109.87 267.764 110.188C268.144 110.5 268.613 110.656 269.17 110.656ZM276.521 113L276.506 110.359H276.904C277.186 110.359 277.428 110.292 277.631 110.156C277.839 110.016 278.011 109.789 278.146 109.477C278.282 109.164 278.389 108.75 278.467 108.234C278.545 107.714 278.597 107.073 278.623 106.312L278.818 101H287.943V113H284.771V103.617H281.811L281.623 107.281C281.576 108.286 281.454 109.151 281.256 109.875C281.063 110.599 280.795 111.193 280.451 111.656C280.107 112.115 279.693 112.453 279.209 112.672C278.725 112.891 278.162 113 277.521 113H276.521ZM295.945 113.234C294.732 113.234 293.682 112.977 292.797 112.461C291.917 111.94 291.237 111.216 290.758 110.289C290.279 109.357 290.039 108.276 290.039 107.047C290.039 105.807 290.279 104.724 290.758 103.797C291.237 102.865 291.917 102.141 292.797 101.625C293.682 101.104 294.732 100.844 295.945 100.844C297.159 100.844 298.206 101.104 299.086 101.625C299.971 102.141 300.654 102.865 301.133 103.797C301.612 104.724 301.852 105.807 301.852 107.047C301.852 108.276 301.612 109.357 301.133 110.289C300.654 111.216 299.971 111.94 299.086 112.461C298.206 112.977 297.159 113.234 295.945 113.234ZM295.961 110.656C296.513 110.656 296.974 110.5 297.344 110.188C297.714 109.87 297.992 109.437 298.18 108.891C298.372 108.344 298.469 107.721 298.469 107.023C298.469 106.326 298.372 105.703 298.18 105.156C297.992 104.609 297.714 104.177 297.344 103.859C296.974 103.542 296.513 103.383 295.961 103.383C295.404 103.383 294.935 103.542 294.555 103.859C294.18 104.177 293.896 104.609 293.703 105.156C293.516 105.703 293.422 106.326 293.422 107.023C293.422 107.721 293.516 108.344 293.703 108.891C293.896 109.437 294.18 109.87 294.555 110.188C294.935 110.5 295.404 110.656 295.961 110.656ZM312.234 101V103.617H307.25V113H304.016V101H312.234ZM317.256 113.227C316.49 113.227 315.808 113.094 315.209 112.828C314.61 112.557 314.136 112.159 313.787 111.633C313.443 111.102 313.271 110.44 313.271 109.648C313.271 108.982 313.394 108.422 313.639 107.969C313.883 107.516 314.217 107.151 314.639 106.875C315.061 106.599 315.54 106.391 316.076 106.25C316.618 106.109 317.186 106.01 317.779 105.953C318.477 105.88 319.04 105.812 319.467 105.75C319.894 105.682 320.204 105.583 320.396 105.453C320.589 105.323 320.686 105.13 320.686 104.875V104.828C320.686 104.333 320.529 103.951 320.217 103.68C319.91 103.409 319.472 103.273 318.904 103.273C318.305 103.273 317.829 103.406 317.475 103.672C317.12 103.932 316.886 104.26 316.771 104.656L313.693 104.406C313.85 103.677 314.157 103.047 314.615 102.516C315.074 101.979 315.665 101.568 316.389 101.281C317.118 100.99 317.962 100.844 318.92 100.844C319.587 100.844 320.225 100.922 320.834 101.078C321.449 101.234 321.993 101.477 322.467 101.805C322.946 102.133 323.324 102.555 323.6 103.07C323.876 103.581 324.014 104.193 324.014 104.906V113H320.857V111.336H320.764C320.571 111.711 320.313 112.042 319.99 112.328C319.667 112.609 319.279 112.831 318.826 112.992C318.373 113.148 317.85 113.227 317.256 113.227ZM318.209 110.93C318.699 110.93 319.131 110.833 319.506 110.641C319.881 110.443 320.175 110.177 320.389 109.844C320.602 109.51 320.709 109.133 320.709 108.711V107.438C320.605 107.505 320.462 107.568 320.279 107.625C320.102 107.677 319.902 107.727 319.678 107.773C319.454 107.815 319.23 107.854 319.006 107.891C318.782 107.922 318.579 107.951 318.396 107.977C318.006 108.034 317.665 108.125 317.373 108.25C317.081 108.375 316.855 108.544 316.693 108.758C316.532 108.966 316.451 109.227 316.451 109.539C316.451 109.992 316.615 110.339 316.943 110.578C317.277 110.812 317.699 110.93 318.209 110.93ZM333.564 96.25L328.408 115.406H325.541L330.697 96.25H333.564ZM334.465 113L334.449 110.359H334.848C335.129 110.359 335.371 110.292 335.574 110.156C335.783 110.016 335.954 109.789 336.09 109.477C336.225 109.164 336.332 108.75 336.41 108.234C336.488 107.714 336.54 107.073 336.566 106.312L336.762 101H345.887V113H342.715V103.617H339.754L339.566 107.281C339.52 108.286 339.397 109.151 339.199 109.875C339.007 110.599 338.738 111.193 338.395 111.656C338.051 112.115 337.637 112.453 337.152 112.672C336.668 112.891 336.105 113 335.465 113H334.465ZM348.467 113V101H351.795V113H348.467ZM350.139 99.4531C349.644 99.4531 349.219 99.2891 348.865 98.9609C348.516 98.6276 348.342 98.2292 348.342 97.7656C348.342 97.3073 348.516 96.9141 348.865 96.5859C349.219 96.2526 349.644 96.0859 350.139 96.0859C350.633 96.0859 351.055 96.2526 351.404 96.5859C351.758 96.9141 351.936 97.3073 351.936 97.7656C351.936 98.2292 351.758 98.6276 351.404 98.9609C351.055 99.2891 350.633 99.4531 350.139 99.4531ZM354.461 113V101H357.789V105.656H358.727L361.992 101H365.898L361.656 106.953L365.945 113H361.992L359.031 108.742H357.789V113H354.461ZM369.6 117.5C369.178 117.5 368.782 117.466 368.412 117.398C368.048 117.336 367.745 117.255 367.506 117.156L368.256 114.672C368.646 114.792 368.998 114.857 369.311 114.867C369.628 114.878 369.902 114.805 370.131 114.648C370.365 114.492 370.555 114.227 370.701 113.852L370.896 113.344L366.592 101H370.092L372.576 109.812H372.701L375.209 101H378.732L374.068 114.297C373.844 114.943 373.54 115.505 373.154 115.984C372.774 116.469 372.292 116.841 371.709 117.102C371.126 117.367 370.423 117.5 369.6 117.5ZM380.436 113V101H385.553C387.032 101 388.201 101.281 389.061 101.844C389.92 102.406 390.35 103.206 390.35 104.242C390.35 104.893 390.107 105.435 389.623 105.867C389.139 106.299 388.467 106.591 387.607 106.742C388.326 106.794 388.938 106.958 389.443 107.234C389.954 107.505 390.342 107.857 390.607 108.289C390.878 108.721 391.014 109.201 391.014 109.727C391.014 110.409 390.831 110.995 390.467 111.484C390.107 111.974 389.579 112.349 388.881 112.609C388.188 112.87 387.342 113 386.342 113H380.436ZM383.537 110.508H386.342C386.805 110.508 387.167 110.398 387.428 110.18C387.693 109.956 387.826 109.651 387.826 109.266C387.826 108.839 387.693 108.503 387.428 108.258C387.167 108.013 386.805 107.891 386.342 107.891H383.537V110.508ZM383.537 105.937H385.623C385.956 105.937 386.24 105.891 386.475 105.797C386.714 105.698 386.896 105.557 387.021 105.375C387.152 105.193 387.217 104.977 387.217 104.727C387.217 104.357 387.068 104.068 386.771 103.859C386.475 103.651 386.068 103.547 385.553 103.547H383.537V105.937ZM396.533 113.227C395.768 113.227 395.085 113.094 394.486 112.828C393.887 112.557 393.413 112.159 393.064 111.633C392.721 111.102 392.549 110.44 392.549 109.648C392.549 108.982 392.671 108.422 392.916 107.969C393.161 107.516 393.494 107.151 393.916 106.875C394.338 106.599 394.817 106.391 395.354 106.25C395.895 106.109 396.463 106.01 397.057 105.953C397.755 105.88 398.317 105.812 398.744 105.75C399.171 105.682 399.481 105.583 399.674 105.453C399.867 105.323 399.963 105.13 399.963 104.875V104.828C399.963 104.333 399.807 103.951 399.494 103.68C399.187 103.409 398.749 103.273 398.182 103.273C397.583 103.273 397.106 103.406 396.752 103.672C396.398 103.932 396.163 104.26 396.049 104.656L392.971 104.406C393.127 103.677 393.434 103.047 393.893 102.516C394.351 101.979 394.942 101.568 395.666 101.281C396.395 100.99 397.239 100.844 398.197 100.844C398.864 100.844 399.502 100.922 400.111 101.078C400.726 101.234 401.27 101.477 401.744 101.805C402.223 102.133 402.601 102.555 402.877 103.07C403.153 103.581 403.291 104.193 403.291 104.906V113H400.135V111.336H400.041C399.848 111.711 399.59 112.042 399.268 112.328C398.945 112.609 398.557 112.831 398.104 112.992C397.65 113.148 397.127 113.227 396.533 113.227ZM397.486 110.93C397.976 110.93 398.408 110.833 398.783 110.641C399.158 110.443 399.452 110.177 399.666 109.844C399.88 109.51 399.986 109.133 399.986 108.711V107.438C399.882 107.505 399.739 107.568 399.557 107.625C399.38 107.677 399.179 107.727 398.955 107.773C398.731 107.815 398.507 107.854 398.283 107.891C398.059 107.922 397.856 107.951 397.674 107.977C397.283 108.034 396.942 108.125 396.65 108.25C396.359 108.375 396.132 108.544 395.971 108.758C395.809 108.966 395.729 109.227 395.729 109.539C395.729 109.992 395.893 110.339 396.221 110.578C396.554 110.812 396.976 110.93 397.486 110.93ZM414.225 105.672V108.289H407.959V105.672H414.225ZM409.053 101V113H405.873V101H409.053ZM416.311 101V113H413.154V101H416.311ZM427.244 105.672V108.289H420.979V105.672H427.244ZM422.072 101V113H418.893V101H422.072ZM429.33 101V113H426.174V101H429.33ZM438.943 113V103.609H436.693C436.084 103.609 435.62 103.75 435.303 104.031C434.985 104.312 434.829 104.646 434.834 105.031C434.829 105.422 434.98 105.753 435.287 106.023C435.6 106.289 436.058 106.422 436.662 106.422H440.053V108.672H436.662C435.636 108.672 434.748 108.516 433.998 108.203C433.248 107.891 432.67 107.456 432.264 106.898C431.857 106.336 431.657 105.682 431.662 104.937C431.657 104.156 431.857 103.471 432.264 102.883C432.67 102.289 433.251 101.828 434.006 101.5C434.766 101.167 435.662 101 436.693 101H442.045V113H438.943ZM431.318 113L434.654 106.75H437.834L434.506 113H431.318ZM453.145 113.227C452.379 113.227 451.697 113.094 451.098 112.828C450.499 112.557 450.025 112.159 449.676 111.633C449.332 111.102 449.16 110.44 449.16 109.648C449.16 108.982 449.283 108.422 449.527 107.969C449.772 107.516 450.105 107.151 450.527 106.875C450.949 106.599 451.428 106.391 451.965 106.25C452.507 106.109 453.074 106.01 453.668 105.953C454.366 105.88 454.928 105.812 455.355 105.75C455.783 105.682 456.092 105.583 456.285 105.453C456.478 105.323 456.574 105.13 456.574 104.875V104.828C456.574 104.333 456.418 103.951 456.105 103.68C455.798 103.409 455.361 103.273 454.793 103.273C454.194 103.273 453.717 103.406 453.363 103.672C453.009 103.932 452.775 104.26 452.66 104.656L449.582 104.406C449.738 103.677 450.046 103.047 450.504 102.516C450.962 101.979 451.553 101.568 452.277 101.281C453.007 100.99 453.85 100.844 454.809 100.844C455.475 100.844 456.113 100.922 456.723 101.078C457.337 101.234 457.882 101.477 458.355 101.805C458.835 102.133 459.212 102.555 459.488 103.07C459.764 103.581 459.902 104.193 459.902 104.906V113H456.746V111.336H456.652C456.46 111.711 456.202 112.042 455.879 112.328C455.556 112.609 455.168 112.831 454.715 112.992C454.262 113.148 453.738 113.227 453.145 113.227ZM454.098 110.93C454.587 110.93 455.02 110.833 455.395 110.641C455.77 110.443 456.064 110.177 456.277 109.844C456.491 109.51 456.598 109.133 456.598 108.711V107.438C456.493 107.505 456.35 107.568 456.168 107.625C455.991 107.677 455.79 107.727 455.566 107.773C455.342 107.815 455.118 107.854 454.895 107.891C454.671 107.922 454.467 107.951 454.285 107.977C453.895 108.034 453.553 108.125 453.262 108.25C452.97 108.375 452.743 108.544 452.582 108.758C452.421 108.966 452.34 109.227 452.34 109.539C452.34 109.992 452.504 110.339 452.832 110.578C453.165 110.812 453.587 110.93 454.098 110.93ZM462.484 113V101H465.813V105.656H466.75L470.016 101H473.922L469.68 106.953L473.969 113H470.016L467.055 108.742H465.813V113H462.484ZM483.727 105.672V108.289H477.461V105.672H483.727ZM478.555 101V113H475.375V101H478.555ZM485.812 101V113H482.656V101H485.812ZM493.863 113.234C492.629 113.234 491.566 112.984 490.676 112.484C489.79 111.979 489.108 111.266 488.629 110.344C488.15 109.417 487.91 108.32 487.91 107.055C487.91 105.82 488.15 104.737 488.629 103.805C489.108 102.872 489.783 102.146 490.652 101.625C491.527 101.104 492.553 100.844 493.73 100.844C494.522 100.844 495.259 100.971 495.941 101.227C496.629 101.477 497.228 101.854 497.738 102.359C498.254 102.865 498.655 103.5 498.941 104.266C499.228 105.026 499.371 105.917 499.371 106.937V107.852H489.238V105.789H496.238C496.238 105.31 496.134 104.885 495.926 104.516C495.717 104.146 495.428 103.857 495.059 103.648C494.694 103.435 494.27 103.328 493.785 103.328C493.28 103.328 492.832 103.445 492.441 103.68C492.056 103.909 491.754 104.219 491.535 104.609C491.316 104.995 491.204 105.424 491.199 105.898V107.859C491.199 108.453 491.309 108.966 491.527 109.398C491.751 109.831 492.066 110.164 492.473 110.398C492.879 110.633 493.361 110.75 493.918 110.75C494.288 110.75 494.626 110.698 494.934 110.594C495.241 110.49 495.504 110.333 495.723 110.125C495.941 109.917 496.108 109.661 496.223 109.359L499.301 109.562C499.145 110.302 498.824 110.948 498.34 111.5C497.861 112.047 497.241 112.474 496.48 112.781C495.725 113.083 494.853 113.234 493.863 113.234ZM27.1035 140V128H37.5957V140H34.416V130.617H30.2441V140H27.1035ZM40.252 144.5V128H43.5332V130.016H43.6816C43.8275 129.693 44.0384 129.365 44.3145 129.031C44.5957 128.693 44.9603 128.411 45.4082 128.188C45.8613 127.958 46.4238 127.844 47.0957 127.844C47.9707 127.844 48.778 128.073 49.5176 128.531C50.2572 128.984 50.8483 129.669 51.291 130.586C51.7337 131.497 51.9551 132.641 51.9551 134.016C51.9551 135.354 51.7389 136.484 51.3066 137.406C50.8796 138.323 50.2962 139.018 49.5566 139.492C48.8223 139.961 47.9993 140.195 47.0879 140.195C46.4421 140.195 45.8926 140.089 45.4395 139.875C44.9915 139.661 44.6243 139.393 44.3379 139.07C44.0514 138.742 43.8327 138.411 43.6816 138.078H43.5801V144.5H40.252ZM43.5098 134C43.5098 134.714 43.6087 135.336 43.8066 135.867C44.0046 136.398 44.291 136.812 44.666 137.109C45.041 137.401 45.4967 137.547 46.0332 137.547C46.5749 137.547 47.0332 137.398 47.4082 137.102C47.7832 136.799 48.0671 136.383 48.2598 135.852C48.4577 135.315 48.5566 134.698 48.5566 134C48.5566 133.307 48.4603 132.698 48.2676 132.172C48.0749 131.646 47.791 131.234 47.416 130.937C47.041 130.641 46.5801 130.492 46.0332 130.492C45.4915 130.492 45.0332 130.635 44.6582 130.922C44.2884 131.208 44.0046 131.615 43.8066 132.141C43.6087 132.667 43.5098 133.286 43.5098 134ZM57.3535 135.609L61.6738 128H64.9551V140H61.7832V132.367L57.4785 140H54.1738V128H57.3535V135.609ZM67.0059 136.602H70.2324C70.248 136.997 70.4251 137.31 70.7637 137.539C71.1022 137.768 71.5397 137.883 72.0762 137.883C72.6178 137.883 73.0736 137.758 73.4434 137.508C73.8132 137.253 73.998 136.888 73.998 136.414C73.998 136.122 73.9251 135.87 73.7793 135.656C73.6335 135.437 73.4303 135.266 73.1699 135.141C72.9095 135.016 72.6074 134.953 72.2637 134.953H70.5371V132.773H72.2637C72.7793 132.773 73.1751 132.654 73.4512 132.414C73.7324 132.174 73.873 131.875 73.873 131.516C73.873 131.109 73.7272 130.784 73.4355 130.539C73.1491 130.289 72.7611 130.164 72.2715 130.164C71.7767 130.164 71.3652 130.276 71.0371 130.5C70.7142 130.719 70.5475 131.005 70.5371 131.359H67.3262C67.3366 130.641 67.5527 130.018 67.9746 129.492C68.4017 128.966 68.9746 128.56 69.6934 128.273C70.4173 127.987 71.2272 127.844 72.123 127.844C73.1022 127.844 73.946 127.982 74.6543 128.258C75.3678 128.529 75.9147 128.917 76.2949 129.422C76.6803 129.927 76.873 130.529 76.873 131.227C76.873 131.862 76.6647 132.393 76.248 132.82C75.8314 133.247 75.248 133.552 74.498 133.734V133.859C74.9928 133.891 75.4408 134.023 75.8418 134.258C76.2428 134.492 76.5632 134.815 76.8027 135.227C77.0423 135.633 77.1621 136.115 77.1621 136.672C77.1621 137.417 76.9434 138.055 76.5059 138.586C76.0736 139.117 75.4746 139.526 74.709 139.812C73.9486 140.094 73.0762 140.234 72.0918 140.234C71.1335 140.234 70.2741 140.096 69.5137 139.82C68.7585 139.539 68.1569 139.128 67.709 138.586C67.2663 138.044 67.0319 137.383 67.0059 136.602ZM87.5547 132.672V135.289H81.2891V132.672H87.5547ZM82.3828 128V140H79.2031V128H82.3828ZM89.6406 128V140H86.4844V128H89.6406ZM95.6445 140.227C94.8789 140.227 94.1966 140.094 93.5977 139.828C92.9987 139.557 92.5247 139.159 92.1758 138.633C91.832 138.102 91.6602 137.44 91.6602 136.648C91.6602 135.982 91.7826 135.422 92.0273 134.969C92.2721 134.516 92.6055 134.151 93.0273 133.875C93.4492 133.599 93.9284 133.391 94.4648 133.25C95.0065 133.109 95.5742 133.01 96.168 132.953C96.8659 132.88 97.4284 132.812 97.8555 132.75C98.2826 132.682 98.5924 132.583 98.7852 132.453C98.9779 132.323 99.0742 132.13 99.0742 131.875V131.828C99.0742 131.333 98.918 130.951 98.6055 130.68C98.2982 130.409 97.8607 130.273 97.293 130.273C96.694 130.273 96.2174 130.406 95.8633 130.672C95.5091 130.932 95.2747 131.26 95.1602 131.656L92.082 131.406C92.2383 130.677 92.5456 130.047 93.0039 129.516C93.4622 128.979 94.0534 128.568 94.7773 128.281C95.5065 127.99 96.3503 127.844 97.3086 127.844C97.9753 127.844 98.6133 127.922 99.2227 128.078C99.8372 128.234 100.382 128.477 100.855 128.805C101.335 129.133 101.712 129.555 101.988 130.07C102.264 130.581 102.402 131.193 102.402 131.906V140H99.2461V138.336H99.1523C98.9596 138.711 98.7018 139.042 98.3789 139.328C98.056 139.609 97.668 139.831 97.2148 139.992C96.7617 140.148 96.2383 140.227 95.6445 140.227ZM96.5977 137.93C97.0872 137.93 97.5195 137.833 97.8945 137.641C98.2695 137.443 98.5638 137.177 98.7773 136.844C98.9909 136.51 99.0977 136.133 99.0977 135.711V134.438C98.9935 134.505 98.8503 134.568 98.668 134.625C98.4909 134.677 98.2904 134.727 98.0664 134.773C97.8424 134.815 97.6185 134.854 97.3945 134.891C97.1706 134.922 96.9674 134.951 96.7852 134.977C96.3945 135.034 96.0534 135.125 95.7617 135.25C95.4701 135.375 95.2435 135.544 95.082 135.758C94.9206 135.966 94.8398 136.227 94.8398 136.539C94.8398 136.992 95.0039 137.339 95.332 137.578C95.6654 137.812 96.0872 137.93 96.5977 137.93ZM115.398 128V140H112.242V128H115.398ZM113.859 133.266V135.891C113.604 136.005 113.286 136.115 112.906 136.219C112.526 136.318 112.128 136.398 111.711 136.461C111.294 136.523 110.904 136.555 110.539 136.555C108.815 136.555 107.458 136.201 106.469 135.492C105.479 134.779 104.984 133.641 104.984 132.078V127.984H108.125V132.078C108.125 132.542 108.203 132.909 108.359 133.18C108.521 133.451 108.776 133.646 109.125 133.766C109.479 133.88 109.951 133.937 110.539 133.937C111.086 133.937 111.622 133.88 112.148 133.766C112.674 133.651 113.245 133.484 113.859 133.266ZM123.451 140.234C122.217 140.234 121.154 139.984 120.264 139.484C119.378 138.979 118.696 138.266 118.217 137.344C117.738 136.417 117.498 135.32 117.498 134.055C117.498 132.82 117.738 131.737 118.217 130.805C118.696 129.872 119.37 129.146 120.24 128.625C121.115 128.104 122.141 127.844 123.318 127.844C124.11 127.844 124.847 127.971 125.529 128.227C126.217 128.477 126.816 128.854 127.326 129.359C127.842 129.865 128.243 130.5 128.529 131.266C128.816 132.026 128.959 132.917 128.959 133.937V134.852H118.826V132.789H125.826C125.826 132.31 125.722 131.885 125.514 131.516C125.305 131.146 125.016 130.857 124.646 130.648C124.282 130.435 123.857 130.328 123.373 130.328C122.868 130.328 122.42 130.445 122.029 130.68C121.644 130.909 121.342 131.219 121.123 131.609C120.904 131.995 120.792 132.424 120.787 132.898V134.859C120.787 135.453 120.896 135.966 121.115 136.398C121.339 136.831 121.654 137.164 122.061 137.398C122.467 137.633 122.949 137.75 123.506 137.75C123.876 137.75 124.214 137.698 124.521 137.594C124.829 137.49 125.092 137.333 125.311 137.125C125.529 136.917 125.696 136.661 125.811 136.359L128.889 136.562C128.732 137.302 128.412 137.948 127.928 138.5C127.449 139.047 126.829 139.474 126.068 139.781C125.313 140.083 124.441 140.234 123.451 140.234ZM139.482 132.672V135.289H133.217V132.672H139.482ZM134.311 128V140H131.131V128H134.311ZM141.568 128V140H138.412V128H141.568ZM152.502 132.672V135.289H146.236V132.672H152.502ZM147.33 128V140H144.15V128H147.33ZM154.588 128V140H151.432V128H154.588ZM164.201 140V130.609H161.951C161.342 130.609 160.878 130.75 160.561 131.031C160.243 131.312 160.087 131.646 160.092 132.031C160.087 132.422 160.238 132.753 160.545 133.023C160.857 133.289 161.316 133.422 161.92 133.422H165.311V135.672H161.92C160.894 135.672 160.006 135.516 159.256 135.203C158.506 134.891 157.928 134.456 157.521 133.898C157.115 133.336 156.915 132.682 156.92 131.937C156.915 131.156 157.115 130.471 157.521 129.883C157.928 129.289 158.508 128.828 159.264 128.5C160.024 128.167 160.92 128 161.951 128H167.303V140H164.201ZM156.576 140L159.912 133.75H163.092L159.764 140H156.576ZM178.402 140.227C177.637 140.227 176.954 140.094 176.355 139.828C175.757 139.557 175.283 139.159 174.934 138.633C174.59 138.102 174.418 137.44 174.418 136.648C174.418 135.982 174.54 135.422 174.785 134.969C175.03 134.516 175.363 134.151 175.785 133.875C176.207 133.599 176.686 133.391 177.223 133.25C177.764 133.109 178.332 133.01 178.926 132.953C179.624 132.88 180.186 132.812 180.613 132.75C181.04 132.682 181.35 132.583 181.543 132.453C181.736 132.323 181.832 132.13 181.832 131.875V131.828C181.832 131.333 181.676 130.951 181.363 130.68C181.056 130.409 180.618 130.273 180.051 130.273C179.452 130.273 178.975 130.406 178.621 130.672C178.267 130.932 178.033 131.26 177.918 131.656L174.84 131.406C174.996 130.677 175.303 130.047 175.762 129.516C176.22 128.979 176.811 128.568 177.535 128.281C178.264 127.99 179.108 127.844 180.066 127.844C180.733 127.844 181.371 127.922 181.98 128.078C182.595 128.234 183.139 128.477 183.613 128.805C184.092 129.133 184.47 129.555 184.746 130.07C185.022 130.581 185.16 131.193 185.16 131.906V140H182.004V138.336H181.91C181.717 138.711 181.46 139.042 181.137 139.328C180.814 139.609 180.426 139.831 179.973 139.992C179.52 140.148 178.996 140.227 178.402 140.227ZM179.355 137.93C179.845 137.93 180.277 137.833 180.652 137.641C181.027 137.443 181.322 137.177 181.535 136.844C181.749 136.51 181.855 136.133 181.855 135.711V134.438C181.751 134.505 181.608 134.568 181.426 134.625C181.249 134.677 181.048 134.727 180.824 134.773C180.6 134.815 180.376 134.854 180.152 134.891C179.928 134.922 179.725 134.951 179.543 134.977C179.152 135.034 178.811 135.125 178.52 135.25C178.228 135.375 178.001 135.544 177.84 135.758C177.678 135.966 177.598 136.227 177.598 136.539C177.598 136.992 177.762 137.339 178.09 137.578C178.423 137.812 178.845 137.93 179.355 137.93ZM196.094 132.672V135.289H189.828V132.672H196.094ZM190.922 128V140H187.742V128H190.922ZM198.18 128V140H195.023V128H198.18ZM204.184 140.227C203.418 140.227 202.736 140.094 202.137 139.828C201.538 139.557 201.064 139.159 200.715 138.633C200.371 138.102 200.199 137.44 200.199 136.648C200.199 135.982 200.322 135.422 200.566 134.969C200.811 134.516 201.145 134.151 201.566 133.875C201.988 133.599 202.467 133.391 203.004 133.25C203.546 133.109 204.113 133.01 204.707 132.953C205.405 132.88 205.967 132.812 206.395 132.75C206.822 132.682 207.132 132.583 207.324 132.453C207.517 132.323 207.613 132.13 207.613 131.875V131.828C207.613 131.333 207.457 130.951 207.145 130.68C206.837 130.409 206.4 130.273 205.832 130.273C205.233 130.273 204.757 130.406 204.402 130.672C204.048 130.932 203.814 131.26 203.699 131.656L200.621 131.406C200.777 130.677 201.085 130.047 201.543 129.516C202.001 128.979 202.592 128.568 203.316 128.281C204.046 127.99 204.889 127.844 205.848 127.844C206.514 127.844 207.152 127.922 207.762 128.078C208.376 128.234 208.921 128.477 209.395 128.805C209.874 129.133 210.251 129.555 210.527 130.07C210.803 130.581 210.941 131.193 210.941 131.906V140H207.785V138.336H207.691C207.499 138.711 207.241 139.042 206.918 139.328C206.595 139.609 206.207 139.831 205.754 139.992C205.301 140.148 204.777 140.227 204.184 140.227ZM205.137 137.93C205.626 137.93 206.059 137.833 206.434 137.641C206.809 137.443 207.103 137.177 207.316 136.844C207.53 136.51 207.637 136.133 207.637 135.711V134.438C207.533 134.505 207.389 134.568 207.207 134.625C207.03 134.677 206.829 134.727 206.605 134.773C206.382 134.815 206.158 134.854 205.934 134.891C205.71 134.922 205.507 134.951 205.324 134.977C204.934 135.034 204.592 135.125 204.301 135.25C204.009 135.375 203.783 135.544 203.621 135.758C203.46 135.966 203.379 136.227 203.379 136.539C203.379 136.992 203.543 137.339 203.871 137.578C204.204 137.812 204.626 137.93 205.137 137.93ZM212.82 140L212.805 137.359H213.203C213.484 137.359 213.727 137.292 213.93 137.156C214.138 137.016 214.31 136.789 214.445 136.477C214.581 136.164 214.688 135.75 214.766 135.234C214.844 134.714 214.896 134.073 214.922 133.312L215.117 128H224.242V140H221.07V130.617H218.109L217.922 134.281C217.875 135.286 217.753 136.151 217.555 136.875C217.362 137.599 217.094 138.193 216.75 138.656C216.406 139.115 215.992 139.453 215.508 139.672C215.023 139.891 214.461 140 213.82 140H212.82ZM226.822 140V128H230.15V140H226.822ZM228.494 126.453C227.999 126.453 227.575 126.289 227.221 125.961C226.872 125.628 226.697 125.229 226.697 124.766C226.697 124.307 226.872 123.914 227.221 123.586C227.575 123.253 227.999 123.086 228.494 123.086C228.989 123.086 229.411 123.253 229.76 123.586C230.114 123.914 230.291 124.307 230.291 124.766C230.291 125.229 230.114 125.628 229.76 125.961C229.411 126.289 228.989 126.453 228.494 126.453ZM232.199 136.602H235.426C235.441 136.997 235.618 137.31 235.957 137.539C236.296 137.768 236.733 137.883 237.27 137.883C237.811 137.883 238.267 137.758 238.637 137.508C239.007 137.253 239.191 136.888 239.191 136.414C239.191 136.122 239.118 135.87 238.973 135.656C238.827 135.437 238.624 135.266 238.363 135.141C238.103 135.016 237.801 134.953 237.457 134.953H235.73V132.773H237.457C237.973 132.773 238.368 132.654 238.645 132.414C238.926 132.174 239.066 131.875 239.066 131.516C239.066 131.109 238.921 130.784 238.629 130.539C238.342 130.289 237.954 130.164 237.465 130.164C236.97 130.164 236.559 130.276 236.23 130.5C235.908 130.719 235.741 131.005 235.73 131.359H232.52C232.53 130.641 232.746 130.018 233.168 129.492C233.595 128.966 234.168 128.56 234.887 128.273C235.611 127.987 236.421 127.844 237.316 127.844C238.296 127.844 239.139 127.982 239.848 128.258C240.561 128.529 241.108 128.917 241.488 129.422C241.874 129.927 242.066 130.529 242.066 131.227C242.066 131.862 241.858 132.393 241.441 132.82C241.025 133.247 240.441 133.552 239.691 133.734V133.859C240.186 133.891 240.634 134.023 241.035 134.258C241.436 134.492 241.757 134.815 241.996 135.227C242.236 135.633 242.355 136.115 242.355 136.672C242.355 137.417 242.137 138.055 241.699 138.586C241.267 139.117 240.668 139.526 239.902 139.812C239.142 140.094 238.27 140.234 237.285 140.234C236.327 140.234 235.467 140.096 234.707 139.82C233.952 139.539 233.35 139.128 232.902 138.586C232.46 138.044 232.225 137.383 232.199 136.602ZM244.396 140V128H247.725V140H244.396ZM246.068 126.453C245.574 126.453 245.149 126.289 244.795 125.961C244.446 125.628 244.271 125.229 244.271 124.766C244.271 124.307 244.446 123.914 244.795 123.586C245.149 123.253 245.574 123.086 246.068 123.086C246.563 123.086 246.985 123.253 247.334 123.586C247.688 123.914 247.865 124.307 247.865 124.766C247.865 125.229 247.688 125.628 247.334 125.961C246.985 126.289 246.563 126.453 246.068 126.453ZM250.391 140V128H255.508C256.987 128 258.156 128.281 259.016 128.844C259.875 129.406 260.305 130.206 260.305 131.242C260.305 131.893 260.063 132.435 259.578 132.867C259.094 133.299 258.422 133.591 257.563 133.742C258.281 133.794 258.893 133.958 259.398 134.234C259.909 134.505 260.297 134.857 260.563 135.289C260.833 135.721 260.969 136.201 260.969 136.727C260.969 137.409 260.786 137.995 260.422 138.484C260.063 138.974 259.534 139.349 258.836 139.609C258.143 139.87 257.297 140 256.297 140H250.391ZM253.492 137.508H256.297C256.76 137.508 257.122 137.398 257.383 137.18C257.648 136.956 257.781 136.651 257.781 136.266C257.781 135.839 257.648 135.503 257.383 135.258C257.122 135.013 256.76 134.891 256.297 134.891H253.492V137.508ZM253.492 132.937H255.578C255.911 132.937 256.195 132.891 256.43 132.797C256.669 132.698 256.852 132.557 256.977 132.375C257.107 132.193 257.172 131.977 257.172 131.727C257.172 131.357 257.023 131.068 256.727 130.859C256.43 130.651 256.023 130.547 255.508 130.547H253.492V132.937ZM270.035 123.25L264.879 142.406H262.012L267.168 123.25H270.035ZM275.061 140.227C274.295 140.227 273.613 140.094 273.014 139.828C272.415 139.557 271.941 139.159 271.592 138.633C271.248 138.102 271.076 137.44 271.076 136.648C271.076 135.982 271.199 135.422 271.443 134.969C271.688 134.516 272.021 134.151 272.443 133.875C272.865 133.599 273.344 133.391 273.881 133.25C274.423 133.109 274.99 133.01 275.584 132.953C276.282 132.88 276.844 132.812 277.271 132.75C277.699 132.682 278.008 132.583 278.201 132.453C278.394 132.323 278.49 132.13 278.49 131.875V131.828C278.49 131.333 278.334 130.951 278.021 130.68C277.714 130.409 277.277 130.273 276.709 130.273C276.11 130.273 275.633 130.406 275.279 130.672C274.925 130.932 274.691 131.26 274.576 131.656L271.498 131.406C271.654 130.677 271.962 130.047 272.42 129.516C272.878 128.979 273.469 128.568 274.193 128.281C274.923 127.99 275.766 127.844 276.725 127.844C277.391 127.844 278.029 127.922 278.639 128.078C279.253 128.234 279.798 128.477 280.271 128.805C280.751 129.133 281.128 129.555 281.404 130.07C281.68 130.581 281.818 131.193 281.818 131.906V140H278.662V138.336H278.568C278.376 138.711 278.118 139.042 277.795 139.328C277.472 139.609 277.084 139.831 276.631 139.992C276.178 140.148 275.654 140.227 275.061 140.227ZM276.014 137.93C276.503 137.93 276.936 137.833 277.311 137.641C277.686 137.443 277.98 137.177 278.193 136.844C278.407 136.51 278.514 136.133 278.514 135.711V134.438C278.41 134.505 278.266 134.568 278.084 134.625C277.907 134.677 277.706 134.727 277.482 134.773C277.258 134.815 277.035 134.854 276.811 134.891C276.587 134.922 276.383 134.951 276.201 134.977C275.811 135.034 275.469 135.125 275.178 135.25C274.886 135.375 274.66 135.544 274.498 135.758C274.337 135.966 274.256 136.227 274.256 136.539C274.256 136.992 274.42 137.339 274.748 137.578C275.081 137.812 275.503 137.93 276.014 137.93ZM294.377 123.594L295.393 125.766C295.054 126.047 294.679 126.255 294.268 126.391C293.856 126.521 293.364 126.607 292.791 126.648C292.223 126.69 291.531 126.719 290.713 126.734C289.786 126.745 289.031 126.893 288.447 127.18C287.864 127.466 287.421 127.917 287.119 128.531C286.817 129.141 286.619 129.937 286.525 130.922H286.643C287.002 130.187 287.507 129.62 288.158 129.219C288.814 128.818 289.624 128.617 290.588 128.617C291.609 128.617 292.502 128.841 293.268 129.289C294.038 129.737 294.637 130.38 295.064 131.219C295.492 132.057 295.705 133.062 295.705 134.234C295.705 135.453 295.465 136.513 294.986 137.414C294.512 138.31 293.838 139.005 292.963 139.5C292.088 139.99 291.046 140.234 289.838 140.234C288.624 140.234 287.577 139.979 286.697 139.469C285.822 138.958 285.145 138.206 284.666 137.211C284.192 136.216 283.955 134.992 283.955 133.539V132.555C283.955 129.664 284.518 127.521 285.643 126.125C286.768 124.729 288.421 124.021 290.604 124C291.197 123.99 291.734 123.987 292.213 123.992C292.692 123.997 293.111 123.974 293.471 123.922C293.835 123.87 294.137 123.76 294.377 123.594ZM289.854 137.656C290.364 137.656 290.801 137.523 291.166 137.258C291.536 136.992 291.82 136.612 292.018 136.117C292.221 135.622 292.322 135.031 292.322 134.344C292.322 133.661 292.221 133.083 292.018 132.609C291.82 132.13 291.536 131.766 291.166 131.516C290.796 131.266 290.354 131.141 289.838 131.141C289.452 131.141 289.106 131.211 288.799 131.352C288.492 131.492 288.229 131.701 288.01 131.977C287.796 132.247 287.63 132.583 287.51 132.984C287.395 133.38 287.338 133.833 287.338 134.344C287.338 135.37 287.559 136.18 288.002 136.773C288.45 137.362 289.067 137.656 289.854 137.656ZM303.336 140.234C302.122 140.234 301.073 139.977 300.188 139.461C299.307 138.94 298.628 138.216 298.148 137.289C297.669 136.357 297.43 135.276 297.43 134.047C297.43 132.807 297.669 131.724 298.148 130.797C298.628 129.865 299.307 129.141 300.188 128.625C301.073 128.104 302.122 127.844 303.336 127.844C304.549 127.844 305.596 128.104 306.477 128.625C307.362 129.141 308.044 129.865 308.523 130.797C309.003 131.724 309.242 132.807 309.242 134.047C309.242 135.276 309.003 136.357 308.523 137.289C308.044 138.216 307.362 138.94 306.477 139.461C305.596 139.977 304.549 140.234 303.336 140.234ZM303.352 137.656C303.904 137.656 304.365 137.5 304.734 137.188C305.104 136.87 305.383 136.437 305.57 135.891C305.763 135.344 305.859 134.721 305.859 134.023C305.859 133.326 305.763 132.703 305.57 132.156C305.383 131.609 305.104 131.177 304.734 130.859C304.365 130.542 303.904 130.383 303.352 130.383C302.794 130.383 302.326 130.542 301.945 130.859C301.57 131.177 301.286 131.609 301.094 132.156C300.906 132.703 300.813 133.326 300.813 134.023C300.813 134.721 300.906 135.344 301.094 135.891C301.286 136.437 301.57 136.87 301.945 137.188C302.326 137.5 302.794 137.656 303.352 137.656ZM321.92 140.234C320.691 140.234 319.633 139.974 318.748 139.453C317.868 138.927 317.191 138.198 316.717 137.266C316.248 136.333 316.014 135.26 316.014 134.047C316.014 132.818 316.251 131.74 316.725 130.812C317.204 129.88 317.883 129.154 318.764 128.633C319.644 128.107 320.691 127.844 321.904 127.844C322.951 127.844 323.868 128.034 324.654 128.414C325.441 128.794 326.063 129.328 326.521 130.016C326.98 130.703 327.232 131.51 327.279 132.438H324.139C324.05 131.839 323.816 131.357 323.436 130.992C323.061 130.622 322.568 130.437 321.959 130.437C321.443 130.437 320.993 130.578 320.607 130.859C320.227 131.135 319.93 131.539 319.717 132.07C319.503 132.602 319.396 133.245 319.396 134C319.396 134.766 319.501 135.417 319.709 135.953C319.923 136.49 320.222 136.898 320.607 137.18C320.993 137.461 321.443 137.602 321.959 137.602C322.339 137.602 322.68 137.523 322.982 137.367C323.29 137.211 323.542 136.984 323.74 136.687C323.943 136.385 324.076 136.023 324.139 135.602H327.279C327.227 136.518 326.977 137.326 326.529 138.023C326.087 138.716 325.475 139.258 324.693 139.648C323.912 140.039 322.988 140.234 321.92 140.234ZM332.127 128L334.33 132.195L336.588 128H340.002L336.525 134L340.096 140H336.697L334.33 135.852L332.002 140H328.564L332.127 134L328.689 128H332.127ZM347.018 140.234C345.783 140.234 344.721 139.984 343.83 139.484C342.945 138.979 342.262 138.266 341.783 137.344C341.304 136.417 341.064 135.32 341.064 134.055C341.064 132.82 341.304 131.737 341.783 130.805C342.262 129.872 342.937 129.146 343.807 128.625C344.682 128.104 345.708 127.844 346.885 127.844C347.676 127.844 348.413 127.971 349.096 128.227C349.783 128.477 350.382 128.854 350.893 129.359C351.408 129.865 351.809 130.5 352.096 131.266C352.382 132.026 352.525 132.917 352.525 133.937V134.852H342.393V132.789H349.393C349.393 132.31 349.288 131.885 349.08 131.516C348.872 131.146 348.583 130.857 348.213 130.648C347.848 130.435 347.424 130.328 346.939 130.328C346.434 130.328 345.986 130.445 345.596 130.68C345.21 130.909 344.908 131.219 344.689 131.609C344.471 131.995 344.359 132.424 344.354 132.898V134.859C344.354 135.453 344.463 135.966 344.682 136.398C344.906 136.831 345.221 137.164 345.627 137.398C346.033 137.633 346.515 137.75 347.072 137.75C347.442 137.75 347.781 137.698 348.088 137.594C348.395 137.49 348.658 137.333 348.877 137.125C349.096 136.917 349.262 136.661 349.377 136.359L352.455 136.562C352.299 137.302 351.979 137.948 351.494 138.5C351.015 139.047 350.395 139.474 349.635 139.781C348.88 140.083 348.007 140.234 347.018 140.234ZM361.791 136.32L365.041 128H367.572L362.893 140H360.682L356.111 128H358.635L361.791 136.32ZM357.877 128V140H354.697V128H357.877ZM365.869 140V128H369.01V140H365.869ZM374.764 135.609L379.084 128H382.365V140H379.193V132.367L374.889 140H371.584V128H374.764V135.609ZM389.422 140L389.406 137.359H389.805C390.086 137.359 390.328 137.292 390.531 137.156C390.74 137.016 390.911 136.789 391.047 136.477C391.182 136.164 391.289 135.75 391.367 135.234C391.445 134.714 391.497 134.073 391.523 133.312L391.719 128H400.844V140H397.672V130.617H394.711L394.523 134.281C394.477 135.286 394.354 136.151 394.156 136.875C393.964 137.599 393.695 138.193 393.352 138.656C393.008 139.115 392.594 139.453 392.109 139.672C391.625 139.891 391.063 140 390.422 140H389.422ZM403.424 140V128H406.752V140H403.424ZM405.096 126.453C404.601 126.453 404.176 126.289 403.822 125.961C403.473 125.628 403.299 125.229 403.299 124.766C403.299 124.307 403.473 123.914 403.822 123.586C404.176 123.253 404.601 123.086 405.096 123.086C405.59 123.086 406.012 123.253 406.361 123.586C406.715 123.914 406.893 124.307 406.893 124.766C406.893 125.229 406.715 125.628 406.361 125.961C406.012 126.289 405.59 126.453 405.096 126.453ZM409.418 140V128H412.746V132.656H413.684L416.949 128H420.855L416.613 133.953L420.902 140H416.949L413.988 135.742H412.746V140H409.418ZM424.557 144.5C424.135 144.5 423.739 144.466 423.369 144.398C423.005 144.336 422.702 144.255 422.463 144.156L423.213 141.672C423.604 141.792 423.955 141.857 424.268 141.867C424.585 141.878 424.859 141.805 425.088 141.648C425.322 141.492 425.512 141.227 425.658 140.852L425.854 140.344L421.549 128H425.049L427.533 136.812H427.658L430.166 128H433.689L429.025 141.297C428.801 141.943 428.497 142.505 428.111 142.984C427.731 143.469 427.249 143.841 426.666 144.102C426.083 144.367 425.38 144.5 424.557 144.5ZM435.393 140V128H440.51C441.989 128 443.158 128.281 444.018 128.844C444.877 129.406 445.307 130.206 445.307 131.242C445.307 131.893 445.064 132.435 444.58 132.867C444.096 133.299 443.424 133.591 442.564 133.742C443.283 133.794 443.895 133.958 444.4 134.234C444.911 134.505 445.299 134.857 445.564 135.289C445.835 135.721 445.971 136.201 445.971 136.727C445.971 137.409 445.788 137.995 445.424 138.484C445.064 138.974 444.536 139.349 443.838 139.609C443.145 139.87 442.299 140 441.299 140H435.393ZM438.494 137.508H441.299C441.762 137.508 442.124 137.398 442.385 137.18C442.65 136.956 442.783 136.651 442.783 136.266C442.783 135.839 442.65 135.503 442.385 135.258C442.124 135.013 441.762 134.891 441.299 134.891H438.494V137.508ZM438.494 132.937H440.58C440.913 132.937 441.197 132.891 441.432 132.797C441.671 132.698 441.854 132.557 441.979 132.375C442.109 132.193 442.174 131.977 442.174 131.727C442.174 131.357 442.025 131.068 441.729 130.859C441.432 130.651 441.025 130.547 440.51 130.547H438.494V132.937ZM451.49 140.227C450.725 140.227 450.042 140.094 449.443 139.828C448.844 139.557 448.37 139.159 448.021 138.633C447.678 138.102 447.506 137.44 447.506 136.648C447.506 135.982 447.628 135.422 447.873 134.969C448.118 134.516 448.451 134.151 448.873 133.875C449.295 133.599 449.774 133.391 450.311 133.25C450.852 133.109 451.42 133.01 452.014 132.953C452.712 132.88 453.274 132.812 453.701 132.75C454.128 132.682 454.438 132.583 454.631 132.453C454.824 132.323 454.92 132.13 454.92 131.875V131.828C454.92 131.333 454.764 130.951 454.451 130.68C454.144 130.409 453.706 130.273 453.139 130.273C452.54 130.273 452.063 130.406 451.709 130.672C451.355 130.932 451.12 131.26 451.006 131.656L447.928 131.406C448.084 130.677 448.391 130.047 448.85 129.516C449.308 128.979 449.899 128.568 450.623 128.281C451.352 127.99 452.196 127.844 453.154 127.844C453.821 127.844 454.459 127.922 455.068 128.078C455.683 128.234 456.227 128.477 456.701 128.805C457.18 129.133 457.558 129.555 457.834 130.07C458.11 130.581 458.248 131.193 458.248 131.906V140H455.092V138.336H454.998C454.805 138.711 454.548 139.042 454.225 139.328C453.902 139.609 453.514 139.831 453.061 139.992C452.607 140.148 452.084 140.227 451.49 140.227ZM452.443 137.93C452.933 137.93 453.365 137.833 453.74 137.641C454.115 137.443 454.41 137.177 454.623 136.844C454.837 136.51 454.943 136.133 454.943 135.711V134.438C454.839 134.505 454.696 134.568 454.514 134.625C454.337 134.677 454.136 134.727 453.912 134.773C453.688 134.815 453.464 134.854 453.24 134.891C453.016 134.922 452.813 134.951 452.631 134.977C452.24 135.034 451.899 135.125 451.607 135.25C451.316 135.375 451.089 135.544 450.928 135.758C450.766 135.966 450.686 136.227 450.686 136.539C450.686 136.992 450.85 137.339 451.178 137.578C451.511 137.812 451.933 137.93 452.443 137.93ZM469.182 132.672V135.289H462.916V132.672H469.182ZM464.01 128V140H460.83V128H464.01ZM471.268 128V140H468.111V128H471.268ZM482.201 132.672V135.289H475.936V132.672H482.201ZM477.029 128V140H473.85V128H477.029ZM484.287 128V140H481.131V128H484.287ZM493.9 140V130.609H491.65C491.041 130.609 490.577 130.75 490.26 131.031C489.942 131.312 489.786 131.646 489.791 132.031C489.786 132.422 489.937 132.753 490.244 133.023C490.557 133.289 491.015 133.422 491.619 133.422H495.01V135.672H491.619C490.593 135.672 489.705 135.516 488.955 135.203C488.205 134.891 487.627 134.456 487.221 133.898C486.814 133.336 486.614 132.682 486.619 131.937C486.614 131.156 486.814 130.471 487.221 129.883C487.627 129.289 488.208 128.828 488.963 128.5C489.723 128.167 490.619 128 491.65 128H497.002V140H493.9ZM486.275 140L489.611 133.75H492.791L489.463 140H486.275Z" fill="#14142A"/>
<path d="M1124.97 127L1132.51 112.085V111.961H1123.73V108.818H1136.48V112.005L1128.94 127H1124.97ZM1145.86 127.4C1144.33 127.394 1143.01 127.018 1141.91 126.272C1140.82 125.526 1139.98 124.446 1139.38 123.032C1138.8 121.617 1138.51 119.915 1138.51 117.927C1138.51 115.944 1138.81 114.254 1139.39 112.858C1139.98 111.461 1140.83 110.398 1141.92 109.67C1143.02 108.937 1144.33 108.57 1145.86 108.57C1147.38 108.57 1148.68 108.937 1149.78 109.67C1150.88 110.404 1151.73 111.47 1152.32 112.866C1152.91 114.257 1153.2 115.944 1153.2 117.927C1153.2 119.921 1152.9 121.626 1152.31 123.04C1151.72 124.455 1150.88 125.535 1149.79 126.281C1148.69 127.027 1147.38 127.4 1145.86 127.4ZM1145.86 124.212C1146.9 124.212 1147.73 123.689 1148.35 122.641C1148.97 121.593 1149.28 120.022 1149.27 117.927C1149.27 116.548 1149.13 115.4 1148.85 114.482C1148.57 113.565 1148.17 112.875 1147.66 112.414C1147.15 111.952 1146.55 111.721 1145.86 111.721C1144.82 111.721 1143.99 112.239 1143.37 113.275C1142.75 114.311 1142.43 115.861 1142.43 117.927C1142.43 119.324 1142.57 120.49 1142.85 121.425C1143.13 122.354 1143.53 123.052 1144.04 123.52C1144.56 123.982 1145.16 124.212 1145.86 124.212ZM1163.07 127.4C1161.54 127.394 1160.23 127.018 1159.13 126.272C1158.03 125.526 1157.19 124.446 1156.6 123.032C1156.01 121.617 1155.72 119.915 1155.73 117.927C1155.73 115.944 1156.02 114.254 1156.6 112.858C1157.2 111.461 1158.04 110.398 1159.13 109.67C1160.24 108.937 1161.55 108.57 1163.07 108.57C1164.59 108.57 1165.9 108.937 1166.99 109.67C1168.09 110.404 1168.94 111.47 1169.53 112.866C1170.12 114.257 1170.42 115.944 1170.41 117.927C1170.41 119.921 1170.11 121.626 1169.52 123.04C1168.94 124.455 1168.1 125.535 1167 126.281C1165.91 127.027 1164.59 127.4 1163.07 127.4ZM1163.07 124.212C1164.11 124.212 1164.94 123.689 1165.56 122.641C1166.18 121.593 1166.49 120.022 1166.49 117.927C1166.49 116.548 1166.34 115.4 1166.06 114.482C1165.78 113.565 1165.38 112.875 1164.87 112.414C1164.36 111.952 1163.76 111.721 1163.07 111.721C1162.03 111.721 1161.2 112.239 1160.58 113.275C1159.96 114.311 1159.65 115.861 1159.64 117.927C1159.64 119.324 1159.78 120.49 1160.06 121.425C1160.34 122.354 1160.74 123.052 1161.26 123.52C1161.77 123.982 1162.38 124.212 1163.07 124.212ZM1186.96 111.695C1186.27 111.695 1185.75 111.834 1185.39 112.112C1185.04 112.39 1184.86 112.79 1184.83 113.31H1180.96C1181.03 112.292 1181.29 111.431 1181.74 110.727C1182.2 110.023 1182.85 109.487 1183.7 109.12C1184.56 108.753 1185.62 108.57 1186.89 108.57C1188.15 108.57 1189.22 108.744 1190.1 109.093C1190.98 109.443 1191.65 109.928 1192.1 110.549C1192.56 111.171 1192.79 111.899 1192.79 112.733C1192.79 113.13 1192.71 113.509 1192.56 113.87C1192.4 114.225 1192.2 114.55 1191.94 114.846C1191.69 115.136 1191.41 115.391 1191.12 115.61L1188.05 114.793C1188.37 114.556 1188.6 114.296 1188.76 114.012C1188.92 113.728 1188.99 113.402 1188.99 113.035C1188.99 112.627 1188.82 112.301 1188.48 112.059C1188.14 111.816 1187.63 111.695 1186.96 111.695ZM1193.96 117.146H1179.73V114.598H1193.96V117.146ZM1193.96 120.972H1179.73V118.486H1193.96V120.972ZM1186.89 127.249C1184.85 127.249 1183.3 126.858 1182.26 126.077C1181.22 125.295 1180.69 124.224 1180.69 122.863C1180.69 122.455 1180.78 122.058 1180.95 121.673C1181.12 121.289 1181.35 120.942 1181.63 120.635C1181.9 120.327 1182.21 120.087 1182.54 119.915L1185.58 120.661C1185.23 120.898 1184.97 121.191 1184.8 121.54C1184.62 121.889 1184.53 122.23 1184.52 122.561C1184.53 123.07 1184.74 123.464 1185.16 123.742C1185.59 124.02 1186.16 124.159 1186.89 124.159C1187.62 124.159 1188.21 124.02 1188.65 123.742C1189.1 123.464 1189.34 122.984 1189.38 122.304H1193.29C1193.23 123.446 1192.96 124.381 1192.48 125.109C1192.02 125.837 1191.32 126.376 1190.4 126.725C1189.47 127.074 1188.31 127.249 1186.89 127.249Z" fill="#14142A"/>
<path d="M1.27539 164.5H1252.28V214C1252.28 224.77 1243.54 233.5 1232.78 233.5H20.7754C10.0059 233.5 1.27539 224.77 1.27539 214V164.5Z" fill="white"/>
<path d="M1.27539 164.5H1252.28V214C1252.28 224.77 1243.54 233.5 1232.78 233.5H20.7754C10.0059 233.5 1.27539 224.77 1.27539 214V164.5Z" stroke="#FE68A4"/>
<path d="M40.7676 191.5V207.5H37.4238V194.25H30.9551V207.5H27.6113V191.5H40.7676ZM49.3477 207.734C48.1341 207.734 47.0846 207.477 46.1992 206.961C45.319 206.44 44.6393 205.716 44.1602 204.789C43.681 203.857 43.4414 202.776 43.4414 201.547C43.4414 200.307 43.681 199.224 44.1602 198.297C44.6393 197.365 45.319 196.641 46.1992 196.125C47.0846 195.604 48.1341 195.344 49.3477 195.344C50.5612 195.344 51.6081 195.604 52.4883 196.125C53.3737 196.641 54.056 197.365 54.5352 198.297C55.0143 199.224 55.2539 200.307 55.2539 201.547C55.2539 202.776 55.0143 203.857 54.5352 204.789C54.056 205.716 53.3737 206.44 52.4883 206.961C51.6081 207.477 50.5612 207.734 49.3477 207.734ZM49.3633 205.156C49.9154 205.156 50.3763 205 50.7461 204.688C51.1159 204.37 51.3945 203.937 51.582 203.391C51.7747 202.844 51.8711 202.221 51.8711 201.523C51.8711 200.826 51.7747 200.203 51.582 199.656C51.3945 199.109 51.1159 198.677 50.7461 198.359C50.3763 198.042 49.9154 197.883 49.3633 197.883C48.806 197.883 48.3372 198.042 47.957 198.359C47.582 198.677 47.2982 199.109 47.1055 199.656C46.918 200.203 46.8242 200.826 46.8242 201.523C46.8242 202.221 46.918 202.844 47.1055 203.391C47.2982 203.937 47.582 204.37 47.957 204.688C48.3372 205 48.806 205.156 49.3633 205.156ZM57.418 207.5V195.5H62.5352C64.0143 195.5 65.1836 195.781 66.043 196.344C66.9023 196.906 67.332 197.706 67.332 198.742C67.332 199.393 67.0898 199.935 66.6055 200.367C66.1211 200.799 65.4492 201.091 64.5898 201.242C65.3086 201.294 65.9206 201.458 66.4258 201.734C66.9362 202.005 67.3242 202.357 67.5898 202.789C67.8607 203.221 67.9961 203.701 67.9961 204.227C67.9961 204.909 67.8138 205.495 67.4492 205.984C67.0898 206.474 66.5612 206.849 65.8633 207.109C65.1706 207.37 64.3242 207.5 63.3242 207.5H57.418ZM60.5195 205.008H63.3242C63.7878 205.008 64.1497 204.898 64.4102 204.68C64.6758 204.456 64.8086 204.151 64.8086 203.766C64.8086 203.339 64.6758 203.003 64.4102 202.758C64.1497 202.513 63.7878 202.391 63.3242 202.391H60.5195V205.008ZM60.5195 200.437H62.6055C62.9388 200.437 63.2227 200.391 63.457 200.297C63.6966 200.198 63.8789 200.057 64.0039 199.875C64.1341 199.693 64.1992 199.477 64.1992 199.227C64.1992 198.857 64.0508 198.568 63.7539 198.359C63.457 198.151 63.0508 198.047 62.5352 198.047H60.5195V200.437ZM69.4687 198.117V195.5H80.3438V198.117H76.4766V207.5H73.3047V198.117H69.4687ZM87.3535 207.734C86.14 207.734 85.0905 207.477 84.2051 206.961C83.3249 206.44 82.6452 205.716 82.166 204.789C81.6868 203.857 81.4473 202.776 81.4473 201.547C81.4473 200.307 81.6868 199.224 82.166 198.297C82.6452 197.365 83.3249 196.641 84.2051 196.125C85.0905 195.604 86.14 195.344 87.3535 195.344C88.5671 195.344 89.6139 195.604 90.4941 196.125C91.3796 196.641 92.0618 197.365 92.541 198.297C93.0202 199.224 93.2598 200.307 93.2598 201.547C93.2598 202.776 93.0202 203.857 92.541 204.789C92.0618 205.716 91.3796 206.44 90.4941 206.961C89.6139 207.477 88.5671 207.734 87.3535 207.734ZM87.3691 205.156C87.9212 205.156 88.3822 205 88.752 204.688C89.1217 204.37 89.4004 203.937 89.5879 203.391C89.7806 202.844 89.877 202.221 89.877 201.523C89.877 200.826 89.7806 200.203 89.5879 199.656C89.4004 199.109 89.1217 198.677 88.752 198.359C88.3822 198.042 87.9212 197.883 87.3691 197.883C86.8118 197.883 86.3431 198.042 85.9629 198.359C85.5879 198.677 85.304 199.109 85.1113 199.656C84.9238 200.203 84.8301 200.826 84.8301 201.523C84.8301 202.221 84.9238 202.844 85.1113 203.391C85.304 203.937 85.5879 204.37 85.9629 204.688C86.3431 205 86.8118 205.156 87.3691 205.156ZM95.4238 212V195.5H98.7051V197.516H98.8535C98.9993 197.193 99.2103 196.865 99.4863 196.531C99.7676 196.193 100.132 195.911 100.58 195.688C101.033 195.458 101.596 195.344 102.268 195.344C103.143 195.344 103.95 195.573 104.689 196.031C105.429 196.484 106.02 197.169 106.463 198.086C106.906 198.997 107.127 200.141 107.127 201.516C107.127 202.854 106.911 203.984 106.479 204.906C106.051 205.823 105.468 206.518 104.729 206.992C103.994 207.461 103.171 207.695 102.26 207.695C101.614 207.695 101.064 207.589 100.611 207.375C100.163 207.161 99.7962 206.893 99.5098 206.57C99.2233 206.242 99.0046 205.911 98.8535 205.578H98.752V212H95.4238ZM98.6816 201.5C98.6816 202.214 98.7806 202.836 98.9785 203.367C99.1764 203.898 99.4629 204.312 99.8379 204.609C100.213 204.901 100.669 205.047 101.205 205.047C101.747 205.047 102.205 204.898 102.58 204.602C102.955 204.299 103.239 203.883 103.432 203.352C103.63 202.815 103.729 202.198 103.729 201.5C103.729 200.807 103.632 200.198 103.439 199.672C103.247 199.146 102.963 198.734 102.588 198.437C102.213 198.141 101.752 197.992 101.205 197.992C100.663 197.992 100.205 198.135 99.8301 198.422C99.4603 198.708 99.1764 199.115 98.9785 199.641C98.7806 200.167 98.6816 200.786 98.6816 201.5ZM117.697 200.172V202.789H111.432V200.172H117.697ZM112.525 195.5V207.5H109.346V195.5H112.525ZM119.783 195.5V207.5H116.627V195.5H119.783ZM125.787 207.727C125.021 207.727 124.339 207.594 123.74 207.328C123.141 207.057 122.667 206.659 122.318 206.133C121.975 205.602 121.803 204.94 121.803 204.148C121.803 203.482 121.925 202.922 122.17 202.469C122.415 202.016 122.748 201.651 123.17 201.375C123.592 201.099 124.071 200.891 124.607 200.75C125.149 200.609 125.717 200.51 126.311 200.453C127.008 200.38 127.571 200.312 127.998 200.25C128.425 200.182 128.735 200.083 128.928 199.953C129.12 199.823 129.217 199.63 129.217 199.375V199.328C129.217 198.833 129.061 198.451 128.748 198.18C128.441 197.909 128.003 197.773 127.436 197.773C126.837 197.773 126.36 197.906 126.006 198.172C125.652 198.432 125.417 198.76 125.303 199.156L122.225 198.906C122.381 198.177 122.688 197.547 123.146 197.016C123.605 196.479 124.196 196.068 124.92 195.781C125.649 195.49 126.493 195.344 127.451 195.344C128.118 195.344 128.756 195.422 129.365 195.578C129.98 195.734 130.524 195.977 130.998 196.305C131.477 196.633 131.855 197.055 132.131 197.57C132.407 198.081 132.545 198.693 132.545 199.406V207.5H129.389V205.836H129.295C129.102 206.211 128.844 206.542 128.521 206.828C128.199 207.109 127.811 207.331 127.357 207.492C126.904 207.648 126.381 207.727 125.787 207.727ZM126.74 205.43C127.23 205.43 127.662 205.333 128.037 205.141C128.412 204.943 128.706 204.677 128.92 204.344C129.133 204.01 129.24 203.633 129.24 203.211V201.938C129.136 202.005 128.993 202.068 128.811 202.125C128.633 202.177 128.433 202.227 128.209 202.273C127.985 202.315 127.761 202.354 127.537 202.391C127.313 202.422 127.11 202.451 126.928 202.477C126.537 202.534 126.196 202.625 125.904 202.75C125.613 202.875 125.386 203.044 125.225 203.258C125.063 203.466 124.982 203.727 124.982 204.039C124.982 204.492 125.146 204.839 125.475 205.078C125.808 205.312 126.23 205.43 126.74 205.43ZM140.219 207.5V195.5H143.547V200.156H144.484L147.75 195.5H151.656L147.414 201.453L151.703 207.5H147.75L144.789 203.242H143.547V207.5H140.219ZM158.037 207.734C156.824 207.734 155.774 207.477 154.889 206.961C154.008 206.44 153.329 205.716 152.85 204.789C152.37 203.857 152.131 202.776 152.131 201.547C152.131 200.307 152.37 199.224 152.85 198.297C153.329 197.365 154.008 196.641 154.889 196.125C155.774 195.604 156.824 195.344 158.037 195.344C159.251 195.344 160.298 195.604 161.178 196.125C162.063 196.641 162.745 197.365 163.225 198.297C163.704 199.224 163.943 200.307 163.943 201.547C163.943 202.776 163.704 203.857 163.225 204.789C162.745 205.716 162.063 206.44 161.178 206.961C160.298 207.477 159.251 207.734 158.037 207.734ZM158.053 205.156C158.605 205.156 159.066 205 159.436 204.688C159.805 204.37 160.084 203.937 160.271 203.391C160.464 202.844 160.561 202.221 160.561 201.523C160.561 200.826 160.464 200.203 160.271 199.656C160.084 199.109 159.805 198.677 159.436 198.359C159.066 198.042 158.605 197.883 158.053 197.883C157.495 197.883 157.027 198.042 156.646 198.359C156.271 198.677 155.988 199.109 155.795 199.656C155.607 200.203 155.514 200.826 155.514 201.523C155.514 202.221 155.607 202.844 155.795 203.391C155.988 203.937 156.271 204.37 156.646 204.688C157.027 205 157.495 205.156 158.053 205.156ZM174.459 200.172V202.789H168.193V200.172H174.459ZM169.287 195.5V207.5H166.107V195.5H169.287ZM176.545 195.5V207.5H173.389V195.5H176.545ZM184.549 207.734C183.32 207.734 182.262 207.474 181.377 206.953C180.497 206.427 179.82 205.698 179.346 204.766C178.877 203.833 178.643 202.76 178.643 201.547C178.643 200.318 178.88 199.24 179.354 198.312C179.833 197.38 180.512 196.654 181.393 196.133C182.273 195.607 183.32 195.344 184.533 195.344C185.58 195.344 186.497 195.534 187.283 195.914C188.07 196.294 188.692 196.828 189.15 197.516C189.609 198.203 189.861 199.01 189.908 199.938H186.768C186.679 199.339 186.445 198.857 186.064 198.492C185.689 198.122 185.197 197.937 184.588 197.937C184.072 197.937 183.622 198.078 183.236 198.359C182.856 198.635 182.559 199.039 182.346 199.57C182.132 200.102 182.025 200.745 182.025 201.5C182.025 202.266 182.13 202.917 182.338 203.453C182.551 203.99 182.851 204.398 183.236 204.68C183.622 204.961 184.072 205.102 184.588 205.102C184.968 205.102 185.309 205.023 185.611 204.867C185.919 204.711 186.171 204.484 186.369 204.187C186.572 203.885 186.705 203.523 186.768 203.102H189.908C189.856 204.018 189.606 204.826 189.158 205.523C188.715 206.216 188.104 206.758 187.322 207.148C186.541 207.539 185.617 207.734 184.549 207.734ZM194.094 212C193.672 212 193.276 211.966 192.906 211.898C192.542 211.836 192.24 211.755 192 211.656L192.75 209.172C193.141 209.292 193.492 209.357 193.805 209.367C194.122 209.378 194.396 209.305 194.625 209.148C194.859 208.992 195.049 208.727 195.195 208.352L195.391 207.844L191.086 195.5H194.586L197.07 204.312H197.195L199.703 195.5H203.227L198.563 208.797C198.339 209.443 198.034 210.005 197.648 210.484C197.268 210.969 196.786 211.341 196.203 211.602C195.62 211.867 194.917 212 194.094 212ZM203.26 207.5L203.244 204.859H203.643C203.924 204.859 204.166 204.792 204.369 204.656C204.577 204.516 204.749 204.289 204.885 203.977C205.02 203.664 205.127 203.25 205.205 202.734C205.283 202.214 205.335 201.573 205.361 200.812L205.557 195.5H214.682V207.5H211.51V198.117H208.549L208.361 201.781C208.314 202.786 208.192 203.651 207.994 204.375C207.801 205.099 207.533 205.693 207.189 206.156C206.846 206.615 206.432 206.953 205.947 207.172C205.463 207.391 204.9 207.5 204.26 207.5H203.26ZM219.348 199.188H222.934C224.522 199.188 225.762 199.568 226.652 200.328C227.543 201.083 227.988 202.094 227.988 203.359C227.988 204.182 227.788 204.906 227.387 205.531C226.986 206.151 226.408 206.635 225.652 206.984C224.897 207.328 223.991 207.5 222.934 207.5H217.262V195.5H220.441V204.883H222.934C223.491 204.883 223.949 204.742 224.309 204.461C224.668 204.18 224.85 203.82 224.855 203.383C224.85 202.919 224.668 202.542 224.309 202.25C223.949 201.953 223.491 201.805 222.934 201.805H219.348V199.188ZM228.324 198.117V195.5H239.199V198.117H235.332V207.5H232.16V198.117H228.324ZM244.209 207.727C243.443 207.727 242.761 207.594 242.162 207.328C241.563 207.057 241.089 206.659 240.74 206.133C240.396 205.602 240.225 204.94 240.225 204.148C240.225 203.482 240.347 202.922 240.592 202.469C240.837 202.016 241.17 201.651 241.592 201.375C242.014 201.099 242.493 200.891 243.029 200.75C243.571 200.609 244.139 200.51 244.732 200.453C245.43 200.38 245.993 200.312 246.42 200.25C246.847 200.182 247.157 200.083 247.35 199.953C247.542 199.823 247.639 199.63 247.639 199.375V199.328C247.639 198.833 247.482 198.451 247.17 198.18C246.863 197.909 246.425 197.773 245.857 197.773C245.258 197.773 244.782 197.906 244.428 198.172C244.074 198.432 243.839 198.76 243.725 199.156L240.646 198.906C240.803 198.177 241.11 197.547 241.568 197.016C242.027 196.479 242.618 196.068 243.342 195.781C244.071 195.49 244.915 195.344 245.873 195.344C246.54 195.344 247.178 195.422 247.787 195.578C248.402 195.734 248.946 195.977 249.42 196.305C249.899 196.633 250.277 197.055 250.553 197.57C250.829 198.081 250.967 198.693 250.967 199.406V207.5H247.811V205.836H247.717C247.524 206.211 247.266 206.542 246.943 206.828C246.62 207.109 246.232 207.331 245.779 207.492C245.326 207.648 244.803 207.727 244.209 207.727ZM245.162 205.43C245.652 205.43 246.084 205.333 246.459 205.141C246.834 204.943 247.128 204.677 247.342 204.344C247.555 204.01 247.662 203.633 247.662 203.211V201.938C247.558 202.005 247.415 202.068 247.232 202.125C247.055 202.177 246.855 202.227 246.631 202.273C246.407 202.315 246.183 202.354 245.959 202.391C245.735 202.422 245.532 202.451 245.35 202.477C244.959 202.534 244.618 202.625 244.326 202.75C244.035 202.875 243.808 203.044 243.646 203.258C243.485 203.466 243.404 203.727 243.404 204.039C243.404 204.492 243.568 204.839 243.896 205.078C244.23 205.312 244.652 205.43 245.162 205.43ZM264.041 195.5V205.203H265.955V211.359H262.721V207.5H253.549V195.5H256.729V204.883H260.9V195.5H264.041ZM268.008 207.5V195.5H271.336V207.5H268.008ZM269.68 193.953C269.185 193.953 268.76 193.789 268.406 193.461C268.057 193.128 267.883 192.729 267.883 192.266C267.883 191.807 268.057 191.414 268.406 191.086C268.76 190.753 269.185 190.586 269.68 190.586C270.174 190.586 270.596 190.753 270.945 191.086C271.299 191.414 271.477 191.807 271.477 192.266C271.477 192.729 271.299 193.128 270.945 193.461C270.596 193.789 270.174 193.953 269.68 193.953ZM281.033 207.5V198.109H278.783C278.174 198.109 277.71 198.25 277.393 198.531C277.075 198.812 276.919 199.146 276.924 199.531C276.919 199.922 277.07 200.253 277.377 200.523C277.689 200.789 278.148 200.922 278.752 200.922H282.143V203.172H278.752C277.726 203.172 276.838 203.016 276.088 202.703C275.338 202.391 274.76 201.956 274.354 201.398C273.947 200.836 273.747 200.182 273.752 199.437C273.747 198.656 273.947 197.971 274.354 197.383C274.76 196.789 275.34 196.328 276.096 196C276.856 195.667 277.752 195.5 278.783 195.5H284.135V207.5H281.033ZM273.408 207.5L276.744 201.25H279.924L276.596 207.5H273.408ZM290.875 211.016V204.859H291.797C292.063 204.693 292.276 204.427 292.438 204.062C292.604 203.698 292.74 203.268 292.844 202.773C292.953 202.279 293.036 201.745 293.094 201.172C293.156 200.594 293.211 200.01 293.258 199.422L293.57 195.5H302.773V204.859H304.633V211.016H301.461V207.5H294.125V211.016H290.875ZM295.109 204.859H299.633V198.062H296.398L296.273 199.422C296.185 200.703 296.057 201.792 295.891 202.688C295.724 203.578 295.464 204.302 295.109 204.859ZM312.041 207.734C310.807 207.734 309.744 207.484 308.854 206.984C307.968 206.479 307.286 205.766 306.807 204.844C306.327 203.917 306.088 202.82 306.088 201.555C306.088 200.32 306.327 199.237 306.807 198.305C307.286 197.372 307.96 196.646 308.83 196.125C309.705 195.604 310.731 195.344 311.908 195.344C312.7 195.344 313.437 195.471 314.119 195.727C314.807 195.977 315.406 196.354 315.916 196.859C316.432 197.365 316.833 198 317.119 198.766C317.406 199.526 317.549 200.417 317.549 201.437V202.352H307.416V200.289H314.416C314.416 199.81 314.312 199.385 314.104 199.016C313.895 198.646 313.606 198.357 313.236 198.148C312.872 197.935 312.447 197.828 311.963 197.828C311.458 197.828 311.01 197.945 310.619 198.18C310.234 198.409 309.932 198.719 309.713 199.109C309.494 199.495 309.382 199.924 309.377 200.398V202.359C309.377 202.953 309.486 203.466 309.705 203.898C309.929 204.331 310.244 204.664 310.65 204.898C311.057 205.133 311.538 205.25 312.096 205.25C312.465 205.25 312.804 205.198 313.111 205.094C313.419 204.99 313.682 204.833 313.9 204.625C314.119 204.417 314.286 204.161 314.4 203.859L317.479 204.062C317.322 204.802 317.002 205.448 316.518 206C316.038 206.547 315.419 206.974 314.658 207.281C313.903 207.583 313.031 207.734 312.041 207.734ZM319.721 212V195.5H323.002V197.516H323.15C323.296 197.193 323.507 196.865 323.783 196.531C324.064 196.193 324.429 195.911 324.877 195.688C325.33 195.458 325.893 195.344 326.564 195.344C327.439 195.344 328.247 195.573 328.986 196.031C329.726 196.484 330.317 197.169 330.76 198.086C331.202 198.997 331.424 200.141 331.424 201.516C331.424 202.854 331.208 203.984 330.775 204.906C330.348 205.823 329.765 206.518 329.025 206.992C328.291 207.461 327.468 207.695 326.557 207.695C325.911 207.695 325.361 207.589 324.908 207.375C324.46 207.161 324.093 206.893 323.807 206.57C323.52 206.242 323.301 205.911 323.15 205.578H323.049V212H319.721ZM322.979 201.5C322.979 202.214 323.077 202.836 323.275 203.367C323.473 203.898 323.76 204.312 324.135 204.609C324.51 204.901 324.965 205.047 325.502 205.047C326.044 205.047 326.502 204.898 326.877 204.602C327.252 204.299 327.536 203.883 327.729 203.352C327.926 202.815 328.025 202.198 328.025 201.5C328.025 200.807 327.929 200.198 327.736 199.672C327.544 199.146 327.26 198.734 326.885 198.437C326.51 198.141 326.049 197.992 325.502 197.992C324.96 197.992 324.502 198.135 324.127 198.422C323.757 198.708 323.473 199.115 323.275 199.641C323.077 200.167 322.979 200.786 322.979 201.5ZM340.736 203.82L343.986 195.5H346.518L341.838 207.5H339.627L335.057 195.5H337.58L340.736 203.82ZM336.822 195.5V207.5H333.643V195.5H336.822ZM344.814 207.5V195.5H347.955V207.5H344.814ZM353.951 207.727C353.186 207.727 352.503 207.594 351.904 207.328C351.305 207.057 350.831 206.659 350.482 206.133C350.139 205.602 349.967 204.94 349.967 204.148C349.967 203.482 350.089 202.922 350.334 202.469C350.579 202.016 350.912 201.651 351.334 201.375C351.756 201.099 352.235 200.891 352.771 200.75C353.313 200.609 353.881 200.51 354.475 200.453C355.173 200.38 355.735 200.312 356.162 200.25C356.589 200.182 356.899 200.083 357.092 199.953C357.285 199.823 357.381 199.63 357.381 199.375V199.328C357.381 198.833 357.225 198.451 356.912 198.18C356.605 197.909 356.167 197.773 355.6 197.773C355.001 197.773 354.524 197.906 354.17 198.172C353.816 198.432 353.581 198.76 353.467 199.156L350.389 198.906C350.545 198.177 350.852 197.547 351.311 197.016C351.769 196.479 352.36 196.068 353.084 195.781C353.813 195.49 354.657 195.344 355.615 195.344C356.282 195.344 356.92 195.422 357.529 195.578C358.144 195.734 358.688 195.977 359.162 196.305C359.641 196.633 360.019 197.055 360.295 197.57C360.571 198.081 360.709 198.693 360.709 199.406V207.5H357.553V205.836H357.459C357.266 206.211 357.008 206.542 356.686 206.828C356.363 207.109 355.975 207.331 355.521 207.492C355.068 207.648 354.545 207.727 353.951 207.727ZM354.904 205.43C355.394 205.43 355.826 205.333 356.201 205.141C356.576 204.943 356.87 204.677 357.084 204.344C357.298 204.01 357.404 203.633 357.404 203.211V201.938C357.3 202.005 357.157 202.068 356.975 202.125C356.798 202.177 356.597 202.227 356.373 202.273C356.149 202.315 355.925 202.354 355.701 202.391C355.477 202.422 355.274 202.451 355.092 202.477C354.701 202.534 354.36 202.625 354.068 202.75C353.777 202.875 353.55 203.044 353.389 203.258C353.227 203.466 353.146 203.727 353.146 204.039C353.146 204.492 353.311 204.839 353.639 205.078C353.972 205.312 354.394 205.43 354.904 205.43ZM362.086 198.117V195.5H372.961V198.117H369.094V207.5H365.922V198.117H362.086ZM379.971 207.734C378.757 207.734 377.708 207.477 376.822 206.961C375.942 206.44 375.262 205.716 374.783 204.789C374.304 203.857 374.064 202.776 374.064 201.547C374.064 200.307 374.304 199.224 374.783 198.297C375.262 197.365 375.942 196.641 376.822 196.125C377.708 195.604 378.757 195.344 379.971 195.344C381.184 195.344 382.231 195.604 383.111 196.125C383.997 196.641 384.679 197.365 385.158 198.297C385.637 199.224 385.877 200.307 385.877 201.547C385.877 202.776 385.637 203.857 385.158 204.789C384.679 205.716 383.997 206.44 383.111 206.961C382.231 207.477 381.184 207.734 379.971 207.734ZM379.986 205.156C380.538 205.156 380.999 205 381.369 204.688C381.739 204.37 382.018 203.937 382.205 203.391C382.398 202.844 382.494 202.221 382.494 201.523C382.494 200.826 382.398 200.203 382.205 199.656C382.018 199.109 381.739 198.677 381.369 198.359C380.999 198.042 380.538 197.883 379.986 197.883C379.429 197.883 378.96 198.042 378.58 198.359C378.205 198.677 377.921 199.109 377.729 199.656C377.541 200.203 377.447 200.826 377.447 201.523C377.447 202.221 377.541 202.844 377.729 203.391C377.921 203.937 378.205 204.37 378.58 204.688C378.96 205 379.429 205.156 379.986 205.156ZM387.338 207.5L387.322 204.859H387.721C388.002 204.859 388.244 204.792 388.447 204.656C388.656 204.516 388.827 204.289 388.963 203.977C389.098 203.664 389.205 203.25 389.283 202.734C389.361 202.214 389.413 201.573 389.439 200.812L389.635 195.5H398.76V207.5H395.588V198.117H392.627L392.439 201.781C392.393 202.786 392.27 203.651 392.072 204.375C391.88 205.099 391.611 205.693 391.268 206.156C390.924 206.615 390.51 206.953 390.025 207.172C389.541 207.391 388.979 207.5 388.338 207.5H387.338ZM406.762 207.734C405.548 207.734 404.499 207.477 403.613 206.961C402.733 206.44 402.053 205.716 401.574 204.789C401.095 203.857 400.855 202.776 400.855 201.547C400.855 200.307 401.095 199.224 401.574 198.297C402.053 197.365 402.733 196.641 403.613 196.125C404.499 195.604 405.548 195.344 406.762 195.344C407.975 195.344 409.022 195.604 409.902 196.125C410.788 196.641 411.47 197.365 411.949 198.297C412.428 199.224 412.668 200.307 412.668 201.547C412.668 202.776 412.428 203.857 411.949 204.789C411.47 205.716 410.788 206.44 409.902 206.961C409.022 207.477 407.975 207.734 406.762 207.734ZM406.777 205.156C407.329 205.156 407.79 205 408.16 204.688C408.53 204.37 408.809 203.937 408.996 203.391C409.189 202.844 409.285 202.221 409.285 201.523C409.285 200.826 409.189 200.203 408.996 199.656C408.809 199.109 408.53 198.677 408.16 198.359C407.79 198.042 407.329 197.883 406.777 197.883C406.22 197.883 405.751 198.042 405.371 198.359C404.996 198.677 404.712 199.109 404.52 199.656C404.332 200.203 404.238 200.826 404.238 201.523C404.238 202.221 404.332 202.844 404.52 203.391C404.712 203.937 404.996 204.37 405.371 204.688C405.751 205 406.22 205.156 406.777 205.156ZM423.051 195.5V198.117H418.066V207.5H414.832V195.5H423.051ZM428.072 207.727C427.307 207.727 426.624 207.594 426.025 207.328C425.426 207.057 424.952 206.659 424.604 206.133C424.26 205.602 424.088 204.94 424.088 204.148C424.088 203.482 424.21 202.922 424.455 202.469C424.7 202.016 425.033 201.651 425.455 201.375C425.877 201.099 426.356 200.891 426.893 200.75C427.434 200.609 428.002 200.51 428.596 200.453C429.294 200.38 429.856 200.312 430.283 200.25C430.71 200.182 431.02 200.083 431.213 199.953C431.406 199.823 431.502 199.63 431.502 199.375V199.328C431.502 198.833 431.346 198.451 431.033 198.18C430.726 197.909 430.288 197.773 429.721 197.773C429.122 197.773 428.645 197.906 428.291 198.172C427.937 198.432 427.702 198.76 427.588 199.156L424.51 198.906C424.666 198.177 424.973 197.547 425.432 197.016C425.89 196.479 426.481 196.068 427.205 195.781C427.934 195.49 428.778 195.344 429.736 195.344C430.403 195.344 431.041 195.422 431.65 195.578C432.265 195.734 432.809 195.977 433.283 196.305C433.762 196.633 434.14 197.055 434.416 197.57C434.692 198.081 434.83 198.693 434.83 199.406V207.5H431.674V205.836H431.58C431.387 206.211 431.13 206.542 430.807 206.828C430.484 207.109 430.096 207.331 429.643 207.492C429.189 207.648 428.666 207.727 428.072 207.727ZM429.025 205.43C429.515 205.43 429.947 205.333 430.322 205.141C430.697 204.943 430.992 204.677 431.205 204.344C431.419 204.01 431.525 203.633 431.525 203.211V201.938C431.421 202.005 431.278 202.068 431.096 202.125C430.919 202.177 430.718 202.227 430.494 202.273C430.27 202.315 430.046 202.354 429.822 202.391C429.598 202.422 429.395 202.451 429.213 202.477C428.822 202.534 428.481 202.625 428.189 202.75C427.898 202.875 427.671 203.044 427.51 203.258C427.348 203.466 427.268 203.727 427.268 204.039C427.268 204.492 427.432 204.839 427.76 205.078C428.093 205.312 428.515 205.43 429.025 205.43Z" fill="#14142A"/>
<path d="M1130.97 208.249C1129.64 208.249 1128.46 208.021 1127.43 207.565C1126.4 207.103 1125.58 206.47 1124.99 205.665C1124.39 204.854 1124.09 203.919 1124.07 202.86H1127.94C1127.97 203.304 1128.11 203.694 1128.38 204.032C1128.65 204.363 1129.01 204.621 1129.46 204.804C1129.91 204.987 1130.42 205.079 1130.98 205.079C1131.56 205.079 1132.08 204.976 1132.53 204.768C1132.98 204.561 1133.33 204.274 1133.59 203.907C1133.84 203.54 1133.97 203.117 1133.97 202.638C1133.97 202.152 1133.83 201.723 1133.56 201.35C1133.3 200.972 1132.91 200.676 1132.41 200.463C1131.91 200.25 1131.32 200.143 1130.63 200.143H1128.94V197.32H1130.63C1131.21 197.32 1131.72 197.219 1132.17 197.018C1132.62 196.817 1132.97 196.539 1133.22 196.184C1133.46 195.823 1133.59 195.402 1133.59 194.923C1133.59 194.467 1133.48 194.068 1133.26 193.724C1133.05 193.375 1132.75 193.103 1132.35 192.908C1131.97 192.712 1131.52 192.615 1131.01 192.615C1130.48 192.615 1130.01 192.709 1129.58 192.899C1129.14 193.082 1128.8 193.346 1128.54 193.689C1128.28 194.032 1128.14 194.435 1128.12 194.896H1124.44C1124.45 193.849 1124.75 192.925 1125.33 192.126C1125.91 191.327 1126.69 190.703 1127.68 190.253C1128.66 189.797 1129.78 189.57 1131.02 189.57C1132.28 189.57 1133.38 189.797 1134.32 190.253C1135.26 190.709 1135.99 191.324 1136.51 192.1C1137.04 192.869 1137.3 193.733 1137.29 194.692C1137.3 195.71 1136.98 196.559 1136.34 197.24C1135.71 197.921 1134.88 198.353 1133.86 198.536V198.678C1135.2 198.85 1136.22 199.315 1136.92 200.072C1137.62 200.824 1137.97 201.765 1137.97 202.895C1137.97 203.931 1137.67 204.851 1137.07 205.656C1136.47 206.461 1135.65 207.094 1134.59 207.556C1133.54 208.018 1132.33 208.249 1130.97 208.249ZM1147.86 208.4C1146.33 208.394 1145.02 208.018 1143.92 207.272C1142.82 206.526 1141.98 205.446 1141.39 204.032C1140.8 202.617 1140.51 200.915 1140.52 198.927C1140.52 196.944 1140.81 195.254 1141.39 193.858C1141.99 192.461 1142.83 191.398 1143.92 190.67C1145.03 189.937 1146.34 189.57 1147.86 189.57C1149.38 189.57 1150.69 189.937 1151.78 190.67C1152.88 191.404 1153.73 192.47 1154.32 193.866C1154.91 195.257 1155.21 196.944 1155.2 198.927C1155.2 200.921 1154.9 202.626 1154.31 204.04C1153.73 205.455 1152.89 206.535 1151.79 207.281C1150.7 208.027 1149.38 208.4 1147.86 208.4ZM1147.86 205.212C1148.9 205.212 1149.73 204.689 1150.35 203.641C1150.97 202.593 1151.28 201.022 1151.28 198.927C1151.28 197.548 1151.13 196.4 1150.85 195.482C1150.57 194.565 1150.17 193.875 1149.66 193.414C1149.15 192.952 1148.55 192.721 1147.86 192.721C1146.82 192.721 1145.99 193.239 1145.37 194.275C1144.75 195.311 1144.44 196.861 1144.43 198.927C1144.43 200.324 1144.57 201.49 1144.85 202.425C1145.13 203.354 1145.53 204.052 1146.05 204.52C1146.56 204.982 1147.17 205.212 1147.86 205.212ZM1165.07 208.4C1163.54 208.394 1162.23 208.018 1161.13 207.272C1160.03 206.526 1159.19 205.446 1158.6 204.032C1158.01 202.617 1157.72 200.915 1157.73 198.927C1157.73 196.944 1158.02 195.254 1158.61 193.858C1159.2 192.461 1160.04 191.398 1161.14 190.67C1162.24 189.937 1163.55 189.57 1165.07 189.57C1166.59 189.57 1167.9 189.937 1168.99 190.67C1170.09 191.404 1170.94 192.47 1171.53 193.866C1172.12 195.257 1172.42 196.944 1172.41 198.927C1172.41 200.921 1172.12 202.626 1171.52 204.04C1170.94 205.455 1170.1 206.535 1169 207.281C1167.91 208.027 1166.6 208.4 1165.07 208.4ZM1165.07 205.212C1166.11 205.212 1166.94 204.689 1167.56 203.641C1168.19 202.593 1168.49 201.022 1168.49 198.927C1168.49 197.548 1168.35 196.4 1168.06 195.482C1167.78 194.565 1167.39 193.875 1166.87 193.414C1166.36 192.952 1165.76 192.721 1165.07 192.721C1164.03 192.721 1163.21 193.239 1162.58 194.275C1161.96 195.311 1161.65 196.861 1161.64 198.927C1161.64 200.324 1161.78 201.49 1162.06 202.425C1162.34 203.354 1162.74 204.052 1163.26 204.52C1163.77 204.982 1164.38 205.212 1165.07 205.212ZM1188.96 192.695C1188.27 192.695 1187.75 192.834 1187.39 193.112C1187.04 193.39 1186.86 193.79 1186.83 194.31H1182.96C1183.03 193.292 1183.29 192.431 1183.74 191.727C1184.2 191.023 1184.85 190.487 1185.71 190.12C1186.56 189.753 1187.63 189.57 1188.89 189.57C1190.15 189.57 1191.22 189.744 1192.1 190.093C1192.98 190.443 1193.65 190.928 1194.1 191.549C1194.56 192.171 1194.79 192.899 1194.79 193.733C1194.79 194.13 1194.71 194.509 1194.56 194.87C1194.4 195.225 1194.2 195.55 1193.94 195.846C1193.69 196.136 1193.41 196.391 1193.12 196.61L1190.06 195.793C1190.37 195.556 1190.6 195.296 1190.76 195.012C1190.92 194.728 1190.99 194.402 1190.99 194.035C1190.99 193.627 1190.83 193.301 1190.48 193.059C1190.14 192.816 1189.63 192.695 1188.96 192.695ZM1195.96 198.146H1181.73V195.598H1195.96V198.146ZM1195.96 201.972H1181.73V199.486H1195.96V201.972ZM1188.89 208.249C1186.85 208.249 1185.31 207.858 1184.26 207.077C1183.22 206.295 1182.69 205.224 1182.69 203.863C1182.69 203.455 1182.78 203.058 1182.95 202.673C1183.13 202.289 1183.35 201.942 1183.63 201.635C1183.91 201.327 1184.21 201.087 1184.54 200.915L1187.58 201.661C1187.24 201.898 1186.98 202.191 1186.8 202.54C1186.62 202.889 1186.53 203.23 1186.52 203.561C1186.53 204.07 1186.74 204.464 1187.16 204.742C1187.59 205.02 1188.17 205.159 1188.89 205.159C1189.62 205.159 1190.21 205.02 1190.65 204.742C1191.1 204.464 1191.34 203.984 1191.38 203.304H1195.29C1195.23 204.446 1194.96 205.381 1194.49 206.109C1194.02 206.837 1193.32 207.376 1192.4 207.725C1191.48 208.074 1190.31 208.249 1188.89 208.249Z" fill="#14142A"/>
</svg>
