<svg width="1253" height="279" viewBox="0 0 1253 279" fill="none" xmlns="http://www.w3.org/2000/svg">
<path d="M0.775391 20C0.775391 8.9543 9.7297 0 20.7754 0H1232.78C1243.82 0 1252.78 8.95431 1252.78 20V71H0.775391V20Z" fill="#FFA7CA"/>
<path d="M28.1852 26.0909H32.0723V32.1847C32.0723 32.911 32.1984 33.4957 32.4508 33.9389C32.7032 34.3759 33.094 34.6929 33.6234 34.8899C34.1589 35.0807 34.8452 35.1761 35.6824 35.1761C35.9778 35.1761 36.3256 35.1669 36.7257 35.1484C37.1258 35.1238 37.5382 35.09 37.9629 35.0469C38.3938 35.0038 38.8 34.9515 39.1816 34.8899C39.5633 34.8284 39.8803 34.7576 40.1326 34.6776V37.8352C39.8741 37.9214 39.551 37.9983 39.1632 38.0661C38.7815 38.1276 38.3784 38.183 37.9537 38.2322C37.5289 38.2753 37.1165 38.3092 36.7164 38.3338C36.3163 38.3584 35.9717 38.3707 35.6824 38.3707C34.162 38.3707 32.8386 38.1553 31.7122 37.7244C30.5858 37.2874 29.7148 36.6134 29.0993 35.7024C28.4899 34.7914 28.1852 33.6188 28.1852 32.1847V26.0909ZM39.4402 26.0909H43.3457V45H39.4402V26.0909ZM50.9837 39.8111L56.0895 30.8182H59.9673V45H56.2188V35.9794L51.1314 45H47.2259V30.8182H50.9837V39.8111ZM69.5281 45.277C68.0754 45.277 66.8259 44.9692 65.7795 44.3537C64.7392 43.732 63.939 42.8703 63.3789 41.7685C62.8249 40.6667 62.5479 39.3987 62.5479 37.9645C62.5479 36.5118 62.828 35.2377 63.3881 34.142C63.9544 33.0402 64.7577 32.1816 65.7979 31.5661C66.8382 30.9444 68.0754 30.6335 69.5096 30.6335C70.7468 30.6335 71.8301 30.8582 72.7596 31.3075C73.689 31.7569 74.4246 32.3878 74.9663 33.2003C75.5079 34.0128 75.8065 34.9669 75.8619 36.0625H72.1502C72.0456 35.3546 71.7686 34.7853 71.3192 34.3544C70.8761 33.9174 70.2944 33.6989 69.5742 33.6989C68.9648 33.6989 68.4324 33.8651 67.9769 34.1974C67.5276 34.5237 67.1767 35.0007 66.9244 35.6286C66.672 36.2564 66.5458 37.0166 66.5458 37.9091C66.5458 38.8139 66.6689 39.5833 66.9151 40.2173C67.1675 40.8513 67.5214 41.3345 67.9769 41.6669C68.4324 41.9993 68.9648 42.1655 69.5742 42.1655C70.0236 42.1655 70.4267 42.0732 70.7837 41.8885C71.1469 41.7038 71.4454 41.4361 71.6793 41.0852C71.9194 40.7282 72.0763 40.3004 72.1502 39.8018H75.8619C75.8003 40.8852 75.5049 41.8393 74.9755 42.6641C74.4523 43.4827 73.729 44.1229 72.8058 44.5845C71.8825 45.0462 70.7899 45.277 69.5281 45.277ZM77.413 33.9112V30.8182H90.2653V33.9112H85.695V45H81.9464V33.9112H77.413ZM92.6497 45V30.8182H96.5829V36.321H97.6909L101.55 30.8182H106.167L101.153 37.8537L106.222 45H101.55L98.051 39.968H96.5829V45H92.6497ZM111.928 45.2678C111.023 45.2678 110.217 45.1108 109.509 44.7969C108.801 44.4768 108.241 44.0059 107.829 43.3842C107.422 42.7564 107.219 41.9747 107.219 41.0391C107.219 40.2512 107.364 39.5895 107.653 39.054C107.943 38.5185 108.336 38.0876 108.835 37.7614C109.334 37.4351 109.9 37.1889 110.534 37.0227C111.174 36.8565 111.845 36.7396 112.547 36.6719C113.372 36.5857 114.036 36.5057 114.541 36.4318C115.046 36.3518 115.412 36.2348 115.64 36.081C115.867 35.9271 115.981 35.6993 115.981 35.3977V35.3423C115.981 34.7576 115.797 34.3052 115.427 33.9851C115.064 33.665 114.547 33.505 113.876 33.505C113.168 33.505 112.605 33.6619 112.187 33.9759C111.768 34.2836 111.491 34.6714 111.356 35.1392L107.718 34.8438C107.903 33.982 108.266 33.2372 108.807 32.6094C109.349 31.9754 110.048 31.4891 110.903 31.1506C111.765 30.8059 112.762 30.6335 113.895 30.6335C114.683 30.6335 115.437 30.7259 116.157 30.9105C116.883 31.0952 117.526 31.3814 118.086 31.7692C118.653 32.157 119.099 32.6555 119.425 33.2649C119.751 33.8681 119.915 34.5914 119.915 35.4347V45H116.184V43.0334H116.074C115.846 43.4766 115.541 43.8674 115.16 44.206C114.778 44.5384 114.319 44.8 113.784 44.9908C113.248 45.1754 112.63 45.2678 111.928 45.2678ZM113.055 42.5533C113.633 42.5533 114.144 42.4394 114.587 42.2116C115.03 41.9777 115.378 41.6638 115.631 41.2699C115.883 40.8759 116.009 40.4297 116.009 39.9311V38.4261C115.886 38.5062 115.717 38.58 115.501 38.6477C115.292 38.7093 115.055 38.7678 114.79 38.8232C114.526 38.8724 114.261 38.9186 113.996 38.9616C113.732 38.9986 113.492 39.0324 113.276 39.0632C112.814 39.1309 112.411 39.2386 112.067 39.3864C111.722 39.5341 111.454 39.7341 111.263 39.9865C111.073 40.2327 110.977 40.5405 110.977 40.9098C110.977 41.4453 111.171 41.8546 111.559 42.1378C111.953 42.4148 112.451 42.5533 113.055 42.5533ZM135.391 45.277C133.957 45.277 132.717 44.9723 131.67 44.3629C130.63 43.7474 129.827 42.8918 129.261 41.7962C128.694 40.6944 128.411 39.4171 128.411 37.9645C128.411 36.4995 128.694 35.2192 129.261 34.1236C129.827 33.0218 130.63 32.1662 131.67 31.5568C132.717 30.9413 133.957 30.6335 135.391 30.6335C136.826 30.6335 138.063 30.9413 139.103 31.5568C140.149 32.1662 140.956 33.0218 141.522 34.1236C142.088 35.2192 142.371 36.4995 142.371 37.9645C142.371 39.4171 142.088 40.6944 141.522 41.7962C140.956 42.8918 140.149 43.7474 139.103 44.3629C138.063 44.9723 136.826 45.277 135.391 45.277ZM135.41 42.2301C136.062 42.2301 136.607 42.0455 137.044 41.6761C137.481 41.3007 137.81 40.7898 138.032 40.1435C138.26 39.4972 138.374 38.7616 138.374 37.9368C138.374 37.112 138.26 36.3764 138.032 35.7301C137.81 35.0838 137.481 34.5729 137.044 34.1974C136.607 33.822 136.062 33.6342 135.41 33.6342C134.751 33.6342 134.197 33.822 133.748 34.1974C133.305 34.5729 132.969 35.0838 132.741 35.7301C132.52 36.3764 132.409 37.112 132.409 37.9368C132.409 38.7616 132.52 39.4972 132.741 40.1435C132.969 40.7898 133.305 41.3007 133.748 41.6761C134.197 42.0455 134.751 42.2301 135.41 42.2301ZM156.719 25.6108L157.92 28.1776C157.52 28.5099 157.076 28.7562 156.59 28.9162C156.104 29.0701 155.522 29.1716 154.845 29.2209C154.174 29.2701 153.356 29.304 152.389 29.3224C151.294 29.3348 150.401 29.5102 149.712 29.8487C149.022 30.1873 148.499 30.7197 148.142 31.446C147.785 32.1662 147.551 33.108 147.44 34.2713H147.579C148.004 33.4034 148.601 32.7325 149.37 32.2585C150.146 31.7846 151.103 31.5476 152.241 31.5476C153.448 31.5476 154.504 31.8123 155.408 32.3416C156.319 32.871 157.027 33.6312 157.532 34.6222C158.037 35.6132 158.289 36.8011 158.289 38.1861C158.289 39.6264 158.006 40.879 157.44 41.9439C156.879 43.0026 156.082 43.8243 155.048 44.4091C154.014 44.9877 152.783 45.277 151.355 45.277C149.921 45.277 148.684 44.9754 147.643 44.3722C146.609 43.7689 145.809 42.8795 145.243 41.7038C144.683 40.5282 144.403 39.0817 144.403 37.3643V36.201C144.403 32.7848 145.067 30.2519 146.397 28.6023C147.727 26.9527 149.681 26.1155 152.26 26.0909C152.962 26.0786 153.596 26.0755 154.162 26.0817C154.728 26.0878 155.224 26.0601 155.648 25.9986C156.079 25.937 156.436 25.8078 156.719 25.6108ZM151.374 42.2301C151.977 42.2301 152.494 42.0732 152.925 41.7592C153.362 41.4453 153.697 40.996 153.931 40.4112C154.171 39.8265 154.291 39.1278 154.291 38.3153C154.291 37.509 154.171 36.8258 153.931 36.2656C153.697 35.6993 153.362 35.2685 152.925 34.973C152.488 34.6776 151.964 34.5298 151.355 34.5298C150.9 34.5298 150.49 34.6129 150.127 34.7791C149.764 34.9453 149.453 35.1915 149.195 35.5178C148.942 35.8378 148.745 36.2348 148.604 36.7088C148.468 37.1766 148.401 37.7121 148.401 38.3153C148.401 39.5279 148.662 40.4851 149.185 41.1868C149.715 41.8823 150.444 42.2301 151.374 42.2301ZM160.069 45L160.05 41.8793H160.521C160.854 41.8793 161.14 41.7992 161.38 41.6392C161.626 41.473 161.829 41.2053 161.989 40.8359C162.149 40.4666 162.275 39.9773 162.368 39.3679C162.46 38.7524 162.522 37.9953 162.552 37.0966L162.783 30.8182H173.567V45H169.819V33.9112H166.319L166.098 38.2415C166.042 39.4295 165.898 40.4512 165.664 41.3068C165.436 42.1624 165.119 42.8641 164.713 43.4119C164.307 43.9536 163.817 44.3537 163.245 44.6122C162.672 44.8707 162.008 45 161.251 45H160.069ZM180.374 39.8111L185.48 30.8182H189.358V45H185.609V35.9794L180.522 45H176.616V30.8182H180.374V39.8111ZM204.819 30.8182V45H201.088V30.8182H204.819ZM203 37.0412V40.1435C202.698 40.2789 202.323 40.4081 201.873 40.5312C201.424 40.6482 200.953 40.7436 200.461 40.8175C199.968 40.8913 199.507 40.9283 199.076 40.9283C197.038 40.9283 195.435 40.5097 194.265 39.6726C193.096 38.8293 192.511 37.4844 192.511 35.6378V30.7997H196.223V35.6378C196.223 36.1856 196.315 36.6196 196.5 36.9396C196.69 37.2597 196.992 37.4905 197.404 37.6321C197.823 37.7675 198.38 37.8352 199.076 37.8352C199.722 37.8352 200.356 37.7675 200.978 37.6321C201.599 37.4967 202.273 37.2997 203 37.0412ZM220.18 30.8182V45H216.45V30.8182H220.18ZM218.361 37.0412V40.1435C218.059 40.2789 217.684 40.4081 217.235 40.5312C216.785 40.6482 216.314 40.7436 215.822 40.8175C215.329 40.8913 214.868 40.9283 214.437 40.9283C212.4 40.9283 210.796 40.5097 209.627 39.6726C208.457 38.8293 207.872 37.4844 207.872 35.6378V30.7997H211.584V35.6378C211.584 36.1856 211.676 36.6196 211.861 36.9396C212.052 37.2597 212.353 37.4905 212.766 37.6321C213.184 37.7675 213.741 37.8352 214.437 37.8352C215.083 37.8352 215.717 37.7675 216.339 37.6321C216.961 37.4967 217.635 37.2997 218.361 37.0412ZM231.543 45V33.902H228.884C228.164 33.902 227.616 34.0682 227.241 34.4006C226.865 34.733 226.681 35.1269 226.687 35.5824C226.681 36.044 226.859 36.4349 227.222 36.755C227.592 37.0689 228.133 37.2259 228.847 37.2259H232.854V39.8849H228.847C227.635 39.8849 226.585 39.7003 225.699 39.331C224.812 38.9616 224.129 38.4477 223.649 37.7891C223.169 37.1243 222.932 36.3518 222.938 35.4716C222.932 34.5483 223.169 33.7389 223.649 33.0433C224.129 32.3416 224.816 31.7969 225.708 31.4091C226.607 31.0152 227.665 30.8182 228.884 30.8182H235.209V45H231.543ZM222.532 45L226.474 37.6136H230.232L226.299 45H222.532Z" fill="#14142A"/>
<path d="M1135.35 28V44H1132.07V28H1135.35ZM1122.41 44L1127.42 35.5625L1122.62 28H1126.78L1130.38 34.5859H1137.13L1140.63 28H1144.78L1140.1 35.5391L1145.02 44H1140.98L1137.6 37.7109H1129.88L1126.42 44H1122.41ZM1146.97 44V32H1150.3V44H1146.97ZM1148.64 30.4531C1148.15 30.4531 1147.73 30.2891 1147.37 29.9609C1147.02 29.6276 1146.85 29.2292 1146.85 28.7656C1146.85 28.3073 1147.02 27.9141 1147.37 27.5859C1147.73 27.2526 1148.15 27.0859 1148.64 27.0859C1149.14 27.0859 1149.56 27.2526 1149.91 27.5859C1150.26 27.9141 1150.44 28.3073 1150.44 28.7656C1150.44 29.2292 1150.26 29.6276 1149.91 29.9609C1149.56 30.2891 1149.14 30.4531 1148.64 30.4531ZM1161.32 36.6719V39.2891H1155.05V36.6719H1161.32ZM1156.15 32V44H1152.97V32H1156.15ZM1163.4 32V44H1160.25V32H1163.4ZM1172.96 27.25L1167.8 46.4062H1164.93L1170.09 27.25H1172.96ZM1175.27 28H1178.56V33.1562C1178.56 33.7708 1178.67 34.2656 1178.88 34.6406C1179.09 35.0104 1179.42 35.2786 1179.87 35.4453C1180.32 35.6068 1180.9 35.6875 1181.61 35.6875C1181.86 35.6875 1182.16 35.6797 1182.5 35.6641C1182.83 35.6432 1183.18 35.6146 1183.54 35.5781C1183.91 35.5417 1184.25 35.4974 1184.57 35.4453C1184.9 35.3932 1185.17 35.3333 1185.38 35.2656V37.9375C1185.16 38.0104 1184.89 38.0755 1184.56 38.1328C1184.24 38.1849 1183.89 38.2318 1183.54 38.2734C1183.18 38.3099 1182.83 38.3385 1182.49 38.3594C1182.15 38.3802 1181.86 38.3906 1181.61 38.3906C1180.33 38.3906 1179.21 38.2083 1178.25 37.8437C1177.3 37.474 1176.56 36.9036 1176.04 36.1328C1175.53 35.362 1175.27 34.3698 1175.27 33.1562V28ZM1184.79 28H1188.1V44H1184.79V28ZM1196.8 44.2344C1195.59 44.2344 1194.54 43.9766 1193.65 43.4609C1192.77 42.9401 1192.09 42.2161 1191.62 41.2891C1191.14 40.3568 1190.9 39.276 1190.9 38.0469C1190.9 36.8073 1191.14 35.724 1191.62 34.7969C1192.09 33.8646 1192.77 33.1406 1193.65 32.625C1194.54 32.1042 1195.59 31.8438 1196.8 31.8438C1198.02 31.8438 1199.06 32.1042 1199.94 32.625C1200.83 33.1406 1201.51 33.8646 1201.99 34.7969C1202.47 35.724 1202.71 36.8073 1202.71 38.0469C1202.71 39.276 1202.47 40.3568 1201.99 41.2891C1201.51 42.2161 1200.83 42.9401 1199.94 43.4609C1199.06 43.9766 1198.02 44.2344 1196.8 44.2344ZM1196.82 41.6562C1197.37 41.6562 1197.83 41.5 1198.2 41.1875C1198.57 40.8698 1198.85 40.4375 1199.04 39.8906C1199.23 39.3437 1199.33 38.7214 1199.33 38.0234C1199.33 37.3255 1199.23 36.7031 1199.04 36.1562C1198.85 35.6094 1198.57 35.1771 1198.2 34.8594C1197.83 34.5417 1197.37 34.3828 1196.82 34.3828C1196.26 34.3828 1195.79 34.5417 1195.41 34.8594C1195.04 35.1771 1194.75 35.6094 1194.56 36.1562C1194.37 36.7031 1194.28 37.3255 1194.28 38.0234C1194.28 38.7214 1194.37 39.3437 1194.56 39.8906C1194.75 40.4375 1195.04 40.8698 1195.41 41.1875C1195.79 41.5 1196.26 41.6562 1196.82 41.6562ZM1204.17 44L1204.15 41.3594H1204.55C1204.83 41.3594 1205.08 41.2917 1205.28 41.1562C1205.49 41.0156 1205.66 40.7891 1205.79 40.4766C1205.93 40.1641 1206.04 39.75 1206.12 39.2344C1206.19 38.7135 1206.25 38.0729 1206.27 37.3125L1206.47 32H1215.59V44H1212.42V34.6172H1209.46L1209.27 38.2812C1209.22 39.2865 1209.1 40.151 1208.9 40.875C1208.71 41.599 1208.44 42.1927 1208.1 42.6562C1207.76 43.1146 1207.34 43.4531 1206.86 43.6719C1206.37 43.8906 1205.81 44 1205.17 44H1204.17Z" fill="#14142A"/>
<mask id="path-4-inside-1_292_2020" fill="white">
<path d="M0.775391 71H1252.78V141H0.775391V71Z"/>
</mask>
<path d="M0.775391 71H1252.78V141H0.775391V71Z" fill="white"/>
<path d="M1252.78 141V142H1253.78V141H1252.78ZM0.775391 141H-0.224609V142H0.775391V141ZM1251.78 71V141H1253.78V71H1251.78ZM1252.78 140H0.775391V142H1252.78V140ZM1.77539 141V71H-0.224609V141H1.77539Z" fill="#FE68A4" mask="url(#path-4-inside-1_292_2020)"/>
<path d="M27.8145 98.5H31.1035V103.656C31.1035 104.271 31.2103 104.766 31.4238 105.141C31.6374 105.51 31.9681 105.779 32.416 105.945C32.8691 106.107 33.4499 106.188 34.1582 106.188C34.4082 106.188 34.7025 106.18 35.041 106.164C35.3796 106.143 35.7285 106.115 36.0879 106.078C36.4525 106.042 36.7962 105.997 37.1191 105.945C37.4421 105.893 37.7103 105.833 37.9238 105.766V108.437C37.7051 108.51 37.4316 108.576 37.1035 108.633C36.7806 108.685 36.4395 108.732 36.0801 108.773C35.7207 108.81 35.3717 108.839 35.0332 108.859C34.6947 108.88 34.403 108.891 34.1582 108.891C32.8717 108.891 31.752 108.708 30.7988 108.344C29.8457 107.974 29.1087 107.404 28.5879 106.633C28.0723 105.862 27.8145 104.87 27.8145 103.656V98.5ZM37.3379 98.5H40.6426V114.5H37.3379V98.5ZM47.1055 110.109L51.4258 102.5H54.707V114.5H51.5352V106.867L47.2305 114.5H43.9258V102.5H47.1055V110.109ZM62.7969 114.734C61.5677 114.734 60.5104 114.474 59.625 113.953C58.7448 113.427 58.0677 112.698 57.5938 111.766C57.125 110.833 56.8906 109.76 56.8906 108.547C56.8906 107.318 57.1276 106.24 57.6016 105.312C58.0807 104.38 58.7604 103.654 59.6406 103.133C60.5208 102.607 61.5677 102.344 62.7813 102.344C63.8281 102.344 64.7448 102.534 65.5313 102.914C66.3177 103.294 66.9401 103.828 67.3984 104.516C67.8568 105.203 68.1094 106.01 68.1562 106.938H65.0156C64.9271 106.339 64.6927 105.857 64.3125 105.492C63.9375 105.122 63.4453 104.937 62.8359 104.937C62.3203 104.937 61.8698 105.078 61.4844 105.359C61.1042 105.635 60.8073 106.039 60.5938 106.57C60.3802 107.102 60.2734 107.745 60.2734 108.5C60.2734 109.266 60.3776 109.917 60.5859 110.453C60.7995 110.99 61.099 111.398 61.4844 111.68C61.8698 111.961 62.3203 112.102 62.8359 112.102C63.2161 112.102 63.5573 112.023 63.8594 111.867C64.1667 111.711 64.4193 111.484 64.6172 111.187C64.8203 110.885 64.9531 110.523 65.0156 110.102H68.1562C68.1042 111.018 67.8542 111.826 67.4063 112.523C66.9635 113.216 66.3516 113.758 65.5703 114.148C64.7891 114.539 63.8646 114.734 62.7969 114.734ZM69.4687 105.117V102.5H80.3438V105.117H76.4766V114.5H73.3047V105.117H69.4687ZM82.3613 114.5V102.5H85.6895V107.156H86.627L89.8926 102.5H93.7988L89.5566 108.453L93.8457 114.5H89.8926L86.9316 110.242H85.6895V114.5H82.3613ZM98.6738 114.727C97.9082 114.727 97.2259 114.594 96.627 114.328C96.028 114.057 95.554 113.659 95.2051 113.133C94.8613 112.602 94.6895 111.94 94.6895 111.148C94.6895 110.482 94.8118 109.922 95.0566 109.469C95.3014 109.016 95.6348 108.651 96.0566 108.375C96.4785 108.099 96.9577 107.891 97.4941 107.75C98.0358 107.609 98.6035 107.51 99.1973 107.453C99.8952 107.38 100.458 107.312 100.885 107.25C101.312 107.182 101.622 107.083 101.814 106.953C102.007 106.823 102.104 106.63 102.104 106.375V106.328C102.104 105.833 101.947 105.451 101.635 105.18C101.327 104.909 100.89 104.773 100.322 104.773C99.7233 104.773 99.2467 104.906 98.8926 105.172C98.5384 105.432 98.304 105.76 98.1895 106.156L95.1113 105.906C95.2676 105.177 95.5749 104.547 96.0332 104.016C96.4915 103.479 97.0827 103.068 97.8066 102.781C98.5358 102.49 99.3796 102.344 100.338 102.344C101.005 102.344 101.643 102.422 102.252 102.578C102.867 102.734 103.411 102.977 103.885 103.305C104.364 103.633 104.742 104.055 105.018 104.57C105.294 105.081 105.432 105.693 105.432 106.406V114.5H102.275V112.836H102.182C101.989 113.211 101.731 113.542 101.408 113.828C101.085 114.109 100.697 114.331 100.244 114.492C99.791 114.648 99.2676 114.727 98.6738 114.727ZM99.627 112.43C100.117 112.43 100.549 112.333 100.924 112.141C101.299 111.943 101.593 111.677 101.807 111.344C102.02 111.01 102.127 110.633 102.127 110.211V108.938C102.023 109.005 101.88 109.068 101.697 109.125C101.52 109.177 101.32 109.227 101.096 109.273C100.872 109.315 100.648 109.354 100.424 109.391C100.2 109.422 99.9967 109.451 99.8145 109.477C99.4238 109.534 99.0827 109.625 98.791 109.75C98.4993 109.875 98.2728 110.044 98.1113 110.258C97.9499 110.466 97.8691 110.727 97.8691 111.039C97.8691 111.492 98.0332 111.839 98.3613 112.078C98.6947 112.312 99.1165 112.43 99.627 112.43ZM118.527 114.734C117.314 114.734 116.264 114.477 115.379 113.961C114.499 113.44 113.819 112.716 113.34 111.789C112.861 110.857 112.621 109.776 112.621 108.547C112.621 107.307 112.861 106.224 113.34 105.297C113.819 104.365 114.499 103.641 115.379 103.125C116.264 102.604 117.314 102.344 118.527 102.344C119.741 102.344 120.788 102.604 121.668 103.125C122.553 103.641 123.236 104.365 123.715 105.297C124.194 106.224 124.434 107.307 124.434 108.547C124.434 109.776 124.194 110.857 123.715 111.789C123.236 112.716 122.553 113.44 121.668 113.961C120.788 114.477 119.741 114.734 118.527 114.734ZM118.543 112.156C119.095 112.156 119.556 112 119.926 111.688C120.296 111.37 120.574 110.937 120.762 110.391C120.954 109.844 121.051 109.221 121.051 108.523C121.051 107.826 120.954 107.203 120.762 106.656C120.574 106.109 120.296 105.677 119.926 105.359C119.556 105.042 119.095 104.883 118.543 104.883C117.986 104.883 117.517 105.042 117.137 105.359C116.762 105.677 116.478 106.109 116.285 106.656C116.098 107.203 116.004 107.826 116.004 108.523C116.004 109.221 116.098 109.844 116.285 110.391C116.478 110.937 116.762 111.37 117.137 111.688C117.517 112 117.986 112.156 118.543 112.156ZM136.574 98.0937L137.59 100.266C137.251 100.547 136.876 100.755 136.465 100.891C136.053 101.021 135.561 101.107 134.988 101.148C134.421 101.19 133.728 101.219 132.91 101.234C131.983 101.245 131.228 101.393 130.645 101.68C130.061 101.966 129.618 102.417 129.316 103.031C129.014 103.641 128.816 104.437 128.723 105.422H128.84C129.199 104.687 129.704 104.12 130.355 103.719C131.012 103.318 131.822 103.117 132.785 103.117C133.806 103.117 134.699 103.341 135.465 103.789C136.236 104.237 136.835 104.88 137.262 105.719C137.689 106.557 137.902 107.562 137.902 108.734C137.902 109.953 137.663 111.013 137.184 111.914C136.71 112.81 136.035 113.505 135.16 114C134.285 114.49 133.243 114.734 132.035 114.734C130.822 114.734 129.775 114.479 128.895 113.969C128.02 113.458 127.342 112.706 126.863 111.711C126.389 110.716 126.152 109.492 126.152 108.039V107.055C126.152 104.164 126.715 102.021 127.84 100.625C128.965 99.2292 130.618 98.5208 132.801 98.5C133.395 98.4896 133.931 98.487 134.41 98.4922C134.889 98.4974 135.309 98.474 135.668 98.4219C136.033 98.3698 136.335 98.2604 136.574 98.0937ZM132.051 112.156C132.561 112.156 132.999 112.023 133.363 111.758C133.733 111.492 134.017 111.112 134.215 110.617C134.418 110.122 134.52 109.531 134.52 108.844C134.52 108.161 134.418 107.583 134.215 107.109C134.017 106.63 133.733 106.266 133.363 106.016C132.993 105.766 132.551 105.641 132.035 105.641C131.65 105.641 131.303 105.711 130.996 105.852C130.689 105.992 130.426 106.201 130.207 106.477C129.993 106.747 129.827 107.083 129.707 107.484C129.592 107.88 129.535 108.333 129.535 108.844C129.535 109.87 129.757 110.68 130.199 111.273C130.647 111.862 131.264 112.156 132.051 112.156ZM139.408 114.5L139.393 111.859H139.791C140.072 111.859 140.314 111.792 140.518 111.656C140.726 111.516 140.898 111.289 141.033 110.977C141.169 110.664 141.275 110.25 141.354 109.734C141.432 109.214 141.484 108.573 141.51 107.812L141.705 102.5H150.83V114.5H147.658V105.117H144.697L144.51 108.781C144.463 109.786 144.34 110.651 144.143 111.375C143.95 112.099 143.682 112.693 143.338 113.156C142.994 113.615 142.58 113.953 142.096 114.172C141.611 114.391 141.049 114.5 140.408 114.5H139.408ZM156.59 110.109L160.91 102.5H164.191V114.5H161.02V106.867L156.715 114.5H153.41V102.5H156.59V110.109ZM177.273 102.5V114.5H174.117V102.5H177.273ZM175.734 107.766V110.391C175.479 110.505 175.161 110.615 174.781 110.719C174.401 110.818 174.003 110.898 173.586 110.961C173.169 111.023 172.779 111.055 172.414 111.055C170.69 111.055 169.333 110.701 168.344 109.992C167.354 109.279 166.859 108.141 166.859 106.578V102.484H170V106.578C170 107.042 170.078 107.409 170.234 107.68C170.396 107.951 170.651 108.146 171 108.266C171.354 108.38 171.826 108.437 172.414 108.437C172.961 108.437 173.497 108.38 174.023 108.266C174.549 108.151 175.12 107.984 175.734 107.766ZM190.271 102.5V114.5H187.115V102.5H190.271ZM188.732 107.766V110.391C188.477 110.505 188.16 110.615 187.779 110.719C187.399 110.818 187.001 110.898 186.584 110.961C186.167 111.023 185.777 111.055 185.412 111.055C183.688 111.055 182.331 110.701 181.342 109.992C180.352 109.279 179.857 108.141 179.857 106.578V102.484H182.998V106.578C182.998 107.042 183.076 107.409 183.232 107.68C183.394 107.951 183.649 108.146 183.998 108.266C184.352 108.38 184.824 108.437 185.412 108.437C185.959 108.437 186.495 108.38 187.021 108.266C187.548 108.151 188.118 107.984 188.732 107.766ZM199.887 114.5V105.109H197.637C197.027 105.109 196.564 105.25 196.246 105.531C195.928 105.812 195.772 106.146 195.777 106.531C195.772 106.922 195.923 107.253 196.23 107.523C196.543 107.789 197.001 107.922 197.605 107.922H200.996V110.172H197.605C196.579 110.172 195.691 110.016 194.941 109.703C194.191 109.391 193.613 108.956 193.207 108.398C192.801 107.836 192.6 107.182 192.605 106.437C192.6 105.656 192.801 104.971 193.207 104.383C193.613 103.789 194.194 103.328 194.949 103C195.71 102.667 196.605 102.5 197.637 102.5H202.988V114.5H199.887ZM192.262 114.5L195.598 108.25H198.777L195.449 114.5H192.262ZM210.666 114.5V102.5H213.994V107.156H214.932L218.197 102.5H222.104L217.861 108.453L222.15 114.5H218.197L215.236 110.242H213.994V114.5H210.666ZM222.854 114.5L222.838 111.859H223.236C223.518 111.859 223.76 111.792 223.963 111.656C224.171 111.516 224.343 111.289 224.479 110.977C224.614 110.664 224.721 110.25 224.799 109.734C224.877 109.214 224.929 108.573 224.955 107.812L225.15 102.5H234.275V114.5H231.104V105.117H228.143L227.955 108.781C227.908 109.786 227.786 110.651 227.588 111.375C227.395 112.099 227.127 112.693 226.783 113.156C226.439 113.615 226.025 113.953 225.541 114.172C225.057 114.391 224.494 114.5 223.854 114.5H222.854ZM240.277 114.727C239.512 114.727 238.829 114.594 238.23 114.328C237.632 114.057 237.158 113.659 236.809 113.133C236.465 112.602 236.293 111.94 236.293 111.148C236.293 110.482 236.415 109.922 236.66 109.469C236.905 109.016 237.238 108.651 237.66 108.375C238.082 108.099 238.561 107.891 239.098 107.75C239.639 107.609 240.207 107.51 240.801 107.453C241.499 107.38 242.061 107.312 242.488 107.25C242.915 107.182 243.225 107.083 243.418 106.953C243.611 106.823 243.707 106.63 243.707 106.375V106.328C243.707 105.833 243.551 105.451 243.238 105.18C242.931 104.909 242.493 104.773 241.926 104.773C241.327 104.773 240.85 104.906 240.496 105.172C240.142 105.432 239.908 105.76 239.793 106.156L236.715 105.906C236.871 105.177 237.178 104.547 237.637 104.016C238.095 103.479 238.686 103.068 239.41 102.781C240.139 102.49 240.983 102.344 241.941 102.344C242.608 102.344 243.246 102.422 243.855 102.578C244.47 102.734 245.014 102.977 245.488 103.305C245.967 103.633 246.345 104.055 246.621 104.57C246.897 105.081 247.035 105.693 247.035 106.406V114.5H243.879V112.836H243.785C243.592 113.211 243.335 113.542 243.012 113.828C242.689 114.109 242.301 114.331 241.848 114.492C241.395 114.648 240.871 114.727 240.277 114.727ZM241.23 112.43C241.72 112.43 242.152 112.333 242.527 112.141C242.902 111.943 243.197 111.677 243.41 111.344C243.624 111.01 243.73 110.633 243.73 110.211V108.938C243.626 109.005 243.483 109.068 243.301 109.125C243.124 109.177 242.923 109.227 242.699 109.273C242.475 109.315 242.251 109.354 242.027 109.391C241.803 109.422 241.6 109.451 241.418 109.477C241.027 109.534 240.686 109.625 240.395 109.75C240.103 109.875 239.876 110.044 239.715 110.258C239.553 110.466 239.473 110.727 239.473 111.039C239.473 111.492 239.637 111.839 239.965 112.078C240.298 112.312 240.72 112.43 241.23 112.43ZM255.039 114.734C253.81 114.734 252.753 114.474 251.867 113.953C250.987 113.427 250.31 112.698 249.836 111.766C249.367 110.833 249.133 109.76 249.133 108.547C249.133 107.318 249.37 106.24 249.844 105.312C250.323 104.38 251.003 103.654 251.883 103.133C252.763 102.607 253.81 102.344 255.023 102.344C256.07 102.344 256.987 102.534 257.773 102.914C258.56 103.294 259.182 103.828 259.641 104.516C260.099 105.203 260.352 106.01 260.398 106.938H257.258C257.169 106.339 256.935 105.857 256.555 105.492C256.18 105.122 255.688 104.937 255.078 104.937C254.562 104.937 254.112 105.078 253.727 105.359C253.346 105.635 253.049 106.039 252.836 106.57C252.622 107.102 252.516 107.745 252.516 108.5C252.516 109.266 252.62 109.917 252.828 110.453C253.042 110.99 253.341 111.398 253.727 111.68C254.112 111.961 254.562 112.102 255.078 112.102C255.458 112.102 255.799 112.023 256.102 111.867C256.409 111.711 256.661 111.484 256.859 111.187C257.063 110.885 257.195 110.523 257.258 110.102H260.398C260.346 111.018 260.096 111.826 259.648 112.523C259.206 113.216 258.594 113.758 257.813 114.148C257.031 114.539 256.107 114.734 255.039 114.734ZM265.709 110.109L270.029 102.5H273.311V114.5H270.139V106.867L265.834 114.5H262.529V102.5H265.709V110.109ZM286.393 102.5V114.5H283.236V102.5H286.393ZM284.854 107.766V110.391C284.598 110.505 284.281 110.615 283.9 110.719C283.52 110.818 283.122 110.898 282.705 110.961C282.288 111.023 281.898 111.055 281.533 111.055C279.809 111.055 278.452 110.701 277.463 109.992C276.473 109.279 275.979 108.141 275.979 106.578V102.484H279.119V106.578C279.119 107.042 279.197 107.409 279.354 107.68C279.515 107.951 279.77 108.146 280.119 108.266C280.473 108.38 280.945 108.437 281.533 108.437C282.08 108.437 282.617 108.38 283.143 108.266C283.669 108.151 284.239 107.984 284.854 107.766ZM297.328 107.172V109.789H291.062V107.172H297.328ZM292.156 102.5V114.5H288.977V102.5H292.156ZM299.414 102.5V114.5H296.258V102.5H299.414ZM305.418 114.727C304.652 114.727 303.97 114.594 303.371 114.328C302.772 114.057 302.298 113.659 301.949 113.133C301.605 112.602 301.434 111.94 301.434 111.148C301.434 110.482 301.556 109.922 301.801 109.469C302.046 109.016 302.379 108.651 302.801 108.375C303.223 108.099 303.702 107.891 304.238 107.75C304.78 107.609 305.348 107.51 305.941 107.453C306.639 107.38 307.202 107.312 307.629 107.25C308.056 107.182 308.366 107.083 308.559 106.953C308.751 106.823 308.848 106.63 308.848 106.375V106.328C308.848 105.833 308.691 105.451 308.379 105.18C308.072 104.909 307.634 104.773 307.066 104.773C306.467 104.773 305.991 104.906 305.637 105.172C305.283 105.432 305.048 105.76 304.934 106.156L301.855 105.906C302.012 105.177 302.319 104.547 302.777 104.016C303.236 103.479 303.827 103.068 304.551 102.781C305.28 102.49 306.124 102.344 307.082 102.344C307.749 102.344 308.387 102.422 308.996 102.578C309.611 102.734 310.155 102.977 310.629 103.305C311.108 103.633 311.486 104.055 311.762 104.57C312.038 105.081 312.176 105.693 312.176 106.406V114.5H309.02V112.836H308.926C308.733 113.211 308.475 113.542 308.152 113.828C307.829 114.109 307.441 114.331 306.988 114.492C306.535 114.648 306.012 114.727 305.418 114.727ZM306.371 112.43C306.861 112.43 307.293 112.333 307.668 112.141C308.043 111.943 308.337 111.677 308.551 111.344C308.764 111.01 308.871 110.633 308.871 110.211V108.938C308.767 109.005 308.624 109.068 308.441 109.125C308.264 109.177 308.064 109.227 307.84 109.273C307.616 109.315 307.392 109.354 307.168 109.391C306.944 109.422 306.741 109.451 306.559 109.477C306.168 109.534 305.827 109.625 305.535 109.75C305.243 109.875 305.017 110.044 304.855 110.258C304.694 110.466 304.613 110.727 304.613 111.039C304.613 111.492 304.777 111.839 305.105 112.078C305.439 112.312 305.861 112.43 306.371 112.43Z" fill="black"/>
<path d="M1132.16 96.8182V115H1128.32V100.467H1128.21L1124.04 103.077V99.668L1128.55 96.8182H1132.16ZM1143.46 115.249C1142.52 115.243 1141.62 115.086 1140.75 114.778C1139.89 114.47 1139.11 113.97 1138.42 113.278C1137.74 112.585 1137.19 111.668 1136.79 110.526C1136.39 109.383 1136.2 107.981 1136.2 106.317C1136.2 104.79 1136.38 103.426 1136.72 102.225C1137.07 101.017 1137.57 99.9935 1138.21 99.1531C1138.86 98.3126 1139.64 97.6734 1140.55 97.2354C1141.45 96.7915 1142.47 96.5696 1143.59 96.5696C1144.81 96.5696 1145.88 96.8063 1146.81 97.2798C1147.73 97.7474 1148.48 98.3836 1149.04 99.1886C1149.61 99.9935 1149.95 100.896 1150.07 101.896H1146.28C1146.13 101.263 1145.82 100.766 1145.35 100.405C1144.88 100.044 1144.29 99.8633 1143.59 99.8633C1142.41 99.8633 1141.51 100.378 1140.89 101.408C1140.28 102.438 1139.97 103.838 1139.96 105.607H1140.08C1140.36 105.069 1140.72 104.61 1141.19 104.231C1141.65 103.846 1142.18 103.554 1142.77 103.352C1143.37 103.145 1144 103.042 1144.67 103.042C1145.74 103.042 1146.7 103.296 1147.54 103.805C1148.38 104.308 1149.05 105.001 1149.53 105.882C1150.02 106.764 1150.26 107.773 1150.26 108.91C1150.26 110.141 1149.97 111.236 1149.4 112.195C1148.83 113.153 1148.03 113.905 1147.01 114.45C1145.99 114.988 1144.81 115.254 1143.46 115.249ZM1143.44 112.23C1144.03 112.23 1144.56 112.088 1145.03 111.804C1145.5 111.52 1145.86 111.135 1146.13 110.65C1146.4 110.165 1146.53 109.62 1146.53 109.016C1146.53 108.413 1146.4 107.871 1146.13 107.392C1145.87 106.912 1145.51 106.531 1145.05 106.246C1144.59 105.962 1144.06 105.82 1143.47 105.82C1143.02 105.82 1142.61 105.903 1142.23 106.069C1141.86 106.235 1141.53 106.465 1141.25 106.761C1140.97 107.057 1140.75 107.401 1140.59 107.791C1140.43 108.176 1140.35 108.587 1140.35 109.025C1140.35 109.611 1140.48 110.147 1140.75 110.632C1141.02 111.117 1141.39 111.505 1141.85 111.795C1142.32 112.085 1142.85 112.23 1143.44 112.23ZM1160.11 115.4C1158.59 115.394 1157.27 115.018 1156.17 114.272C1155.08 113.526 1154.23 112.446 1153.64 111.032C1153.06 109.617 1152.77 107.915 1152.77 105.927C1152.77 103.944 1153.06 102.254 1153.65 100.858C1154.24 99.4608 1155.09 98.3984 1156.18 97.6705C1157.28 96.9366 1158.59 96.5696 1160.11 96.5696C1161.63 96.5696 1162.94 96.9366 1164.04 97.6705C1165.14 98.4044 1165.98 99.4697 1166.58 100.866C1167.17 102.257 1167.46 103.944 1167.46 105.927C1167.46 107.921 1167.16 109.626 1166.57 111.04C1165.98 112.455 1165.14 113.535 1164.05 114.281C1162.95 115.027 1161.64 115.4 1160.11 115.4ZM1160.11 112.212C1161.16 112.212 1161.99 111.689 1162.61 110.641C1163.23 109.593 1163.54 108.022 1163.53 105.927C1163.53 104.548 1163.39 103.4 1163.11 102.482C1162.83 101.565 1162.43 100.875 1161.92 100.414C1161.41 99.9521 1160.81 99.7212 1160.11 99.7212C1159.08 99.7212 1158.25 100.239 1157.63 101.275C1157.01 102.311 1156.69 103.861 1156.69 105.927C1156.69 107.324 1156.83 108.49 1157.1 109.425C1157.39 110.354 1157.79 111.052 1158.3 111.52C1158.82 111.982 1159.42 112.212 1160.11 112.212ZM1177.33 115.4C1175.8 115.394 1174.48 115.018 1173.38 114.272C1172.29 113.526 1171.45 112.446 1170.85 111.032C1170.27 109.617 1169.98 107.915 1169.98 105.927C1169.98 103.944 1170.28 102.254 1170.86 100.858C1171.45 99.4608 1172.3 98.3984 1173.39 97.6705C1174.49 96.9366 1175.8 96.5696 1177.33 96.5696C1178.85 96.5696 1180.15 96.9366 1181.25 97.6705C1182.35 98.4044 1183.2 99.4697 1183.79 100.866C1184.38 102.257 1184.67 103.944 1184.67 105.927C1184.67 107.921 1184.37 109.626 1183.78 111.04C1183.19 112.455 1182.35 113.535 1181.26 114.281C1180.16 115.027 1178.85 115.4 1177.33 115.4ZM1177.33 112.212C1178.37 112.212 1179.2 111.689 1179.82 110.641C1180.44 109.593 1180.75 108.022 1180.74 105.927C1180.74 104.548 1180.6 103.4 1180.32 102.482C1180.04 101.565 1179.64 100.875 1179.13 100.414C1178.62 99.9521 1178.02 99.7212 1177.33 99.7212C1176.29 99.7212 1175.46 100.239 1174.84 101.275C1174.22 102.311 1173.9 103.861 1173.9 105.927C1173.9 107.324 1174.04 108.49 1174.32 109.425C1174.6 110.354 1175 111.052 1175.51 111.52C1176.03 111.982 1176.63 112.212 1177.33 112.212ZM1201.22 99.6946C1200.53 99.6946 1200 99.8337 1199.65 100.112C1199.3 100.39 1199.11 100.79 1199.09 101.31H1195.22C1195.28 100.292 1195.54 99.4312 1196 98.7269C1196.46 98.0226 1197.11 97.487 1197.96 97.12C1198.82 96.7531 1199.88 96.5696 1201.15 96.5696C1202.41 96.5696 1203.48 96.7442 1204.35 97.0934C1205.24 97.4426 1205.9 97.9279 1206.36 98.5494C1206.82 99.1708 1207.04 99.8988 1207.04 100.733C1207.04 101.13 1206.97 101.509 1206.81 101.87C1206.66 102.225 1206.45 102.55 1206.2 102.846C1205.95 103.136 1205.67 103.391 1205.37 103.61L1202.31 102.793C1202.63 102.556 1202.86 102.296 1203.01 102.012C1203.17 101.728 1203.25 101.402 1203.24 101.035C1203.25 100.627 1203.08 100.301 1202.74 100.059C1202.39 99.8159 1201.89 99.6946 1201.22 99.6946ZM1208.22 105.146H1193.98V102.598H1208.22V105.146ZM1208.22 108.972H1193.98V106.486H1208.22V108.972ZM1201.15 115.249C1199.11 115.249 1197.56 114.858 1196.51 114.077C1195.47 113.295 1194.95 112.224 1194.94 110.863C1194.95 110.455 1195.04 110.058 1195.21 109.673C1195.38 109.289 1195.61 108.942 1195.88 108.635C1196.16 108.327 1196.47 108.087 1196.8 107.915L1199.84 108.661C1199.49 108.898 1199.23 109.191 1199.05 109.54C1198.88 109.889 1198.78 110.23 1198.78 110.561C1198.78 111.07 1199 111.464 1199.42 111.742C1199.84 112.02 1200.42 112.159 1201.15 112.159C1201.88 112.159 1202.46 112.02 1202.91 111.742C1203.36 111.464 1203.6 110.984 1203.63 110.304H1207.55C1207.48 111.446 1207.22 112.381 1206.74 113.109C1206.27 113.837 1205.58 114.376 1204.66 114.725C1203.73 115.074 1202.56 115.249 1201.15 115.249Z" fill="#14142A"/>
<mask id="path-8-inside-2_292_2020" fill="white">
<path d="M0.775391 140H1252.78V210H0.775391V140Z"/>
</mask>
<path d="M0.775391 140H1252.78V210H0.775391V140Z" fill="white"/>
<path d="M0.775391 140V139H-0.224609V140H0.775391ZM1252.78 140H1253.78V139H1252.78V140ZM1252.78 210V211H1253.78V210H1252.78ZM0.775391 210H-0.224609V211H0.775391V210ZM0.775391 141H1252.78V139H0.775391V141ZM1251.78 140V210H1253.78V140H1251.78ZM1252.78 209H0.775391V211H1252.78V209ZM1.77539 210V140H-0.224609V210H1.77539Z" fill="#FE68A4" mask="url(#path-8-inside-2_292_2020)"/>
<path d="M27.8145 167.5H31.1035V172.656C31.1035 173.271 31.2103 173.766 31.4238 174.141C31.6374 174.51 31.9681 174.779 32.416 174.945C32.8691 175.107 33.4499 175.188 34.1582 175.188C34.4082 175.188 34.7025 175.18 35.041 175.164C35.3796 175.143 35.7285 175.115 36.0879 175.078C36.4525 175.042 36.7962 174.997 37.1191 174.945C37.4421 174.893 37.7103 174.833 37.9238 174.766V177.437C37.7051 177.51 37.4316 177.576 37.1035 177.633C36.7806 177.685 36.4395 177.732 36.0801 177.773C35.7207 177.81 35.3717 177.839 35.0332 177.859C34.6947 177.88 34.403 177.891 34.1582 177.891C32.8717 177.891 31.752 177.708 30.7988 177.344C29.8457 176.974 29.1087 176.404 28.5879 175.633C28.0723 174.862 27.8145 173.87 27.8145 172.656V167.5ZM37.3379 167.5H40.6426V183.5H37.3379V167.5ZM47.1055 179.109L51.4258 171.5H54.707V183.5H51.5352V175.867L47.2305 183.5H43.9258V171.5H47.1055V179.109ZM62.7969 183.734C61.5677 183.734 60.5104 183.474 59.625 182.953C58.7448 182.427 58.0677 181.698 57.5938 180.766C57.125 179.833 56.8906 178.76 56.8906 177.547C56.8906 176.318 57.1276 175.24 57.6016 174.312C58.0807 173.38 58.7604 172.654 59.6406 172.133C60.5208 171.607 61.5677 171.344 62.7813 171.344C63.8281 171.344 64.7448 171.534 65.5313 171.914C66.3177 172.294 66.9401 172.828 67.3984 173.516C67.8568 174.203 68.1094 175.01 68.1562 175.938H65.0156C64.9271 175.339 64.6927 174.857 64.3125 174.492C63.9375 174.122 63.4453 173.937 62.8359 173.937C62.3203 173.937 61.8698 174.078 61.4844 174.359C61.1042 174.635 60.8073 175.039 60.5938 175.57C60.3802 176.102 60.2734 176.745 60.2734 177.5C60.2734 178.266 60.3776 178.917 60.5859 179.453C60.7995 179.99 61.099 180.398 61.4844 180.68C61.8698 180.961 62.3203 181.102 62.8359 181.102C63.2161 181.102 63.5573 181.023 63.8594 180.867C64.1667 180.711 64.4193 180.484 64.6172 180.187C64.8203 179.885 64.9531 179.523 65.0156 179.102H68.1562C68.1042 180.018 67.8542 180.826 67.4063 181.523C66.9635 182.216 66.3516 182.758 65.5703 183.148C64.7891 183.539 63.8646 183.734 62.7969 183.734ZM69.4687 174.117V171.5H80.3438V174.117H76.4766V183.5H73.3047V174.117H69.4687ZM82.3613 183.5V171.5H85.6895V176.156H86.627L89.8926 171.5H93.7988L89.5566 177.453L93.8457 183.5H89.8926L86.9316 179.242H85.6895V183.5H82.3613ZM98.6738 183.727C97.9082 183.727 97.2259 183.594 96.627 183.328C96.028 183.057 95.554 182.659 95.2051 182.133C94.8613 181.602 94.6895 180.94 94.6895 180.148C94.6895 179.482 94.8118 178.922 95.0566 178.469C95.3014 178.016 95.6348 177.651 96.0566 177.375C96.4785 177.099 96.9577 176.891 97.4941 176.75C98.0358 176.609 98.6035 176.51 99.1973 176.453C99.8952 176.38 100.458 176.312 100.885 176.25C101.312 176.182 101.622 176.083 101.814 175.953C102.007 175.823 102.104 175.63 102.104 175.375V175.328C102.104 174.833 101.947 174.451 101.635 174.18C101.327 173.909 100.89 173.773 100.322 173.773C99.7233 173.773 99.2467 173.906 98.8926 174.172C98.5384 174.432 98.304 174.76 98.1895 175.156L95.1113 174.906C95.2676 174.177 95.5749 173.547 96.0332 173.016C96.4915 172.479 97.0827 172.068 97.8066 171.781C98.5358 171.49 99.3796 171.344 100.338 171.344C101.005 171.344 101.643 171.422 102.252 171.578C102.867 171.734 103.411 171.977 103.885 172.305C104.364 172.633 104.742 173.055 105.018 173.57C105.294 174.081 105.432 174.693 105.432 175.406V183.5H102.275V181.836H102.182C101.989 182.211 101.731 182.542 101.408 182.828C101.085 183.109 100.697 183.331 100.244 183.492C99.791 183.648 99.2676 183.727 98.6738 183.727ZM99.627 181.43C100.117 181.43 100.549 181.333 100.924 181.141C101.299 180.943 101.593 180.677 101.807 180.344C102.02 180.01 102.127 179.633 102.127 179.211V177.938C102.023 178.005 101.88 178.068 101.697 178.125C101.52 178.177 101.32 178.227 101.096 178.273C100.872 178.315 100.648 178.354 100.424 178.391C100.2 178.422 99.9967 178.451 99.8145 178.477C99.4238 178.534 99.0827 178.625 98.791 178.75C98.4993 178.875 98.2728 179.044 98.1113 179.258C97.9499 179.466 97.8691 179.727 97.8691 180.039C97.8691 180.492 98.0332 180.839 98.3613 181.078C98.6947 181.312 99.1165 181.43 99.627 181.43ZM118.527 183.734C117.314 183.734 116.264 183.477 115.379 182.961C114.499 182.44 113.819 181.716 113.34 180.789C112.861 179.857 112.621 178.776 112.621 177.547C112.621 176.307 112.861 175.224 113.34 174.297C113.819 173.365 114.499 172.641 115.379 172.125C116.264 171.604 117.314 171.344 118.527 171.344C119.741 171.344 120.788 171.604 121.668 172.125C122.553 172.641 123.236 173.365 123.715 174.297C124.194 175.224 124.434 176.307 124.434 177.547C124.434 178.776 124.194 179.857 123.715 180.789C123.236 181.716 122.553 182.44 121.668 182.961C120.788 183.477 119.741 183.734 118.527 183.734ZM118.543 181.156C119.095 181.156 119.556 181 119.926 180.688C120.296 180.37 120.574 179.937 120.762 179.391C120.954 178.844 121.051 178.221 121.051 177.523C121.051 176.826 120.954 176.203 120.762 175.656C120.574 175.109 120.296 174.677 119.926 174.359C119.556 174.042 119.095 173.883 118.543 173.883C117.986 173.883 117.517 174.042 117.137 174.359C116.762 174.677 116.478 175.109 116.285 175.656C116.098 176.203 116.004 176.826 116.004 177.523C116.004 178.221 116.098 178.844 116.285 179.391C116.478 179.937 116.762 180.37 117.137 180.688C117.517 181 117.986 181.156 118.543 181.156ZM136.574 167.094L137.59 169.266C137.251 169.547 136.876 169.755 136.465 169.891C136.053 170.021 135.561 170.107 134.988 170.148C134.421 170.19 133.728 170.219 132.91 170.234C131.983 170.245 131.228 170.393 130.645 170.68C130.061 170.966 129.618 171.417 129.316 172.031C129.014 172.641 128.816 173.437 128.723 174.422H128.84C129.199 173.687 129.704 173.12 130.355 172.719C131.012 172.318 131.822 172.117 132.785 172.117C133.806 172.117 134.699 172.341 135.465 172.789C136.236 173.237 136.835 173.88 137.262 174.719C137.689 175.557 137.902 176.562 137.902 177.734C137.902 178.953 137.663 180.013 137.184 180.914C136.71 181.81 136.035 182.505 135.16 183C134.285 183.49 133.243 183.734 132.035 183.734C130.822 183.734 129.775 183.479 128.895 182.969C128.02 182.458 127.342 181.706 126.863 180.711C126.389 179.716 126.152 178.492 126.152 177.039V176.055C126.152 173.164 126.715 171.021 127.84 169.625C128.965 168.229 130.618 167.521 132.801 167.5C133.395 167.49 133.931 167.487 134.41 167.492C134.889 167.497 135.309 167.474 135.668 167.422C136.033 167.37 136.335 167.26 136.574 167.094ZM132.051 181.156C132.561 181.156 132.999 181.023 133.363 180.758C133.733 180.492 134.017 180.112 134.215 179.617C134.418 179.122 134.52 178.531 134.52 177.844C134.52 177.161 134.418 176.583 134.215 176.109C134.017 175.63 133.733 175.266 133.363 175.016C132.993 174.766 132.551 174.641 132.035 174.641C131.65 174.641 131.303 174.711 130.996 174.852C130.689 174.992 130.426 175.201 130.207 175.477C129.993 175.747 129.827 176.083 129.707 176.484C129.592 176.88 129.535 177.333 129.535 177.844C129.535 178.87 129.757 179.68 130.199 180.273C130.647 180.862 131.264 181.156 132.051 181.156ZM139.408 183.5L139.393 180.859H139.791C140.072 180.859 140.314 180.792 140.518 180.656C140.726 180.516 140.898 180.289 141.033 179.977C141.169 179.664 141.275 179.25 141.354 178.734C141.432 178.214 141.484 177.573 141.51 176.812L141.705 171.5H150.83V183.5H147.658V174.117H144.697L144.51 177.781C144.463 178.786 144.34 179.651 144.143 180.375C143.95 181.099 143.682 181.693 143.338 182.156C142.994 182.615 142.58 182.953 142.096 183.172C141.611 183.391 141.049 183.5 140.408 183.5H139.408ZM156.59 179.109L160.91 171.5H164.191V183.5H161.02V175.867L156.715 183.5H153.41V171.5H156.59V179.109ZM177.273 171.5V183.5H174.117V171.5H177.273ZM175.734 176.766V179.391C175.479 179.505 175.161 179.615 174.781 179.719C174.401 179.818 174.003 179.898 173.586 179.961C173.169 180.023 172.779 180.055 172.414 180.055C170.69 180.055 169.333 179.701 168.344 178.992C167.354 178.279 166.859 177.141 166.859 175.578V171.484H170V175.578C170 176.042 170.078 176.409 170.234 176.68C170.396 176.951 170.651 177.146 171 177.266C171.354 177.38 171.826 177.437 172.414 177.437C172.961 177.437 173.497 177.38 174.023 177.266C174.549 177.151 175.12 176.984 175.734 176.766ZM190.271 171.5V183.5H187.115V171.5H190.271ZM188.732 176.766V179.391C188.477 179.505 188.16 179.615 187.779 179.719C187.399 179.818 187.001 179.898 186.584 179.961C186.167 180.023 185.777 180.055 185.412 180.055C183.688 180.055 182.331 179.701 181.342 178.992C180.352 178.279 179.857 177.141 179.857 175.578V171.484H182.998V175.578C182.998 176.042 183.076 176.409 183.232 176.68C183.394 176.951 183.649 177.146 183.998 177.266C184.352 177.38 184.824 177.437 185.412 177.437C185.959 177.437 186.495 177.38 187.021 177.266C187.548 177.151 188.118 176.984 188.732 176.766ZM199.887 183.5V174.109H197.637C197.027 174.109 196.564 174.25 196.246 174.531C195.928 174.812 195.772 175.146 195.777 175.531C195.772 175.922 195.923 176.253 196.23 176.523C196.543 176.789 197.001 176.922 197.605 176.922H200.996V179.172H197.605C196.579 179.172 195.691 179.016 194.941 178.703C194.191 178.391 193.613 177.956 193.207 177.398C192.801 176.836 192.6 176.182 192.605 175.437C192.6 174.656 192.801 173.971 193.207 173.383C193.613 172.789 194.194 172.328 194.949 172C195.71 171.667 196.605 171.5 197.637 171.5H202.988V183.5H199.887ZM192.262 183.5L195.598 177.25H198.777L195.449 183.5H192.262ZM210.666 183.5V171.5H213.994V176.156H214.932L218.197 171.5H222.104L217.861 177.453L222.15 183.5H218.197L215.236 179.242H213.994V183.5H210.666ZM228.484 183.734C227.271 183.734 226.221 183.477 225.336 182.961C224.456 182.44 223.776 181.716 223.297 180.789C222.818 179.857 222.578 178.776 222.578 177.547C222.578 176.307 222.818 175.224 223.297 174.297C223.776 173.365 224.456 172.641 225.336 172.125C226.221 171.604 227.271 171.344 228.484 171.344C229.698 171.344 230.745 171.604 231.625 172.125C232.51 172.641 233.193 173.365 233.672 174.297C234.151 175.224 234.391 176.307 234.391 177.547C234.391 178.776 234.151 179.857 233.672 180.789C233.193 181.716 232.51 182.44 231.625 182.961C230.745 183.477 229.698 183.734 228.484 183.734ZM228.5 181.156C229.052 181.156 229.513 181 229.883 180.688C230.253 180.37 230.531 179.937 230.719 179.391C230.911 178.844 231.008 178.221 231.008 177.523C231.008 176.826 230.911 176.203 230.719 175.656C230.531 175.109 230.253 174.677 229.883 174.359C229.513 174.042 229.052 173.883 228.5 173.883C227.943 173.883 227.474 174.042 227.094 174.359C226.719 174.677 226.435 175.109 226.242 175.656C226.055 176.203 225.961 176.826 225.961 177.523C225.961 178.221 226.055 178.844 226.242 179.391C226.435 179.937 226.719 180.37 227.094 180.688C227.474 181 227.943 181.156 228.5 181.156ZM243.648 179.82L246.898 171.5H249.43L244.75 183.5H242.539L237.969 171.5H240.492L243.648 179.82ZM239.734 171.5V183.5H236.555V171.5H239.734ZM247.727 183.5V171.5H250.867V183.5H247.727ZM263.418 167.094L264.434 169.266C264.095 169.547 263.72 169.755 263.309 169.891C262.897 170.021 262.405 170.107 261.832 170.148C261.264 170.19 260.572 170.219 259.754 170.234C258.827 170.245 258.072 170.393 257.488 170.68C256.905 170.966 256.462 171.417 256.16 172.031C255.858 172.641 255.66 173.437 255.566 174.422H255.684C256.043 173.687 256.548 173.12 257.199 172.719C257.855 172.318 258.665 172.117 259.629 172.117C260.65 172.117 261.543 172.341 262.309 172.789C263.079 173.237 263.678 173.88 264.105 174.719C264.533 175.557 264.746 176.562 264.746 177.734C264.746 178.953 264.507 180.013 264.027 180.914C263.553 181.81 262.879 182.505 262.004 183C261.129 183.49 260.087 183.734 258.879 183.734C257.665 183.734 256.618 183.479 255.738 182.969C254.863 182.458 254.186 181.706 253.707 180.711C253.233 179.716 252.996 178.492 252.996 177.039V176.055C252.996 173.164 253.559 171.021 254.684 169.625C255.809 168.229 257.462 167.521 259.645 167.5C260.238 167.49 260.775 167.487 261.254 167.492C261.733 167.497 262.152 167.474 262.512 167.422C262.876 167.37 263.178 167.26 263.418 167.094ZM258.895 181.156C259.405 181.156 259.842 181.023 260.207 180.758C260.577 180.492 260.861 180.112 261.059 179.617C261.262 179.122 261.363 178.531 261.363 177.844C261.363 177.161 261.262 176.583 261.059 176.109C260.861 175.63 260.577 175.266 260.207 175.016C259.837 174.766 259.395 174.641 258.879 174.641C258.493 174.641 258.147 174.711 257.84 174.852C257.533 174.992 257.27 175.201 257.051 175.477C256.837 175.747 256.671 176.083 256.551 176.484C256.436 176.88 256.379 177.333 256.379 177.844C256.379 178.87 256.6 179.68 257.043 180.273C257.491 180.862 258.108 181.156 258.895 181.156ZM266.955 183.5V171.5H270.283V183.5H266.955ZM268.627 169.953C268.132 169.953 267.708 169.789 267.354 169.461C267.005 169.128 266.83 168.729 266.83 168.266C266.83 167.807 267.005 167.414 267.354 167.086C267.708 166.753 268.132 166.586 268.627 166.586C269.122 166.586 269.544 166.753 269.893 167.086C270.247 167.414 270.424 167.807 270.424 168.266C270.424 168.729 270.247 169.128 269.893 169.461C269.544 169.789 269.122 169.953 268.627 169.953ZM281.301 176.172V178.789H275.035V176.172H281.301ZM276.129 171.5V183.5H272.949V171.5H276.129ZM283.387 171.5V183.5H280.23V171.5H283.387ZM291.391 183.734C290.177 183.734 289.128 183.477 288.242 182.961C287.362 182.44 286.682 181.716 286.203 180.789C285.724 179.857 285.484 178.776 285.484 177.547C285.484 176.307 285.724 175.224 286.203 174.297C286.682 173.365 287.362 172.641 288.242 172.125C289.128 171.604 290.177 171.344 291.391 171.344C292.604 171.344 293.651 171.604 294.531 172.125C295.417 172.641 296.099 173.365 296.578 174.297C297.057 175.224 297.297 176.307 297.297 177.547C297.297 178.776 297.057 179.857 296.578 180.789C296.099 181.716 295.417 182.44 294.531 182.961C293.651 183.477 292.604 183.734 291.391 183.734ZM291.406 181.156C291.958 181.156 292.419 181 292.789 180.688C293.159 180.37 293.438 179.937 293.625 179.391C293.818 178.844 293.914 178.221 293.914 177.523C293.914 176.826 293.818 176.203 293.625 175.656C293.438 175.109 293.159 174.677 292.789 174.359C292.419 174.042 291.958 173.883 291.406 173.883C290.849 173.883 290.38 174.042 290 174.359C289.625 174.677 289.341 175.109 289.148 175.656C288.961 176.203 288.867 176.826 288.867 177.523C288.867 178.221 288.961 178.844 289.148 179.391C289.341 179.937 289.625 180.37 290 180.688C290.38 181 290.849 181.156 291.406 181.156ZM299.461 183.5V171.5H304.578C306.057 171.5 307.227 171.781 308.086 172.344C308.945 172.906 309.375 173.706 309.375 174.742C309.375 175.393 309.133 175.935 308.648 176.367C308.164 176.799 307.492 177.091 306.633 177.242C307.352 177.294 307.964 177.458 308.469 177.734C308.979 178.005 309.367 178.357 309.633 178.789C309.904 179.221 310.039 179.701 310.039 180.227C310.039 180.909 309.857 181.495 309.492 181.984C309.133 182.474 308.604 182.849 307.906 183.109C307.214 183.37 306.367 183.5 305.367 183.5H299.461ZM302.563 181.008H305.367C305.831 181.008 306.193 180.898 306.453 180.68C306.719 180.456 306.852 180.151 306.852 179.766C306.852 179.339 306.719 179.003 306.453 178.758C306.193 178.513 305.831 178.391 305.367 178.391H302.563V181.008ZM302.563 176.437H304.648C304.982 176.437 305.266 176.391 305.5 176.297C305.74 176.198 305.922 176.057 306.047 175.875C306.177 175.693 306.242 175.477 306.242 175.227C306.242 174.857 306.094 174.568 305.797 174.359C305.5 174.151 305.094 174.047 304.578 174.047H302.563V176.437ZM315.559 183.727C314.793 183.727 314.111 183.594 313.512 183.328C312.913 183.057 312.439 182.659 312.09 182.133C311.746 181.602 311.574 180.94 311.574 180.148C311.574 179.482 311.697 178.922 311.941 178.469C312.186 178.016 312.52 177.651 312.941 177.375C313.363 177.099 313.842 176.891 314.379 176.75C314.921 176.609 315.488 176.51 316.082 176.453C316.78 176.38 317.342 176.312 317.77 176.25C318.197 176.182 318.507 176.083 318.699 175.953C318.892 175.823 318.988 175.63 318.988 175.375V175.328C318.988 174.833 318.832 174.451 318.52 174.18C318.212 173.909 317.775 173.773 317.207 173.773C316.608 173.773 316.132 173.906 315.777 174.172C315.423 174.432 315.189 174.76 315.074 175.156L311.996 174.906C312.152 174.177 312.46 173.547 312.918 173.016C313.376 172.479 313.967 172.068 314.691 171.781C315.421 171.49 316.264 171.344 317.223 171.344C317.889 171.344 318.527 171.422 319.137 171.578C319.751 171.734 320.296 171.977 320.77 172.305C321.249 172.633 321.626 173.055 321.902 173.57C322.178 174.081 322.316 174.693 322.316 175.406V183.5H319.16V181.836H319.066C318.874 182.211 318.616 182.542 318.293 182.828C317.97 183.109 317.582 183.331 317.129 183.492C316.676 183.648 316.152 183.727 315.559 183.727ZM316.512 181.43C317.001 181.43 317.434 181.333 317.809 181.141C318.184 180.943 318.478 180.677 318.691 180.344C318.905 180.01 319.012 179.633 319.012 179.211V177.938C318.908 178.005 318.764 178.068 318.582 178.125C318.405 178.177 318.204 178.227 317.98 178.273C317.757 178.315 317.533 178.354 317.309 178.391C317.085 178.422 316.882 178.451 316.699 178.477C316.309 178.534 315.967 178.625 315.676 178.75C315.384 178.875 315.158 179.044 314.996 179.258C314.835 179.466 314.754 179.727 314.754 180.039C314.754 180.492 314.918 180.839 315.246 181.078C315.579 181.312 316.001 181.43 316.512 181.43ZM333.25 176.172V178.789H326.984V176.172H333.25ZM328.078 171.5V183.5H324.898V171.5H328.078ZM335.336 171.5V183.5H332.18V171.5H335.336ZM341.34 183.727C340.574 183.727 339.892 183.594 339.293 183.328C338.694 183.057 338.22 182.659 337.871 182.133C337.527 181.602 337.355 180.94 337.355 180.148C337.355 179.482 337.478 178.922 337.723 178.469C337.967 178.016 338.301 177.651 338.723 177.375C339.145 177.099 339.624 176.891 340.16 176.75C340.702 176.609 341.27 176.51 341.863 176.453C342.561 176.38 343.124 176.312 343.551 176.25C343.978 176.182 344.288 176.083 344.48 175.953C344.673 175.823 344.77 175.63 344.77 175.375V175.328C344.77 174.833 344.613 174.451 344.301 174.18C343.993 173.909 343.556 173.773 342.988 173.773C342.389 173.773 341.913 173.906 341.559 174.172C341.204 174.432 340.97 174.76 340.855 175.156L337.777 174.906C337.934 174.177 338.241 173.547 338.699 173.016C339.158 172.479 339.749 172.068 340.473 171.781C341.202 171.49 342.046 171.344 343.004 171.344C343.671 171.344 344.309 171.422 344.918 171.578C345.533 171.734 346.077 171.977 346.551 172.305C347.03 172.633 347.408 173.055 347.684 173.57C347.96 174.081 348.098 174.693 348.098 175.406V183.5H344.941V181.836H344.848C344.655 182.211 344.397 182.542 344.074 182.828C343.751 183.109 343.363 183.331 342.91 183.492C342.457 183.648 341.934 183.727 341.34 183.727ZM342.293 181.43C342.783 181.43 343.215 181.333 343.59 181.141C343.965 180.943 344.259 180.677 344.473 180.344C344.686 180.01 344.793 179.633 344.793 179.211V177.938C344.689 178.005 344.546 178.068 344.363 178.125C344.186 178.177 343.986 178.227 343.762 178.273C343.538 178.315 343.314 178.354 343.09 178.391C342.866 178.422 342.663 178.451 342.48 178.477C342.09 178.534 341.749 178.625 341.457 178.75C341.165 178.875 340.939 179.044 340.777 179.258C340.616 179.466 340.535 179.727 340.535 180.039C340.535 180.492 340.699 180.839 341.027 181.078C341.361 181.312 341.783 181.43 342.293 181.43Z" fill="black"/>
<path d="M1132.16 165.818V184H1128.32V169.467H1128.21L1124.04 172.077V168.668L1128.55 165.818H1132.16ZM1143.46 184.249C1142.52 184.243 1141.62 184.086 1140.75 183.778C1139.89 183.47 1139.11 182.97 1138.42 182.278C1137.74 181.585 1137.19 180.668 1136.79 179.526C1136.39 178.383 1136.2 176.981 1136.2 175.317C1136.2 173.79 1136.38 172.426 1136.72 171.225C1137.07 170.017 1137.57 168.993 1138.21 168.153C1138.86 167.313 1139.64 166.673 1140.55 166.235C1141.45 165.792 1142.47 165.57 1143.59 165.57C1144.81 165.57 1145.88 165.806 1146.81 166.28C1147.73 166.747 1148.48 167.384 1149.04 168.189C1149.61 168.993 1149.95 169.896 1150.07 170.896H1146.28C1146.13 170.263 1145.82 169.766 1145.35 169.405C1144.88 169.044 1144.29 168.863 1143.59 168.863C1142.41 168.863 1141.51 169.378 1140.89 170.408C1140.28 171.438 1139.97 172.838 1139.96 174.607H1140.08C1140.36 174.069 1140.72 173.61 1141.19 173.231C1141.65 172.846 1142.18 172.554 1142.77 172.352C1143.37 172.145 1144 172.042 1144.67 172.042C1145.74 172.042 1146.7 172.296 1147.54 172.805C1148.38 173.308 1149.05 174.001 1149.53 174.882C1150.02 175.764 1150.26 176.773 1150.26 177.91C1150.26 179.141 1149.97 180.236 1149.4 181.195C1148.83 182.153 1148.03 182.905 1147.01 183.45C1145.99 183.988 1144.81 184.254 1143.46 184.249ZM1143.44 181.23C1144.03 181.23 1144.56 181.088 1145.03 180.804C1145.5 180.52 1145.86 180.135 1146.13 179.65C1146.4 179.165 1146.53 178.62 1146.53 178.016C1146.53 177.413 1146.4 176.871 1146.13 176.392C1145.87 175.912 1145.51 175.531 1145.05 175.246C1144.59 174.962 1144.06 174.82 1143.47 174.82C1143.02 174.82 1142.61 174.903 1142.23 175.069C1141.86 175.235 1141.53 175.465 1141.25 175.761C1140.97 176.057 1140.75 176.401 1140.59 176.791C1140.43 177.176 1140.35 177.587 1140.35 178.025C1140.35 178.611 1140.48 179.147 1140.75 179.632C1141.02 180.117 1141.39 180.505 1141.85 180.795C1142.32 181.085 1142.85 181.23 1143.44 181.23ZM1160.11 184.4C1158.59 184.394 1157.27 184.018 1156.17 183.272C1155.08 182.526 1154.23 181.446 1153.64 180.032C1153.06 178.617 1152.77 176.915 1152.77 174.927C1152.77 172.944 1153.06 171.254 1153.65 169.858C1154.24 168.461 1155.09 167.398 1156.18 166.67C1157.28 165.937 1158.59 165.57 1160.11 165.57C1161.63 165.57 1162.94 165.937 1164.04 166.67C1165.14 167.404 1165.98 168.47 1166.58 169.866C1167.17 171.257 1167.46 172.944 1167.46 174.927C1167.46 176.921 1167.16 178.626 1166.57 180.04C1165.98 181.455 1165.14 182.535 1164.05 183.281C1162.95 184.027 1161.64 184.4 1160.11 184.4ZM1160.11 181.212C1161.16 181.212 1161.99 180.689 1162.61 179.641C1163.23 178.593 1163.54 177.022 1163.53 174.927C1163.53 173.548 1163.39 172.4 1163.11 171.482C1162.83 170.565 1162.43 169.875 1161.92 169.414C1161.41 168.952 1160.81 168.721 1160.11 168.721C1159.08 168.721 1158.25 169.239 1157.63 170.275C1157.01 171.311 1156.69 172.861 1156.69 174.927C1156.69 176.324 1156.83 177.49 1157.1 178.425C1157.39 179.354 1157.79 180.052 1158.3 180.52C1158.82 180.982 1159.42 181.212 1160.11 181.212ZM1177.33 184.4C1175.8 184.394 1174.48 184.018 1173.38 183.272C1172.29 182.526 1171.45 181.446 1170.85 180.032C1170.27 178.617 1169.98 176.915 1169.98 174.927C1169.98 172.944 1170.28 171.254 1170.86 169.858C1171.45 168.461 1172.3 167.398 1173.39 166.67C1174.49 165.937 1175.8 165.57 1177.33 165.57C1178.85 165.57 1180.15 165.937 1181.25 166.67C1182.35 167.404 1183.2 168.47 1183.79 169.866C1184.38 171.257 1184.67 172.944 1184.67 174.927C1184.67 176.921 1184.37 178.626 1183.78 180.04C1183.19 181.455 1182.35 182.535 1181.26 183.281C1180.16 184.027 1178.85 184.4 1177.33 184.4ZM1177.33 181.212C1178.37 181.212 1179.2 180.689 1179.82 179.641C1180.44 178.593 1180.75 177.022 1180.74 174.927C1180.74 173.548 1180.6 172.4 1180.32 171.482C1180.04 170.565 1179.64 169.875 1179.13 169.414C1178.62 168.952 1178.02 168.721 1177.33 168.721C1176.29 168.721 1175.46 169.239 1174.84 170.275C1174.22 171.311 1173.9 172.861 1173.9 174.927C1173.9 176.324 1174.04 177.49 1174.32 178.425C1174.6 179.354 1175 180.052 1175.51 180.52C1176.03 180.982 1176.63 181.212 1177.33 181.212ZM1201.22 168.695C1200.53 168.695 1200 168.834 1199.65 169.112C1199.3 169.39 1199.11 169.79 1199.09 170.31H1195.22C1195.28 169.292 1195.54 168.431 1196 167.727C1196.46 167.023 1197.11 166.487 1197.96 166.12C1198.82 165.753 1199.88 165.57 1201.15 165.57C1202.41 165.57 1203.48 165.744 1204.35 166.093C1205.24 166.443 1205.9 166.928 1206.36 167.549C1206.82 168.171 1207.04 168.899 1207.04 169.733C1207.04 170.13 1206.97 170.509 1206.81 170.87C1206.66 171.225 1206.45 171.55 1206.2 171.846C1205.95 172.136 1205.67 172.391 1205.37 172.61L1202.31 171.793C1202.63 171.556 1202.86 171.296 1203.01 171.012C1203.17 170.728 1203.25 170.402 1203.24 170.035C1203.25 169.627 1203.08 169.301 1202.74 169.059C1202.39 168.816 1201.89 168.695 1201.22 168.695ZM1208.22 174.146H1193.98V171.598H1208.22V174.146ZM1208.22 177.972H1193.98V175.486H1208.22V177.972ZM1201.15 184.249C1199.11 184.249 1197.56 183.858 1196.51 183.077C1195.47 182.295 1194.95 181.224 1194.94 179.863C1194.95 179.455 1195.04 179.058 1195.21 178.673C1195.38 178.289 1195.61 177.942 1195.88 177.635C1196.16 177.327 1196.47 177.087 1196.8 176.915L1199.84 177.661C1199.49 177.898 1199.23 178.191 1199.05 178.54C1198.88 178.889 1198.78 179.23 1198.78 179.561C1198.78 180.07 1199 180.464 1199.42 180.742C1199.84 181.02 1200.42 181.159 1201.15 181.159C1201.88 181.159 1202.46 181.02 1202.91 180.742C1203.36 180.464 1203.6 179.984 1203.63 179.304H1207.55C1207.48 180.446 1207.22 181.381 1206.74 182.109C1206.27 182.837 1205.58 183.376 1204.66 183.725C1203.73 184.074 1202.56 184.249 1201.15 184.249Z" fill="#14142A"/>
<path d="M1.27539 209.5H1252.28V259C1252.28 269.77 1243.54 278.5 1232.78 278.5H20.7754C10.0059 278.5 1.27539 269.77 1.27539 259V209.5Z" fill="white"/>
<path d="M1.27539 209.5H1252.28V259C1252.28 269.77 1243.54 278.5 1232.78 278.5H20.7754C10.0059 278.5 1.27539 269.77 1.27539 259V209.5Z" stroke="#FE68A4"/>
<path d="M27.8145 236.5H31.1035V241.656C31.1035 242.271 31.2103 242.766 31.4238 243.141C31.6374 243.51 31.9681 243.779 32.416 243.945C32.8691 244.107 33.4499 244.188 34.1582 244.188C34.4082 244.188 34.7025 244.18 35.041 244.164C35.3796 244.143 35.7285 244.115 36.0879 244.078C36.4525 244.042 36.7962 243.997 37.1191 243.945C37.4421 243.893 37.7103 243.833 37.9238 243.766V246.437C37.7051 246.51 37.4316 246.576 37.1035 246.633C36.7806 246.685 36.4395 246.732 36.0801 246.773C35.7207 246.81 35.3717 246.839 35.0332 246.859C34.6947 246.88 34.403 246.891 34.1582 246.891C32.8717 246.891 31.752 246.708 30.7988 246.344C29.8457 245.974 29.1087 245.404 28.5879 244.633C28.0723 243.862 27.8145 242.87 27.8145 241.656V236.5ZM37.3379 236.5H40.6426V252.5H37.3379V236.5ZM47.1055 248.109L51.4258 240.5H54.707V252.5H51.5352V244.867L47.2305 252.5H43.9258V240.5H47.1055V248.109ZM62.7969 252.734C61.5677 252.734 60.5104 252.474 59.625 251.953C58.7448 251.427 58.0677 250.698 57.5938 249.766C57.125 248.833 56.8906 247.76 56.8906 246.547C56.8906 245.318 57.1276 244.24 57.6016 243.312C58.0807 242.38 58.7604 241.654 59.6406 241.133C60.5208 240.607 61.5677 240.344 62.7813 240.344C63.8281 240.344 64.7448 240.534 65.5313 240.914C66.3177 241.294 66.9401 241.828 67.3984 242.516C67.8568 243.203 68.1094 244.01 68.1562 244.938H65.0156C64.9271 244.339 64.6927 243.857 64.3125 243.492C63.9375 243.122 63.4453 242.937 62.8359 242.937C62.3203 242.937 61.8698 243.078 61.4844 243.359C61.1042 243.635 60.8073 244.039 60.5938 244.57C60.3802 245.102 60.2734 245.745 60.2734 246.5C60.2734 247.266 60.3776 247.917 60.5859 248.453C60.7995 248.99 61.099 249.398 61.4844 249.68C61.8698 249.961 62.3203 250.102 62.8359 250.102C63.2161 250.102 63.5573 250.023 63.8594 249.867C64.1667 249.711 64.4193 249.484 64.6172 249.187C64.8203 248.885 64.9531 248.523 65.0156 248.102H68.1562C68.1042 249.018 67.8542 249.826 67.4063 250.523C66.9635 251.216 66.3516 251.758 65.5703 252.148C64.7891 252.539 63.8646 252.734 62.7969 252.734ZM69.4687 243.117V240.5H80.3438V243.117H76.4766V252.5H73.3047V243.117H69.4687ZM82.3613 252.5V240.5H85.6895V245.156H86.627L89.8926 240.5H93.7988L89.5566 246.453L93.8457 252.5H89.8926L86.9316 248.242H85.6895V252.5H82.3613ZM98.6738 252.727C97.9082 252.727 97.2259 252.594 96.627 252.328C96.028 252.057 95.554 251.659 95.2051 251.133C94.8613 250.602 94.6895 249.94 94.6895 249.148C94.6895 248.482 94.8118 247.922 95.0566 247.469C95.3014 247.016 95.6348 246.651 96.0566 246.375C96.4785 246.099 96.9577 245.891 97.4941 245.75C98.0358 245.609 98.6035 245.51 99.1973 245.453C99.8952 245.38 100.458 245.312 100.885 245.25C101.312 245.182 101.622 245.083 101.814 244.953C102.007 244.823 102.104 244.63 102.104 244.375V244.328C102.104 243.833 101.947 243.451 101.635 243.18C101.327 242.909 100.89 242.773 100.322 242.773C99.7233 242.773 99.2467 242.906 98.8926 243.172C98.5384 243.432 98.304 243.76 98.1895 244.156L95.1113 243.906C95.2676 243.177 95.5749 242.547 96.0332 242.016C96.4915 241.479 97.0827 241.068 97.8066 240.781C98.5358 240.49 99.3796 240.344 100.338 240.344C101.005 240.344 101.643 240.422 102.252 240.578C102.867 240.734 103.411 240.977 103.885 241.305C104.364 241.633 104.742 242.055 105.018 242.57C105.294 243.081 105.432 243.693 105.432 244.406V252.5H102.275V250.836H102.182C101.989 251.211 101.731 251.542 101.408 251.828C101.085 252.109 100.697 252.331 100.244 252.492C99.791 252.648 99.2676 252.727 98.6738 252.727ZM99.627 250.43C100.117 250.43 100.549 250.333 100.924 250.141C101.299 249.943 101.593 249.677 101.807 249.344C102.02 249.01 102.127 248.633 102.127 248.211V246.938C102.023 247.005 101.88 247.068 101.697 247.125C101.52 247.177 101.32 247.227 101.096 247.273C100.872 247.315 100.648 247.354 100.424 247.391C100.2 247.422 99.9967 247.451 99.8145 247.477C99.4238 247.534 99.0827 247.625 98.791 247.75C98.4993 247.875 98.2728 248.044 98.1113 248.258C97.9499 248.466 97.8691 248.727 97.8691 249.039C97.8691 249.492 98.0332 249.839 98.3613 250.078C98.6947 250.312 99.1165 250.43 99.627 250.43ZM118.527 252.734C117.314 252.734 116.264 252.477 115.379 251.961C114.499 251.44 113.819 250.716 113.34 249.789C112.861 248.857 112.621 247.776 112.621 246.547C112.621 245.307 112.861 244.224 113.34 243.297C113.819 242.365 114.499 241.641 115.379 241.125C116.264 240.604 117.314 240.344 118.527 240.344C119.741 240.344 120.788 240.604 121.668 241.125C122.553 241.641 123.236 242.365 123.715 243.297C124.194 244.224 124.434 245.307 124.434 246.547C124.434 247.776 124.194 248.857 123.715 249.789C123.236 250.716 122.553 251.44 121.668 251.961C120.788 252.477 119.741 252.734 118.527 252.734ZM118.543 250.156C119.095 250.156 119.556 250 119.926 249.688C120.296 249.37 120.574 248.937 120.762 248.391C120.954 247.844 121.051 247.221 121.051 246.523C121.051 245.826 120.954 245.203 120.762 244.656C120.574 244.109 120.296 243.677 119.926 243.359C119.556 243.042 119.095 242.883 118.543 242.883C117.986 242.883 117.517 243.042 117.137 243.359C116.762 243.677 116.478 244.109 116.285 244.656C116.098 245.203 116.004 245.826 116.004 246.523C116.004 247.221 116.098 247.844 116.285 248.391C116.478 248.937 116.762 249.37 117.137 249.688C117.517 250 117.986 250.156 118.543 250.156ZM136.574 236.094L137.59 238.266C137.251 238.547 136.876 238.755 136.465 238.891C136.053 239.021 135.561 239.107 134.988 239.148C134.421 239.19 133.728 239.219 132.91 239.234C131.983 239.245 131.228 239.393 130.645 239.68C130.061 239.966 129.618 240.417 129.316 241.031C129.014 241.641 128.816 242.437 128.723 243.422H128.84C129.199 242.687 129.704 242.12 130.355 241.719C131.012 241.318 131.822 241.117 132.785 241.117C133.806 241.117 134.699 241.341 135.465 241.789C136.236 242.237 136.835 242.88 137.262 243.719C137.689 244.557 137.902 245.562 137.902 246.734C137.902 247.953 137.663 249.013 137.184 249.914C136.71 250.81 136.035 251.505 135.16 252C134.285 252.49 133.243 252.734 132.035 252.734C130.822 252.734 129.775 252.479 128.895 251.969C128.02 251.458 127.342 250.706 126.863 249.711C126.389 248.716 126.152 247.492 126.152 246.039V245.055C126.152 242.164 126.715 240.021 127.84 238.625C128.965 237.229 130.618 236.521 132.801 236.5C133.395 236.49 133.931 236.487 134.41 236.492C134.889 236.497 135.309 236.474 135.668 236.422C136.033 236.37 136.335 236.26 136.574 236.094ZM132.051 250.156C132.561 250.156 132.999 250.023 133.363 249.758C133.733 249.492 134.017 249.112 134.215 248.617C134.418 248.122 134.52 247.531 134.52 246.844C134.52 246.161 134.418 245.583 134.215 245.109C134.017 244.63 133.733 244.266 133.363 244.016C132.993 243.766 132.551 243.641 132.035 243.641C131.65 243.641 131.303 243.711 130.996 243.852C130.689 243.992 130.426 244.201 130.207 244.477C129.993 244.747 129.827 245.083 129.707 245.484C129.592 245.88 129.535 246.333 129.535 246.844C129.535 247.87 129.757 248.68 130.199 249.273C130.647 249.862 131.264 250.156 132.051 250.156ZM139.408 252.5L139.393 249.859H139.791C140.072 249.859 140.314 249.792 140.518 249.656C140.726 249.516 140.898 249.289 141.033 248.977C141.169 248.664 141.275 248.25 141.354 247.734C141.432 247.214 141.484 246.573 141.51 245.812L141.705 240.5H150.83V252.5H147.658V243.117H144.697L144.51 246.781C144.463 247.786 144.34 248.651 144.143 249.375C143.95 250.099 143.682 250.693 143.338 251.156C142.994 251.615 142.58 251.953 142.096 252.172C141.611 252.391 141.049 252.5 140.408 252.5H139.408ZM156.59 248.109L160.91 240.5H164.191V252.5H161.02V244.867L156.715 252.5H153.41V240.5H156.59V248.109ZM177.273 240.5V252.5H174.117V240.5H177.273ZM175.734 245.766V248.391C175.479 248.505 175.161 248.615 174.781 248.719C174.401 248.818 174.003 248.898 173.586 248.961C173.169 249.023 172.779 249.055 172.414 249.055C170.69 249.055 169.333 248.701 168.344 247.992C167.354 247.279 166.859 246.141 166.859 244.578V240.484H170V244.578C170 245.042 170.078 245.409 170.234 245.68C170.396 245.951 170.651 246.146 171 246.266C171.354 246.38 171.826 246.437 172.414 246.437C172.961 246.437 173.497 246.38 174.023 246.266C174.549 246.151 175.12 245.984 175.734 245.766ZM190.271 240.5V252.5H187.115V240.5H190.271ZM188.732 245.766V248.391C188.477 248.505 188.16 248.615 187.779 248.719C187.399 248.818 187.001 248.898 186.584 248.961C186.167 249.023 185.777 249.055 185.412 249.055C183.688 249.055 182.331 248.701 181.342 247.992C180.352 247.279 179.857 246.141 179.857 244.578V240.484H182.998V244.578C182.998 245.042 183.076 245.409 183.232 245.68C183.394 245.951 183.649 246.146 183.998 246.266C184.352 246.38 184.824 246.437 185.412 246.437C185.959 246.437 186.495 246.38 187.021 246.266C187.548 246.151 188.118 245.984 188.732 245.766ZM199.887 252.5V243.109H197.637C197.027 243.109 196.564 243.25 196.246 243.531C195.928 243.812 195.772 244.146 195.777 244.531C195.772 244.922 195.923 245.253 196.23 245.523C196.543 245.789 197.001 245.922 197.605 245.922H200.996V248.172H197.605C196.579 248.172 195.691 248.016 194.941 247.703C194.191 247.391 193.613 246.956 193.207 246.398C192.801 245.836 192.6 245.182 192.605 244.437C192.6 243.656 192.801 242.971 193.207 242.383C193.613 241.789 194.194 241.328 194.949 241C195.71 240.667 196.605 240.5 197.637 240.5H202.988V252.5H199.887ZM192.262 252.5L195.598 246.25H198.777L195.449 252.5H192.262ZM214.088 252.727C213.322 252.727 212.64 252.594 212.041 252.328C211.442 252.057 210.968 251.659 210.619 251.133C210.275 250.602 210.104 249.94 210.104 249.148C210.104 248.482 210.226 247.922 210.471 247.469C210.715 247.016 211.049 246.651 211.471 246.375C211.893 246.099 212.372 245.891 212.908 245.75C213.45 245.609 214.018 245.51 214.611 245.453C215.309 245.38 215.872 245.312 216.299 245.25C216.726 245.182 217.036 245.083 217.229 244.953C217.421 244.823 217.518 244.63 217.518 244.375V244.328C217.518 243.833 217.361 243.451 217.049 243.18C216.742 242.909 216.304 242.773 215.736 242.773C215.137 242.773 214.661 242.906 214.307 243.172C213.952 243.432 213.718 243.76 213.604 244.156L210.525 243.906C210.682 243.177 210.989 242.547 211.447 242.016C211.906 241.479 212.497 241.068 213.221 240.781C213.95 240.49 214.794 240.344 215.752 240.344C216.419 240.344 217.057 240.422 217.666 240.578C218.281 240.734 218.825 240.977 219.299 241.305C219.778 241.633 220.156 242.055 220.432 242.57C220.708 243.081 220.846 243.693 220.846 244.406V252.5H217.689V250.836H217.596C217.403 251.211 217.145 251.542 216.822 251.828C216.499 252.109 216.111 252.331 215.658 252.492C215.205 252.648 214.682 252.727 214.088 252.727ZM215.041 250.43C215.531 250.43 215.963 250.333 216.338 250.141C216.713 249.943 217.007 249.677 217.221 249.344C217.434 249.01 217.541 248.633 217.541 248.211V246.938C217.437 247.005 217.294 247.068 217.111 247.125C216.934 247.177 216.734 247.227 216.51 247.273C216.286 247.315 216.062 247.354 215.838 247.391C215.614 247.422 215.411 247.451 215.229 247.477C214.838 247.534 214.497 247.625 214.205 247.75C213.913 247.875 213.687 248.044 213.525 248.258C213.364 248.466 213.283 248.727 213.283 249.039C213.283 249.492 213.447 249.839 213.775 250.078C214.109 250.312 214.531 250.43 215.041 250.43ZM223.428 252.5V240.5H233.92V252.5H230.74V243.117H226.568V252.5H223.428ZM239.998 252.727C239.232 252.727 238.55 252.594 237.951 252.328C237.352 252.057 236.878 251.659 236.529 251.133C236.186 250.602 236.014 249.94 236.014 249.148C236.014 248.482 236.136 247.922 236.381 247.469C236.626 247.016 236.959 246.651 237.381 246.375C237.803 246.099 238.282 245.891 238.818 245.75C239.36 245.609 239.928 245.51 240.521 245.453C241.219 245.38 241.782 245.312 242.209 245.25C242.636 245.182 242.946 245.083 243.139 244.953C243.331 244.823 243.428 244.63 243.428 244.375V244.328C243.428 243.833 243.271 243.451 242.959 243.18C242.652 242.909 242.214 242.773 241.646 242.773C241.048 242.773 240.571 242.906 240.217 243.172C239.863 243.432 239.628 243.76 239.514 244.156L236.436 243.906C236.592 243.177 236.899 242.547 237.357 242.016C237.816 241.479 238.407 241.068 239.131 240.781C239.86 240.49 240.704 240.344 241.662 240.344C242.329 240.344 242.967 240.422 243.576 240.578C244.191 240.734 244.735 240.977 245.209 241.305C245.688 241.633 246.066 242.055 246.342 242.57C246.618 243.081 246.756 243.693 246.756 244.406V252.5H243.6V250.836H243.506C243.313 251.211 243.055 251.542 242.732 251.828C242.41 252.109 242.021 252.331 241.568 252.492C241.115 252.648 240.592 252.727 239.998 252.727ZM240.951 250.43C241.441 250.43 241.873 250.333 242.248 250.141C242.623 249.943 242.917 249.677 243.131 249.344C243.344 249.01 243.451 248.633 243.451 248.211V246.938C243.347 247.005 243.204 247.068 243.021 247.125C242.844 247.177 242.644 247.227 242.42 247.273C242.196 247.315 241.972 247.354 241.748 247.391C241.524 247.422 241.321 247.451 241.139 247.477C240.748 247.534 240.407 247.625 240.115 247.75C239.824 247.875 239.597 248.044 239.436 248.258C239.274 248.466 239.193 248.727 239.193 249.039C239.193 249.492 239.357 249.839 239.686 250.078C240.019 250.312 240.441 250.43 240.951 250.43ZM249.338 257V240.5H252.619V242.516H252.768C252.913 242.193 253.124 241.865 253.4 241.531C253.682 241.193 254.046 240.911 254.494 240.688C254.947 240.458 255.51 240.344 256.182 240.344C257.057 240.344 257.864 240.573 258.604 241.031C259.343 241.484 259.934 242.169 260.377 243.086C260.82 243.997 261.041 245.141 261.041 246.516C261.041 247.854 260.825 248.984 260.393 249.906C259.965 250.823 259.382 251.518 258.643 251.992C257.908 252.461 257.085 252.695 256.174 252.695C255.528 252.695 254.979 252.589 254.525 252.375C254.077 252.161 253.71 251.893 253.424 251.57C253.137 251.242 252.919 250.911 252.768 250.578H252.666V257H249.338ZM252.596 246.5C252.596 247.214 252.695 247.836 252.893 248.367C253.09 248.898 253.377 249.312 253.752 249.609C254.127 249.901 254.583 250.047 255.119 250.047C255.661 250.047 256.119 249.898 256.494 249.602C256.869 249.299 257.153 248.883 257.346 248.352C257.544 247.815 257.643 247.198 257.643 246.5C257.643 245.807 257.546 245.198 257.354 244.672C257.161 244.146 256.877 243.734 256.502 243.437C256.127 243.141 255.666 242.992 255.119 242.992C254.577 242.992 254.119 243.135 253.744 243.422C253.374 243.708 253.09 244.115 252.893 244.641C252.695 245.167 252.596 245.786 252.596 246.5ZM266.682 252.727C265.916 252.727 265.234 252.594 264.635 252.328C264.036 252.057 263.562 251.659 263.213 251.133C262.869 250.602 262.697 249.94 262.697 249.148C262.697 248.482 262.82 247.922 263.064 247.469C263.309 247.016 263.643 246.651 264.064 246.375C264.486 246.099 264.965 245.891 265.502 245.75C266.044 245.609 266.611 245.51 267.205 245.453C267.903 245.38 268.465 245.312 268.893 245.25C269.32 245.182 269.63 245.083 269.822 244.953C270.015 244.823 270.111 244.63 270.111 244.375V244.328C270.111 243.833 269.955 243.451 269.643 243.18C269.335 242.909 268.898 242.773 268.33 242.773C267.731 242.773 267.255 242.906 266.9 243.172C266.546 243.432 266.312 243.76 266.197 244.156L263.119 243.906C263.275 243.177 263.583 242.547 264.041 242.016C264.499 241.479 265.09 241.068 265.814 240.781C266.544 240.49 267.387 240.344 268.346 240.344C269.012 240.344 269.65 240.422 270.26 240.578C270.874 240.734 271.419 240.977 271.893 241.305C272.372 241.633 272.749 242.055 273.025 242.57C273.301 243.081 273.439 243.693 273.439 244.406V252.5H270.283V250.836H270.189C269.997 251.211 269.739 251.542 269.416 251.828C269.093 252.109 268.705 252.331 268.252 252.492C267.799 252.648 267.275 252.727 266.682 252.727ZM267.635 250.43C268.124 250.43 268.557 250.333 268.932 250.141C269.307 249.943 269.601 249.677 269.814 249.344C270.028 249.01 270.135 248.633 270.135 248.211V246.938C270.031 247.005 269.887 247.068 269.705 247.125C269.528 247.177 269.327 247.227 269.104 247.273C268.88 247.315 268.656 247.354 268.432 247.391C268.208 247.422 268.005 247.451 267.822 247.477C267.432 247.534 267.09 247.625 266.799 247.75C266.507 247.875 266.281 248.044 266.119 248.258C265.958 248.466 265.877 248.727 265.877 249.039C265.877 249.492 266.041 249.839 266.369 250.078C266.702 250.312 267.124 250.43 267.635 250.43ZM274.816 243.117V240.5H285.691V243.117H281.824V252.5H278.652V243.117H274.816ZM296.061 245.172V247.789H289.795V245.172H296.061ZM290.889 240.5V252.5H287.709V240.5H290.889ZM298.146 240.5V252.5H294.99V240.5H298.146ZM304.15 252.727C303.385 252.727 302.702 252.594 302.104 252.328C301.505 252.057 301.031 251.659 300.682 251.133C300.338 250.602 300.166 249.94 300.166 249.148C300.166 248.482 300.288 247.922 300.533 247.469C300.778 247.016 301.111 246.651 301.533 246.375C301.955 246.099 302.434 245.891 302.971 245.75C303.512 245.609 304.08 245.51 304.674 245.453C305.372 245.38 305.934 245.312 306.361 245.25C306.788 245.182 307.098 245.083 307.291 244.953C307.484 244.823 307.58 244.63 307.58 244.375V244.328C307.58 243.833 307.424 243.451 307.111 243.18C306.804 242.909 306.367 242.773 305.799 242.773C305.2 242.773 304.723 242.906 304.369 243.172C304.015 243.432 303.781 243.76 303.666 244.156L300.588 243.906C300.744 243.177 301.051 242.547 301.51 242.016C301.968 241.479 302.559 241.068 303.283 240.781C304.012 240.49 304.856 240.344 305.814 240.344C306.481 240.344 307.119 240.422 307.729 240.578C308.343 240.734 308.887 240.977 309.361 241.305C309.84 241.633 310.218 242.055 310.494 242.57C310.77 243.081 310.908 243.693 310.908 244.406V252.5H307.752V250.836H307.658C307.465 251.211 307.208 251.542 306.885 251.828C306.562 252.109 306.174 252.331 305.721 252.492C305.268 252.648 304.744 252.727 304.15 252.727ZM305.104 250.43C305.593 250.43 306.025 250.333 306.4 250.141C306.775 249.943 307.07 249.677 307.283 249.344C307.497 249.01 307.604 248.633 307.604 248.211V246.938C307.499 247.005 307.356 247.068 307.174 247.125C306.997 247.177 306.796 247.227 306.572 247.273C306.348 247.315 306.124 247.354 305.9 247.391C305.676 247.422 305.473 247.451 305.291 247.477C304.9 247.534 304.559 247.625 304.268 247.75C303.976 247.875 303.749 248.044 303.588 248.258C303.426 248.466 303.346 248.727 303.346 249.039C303.346 249.492 303.51 249.839 303.838 250.078C304.171 250.312 304.593 250.43 305.104 250.43Z" fill="black"/>
<path d="M1132.16 234.818V253H1128.32V238.467H1128.21L1124.04 241.077V237.668L1128.55 234.818H1132.16ZM1143.46 253.249C1142.52 253.243 1141.62 253.086 1140.75 252.778C1139.89 252.47 1139.11 251.97 1138.42 251.278C1137.74 250.585 1137.19 249.668 1136.79 248.526C1136.39 247.383 1136.2 245.981 1136.2 244.317C1136.2 242.79 1136.38 241.426 1136.72 240.225C1137.07 239.017 1137.57 237.993 1138.21 237.153C1138.86 236.313 1139.64 235.673 1140.55 235.235C1141.45 234.792 1142.47 234.57 1143.59 234.57C1144.81 234.57 1145.88 234.806 1146.81 235.28C1147.73 235.747 1148.48 236.384 1149.04 237.189C1149.61 237.993 1149.95 238.896 1150.07 239.896H1146.28C1146.13 239.263 1145.82 238.766 1145.35 238.405C1144.88 238.044 1144.29 237.863 1143.59 237.863C1142.41 237.863 1141.51 238.378 1140.89 239.408C1140.28 240.438 1139.97 241.838 1139.96 243.607H1140.08C1140.36 243.069 1140.72 242.61 1141.19 242.231C1141.65 241.846 1142.18 241.554 1142.77 241.352C1143.37 241.145 1144 241.042 1144.67 241.042C1145.74 241.042 1146.7 241.296 1147.54 241.805C1148.38 242.308 1149.05 243.001 1149.53 243.882C1150.02 244.764 1150.26 245.773 1150.26 246.91C1150.26 248.141 1149.97 249.236 1149.4 250.195C1148.83 251.153 1148.03 251.905 1147.01 252.45C1145.99 252.988 1144.81 253.254 1143.46 253.249ZM1143.44 250.23C1144.03 250.23 1144.56 250.088 1145.03 249.804C1145.5 249.52 1145.86 249.135 1146.13 248.65C1146.4 248.165 1146.53 247.62 1146.53 247.016C1146.53 246.413 1146.4 245.871 1146.13 245.392C1145.87 244.912 1145.51 244.531 1145.05 244.246C1144.59 243.962 1144.06 243.82 1143.47 243.82C1143.02 243.82 1142.61 243.903 1142.23 244.069C1141.86 244.235 1141.53 244.465 1141.25 244.761C1140.97 245.057 1140.75 245.401 1140.59 245.791C1140.43 246.176 1140.35 246.587 1140.35 247.025C1140.35 247.611 1140.48 248.147 1140.75 248.632C1141.02 249.117 1141.39 249.505 1141.85 249.795C1142.32 250.085 1142.85 250.23 1143.44 250.23ZM1160.11 253.4C1158.59 253.394 1157.27 253.018 1156.17 252.272C1155.08 251.526 1154.23 250.446 1153.64 249.032C1153.06 247.617 1152.77 245.915 1152.77 243.927C1152.77 241.944 1153.06 240.254 1153.65 238.858C1154.24 237.461 1155.09 236.398 1156.18 235.67C1157.28 234.937 1158.59 234.57 1160.11 234.57C1161.63 234.57 1162.94 234.937 1164.04 235.67C1165.14 236.404 1165.98 237.47 1166.58 238.866C1167.17 240.257 1167.46 241.944 1167.46 243.927C1167.46 245.921 1167.16 247.626 1166.57 249.04C1165.98 250.455 1165.14 251.535 1164.05 252.281C1162.95 253.027 1161.64 253.4 1160.11 253.4ZM1160.11 250.212C1161.16 250.212 1161.99 249.689 1162.61 248.641C1163.23 247.593 1163.54 246.022 1163.53 243.927C1163.53 242.548 1163.39 241.4 1163.11 240.482C1162.83 239.565 1162.43 238.875 1161.92 238.414C1161.41 237.952 1160.81 237.721 1160.11 237.721C1159.08 237.721 1158.25 238.239 1157.63 239.275C1157.01 240.311 1156.69 241.861 1156.69 243.927C1156.69 245.324 1156.83 246.49 1157.1 247.425C1157.39 248.354 1157.79 249.052 1158.3 249.52C1158.82 249.982 1159.42 250.212 1160.11 250.212ZM1177.33 253.4C1175.8 253.394 1174.48 253.018 1173.38 252.272C1172.29 251.526 1171.45 250.446 1170.85 249.032C1170.27 247.617 1169.98 245.915 1169.98 243.927C1169.98 241.944 1170.28 240.254 1170.86 238.858C1171.45 237.461 1172.3 236.398 1173.39 235.67C1174.49 234.937 1175.8 234.57 1177.33 234.57C1178.85 234.57 1180.15 234.937 1181.25 235.67C1182.35 236.404 1183.2 237.47 1183.79 238.866C1184.38 240.257 1184.67 241.944 1184.67 243.927C1184.67 245.921 1184.37 247.626 1183.78 249.04C1183.19 250.455 1182.35 251.535 1181.26 252.281C1180.16 253.027 1178.85 253.4 1177.33 253.4ZM1177.33 250.212C1178.37 250.212 1179.2 249.689 1179.82 248.641C1180.44 247.593 1180.75 246.022 1180.74 243.927C1180.74 242.548 1180.6 241.4 1180.32 240.482C1180.04 239.565 1179.64 238.875 1179.13 238.414C1178.62 237.952 1178.02 237.721 1177.33 237.721C1176.29 237.721 1175.46 238.239 1174.84 239.275C1174.22 240.311 1173.9 241.861 1173.9 243.927C1173.9 245.324 1174.04 246.49 1174.32 247.425C1174.6 248.354 1175 249.052 1175.51 249.52C1176.03 249.982 1176.63 250.212 1177.33 250.212ZM1201.22 237.695C1200.53 237.695 1200 237.834 1199.65 238.112C1199.3 238.39 1199.11 238.79 1199.09 239.31H1195.22C1195.28 238.292 1195.54 237.431 1196 236.727C1196.46 236.023 1197.11 235.487 1197.96 235.12C1198.82 234.753 1199.88 234.57 1201.15 234.57C1202.41 234.57 1203.48 234.744 1204.35 235.093C1205.24 235.443 1205.9 235.928 1206.36 236.549C1206.82 237.171 1207.04 237.899 1207.04 238.733C1207.04 239.13 1206.97 239.509 1206.81 239.87C1206.66 240.225 1206.45 240.55 1206.2 240.846C1205.95 241.136 1205.67 241.391 1205.37 241.61L1202.31 240.793C1202.63 240.556 1202.86 240.296 1203.01 240.012C1203.17 239.728 1203.25 239.402 1203.24 239.035C1203.25 238.627 1203.08 238.301 1202.74 238.059C1202.39 237.816 1201.89 237.695 1201.22 237.695ZM1208.22 243.146H1193.98V240.598H1208.22V243.146ZM1208.22 246.972H1193.98V244.486H1208.22V246.972ZM1201.15 253.249C1199.11 253.249 1197.56 252.858 1196.51 252.077C1195.47 251.295 1194.95 250.224 1194.94 248.863C1194.95 248.455 1195.04 248.058 1195.21 247.673C1195.38 247.289 1195.61 246.942 1195.88 246.635C1196.16 246.327 1196.47 246.087 1196.8 245.915L1199.84 246.661C1199.49 246.898 1199.23 247.191 1199.05 247.54C1198.88 247.889 1198.78 248.23 1198.78 248.561C1198.78 249.07 1199 249.464 1199.42 249.742C1199.84 250.02 1200.42 250.159 1201.15 250.159C1201.88 250.159 1202.46 250.02 1202.91 249.742C1203.36 249.464 1203.6 248.984 1203.63 248.304H1207.55C1207.48 249.446 1207.22 250.381 1206.74 251.109C1206.27 251.837 1205.58 252.376 1204.66 252.725C1203.73 253.074 1202.56 253.249 1201.15 253.249Z" fill="#14142A"/>
</svg>
