<svg width="1253" height="141" viewBox="0 0 1253 141" fill="none" xmlns="http://www.w3.org/2000/svg">
<path d="M0.775391 20C0.775391 8.9543 9.7297 0 20.7754 0H1232.78C1243.82 0 1252.78 8.95431 1252.78 20V71H0.775391V20Z" fill="#FFA7CA"/>
<path d="M26.394 49.5611V41.8146H27.6774C28.1144 41.5007 28.5145 41.0575 28.8777 40.4851C29.2408 39.9065 29.5517 39.1094 29.8102 38.0938C30.0687 37.072 30.2534 35.7363 30.3642 34.0866L30.8997 26.0909H43.4103V41.8146H45.4785V49.5426H41.6376V45H30.2349V49.5611H26.394ZM32.2939 41.8146H39.5694V29.3871H34.5005L34.2051 34.0866C34.1251 35.3362 33.9927 36.4441 33.8081 37.4105C33.6296 38.3769 33.411 39.2232 33.1525 39.9496C32.9002 40.6697 32.6139 41.2914 32.2939 41.8146ZM54.2429 45.277C52.8087 45.277 51.5684 44.9723 50.522 44.3629C49.4818 43.7474 48.6785 42.8918 48.1122 41.7962C47.5459 40.6944 47.2628 39.4171 47.2628 37.9645C47.2628 36.4995 47.5459 35.2192 48.1122 34.1236C48.6785 33.0218 49.4818 32.1662 50.522 31.5568C51.5684 30.9413 52.8087 30.6335 54.2429 30.6335C55.6771 30.6335 56.9143 30.9413 57.9545 31.5568C59.0009 32.1662 59.8073 33.0218 60.3736 34.1236C60.9399 35.2192 61.223 36.4995 61.223 37.9645C61.223 39.4171 60.9399 40.6944 60.3736 41.7962C59.8073 42.8918 59.0009 43.7474 57.9545 44.3629C56.9143 44.9723 55.6771 45.277 54.2429 45.277ZM54.2614 42.2301C54.9138 42.2301 55.4586 42.0455 55.8956 41.6761C56.3326 41.3007 56.6619 40.7898 56.8835 40.1435C57.1113 39.4972 57.2251 38.7616 57.2251 37.9368C57.2251 37.112 57.1113 36.3764 56.8835 35.7301C56.6619 35.0838 56.3326 34.5729 55.8956 34.1974C55.4586 33.822 54.9138 33.6342 54.2614 33.6342C53.6027 33.6342 53.0488 33.822 52.5994 34.1974C52.1563 34.5729 51.8208 35.0838 51.593 35.7301C51.3714 36.3764 51.2607 37.112 51.2607 37.9368C51.2607 38.7616 51.3714 39.4972 51.593 40.1435C51.8208 40.7898 52.1563 41.3007 52.5994 41.6761C53.0488 42.0455 53.6027 42.2301 54.2614 42.2301ZM73.4936 30.8182V33.9112H67.603V45H63.7805V30.8182H73.4936ZM73.9183 45L73.8999 41.8793H74.3707C74.7031 41.8793 74.9893 41.7992 75.2294 41.6392C75.4756 41.473 75.6787 41.2053 75.8388 40.8359C75.9988 40.4666 76.125 39.9773 76.2173 39.3679C76.3097 38.7524 76.3712 37.9953 76.402 37.0966L76.6328 30.8182H87.4169V45H83.6683V33.9112H80.169L79.9474 38.2415C79.892 39.4295 79.7474 40.4512 79.5135 41.3068C79.2857 42.1624 78.9688 42.8641 78.5625 43.4119C78.1562 43.9536 77.6669 44.3537 77.0945 44.6122C76.522 44.8707 75.8572 45 75.1001 45H73.9183ZM98.7757 45V33.902H96.1167C95.3965 33.902 94.8487 34.0682 94.4732 34.4006C94.0977 34.733 93.9131 35.1269 93.9192 35.5824C93.9131 36.044 94.0916 36.4349 94.4547 36.755C94.824 37.0689 95.3657 37.2259 96.0797 37.2259H100.087V39.8849H96.0797C94.8671 39.8849 93.8176 39.7003 92.9313 39.331C92.0449 38.9616 91.3617 38.4477 90.8816 37.7891C90.4015 37.1243 90.1645 36.3518 90.1706 35.4716C90.1645 34.5483 90.4015 33.7389 90.8816 33.0433C91.3617 32.3416 92.048 31.7969 92.9405 31.4091C93.8392 31.0152 94.8979 30.8182 96.1167 30.8182H102.441V45H98.7757ZM89.7644 45L93.7069 37.6136H97.4647L93.5314 45H89.7644ZM104.389 49.1548V41.8793H105.479C105.793 41.6823 106.045 41.3684 106.236 40.9375C106.433 40.5066 106.593 39.9988 106.716 39.4141C106.845 38.8293 106.944 38.1984 107.012 37.5213C107.085 36.8381 107.15 36.1487 107.205 35.4531L107.575 30.8182H118.451V41.8793H120.649V49.1548H116.9V45H108.23V49.1548H104.389ZM109.394 41.8793H114.74V33.8466H110.917L110.769 35.4531C110.665 36.9673 110.514 38.2538 110.317 39.3125C110.12 40.3651 109.812 41.2206 109.394 41.8793ZM128.229 40.9837H132.042C132.061 41.4515 132.27 41.8208 132.67 42.0916C133.07 42.3625 133.587 42.4979 134.221 42.4979C134.861 42.4979 135.4 42.3501 135.837 42.0547C136.274 41.7531 136.492 41.3222 136.492 40.7621C136.492 40.4174 136.406 40.1188 136.234 39.8665C136.061 39.608 135.821 39.4048 135.514 39.2571C135.206 39.1094 134.849 39.0355 134.443 39.0355H132.402V36.4595H134.443C135.052 36.4595 135.52 36.3179 135.846 36.0348C136.178 35.7517 136.345 35.3977 136.345 34.973C136.345 34.4929 136.172 34.1082 135.828 33.8189C135.489 33.5234 135.03 33.3757 134.452 33.3757C133.867 33.3757 133.381 33.508 132.993 33.7727C132.611 34.0312 132.414 34.3698 132.402 34.7884H128.607C128.62 33.9389 128.875 33.2034 129.374 32.5817C129.878 31.96 130.556 31.4799 131.405 31.1413C132.261 30.8028 133.218 30.6335 134.276 30.6335C135.434 30.6335 136.431 30.7966 137.268 31.1229C138.111 31.4429 138.758 31.9015 139.207 32.4986C139.662 33.0956 139.89 33.8066 139.89 34.6314C139.89 35.3823 139.644 36.0102 139.151 36.5149C138.659 37.0196 137.97 37.3797 137.083 37.5952V37.7429C137.668 37.7798 138.197 37.9368 138.671 38.2138C139.145 38.4908 139.524 38.8724 139.807 39.3587C140.09 39.8388 140.232 40.4081 140.232 41.0668C140.232 41.947 139.973 42.701 139.456 43.3288C138.945 43.9567 138.237 44.4399 137.333 44.7784C136.434 45.1108 135.403 45.277 134.24 45.277C133.107 45.277 132.091 45.1139 131.193 44.7876C130.3 44.4553 129.589 43.969 129.06 43.3288C128.537 42.6887 128.26 41.907 128.229 40.9837ZM146.688 45.2678C145.783 45.2678 144.977 45.1108 144.269 44.7969C143.561 44.4768 143.001 44.0059 142.588 43.3842C142.182 42.7564 141.979 41.9747 141.979 41.0391C141.979 40.2512 142.124 39.5895 142.413 39.054C142.702 38.5185 143.096 38.0876 143.595 37.7614C144.093 37.4351 144.66 37.1889 145.294 37.0227C145.934 36.8565 146.605 36.7396 147.306 36.6719C148.131 36.5857 148.796 36.5057 149.301 36.4318C149.806 36.3518 150.172 36.2348 150.4 36.081C150.627 35.9271 150.741 35.6993 150.741 35.3977V35.3423C150.741 34.7576 150.556 34.3052 150.187 33.9851C149.824 33.665 149.307 33.505 148.636 33.505C147.928 33.505 147.365 33.6619 146.946 33.9759C146.528 34.2836 146.251 34.6714 146.115 35.1392L142.478 34.8438C142.662 33.982 143.025 33.2372 143.567 32.6094C144.109 31.9754 144.807 31.4891 145.663 31.1506C146.525 30.8059 147.522 30.6335 148.654 30.6335C149.442 30.6335 150.196 30.7259 150.917 30.9105C151.643 31.0952 152.286 31.3814 152.846 31.7692C153.413 32.157 153.859 32.6555 154.185 33.2649C154.511 33.8681 154.674 34.5914 154.674 35.4347V45H150.944V43.0334H150.833C150.606 43.4766 150.301 43.8674 149.919 44.206C149.538 44.5384 149.079 44.8 148.544 44.9908C148.008 45.1754 147.39 45.2678 146.688 45.2678ZM147.814 42.5533C148.393 42.5533 148.904 42.4394 149.347 42.2116C149.79 41.9777 150.138 41.6638 150.39 41.2699C150.643 40.8759 150.769 40.4297 150.769 39.9311V38.4261C150.646 38.5062 150.476 38.58 150.261 38.6477C150.052 38.7093 149.815 38.7678 149.55 38.8232C149.285 38.8724 149.021 38.9186 148.756 38.9616C148.491 38.9986 148.251 39.0324 148.036 39.0632C147.574 39.1309 147.171 39.2386 146.826 39.3864C146.482 39.5341 146.214 39.7341 146.023 39.9865C145.832 40.2327 145.737 40.5405 145.737 40.9098C145.737 41.4453 145.931 41.8546 146.319 42.1378C146.712 42.4148 147.211 42.5533 147.814 42.5533ZM170.151 45.277C168.717 45.277 167.477 44.9723 166.43 44.3629C165.39 43.7474 164.587 42.8918 164.02 41.7962C163.454 40.6944 163.171 39.4171 163.171 37.9645C163.171 36.4995 163.454 35.2192 164.02 34.1236C164.587 33.0218 165.39 32.1662 166.43 31.5568C167.477 30.9413 168.717 30.6335 170.151 30.6335C171.585 30.6335 172.823 30.9413 173.863 31.5568C174.909 32.1662 175.715 33.0218 176.282 34.1236C176.848 35.2192 177.131 36.4995 177.131 37.9645C177.131 39.4171 176.848 40.6944 176.282 41.7962C175.715 42.8918 174.909 43.7474 173.863 44.3629C172.823 44.9723 171.585 45.277 170.151 45.277ZM170.17 42.2301C170.822 42.2301 171.367 42.0455 171.804 41.6761C172.241 41.3007 172.57 40.7898 172.792 40.1435C173.019 39.4972 173.133 38.7616 173.133 37.9368C173.133 37.112 173.019 36.3764 172.792 35.7301C172.57 35.0838 172.241 34.5729 171.804 34.1974C171.367 33.822 170.822 33.6342 170.17 33.6342C169.511 33.6342 168.957 33.822 168.508 34.1974C168.064 34.5729 167.729 35.0838 167.501 35.7301C167.28 36.3764 167.169 37.112 167.169 37.9368C167.169 38.7616 167.28 39.4972 167.501 40.1435C167.729 40.7898 168.064 41.3007 168.508 41.6761C168.957 42.0455 169.511 42.2301 170.17 42.2301ZM191.479 25.6108L192.68 28.1776C192.279 28.5099 191.836 28.7562 191.35 28.9162C190.864 29.0701 190.282 29.1716 189.605 29.2209C188.934 29.2701 188.115 29.304 187.149 29.3224C186.053 29.3348 185.161 29.5102 184.471 29.8487C183.782 30.1873 183.259 30.7197 182.902 31.446C182.545 32.1662 182.311 33.108 182.2 34.2713H182.339C182.763 33.4034 183.36 32.7325 184.13 32.2585C184.905 31.7846 185.863 31.5476 187.001 31.5476C188.208 31.5476 189.263 31.8123 190.168 32.3416C191.079 32.871 191.787 33.6312 192.292 34.6222C192.796 35.6132 193.049 36.8011 193.049 38.1861C193.049 39.6264 192.766 40.879 192.199 41.9439C191.639 43.0026 190.842 43.8243 189.808 44.4091C188.774 44.9877 187.543 45.277 186.115 45.277C184.681 45.277 183.443 44.9754 182.403 44.3722C181.369 43.7689 180.569 42.8795 180.003 41.7038C179.443 40.5282 179.162 39.0817 179.162 37.3643V36.201C179.162 32.7848 179.827 30.2519 181.157 28.6023C182.486 26.9527 184.441 26.1155 187.02 26.0909C187.721 26.0786 188.355 26.0755 188.922 26.0817C189.488 26.0878 189.983 26.0601 190.408 25.9986C190.839 25.937 191.196 25.8078 191.479 25.6108ZM186.133 42.2301C186.737 42.2301 187.254 42.0732 187.684 41.7592C188.122 41.4453 188.457 40.996 188.691 40.4112C188.931 39.8265 189.051 39.1278 189.051 38.3153C189.051 37.509 188.931 36.8258 188.691 36.2656C188.457 35.6993 188.122 35.2685 187.684 34.973C187.247 34.6776 186.724 34.5298 186.115 34.5298C185.659 34.5298 185.25 34.6129 184.887 34.7791C184.524 34.9453 184.213 35.1915 183.954 35.5178C183.702 35.8378 183.505 36.2348 183.363 36.7088C183.228 37.1766 183.16 37.7121 183.16 38.3153C183.16 39.5279 183.422 40.4851 183.945 41.1868C184.474 41.8823 185.204 42.2301 186.133 42.2301ZM194.828 45L194.81 41.8793H195.281C195.613 41.8793 195.9 41.7992 196.14 41.6392C196.386 41.473 196.589 41.2053 196.749 40.8359C196.909 40.4666 197.035 39.9773 197.127 39.3679C197.22 38.7524 197.281 37.9953 197.312 37.0966L197.543 30.8182H208.327V45H204.578V33.9112H201.079L200.858 38.2415C200.802 39.4295 200.658 40.4512 200.424 41.3068C200.196 42.1624 199.879 42.8641 199.473 43.4119C199.066 43.9536 198.577 44.3537 198.005 44.6122C197.432 44.8707 196.767 45 196.01 45H194.828ZM215.134 39.8111L220.24 30.8182H224.118V45H220.369V35.9794L215.282 45H211.376V30.8182H215.134V39.8111ZM239.578 30.8182V45H235.848V30.8182H239.578ZM237.759 37.0412V40.1435C237.458 40.2789 237.082 40.4081 236.633 40.5312C236.184 40.6482 235.713 40.7436 235.22 40.8175C234.728 40.8913 234.266 40.9283 233.835 40.9283C231.798 40.9283 230.195 40.5097 229.025 39.6726C227.856 38.8293 227.271 37.4844 227.271 35.6378V30.7997H230.982V35.6378C230.982 36.1856 231.075 36.6196 231.259 36.9396C231.45 37.2597 231.752 37.4905 232.164 37.6321C232.583 37.7675 233.14 37.8352 233.835 37.8352C234.482 37.8352 235.116 37.7675 235.737 37.6321C236.359 37.4967 237.033 37.2997 237.759 37.0412ZM254.94 30.8182V45H251.21V30.8182H254.94ZM253.121 37.0412V40.1435C252.819 40.2789 252.444 40.4081 251.994 40.5312C251.545 40.6482 251.074 40.7436 250.582 40.8175C250.089 40.8913 249.628 40.9283 249.197 40.9283C247.159 40.9283 245.556 40.5097 244.386 39.6726C243.217 38.8293 242.632 37.4844 242.632 35.6378V30.7997H246.344V35.6378C246.344 36.1856 246.436 36.6196 246.621 36.9396C246.812 37.2597 247.113 37.4905 247.526 37.6321C247.944 37.7675 248.501 37.8352 249.197 37.8352C249.843 37.8352 250.477 37.7675 251.099 37.6321C251.72 37.4967 252.394 37.2997 253.121 37.0412ZM266.303 45V33.902H263.644C262.924 33.902 262.376 34.0682 262.001 34.4006C261.625 34.733 261.44 35.1269 261.447 35.5824C261.44 36.044 261.619 36.4349 261.982 36.755C262.351 37.0689 262.893 37.2259 263.607 37.2259H267.614V39.8849H263.607C262.394 39.8849 261.345 39.7003 260.459 39.331C259.572 38.9616 258.889 38.4477 258.409 37.7891C257.929 37.1243 257.692 36.3518 257.698 35.4716C257.692 34.5483 257.929 33.7389 258.409 33.0433C258.889 32.3416 259.575 31.7969 260.468 31.4091C261.367 31.0152 262.425 30.8182 263.644 30.8182H269.969V45H266.303ZM257.292 45L261.234 37.6136H264.992L261.059 45H257.292ZM281.408 40.6513L285.249 30.8182H288.241L282.71 45H280.097L274.696 30.8182H277.678L281.408 40.6513ZM276.782 30.8182V45H273.025V30.8182H276.782ZM286.228 45V30.8182H289.939V45H286.228Z" fill="#14142A"/>
<path d="M1135.35 28V44H1132.07V28H1135.35ZM1122.41 44L1127.42 35.5625L1122.62 28H1126.78L1130.38 34.5859H1137.13L1140.63 28H1144.78L1140.1 35.5391L1145.02 44H1140.98L1137.6 37.7109H1129.88L1126.42 44H1122.41ZM1146.97 44V32H1150.3V44H1146.97ZM1148.64 30.4531C1148.15 30.4531 1147.73 30.2891 1147.37 29.9609C1147.02 29.6276 1146.85 29.2292 1146.85 28.7656C1146.85 28.3073 1147.02 27.9141 1147.37 27.5859C1147.73 27.2526 1148.15 27.0859 1148.64 27.0859C1149.14 27.0859 1149.56 27.2526 1149.91 27.5859C1150.26 27.9141 1150.44 28.3073 1150.44 28.7656C1150.44 29.2292 1150.26 29.6276 1149.91 29.9609C1149.56 30.2891 1149.14 30.4531 1148.64 30.4531ZM1161.32 36.6719V39.2891H1155.05V36.6719H1161.32ZM1156.15 32V44H1152.97V32H1156.15ZM1163.4 32V44H1160.25V32H1163.4ZM1172.96 27.25L1167.8 46.4062H1164.93L1170.09 27.25H1172.96ZM1175.27 28H1178.56V33.1562C1178.56 33.7708 1178.67 34.2656 1178.88 34.6406C1179.09 35.0104 1179.42 35.2786 1179.87 35.4453C1180.32 35.6068 1180.9 35.6875 1181.61 35.6875C1181.86 35.6875 1182.16 35.6797 1182.5 35.6641C1182.83 35.6432 1183.18 35.6146 1183.54 35.5781C1183.91 35.5417 1184.25 35.4974 1184.57 35.4453C1184.9 35.3932 1185.17 35.3333 1185.38 35.2656V37.9375C1185.16 38.0104 1184.89 38.0755 1184.56 38.1328C1184.24 38.1849 1183.89 38.2318 1183.54 38.2734C1183.18 38.3099 1182.83 38.3385 1182.49 38.3594C1182.15 38.3802 1181.86 38.3906 1181.61 38.3906C1180.33 38.3906 1179.21 38.2083 1178.25 37.8437C1177.3 37.474 1176.56 36.9036 1176.04 36.1328C1175.53 35.362 1175.27 34.3698 1175.27 33.1562V28ZM1184.79 28H1188.1V44H1184.79V28ZM1196.8 44.2344C1195.59 44.2344 1194.54 43.9766 1193.65 43.4609C1192.77 42.9401 1192.09 42.2161 1191.62 41.2891C1191.14 40.3568 1190.9 39.276 1190.9 38.0469C1190.9 36.8073 1191.14 35.724 1191.62 34.7969C1192.09 33.8646 1192.77 33.1406 1193.65 32.625C1194.54 32.1042 1195.59 31.8438 1196.8 31.8438C1198.02 31.8438 1199.06 32.1042 1199.94 32.625C1200.83 33.1406 1201.51 33.8646 1201.99 34.7969C1202.47 35.724 1202.71 36.8073 1202.71 38.0469C1202.71 39.276 1202.47 40.3568 1201.99 41.2891C1201.51 42.2161 1200.83 42.9401 1199.94 43.4609C1199.06 43.9766 1198.02 44.2344 1196.8 44.2344ZM1196.82 41.6562C1197.37 41.6562 1197.83 41.5 1198.2 41.1875C1198.57 40.8698 1198.85 40.4375 1199.04 39.8906C1199.23 39.3437 1199.33 38.7214 1199.33 38.0234C1199.33 37.3255 1199.23 36.7031 1199.04 36.1562C1198.85 35.6094 1198.57 35.1771 1198.2 34.8594C1197.83 34.5417 1197.37 34.3828 1196.82 34.3828C1196.26 34.3828 1195.79 34.5417 1195.41 34.8594C1195.04 35.1771 1194.75 35.6094 1194.56 36.1562C1194.37 36.7031 1194.28 37.3255 1194.28 38.0234C1194.28 38.7214 1194.37 39.3437 1194.56 39.8906C1194.75 40.4375 1195.04 40.8698 1195.41 41.1875C1195.79 41.5 1196.26 41.6562 1196.82 41.6562ZM1204.17 44L1204.15 41.3594H1204.55C1204.83 41.3594 1205.08 41.2917 1205.28 41.1562C1205.49 41.0156 1205.66 40.7891 1205.79 40.4766C1205.93 40.1641 1206.04 39.75 1206.12 39.2344C1206.19 38.7135 1206.25 38.0729 1206.27 37.3125L1206.47 32H1215.59V44H1212.42V34.6172H1209.46L1209.27 38.2812C1209.22 39.2865 1209.1 40.151 1208.9 40.875C1208.71 41.599 1208.44 42.1927 1208.1 42.6562C1207.76 43.1146 1207.34 43.4531 1206.86 43.6719C1206.37 43.8906 1205.81 44 1205.17 44H1204.17Z" fill="#14142A"/>
<mask id="path-4-inside-1_292_2093" fill="white">
<path d="M0.775391 71H1252.78V121C1252.78 132.046 1243.82 141 1232.78 141H20.7754C9.72972 141 0.775391 132.046 0.775391 121V71Z"/>
</mask>
<path d="M0.775391 71H1252.78V121C1252.78 132.046 1243.82 141 1232.78 141H20.7754C9.72972 141 0.775391 132.046 0.775391 121V71Z" fill="white"/>
<path d="M0.775391 71H1252.78H0.775391ZM1253.78 121C1253.78 132.598 1244.37 142 1232.78 142H20.7754C9.17741 142 -0.224609 132.598 -0.224609 121H1.77539C1.77539 131.493 10.282 140 20.7754 140H1232.78C1243.27 140 1251.78 131.493 1251.78 121H1253.78ZM20.7754 142C9.17741 142 -0.224609 132.598 -0.224609 121V71H1.77539V121C1.77539 131.493 10.282 140 20.7754 140V142ZM1253.78 71V121C1253.78 132.598 1244.37 142 1232.78 142V140C1243.27 140 1251.78 131.493 1251.78 121V71H1253.78Z" fill="#FE68A4" mask="url(#path-4-inside-1_292_2093)"/>
<path d="M26.9863 103.5V101.812C26.9863 101.333 27.0801 100.844 27.2676 100.344C27.4551 99.8437 27.7025 99.3724 28.0098 98.9297C28.3171 98.487 28.6504 98.1172 29.0098 97.8203L30.4785 98.6875C30.1868 99.1458 29.9473 99.625 29.7598 100.125C29.5775 100.625 29.4863 101.182 29.4863 101.797V103.5H26.9863ZM30.9316 103.5V101.812C30.9316 101.333 31.0254 100.844 31.2129 100.344C31.4004 99.8437 31.6478 99.3724 31.9551 98.9297C32.2624 98.487 32.5957 98.1172 32.9551 97.8203L34.4238 98.6875C34.1322 99.1458 33.8926 99.625 33.7051 100.125C33.5228 100.625 33.4316 101.182 33.4316 101.797V103.5H30.9316ZM36.4473 114.5V98.5H42.8535C44.0306 98.5 45.0124 98.6745 45.7988 99.0234C46.5853 99.3724 47.1764 99.8568 47.5723 100.477C47.9681 101.091 48.166 101.799 48.166 102.602C48.166 103.227 48.041 103.776 47.791 104.25C47.541 104.719 47.1973 105.104 46.7598 105.406C46.3275 105.703 45.8327 105.914 45.2754 106.039V106.195C45.8848 106.221 46.4551 106.393 46.9863 106.711C47.5228 107.029 47.9577 107.474 48.291 108.047C48.6243 108.615 48.791 109.292 48.791 110.078C48.791 110.927 48.5801 111.685 48.1582 112.352C47.7415 113.013 47.1243 113.536 46.3066 113.922C45.4889 114.307 44.4811 114.5 43.2832 114.5H36.4473ZM39.8301 111.734H42.5879C43.5306 111.734 44.2181 111.555 44.6504 111.195C45.0827 110.831 45.2988 110.346 45.2988 109.742C45.2988 109.299 45.1921 108.909 44.9785 108.57C44.765 108.232 44.4603 107.966 44.0645 107.773C43.6738 107.581 43.2077 107.484 42.666 107.484H39.8301V111.734ZM39.8301 105.195H42.3379C42.8014 105.195 43.2129 105.115 43.5723 104.953C43.9368 104.786 44.2233 104.552 44.4316 104.25C44.6452 103.948 44.752 103.586 44.752 103.164C44.752 102.586 44.5462 102.12 44.1348 101.766C43.7285 101.411 43.1504 101.234 42.4004 101.234H39.8301V105.195ZM56.3516 114.734C55.138 114.734 54.0885 114.477 53.2031 113.961C52.3229 113.44 51.6432 112.716 51.1641 111.789C50.6849 110.857 50.4453 109.776 50.4453 108.547C50.4453 107.307 50.6849 106.224 51.1641 105.297C51.6432 104.365 52.3229 103.641 53.2031 103.125C54.0885 102.604 55.138 102.344 56.3516 102.344C57.5651 102.344 58.612 102.604 59.4922 103.125C60.3776 103.641 61.0599 104.365 61.5391 105.297C62.0182 106.224 62.2578 107.307 62.2578 108.547C62.2578 109.776 62.0182 110.857 61.5391 111.789C61.0599 112.716 60.3776 113.44 59.4922 113.961C58.612 114.477 57.5651 114.734 56.3516 114.734ZM56.3672 112.156C56.9193 112.156 57.3802 112 57.75 111.688C58.1198 111.37 58.3984 110.937 58.5859 110.391C58.7786 109.844 58.875 109.221 58.875 108.523C58.875 107.826 58.7786 107.203 58.5859 106.656C58.3984 106.109 58.1198 105.677 57.75 105.359C57.3802 105.042 56.9193 104.883 56.3672 104.883C55.8099 104.883 55.3411 105.042 54.9609 105.359C54.5859 105.677 54.3021 106.109 54.1094 106.656C53.9219 107.203 53.8281 107.826 53.8281 108.523C53.8281 109.221 53.9219 109.844 54.1094 110.391C54.3021 110.937 54.5859 111.37 54.9609 111.688C55.3411 112 55.8099 112.156 56.3672 112.156ZM72.6406 102.5V105.117H67.6563V114.5H64.4219V102.5H72.6406ZM79.6621 114.734C78.4486 114.734 77.3991 114.477 76.5137 113.961C75.6335 113.44 74.9538 112.716 74.4746 111.789C73.9954 110.857 73.7559 109.776 73.7559 108.547C73.7559 107.307 73.9954 106.224 74.4746 105.297C74.9538 104.365 75.6335 103.641 76.5137 103.125C77.3991 102.604 78.4486 102.344 79.6621 102.344C80.8757 102.344 81.9225 102.604 82.8027 103.125C83.6882 103.641 84.3704 104.365 84.8496 105.297C85.3288 106.224 85.5684 107.307 85.5684 108.547C85.5684 109.776 85.3288 110.857 84.8496 111.789C84.3704 112.716 83.6882 113.44 82.8027 113.961C81.9225 114.477 80.8757 114.734 79.6621 114.734ZM79.6777 112.156C80.2298 112.156 80.6908 112 81.0605 111.688C81.4303 111.37 81.709 110.937 81.8965 110.391C82.0892 109.844 82.1855 109.221 82.1855 108.523C82.1855 107.826 82.0892 107.203 81.8965 106.656C81.709 106.109 81.4303 105.677 81.0605 105.359C80.6908 105.042 80.2298 104.883 79.6777 104.883C79.1204 104.883 78.6517 105.042 78.2715 105.359C77.8965 105.677 77.6126 106.109 77.4199 106.656C77.2324 107.203 77.1387 107.826 77.1387 108.523C77.1387 109.221 77.2324 109.844 77.4199 110.391C77.6126 110.937 77.8965 111.37 78.2715 111.688C78.6517 112 79.1204 112.156 79.6777 112.156ZM96.084 107.172V109.789H89.8184V107.172H96.084ZM90.9121 102.5V114.5H87.7324V102.5H90.9121ZM98.1699 102.5V114.5H95.0137V102.5H98.1699ZM102.838 106.188H106.424C108.012 106.188 109.252 106.568 110.143 107.328C111.033 108.083 111.479 109.094 111.479 110.359C111.479 111.182 111.278 111.906 110.877 112.531C110.476 113.151 109.898 113.635 109.143 113.984C108.387 114.328 107.481 114.5 106.424 114.5H100.752V102.5H103.932V111.883H106.424C106.981 111.883 107.439 111.742 107.799 111.461C108.158 111.18 108.34 110.82 108.346 110.383C108.34 109.919 108.158 109.542 107.799 109.25C107.439 108.953 106.981 108.805 106.424 108.805H102.838V106.188ZM118.777 114.5V102.5H122.105V114.5H118.777ZM120.449 100.953C119.954 100.953 119.53 100.789 119.176 100.461C118.827 100.128 118.652 99.7292 118.652 99.2656C118.652 98.8073 118.827 98.4141 119.176 98.0859C119.53 97.7526 119.954 97.5859 120.449 97.5859C120.944 97.5859 121.366 97.7526 121.715 98.0859C122.069 98.4141 122.246 98.8073 122.246 99.2656C122.246 99.7292 122.069 100.128 121.715 100.461C121.366 100.789 120.944 100.953 120.449 100.953ZM129.16 114.5L129.145 111.859H129.543C129.824 111.859 130.066 111.792 130.27 111.656C130.478 111.516 130.65 111.289 130.785 110.977C130.921 110.664 131.027 110.25 131.105 109.734C131.184 109.214 131.236 108.573 131.262 107.812L131.457 102.5H140.582V114.5H137.41V105.117H134.449L134.262 108.781C134.215 109.786 134.092 110.651 133.895 111.375C133.702 112.099 133.434 112.693 133.09 113.156C132.746 113.615 132.332 113.953 131.848 114.172C131.363 114.391 130.801 114.5 130.16 114.5H129.16ZM143.162 114.5V102.5H146.49V114.5H143.162ZM144.834 100.953C144.339 100.953 143.915 100.789 143.561 100.461C143.212 100.128 143.037 99.7292 143.037 99.2656C143.037 98.8073 143.212 98.4141 143.561 98.0859C143.915 97.7526 144.339 97.5859 144.834 97.5859C145.329 97.5859 145.751 97.7526 146.1 98.0859C146.454 98.4141 146.631 98.8073 146.631 99.2656C146.631 99.7292 146.454 100.128 146.1 100.461C145.751 100.789 145.329 100.953 144.834 100.953ZM148.219 118.016V111.859H149.141C149.406 111.693 149.62 111.427 149.781 111.062C149.948 110.698 150.083 110.268 150.188 109.773C150.297 109.279 150.38 108.745 150.438 108.172C150.5 107.594 150.555 107.01 150.602 106.422L150.914 102.5H160.117V111.859H161.977V118.016H158.805V114.5H151.469V118.016H148.219ZM152.453 111.859H156.977V105.062H153.742L153.617 106.422C153.529 107.703 153.401 108.792 153.234 109.688C153.068 110.578 152.807 111.302 152.453 111.859ZM166.705 98.5V100.187C166.705 100.667 166.611 101.156 166.424 101.656C166.242 102.151 165.997 102.62 165.689 103.062C165.382 103.5 165.046 103.872 164.682 104.18L163.213 103.312C163.473 102.901 163.702 102.445 163.9 101.945C164.104 101.445 164.205 100.865 164.205 100.203V98.5H166.705ZM170.635 98.5V100.187C170.635 100.667 170.541 101.156 170.354 101.656C170.171 102.151 169.926 102.62 169.619 103.062C169.312 103.5 168.973 103.872 168.604 104.18L167.135 103.312C167.4 102.901 167.632 102.445 167.83 101.945C168.033 101.445 168.135 100.865 168.135 100.203V98.5H170.635ZM181.689 114.727C180.924 114.727 180.242 114.594 179.643 114.328C179.044 114.057 178.57 113.659 178.221 113.133C177.877 112.602 177.705 111.94 177.705 111.148C177.705 110.482 177.827 109.922 178.072 109.469C178.317 109.016 178.65 108.651 179.072 108.375C179.494 108.099 179.973 107.891 180.51 107.75C181.051 107.609 181.619 107.51 182.213 107.453C182.911 107.38 183.473 107.312 183.9 107.25C184.327 107.182 184.637 107.083 184.83 106.953C185.023 106.823 185.119 106.63 185.119 106.375V106.328C185.119 105.833 184.963 105.451 184.65 105.18C184.343 104.909 183.906 104.773 183.338 104.773C182.739 104.773 182.262 104.906 181.908 105.172C181.554 105.432 181.32 105.76 181.205 106.156L178.127 105.906C178.283 105.177 178.59 104.547 179.049 104.016C179.507 103.479 180.098 103.068 180.822 102.781C181.551 102.49 182.395 102.344 183.354 102.344C184.02 102.344 184.658 102.422 185.268 102.578C185.882 102.734 186.426 102.977 186.9 103.305C187.38 103.633 187.757 104.055 188.033 104.57C188.309 105.081 188.447 105.693 188.447 106.406V114.5H185.291V112.836H185.197C185.005 113.211 184.747 113.542 184.424 113.828C184.101 114.109 183.713 114.331 183.26 114.492C182.807 114.648 182.283 114.727 181.689 114.727ZM182.643 112.43C183.132 112.43 183.564 112.333 183.939 112.141C184.314 111.943 184.609 111.677 184.822 111.344C185.036 111.01 185.143 110.633 185.143 110.211V108.938C185.038 109.005 184.895 109.068 184.713 109.125C184.536 109.177 184.335 109.227 184.111 109.273C183.887 109.315 183.663 109.354 183.439 109.391C183.215 109.422 183.012 109.451 182.83 109.477C182.439 109.534 182.098 109.625 181.807 109.75C181.515 109.875 181.288 110.044 181.127 110.258C180.965 110.466 180.885 110.727 180.885 111.039C180.885 111.492 181.049 111.839 181.377 112.078C181.71 112.312 182.132 112.43 182.643 112.43ZM201.006 98.0937L202.021 100.266C201.683 100.547 201.308 100.755 200.896 100.891C200.485 101.021 199.993 101.107 199.42 101.148C198.852 101.19 198.16 101.219 197.342 101.234C196.415 101.245 195.66 101.393 195.076 101.68C194.493 101.966 194.05 102.417 193.748 103.031C193.446 103.641 193.248 104.437 193.154 105.422H193.271C193.631 104.687 194.136 104.12 194.787 103.719C195.443 103.318 196.253 103.117 197.217 103.117C198.238 103.117 199.131 103.341 199.896 103.789C200.667 104.237 201.266 104.88 201.693 105.719C202.12 106.557 202.334 107.562 202.334 108.734C202.334 109.953 202.094 111.013 201.615 111.914C201.141 112.81 200.467 113.505 199.592 114C198.717 114.49 197.675 114.734 196.467 114.734C195.253 114.734 194.206 114.479 193.326 113.969C192.451 113.458 191.774 112.706 191.295 111.711C190.821 110.716 190.584 109.492 190.584 108.039V107.055C190.584 104.164 191.146 102.021 192.271 100.625C193.396 99.2292 195.05 98.5208 197.232 98.5C197.826 98.4896 198.363 98.487 198.842 98.4922C199.321 98.4974 199.74 98.474 200.1 98.4219C200.464 98.3698 200.766 98.2604 201.006 98.0937ZM196.482 112.156C196.993 112.156 197.43 112.023 197.795 111.758C198.165 111.492 198.449 111.112 198.646 110.617C198.85 110.122 198.951 109.531 198.951 108.844C198.951 108.161 198.85 107.583 198.646 107.109C198.449 106.63 198.165 106.266 197.795 106.016C197.425 105.766 196.982 105.641 196.467 105.641C196.081 105.641 195.735 105.711 195.428 105.852C195.12 105.992 194.857 106.201 194.639 106.477C194.425 106.747 194.258 107.083 194.139 107.484C194.024 107.88 193.967 108.333 193.967 108.844C193.967 109.87 194.188 110.68 194.631 111.273C195.079 111.862 195.696 112.156 196.482 112.156ZM209.965 114.734C208.751 114.734 207.702 114.477 206.816 113.961C205.936 113.44 205.257 112.716 204.777 111.789C204.298 110.857 204.059 109.776 204.059 108.547C204.059 107.307 204.298 106.224 204.777 105.297C205.257 104.365 205.936 103.641 206.816 103.125C207.702 102.604 208.751 102.344 209.965 102.344C211.178 102.344 212.225 102.604 213.105 103.125C213.991 103.641 214.673 104.365 215.152 105.297C215.632 106.224 215.871 107.307 215.871 108.547C215.871 109.776 215.632 110.857 215.152 111.789C214.673 112.716 213.991 113.44 213.105 113.961C212.225 114.477 211.178 114.734 209.965 114.734ZM209.98 112.156C210.533 112.156 210.993 112 211.363 111.688C211.733 111.37 212.012 110.937 212.199 110.391C212.392 109.844 212.488 109.221 212.488 108.523C212.488 107.826 212.392 107.203 212.199 106.656C212.012 106.109 211.733 105.677 211.363 105.359C210.993 105.042 210.533 104.883 209.98 104.883C209.423 104.883 208.954 105.042 208.574 105.359C208.199 105.677 207.915 106.109 207.723 106.656C207.535 107.203 207.441 107.826 207.441 108.523C207.441 109.221 207.535 109.844 207.723 110.391C207.915 110.937 208.199 111.37 208.574 111.688C208.954 112 209.423 112.156 209.98 112.156ZM223.01 103.5V101.812C223.01 101.333 223.104 100.844 223.291 100.344C223.479 99.8437 223.726 99.3724 224.033 98.9297C224.34 98.487 224.674 98.1172 225.033 97.8203L226.502 98.6875C226.21 99.1458 225.971 99.625 225.783 100.125C225.601 100.625 225.51 101.182 225.51 101.797V103.5H223.01ZM226.955 103.5V101.812C226.955 101.333 227.049 100.844 227.236 100.344C227.424 99.8437 227.671 99.3724 227.979 98.9297C228.286 98.487 228.619 98.1172 228.979 97.8203L230.447 98.6875C230.156 99.1458 229.916 99.625 229.729 100.125C229.546 100.625 229.455 101.182 229.455 101.797V103.5H226.955ZM233.119 98.5H236.408V103.656C236.408 104.271 236.515 104.766 236.729 105.141C236.942 105.51 237.273 105.779 237.721 105.945C238.174 106.107 238.755 106.188 239.463 106.188C239.713 106.188 240.007 106.18 240.346 106.164C240.684 106.143 241.033 106.115 241.393 106.078C241.757 106.042 242.101 105.997 242.424 105.945C242.747 105.893 243.015 105.833 243.229 105.766V108.437C243.01 108.51 242.736 108.576 242.408 108.633C242.085 108.685 241.744 108.732 241.385 108.773C241.025 108.81 240.676 108.839 240.338 108.859C239.999 108.88 239.708 108.891 239.463 108.891C238.176 108.891 237.057 108.708 236.104 108.344C235.15 107.974 234.413 107.404 233.893 106.633C233.377 105.862 233.119 104.87 233.119 103.656V98.5ZM242.643 98.5H245.947V114.5H242.643V98.5ZM254.699 114.734C253.465 114.734 252.402 114.484 251.512 113.984C250.626 113.479 249.944 112.766 249.465 111.844C248.986 110.917 248.746 109.82 248.746 108.555C248.746 107.32 248.986 106.237 249.465 105.305C249.944 104.372 250.618 103.646 251.488 103.125C252.363 102.604 253.389 102.344 254.566 102.344C255.358 102.344 256.095 102.471 256.777 102.727C257.465 102.977 258.064 103.354 258.574 103.859C259.09 104.365 259.491 105 259.777 105.766C260.064 106.526 260.207 107.417 260.207 108.437V109.352H250.074V107.289H257.074C257.074 106.81 256.97 106.385 256.762 106.016C256.553 105.646 256.264 105.357 255.895 105.148C255.53 104.935 255.105 104.828 254.621 104.828C254.116 104.828 253.668 104.945 253.277 105.18C252.892 105.409 252.59 105.719 252.371 106.109C252.152 106.495 252.04 106.924 252.035 107.398V109.359C252.035 109.953 252.145 110.466 252.363 110.898C252.587 111.331 252.902 111.664 253.309 111.898C253.715 112.133 254.197 112.25 254.754 112.25C255.124 112.25 255.462 112.198 255.77 112.094C256.077 111.99 256.34 111.833 256.559 111.625C256.777 111.417 256.944 111.161 257.059 110.859L260.137 111.062C259.98 111.802 259.66 112.448 259.176 113C258.697 113.547 258.077 113.974 257.316 114.281C256.561 114.583 255.689 114.734 254.699 114.734ZM262.379 119V102.5H265.66V104.516H265.809C265.954 104.193 266.165 103.865 266.441 103.531C266.723 103.193 267.087 102.911 267.535 102.688C267.988 102.458 268.551 102.344 269.223 102.344C270.098 102.344 270.905 102.573 271.645 103.031C272.384 103.484 272.975 104.169 273.418 105.086C273.861 105.997 274.082 107.141 274.082 108.516C274.082 109.854 273.866 110.984 273.434 111.906C273.007 112.823 272.423 113.518 271.684 113.992C270.949 114.461 270.126 114.695 269.215 114.695C268.569 114.695 268.02 114.589 267.566 114.375C267.118 114.161 266.751 113.893 266.465 113.57C266.178 113.242 265.96 112.911 265.809 112.578H265.707V119H262.379ZM265.637 108.5C265.637 109.214 265.736 109.836 265.934 110.367C266.132 110.898 266.418 111.312 266.793 111.609C267.168 111.901 267.624 112.047 268.16 112.047C268.702 112.047 269.16 111.898 269.535 111.602C269.91 111.299 270.194 110.883 270.387 110.352C270.585 109.815 270.684 109.198 270.684 108.5C270.684 107.807 270.587 107.198 270.395 106.672C270.202 106.146 269.918 105.734 269.543 105.437C269.168 105.141 268.707 104.992 268.16 104.992C267.618 104.992 267.16 105.135 266.785 105.422C266.415 105.708 266.132 106.115 265.934 106.641C265.736 107.167 265.637 107.786 265.637 108.5ZM276.301 114.5V102.5H281.418C282.897 102.5 284.066 102.781 284.926 103.344C285.785 103.906 286.215 104.706 286.215 105.742C286.215 106.393 285.973 106.935 285.488 107.367C285.004 107.799 284.332 108.091 283.473 108.242C284.191 108.294 284.803 108.458 285.309 108.734C285.819 109.005 286.207 109.357 286.473 109.789C286.743 110.221 286.879 110.701 286.879 111.227C286.879 111.909 286.697 112.495 286.332 112.984C285.973 113.474 285.444 113.849 284.746 114.109C284.053 114.37 283.207 114.5 282.207 114.5H276.301ZM279.402 112.008H282.207C282.671 112.008 283.033 111.898 283.293 111.68C283.559 111.456 283.691 111.151 283.691 110.766C283.691 110.339 283.559 110.003 283.293 109.758C283.033 109.513 282.671 109.391 282.207 109.391H279.402V112.008ZM279.402 107.437H281.488C281.822 107.437 282.105 107.391 282.34 107.297C282.579 107.198 282.762 107.057 282.887 106.875C283.017 106.693 283.082 106.477 283.082 106.227C283.082 105.857 282.934 105.568 282.637 105.359C282.34 105.151 281.934 105.047 281.418 105.047H279.402V107.437ZM294.398 114.734C293.185 114.734 292.135 114.477 291.25 113.961C290.37 113.44 289.69 112.716 289.211 111.789C288.732 110.857 288.492 109.776 288.492 108.547C288.492 107.307 288.732 106.224 289.211 105.297C289.69 104.365 290.37 103.641 291.25 103.125C292.135 102.604 293.185 102.344 294.398 102.344C295.612 102.344 296.659 102.604 297.539 103.125C298.424 103.641 299.107 104.365 299.586 105.297C300.065 106.224 300.305 107.307 300.305 108.547C300.305 109.776 300.065 110.857 299.586 111.789C299.107 112.716 298.424 113.44 297.539 113.961C296.659 114.477 295.612 114.734 294.398 114.734ZM294.414 112.156C294.966 112.156 295.427 112 295.797 111.688C296.167 111.37 296.445 110.937 296.633 110.391C296.826 109.844 296.922 109.221 296.922 108.523C296.922 107.826 296.826 107.203 296.633 106.656C296.445 106.109 296.167 105.677 295.797 105.359C295.427 105.042 294.966 104.883 294.414 104.883C293.857 104.883 293.388 105.042 293.008 105.359C292.633 105.677 292.349 106.109 292.156 106.656C291.969 107.203 291.875 107.826 291.875 108.523C291.875 109.221 291.969 109.844 292.156 110.391C292.349 110.937 292.633 111.37 293.008 111.688C293.388 112 293.857 112.156 294.414 112.156ZM310.82 107.172V109.789H304.555V107.172H310.82ZM305.648 102.5V114.5H302.469V102.5H305.648ZM312.906 102.5V114.5H309.75V102.5H312.906ZM318.91 114.727C318.145 114.727 317.462 114.594 316.863 114.328C316.264 114.057 315.79 113.659 315.441 113.133C315.098 112.602 314.926 111.94 314.926 111.148C314.926 110.482 315.048 109.922 315.293 109.469C315.538 109.016 315.871 108.651 316.293 108.375C316.715 108.099 317.194 107.891 317.73 107.75C318.272 107.609 318.84 107.51 319.434 107.453C320.132 107.38 320.694 107.312 321.121 107.25C321.548 107.182 321.858 107.083 322.051 106.953C322.243 106.823 322.34 106.63 322.34 106.375V106.328C322.34 105.833 322.184 105.451 321.871 105.18C321.564 104.909 321.126 104.773 320.559 104.773C319.96 104.773 319.483 104.906 319.129 105.172C318.775 105.432 318.54 105.76 318.426 106.156L315.348 105.906C315.504 105.177 315.811 104.547 316.27 104.016C316.728 103.479 317.319 103.068 318.043 102.781C318.772 102.49 319.616 102.344 320.574 102.344C321.241 102.344 321.879 102.422 322.488 102.578C323.103 102.734 323.647 102.977 324.121 103.305C324.6 103.633 324.978 104.055 325.254 104.57C325.53 105.081 325.668 105.693 325.668 106.406V114.5H322.512V112.836H322.418C322.225 113.211 321.967 113.542 321.645 113.828C321.322 114.109 320.934 114.331 320.48 114.492C320.027 114.648 319.504 114.727 318.91 114.727ZM319.863 112.43C320.353 112.43 320.785 112.333 321.16 112.141C321.535 111.943 321.829 111.677 322.043 111.344C322.257 111.01 322.363 110.633 322.363 110.211V108.938C322.259 109.005 322.116 109.068 321.934 109.125C321.757 109.177 321.556 109.227 321.332 109.273C321.108 109.315 320.884 109.354 320.66 109.391C320.436 109.422 320.233 109.451 320.051 109.477C319.66 109.534 319.319 109.625 319.027 109.75C318.736 109.875 318.509 110.044 318.348 110.258C318.186 110.466 318.105 110.727 318.105 111.039C318.105 111.492 318.27 111.839 318.598 112.078C318.931 112.312 319.353 112.43 319.863 112.43ZM332.404 118.016V111.859H333.326C333.592 111.693 333.805 111.427 333.967 111.062C334.133 110.698 334.269 110.268 334.373 109.773C334.482 109.279 334.566 108.745 334.623 108.172C334.686 107.594 334.74 107.01 334.787 106.422L335.1 102.5H344.303V111.859H346.162V118.016H342.99V114.5H335.654V118.016H332.404ZM336.639 111.859H341.162V105.062H337.928L337.803 106.422C337.714 107.703 337.587 108.792 337.42 109.688C337.253 110.578 336.993 111.302 336.639 111.859ZM353.523 114.734C352.31 114.734 351.26 114.477 350.375 113.961C349.495 113.44 348.815 112.716 348.336 111.789C347.857 110.857 347.617 109.776 347.617 108.547C347.617 107.307 347.857 106.224 348.336 105.297C348.815 104.365 349.495 103.641 350.375 103.125C351.26 102.604 352.31 102.344 353.523 102.344C354.737 102.344 355.784 102.604 356.664 103.125C357.549 103.641 358.232 104.365 358.711 105.297C359.19 106.224 359.43 107.307 359.43 108.547C359.43 109.776 359.19 110.857 358.711 111.789C358.232 112.716 357.549 113.44 356.664 113.961C355.784 114.477 354.737 114.734 353.523 114.734ZM353.539 112.156C354.091 112.156 354.552 112 354.922 111.688C355.292 111.37 355.57 110.937 355.758 110.391C355.951 109.844 356.047 109.221 356.047 108.523C356.047 107.826 355.951 107.203 355.758 106.656C355.57 106.109 355.292 105.677 354.922 105.359C354.552 105.042 354.091 104.883 353.539 104.883C352.982 104.883 352.513 105.042 352.133 105.359C351.758 105.677 351.474 106.109 351.281 106.656C351.094 107.203 351 107.826 351 108.523C351 109.221 351.094 109.844 351.281 110.391C351.474 110.937 351.758 111.37 352.133 111.688C352.513 112 352.982 112.156 353.539 112.156ZM361.594 119V102.5H364.875V104.516H365.023C365.169 104.193 365.38 103.865 365.656 103.531C365.938 103.193 366.302 102.911 366.75 102.688C367.203 102.458 367.766 102.344 368.438 102.344C369.313 102.344 370.12 102.573 370.859 103.031C371.599 103.484 372.19 104.169 372.633 105.086C373.076 105.997 373.297 107.141 373.297 108.516C373.297 109.854 373.081 110.984 372.648 111.906C372.221 112.823 371.638 113.518 370.898 113.992C370.164 114.461 369.341 114.695 368.43 114.695C367.784 114.695 367.234 114.589 366.781 114.375C366.333 114.161 365.966 113.893 365.68 113.57C365.393 113.242 365.174 112.911 365.023 112.578H364.922V119H361.594ZM364.852 108.5C364.852 109.214 364.951 109.836 365.148 110.367C365.346 110.898 365.633 111.312 366.008 111.609C366.383 111.901 366.839 112.047 367.375 112.047C367.917 112.047 368.375 111.898 368.75 111.602C369.125 111.299 369.409 110.883 369.602 110.352C369.799 109.815 369.898 109.198 369.898 108.5C369.898 107.807 369.802 107.198 369.609 106.672C369.417 106.146 369.133 105.734 368.758 105.437C368.383 105.141 367.922 104.992 367.375 104.992C366.833 104.992 366.375 105.135 366 105.422C365.63 105.708 365.346 106.115 365.148 106.641C364.951 107.167 364.852 107.786 364.852 108.5ZM375.516 114.5V102.5H378.844V114.5H375.516ZM377.188 100.953C376.693 100.953 376.268 100.789 375.914 100.461C375.565 100.128 375.391 99.7292 375.391 99.2656C375.391 98.8073 375.565 98.4141 375.914 98.0859C376.268 97.7526 376.693 97.5859 377.188 97.5859C377.682 97.5859 378.104 97.7526 378.453 98.0859C378.807 98.4141 378.984 98.8073 378.984 99.2656C378.984 99.7292 378.807 100.128 378.453 100.461C378.104 100.789 377.682 100.953 377.188 100.953ZM380.729 114.5L384.924 108.258L380.752 102.5H384.549L387.666 107.195H388.182V102.5H391.51V107.195H392.01L395.127 102.5H398.924L394.76 108.258L398.947 114.5H395.064L391.979 109.812H391.51V114.5H388.182V109.812H387.713L384.611 114.5H380.729ZM400.824 114.5V102.5H404.152V107.156H405.09L408.355 102.5H412.262L408.02 108.453L412.309 114.5H408.355L405.395 110.242H404.152V114.5H400.824ZM417.137 114.727C416.371 114.727 415.689 114.594 415.09 114.328C414.491 114.057 414.017 113.659 413.668 113.133C413.324 112.602 413.152 111.94 413.152 111.148C413.152 110.482 413.275 109.922 413.52 109.469C413.764 109.016 414.098 108.651 414.52 108.375C414.941 108.099 415.421 107.891 415.957 107.75C416.499 107.609 417.066 107.51 417.66 107.453C418.358 107.38 418.921 107.312 419.348 107.25C419.775 107.182 420.085 107.083 420.277 106.953C420.47 106.823 420.566 106.63 420.566 106.375V106.328C420.566 105.833 420.41 105.451 420.098 105.18C419.79 104.909 419.353 104.773 418.785 104.773C418.186 104.773 417.71 104.906 417.355 105.172C417.001 105.432 416.767 105.76 416.652 106.156L413.574 105.906C413.73 105.177 414.038 104.547 414.496 104.016C414.954 103.479 415.546 103.068 416.27 102.781C416.999 102.49 417.842 102.344 418.801 102.344C419.467 102.344 420.105 102.422 420.715 102.578C421.329 102.734 421.874 102.977 422.348 103.305C422.827 103.633 423.204 104.055 423.48 104.57C423.757 105.081 423.895 105.693 423.895 106.406V114.5H420.738V112.836H420.645C420.452 113.211 420.194 113.542 419.871 113.828C419.548 114.109 419.16 114.331 418.707 114.492C418.254 114.648 417.73 114.727 417.137 114.727ZM418.09 112.43C418.579 112.43 419.012 112.333 419.387 112.141C419.762 111.943 420.056 111.677 420.27 111.344C420.483 111.01 420.59 110.633 420.59 110.211V108.938C420.486 109.005 420.342 109.068 420.16 109.125C419.983 109.177 419.783 109.227 419.559 109.273C419.335 109.315 419.111 109.354 418.887 109.391C418.663 109.422 418.46 109.451 418.277 109.477C417.887 109.534 417.546 109.625 417.254 109.75C416.962 109.875 416.736 110.044 416.574 110.258C416.413 110.466 416.332 110.727 416.332 111.039C416.332 111.492 416.496 111.839 416.824 112.078C417.158 112.312 417.579 112.43 418.09 112.43ZM429.266 98.5V100.187C429.266 100.667 429.172 101.156 428.984 101.656C428.802 102.151 428.557 102.62 428.25 103.062C427.943 103.5 427.607 103.872 427.242 104.18L425.773 103.312C426.034 102.901 426.263 102.445 426.461 101.945C426.664 101.445 426.766 100.865 426.766 100.203V98.5H429.266ZM433.195 98.5V100.187C433.195 100.667 433.102 101.156 432.914 101.656C432.732 102.151 432.487 102.62 432.18 103.062C431.872 103.5 431.534 103.872 431.164 104.18L429.695 103.312C429.961 102.901 430.193 102.445 430.391 101.945C430.594 101.445 430.695 100.865 430.695 100.203V98.5H433.195ZM449.18 107.172V109.789H442.914V107.172H449.18ZM444.008 102.5V114.5H440.828V102.5H444.008ZM451.266 102.5V114.5H448.109V102.5H451.266ZM457.27 114.727C456.504 114.727 455.822 114.594 455.223 114.328C454.624 114.057 454.15 113.659 453.801 113.133C453.457 112.602 453.285 111.94 453.285 111.148C453.285 110.482 453.408 109.922 453.652 109.469C453.897 109.016 454.23 108.651 454.652 108.375C455.074 108.099 455.553 107.891 456.09 107.75C456.632 107.609 457.199 107.51 457.793 107.453C458.491 107.38 459.053 107.312 459.48 107.25C459.908 107.182 460.217 107.083 460.41 106.953C460.603 106.823 460.699 106.63 460.699 106.375V106.328C460.699 105.833 460.543 105.451 460.23 105.18C459.923 104.909 459.486 104.773 458.918 104.773C458.319 104.773 457.842 104.906 457.488 105.172C457.134 105.432 456.9 105.76 456.785 106.156L453.707 105.906C453.863 105.177 454.171 104.547 454.629 104.016C455.087 103.479 455.678 103.068 456.402 102.781C457.132 102.49 457.975 102.344 458.934 102.344C459.6 102.344 460.238 102.422 460.848 102.578C461.462 102.734 462.007 102.977 462.48 103.305C462.96 103.633 463.337 104.055 463.613 104.57C463.889 105.081 464.027 105.693 464.027 106.406V114.5H460.871V112.836H460.777C460.585 113.211 460.327 113.542 460.004 113.828C459.681 114.109 459.293 114.331 458.84 114.492C458.387 114.648 457.863 114.727 457.27 114.727ZM458.223 112.43C458.712 112.43 459.145 112.333 459.52 112.141C459.895 111.943 460.189 111.677 460.402 111.344C460.616 111.01 460.723 110.633 460.723 110.211V108.938C460.618 109.005 460.475 109.068 460.293 109.125C460.116 109.177 459.915 109.227 459.691 109.273C459.467 109.315 459.243 109.354 459.02 109.391C458.796 109.422 458.592 109.451 458.41 109.477C458.02 109.534 457.678 109.625 457.387 109.75C457.095 109.875 456.868 110.044 456.707 110.258C456.546 110.466 456.465 110.727 456.465 111.039C456.465 111.492 456.629 111.839 456.957 112.078C457.29 112.312 457.712 112.43 458.223 112.43ZM471.701 114.5V102.5H475.029V107.156H475.967L479.232 102.5H483.139L478.896 108.453L483.186 114.5H479.232L476.271 110.242H475.029V114.5H471.701ZM489.52 114.734C488.306 114.734 487.257 114.477 486.371 113.961C485.491 113.44 484.811 112.716 484.332 111.789C483.853 110.857 483.613 109.776 483.613 108.547C483.613 107.307 483.853 106.224 484.332 105.297C484.811 104.365 485.491 103.641 486.371 103.125C487.257 102.604 488.306 102.344 489.52 102.344C490.733 102.344 491.78 102.604 492.66 103.125C493.546 103.641 494.228 104.365 494.707 105.297C495.186 106.224 495.426 107.307 495.426 108.547C495.426 109.776 495.186 110.857 494.707 111.789C494.228 112.716 493.546 113.44 492.66 113.961C491.78 114.477 490.733 114.734 489.52 114.734ZM489.535 112.156C490.087 112.156 490.548 112 490.918 111.688C491.288 111.37 491.566 110.937 491.754 110.391C491.947 109.844 492.043 109.221 492.043 108.523C492.043 107.826 491.947 107.203 491.754 106.656C491.566 106.109 491.288 105.677 490.918 105.359C490.548 105.042 490.087 104.883 489.535 104.883C488.978 104.883 488.509 105.042 488.129 105.359C487.754 105.677 487.47 106.109 487.277 106.656C487.09 107.203 486.996 107.826 486.996 108.523C486.996 109.221 487.09 109.844 487.277 110.391C487.47 110.937 487.754 111.37 488.129 111.688C488.509 112 488.978 112.156 489.535 112.156ZM503.012 114.734C501.783 114.734 500.725 114.474 499.84 113.953C498.96 113.427 498.283 112.698 497.809 111.766C497.34 110.833 497.105 109.76 497.105 108.547C497.105 107.318 497.342 106.24 497.816 105.312C498.296 104.38 498.975 103.654 499.855 103.133C500.736 102.607 501.783 102.344 502.996 102.344C504.043 102.344 504.96 102.534 505.746 102.914C506.533 103.294 507.155 103.828 507.613 104.516C508.072 105.203 508.324 106.01 508.371 106.938H505.23C505.142 106.339 504.908 105.857 504.527 105.492C504.152 105.122 503.66 104.937 503.051 104.937C502.535 104.937 502.085 105.078 501.699 105.359C501.319 105.635 501.022 106.039 500.809 106.57C500.595 107.102 500.488 107.745 500.488 108.5C500.488 109.266 500.592 109.917 500.801 110.453C501.014 110.99 501.314 111.398 501.699 111.68C502.085 111.961 502.535 112.102 503.051 112.102C503.431 112.102 503.772 112.023 504.074 111.867C504.382 111.711 504.634 111.484 504.832 111.187C505.035 110.885 505.168 110.523 505.23 110.102H508.371C508.319 111.018 508.069 111.826 507.621 112.523C507.178 113.216 506.566 113.758 505.785 114.148C505.004 114.539 504.079 114.734 503.012 114.734ZM517.596 110.82L520.846 102.5H523.377L518.697 114.5H516.486L511.916 102.5H514.439L517.596 110.82ZM513.682 102.5V114.5H510.502V102.5H513.682ZM521.674 114.5V102.5H524.814V114.5H521.674ZM532.857 114.734C531.623 114.734 530.561 114.484 529.67 113.984C528.785 113.479 528.102 112.766 527.623 111.844C527.144 110.917 526.904 109.82 526.904 108.555C526.904 107.32 527.144 106.237 527.623 105.305C528.102 104.372 528.777 103.646 529.646 103.125C530.521 102.604 531.548 102.344 532.725 102.344C533.516 102.344 534.253 102.471 534.936 102.727C535.623 102.977 536.222 103.354 536.732 103.859C537.248 104.365 537.649 105 537.936 105.766C538.222 106.526 538.365 107.417 538.365 108.437V109.352H528.232V107.289H535.232C535.232 106.81 535.128 106.385 534.92 106.016C534.712 105.646 534.423 105.357 534.053 105.148C533.688 104.935 533.264 104.828 532.779 104.828C532.274 104.828 531.826 104.945 531.436 105.18C531.05 105.409 530.748 105.719 530.529 106.109C530.311 106.495 530.199 106.924 530.193 107.398V109.359C530.193 109.953 530.303 110.466 530.521 110.898C530.745 111.331 531.061 111.664 531.467 111.898C531.873 112.133 532.355 112.25 532.912 112.25C533.282 112.25 533.62 112.198 533.928 112.094C534.235 111.99 534.498 111.833 534.717 111.625C534.936 111.417 535.102 111.161 535.217 110.859L538.295 111.062C538.139 111.802 537.818 112.448 537.334 113C536.855 113.547 536.235 113.974 535.475 114.281C534.719 114.583 533.847 114.734 532.857 114.734ZM539.611 105.117V102.5H550.486V105.117H546.619V114.5H543.447V105.117H539.611ZM555.684 110.109L560.004 102.5H563.285V114.5H560.113V106.867L555.809 114.5H552.504V102.5H555.684V110.109ZM576.445 102.5V112.203H578.359V118.359H575.125V114.5H565.953V102.5H569.133V111.883H573.305V102.5H576.445ZM580.412 114.5V102.5H583.74V114.5H580.412ZM582.084 100.953C581.589 100.953 581.165 100.789 580.811 100.461C580.462 100.128 580.287 99.7292 580.287 99.2656C580.287 98.8073 580.462 98.4141 580.811 98.0859C581.165 97.7526 581.589 97.5859 582.084 97.5859C582.579 97.5859 583.001 97.7526 583.35 98.0859C583.704 98.4141 583.881 98.8073 583.881 99.2656C583.881 99.7292 583.704 100.128 583.35 100.461C583.001 100.789 582.579 100.953 582.084 100.953ZM594.943 98.5V114.5H591.561V98.5H594.943ZM606.406 103.102C606.344 102.471 606.076 101.982 605.602 101.633C605.128 101.284 604.484 101.109 603.672 101.109C603.12 101.109 602.654 101.187 602.273 101.344C601.893 101.495 601.602 101.706 601.398 101.977C601.201 102.247 601.102 102.555 601.102 102.898C601.091 103.185 601.151 103.435 601.281 103.648C601.417 103.862 601.602 104.047 601.836 104.203C602.07 104.354 602.341 104.487 602.648 104.602C602.956 104.711 603.284 104.805 603.633 104.883L605.07 105.227C605.768 105.383 606.409 105.591 606.992 105.852C607.576 106.112 608.081 106.432 608.508 106.812C608.935 107.193 609.266 107.641 609.5 108.156C609.74 108.672 609.862 109.263 609.867 109.93C609.862 110.909 609.612 111.758 609.117 112.477C608.628 113.19 607.919 113.745 606.992 114.141C606.07 114.531 604.958 114.727 603.656 114.727C602.365 114.727 601.24 114.529 600.281 114.133C599.328 113.737 598.583 113.151 598.047 112.375C597.516 111.594 597.237 110.628 597.211 109.477H600.484C600.521 110.013 600.674 110.461 600.945 110.82C601.221 111.174 601.589 111.443 602.047 111.625C602.51 111.802 603.034 111.891 603.617 111.891C604.19 111.891 604.688 111.807 605.109 111.641C605.536 111.474 605.867 111.242 606.102 110.945C606.336 110.648 606.453 110.307 606.453 109.922C606.453 109.562 606.346 109.26 606.133 109.016C605.924 108.771 605.617 108.562 605.211 108.391C604.81 108.219 604.318 108.062 603.734 107.922L601.992 107.484C600.643 107.156 599.578 106.643 598.797 105.945C598.016 105.247 597.628 104.307 597.633 103.125C597.628 102.156 597.885 101.31 598.406 100.586C598.932 99.862 599.654 99.2969 600.57 98.8906C601.487 98.4844 602.529 98.2812 603.695 98.2812C604.883 98.2812 605.919 98.4844 606.805 98.8906C607.695 99.2969 608.388 99.862 608.883 100.586C609.378 101.31 609.633 102.148 609.648 103.102H606.406ZM631.352 104.102H627.93C627.867 103.659 627.74 103.266 627.547 102.922C627.354 102.573 627.107 102.276 626.805 102.031C626.503 101.786 626.154 101.599 625.758 101.469C625.367 101.339 624.943 101.273 624.484 101.273C623.656 101.273 622.935 101.479 622.32 101.891C621.706 102.297 621.229 102.891 620.891 103.672C620.552 104.448 620.383 105.391 620.383 106.5C620.383 107.641 620.552 108.599 620.891 109.375C621.234 110.151 621.714 110.737 622.328 111.133C622.943 111.529 623.654 111.727 624.461 111.727C624.914 111.727 625.333 111.667 625.719 111.547C626.109 111.427 626.456 111.253 626.758 111.023C627.06 110.789 627.31 110.505 627.508 110.172C627.711 109.839 627.852 109.458 627.93 109.031L631.352 109.047C631.263 109.781 631.042 110.49 630.688 111.172C630.339 111.849 629.867 112.456 629.273 112.992C628.685 113.523 627.982 113.945 627.164 114.258C626.352 114.565 625.432 114.719 624.406 114.719C622.979 114.719 621.703 114.396 620.578 113.75C619.458 113.104 618.573 112.169 617.922 110.945C617.276 109.721 616.953 108.24 616.953 106.5C616.953 104.755 617.281 103.271 617.938 102.047C618.594 100.823 619.484 99.8906 620.609 99.25C621.734 98.6042 623 98.2812 624.406 98.2812C625.333 98.2812 626.193 98.4115 626.984 98.6719C627.781 98.9323 628.487 99.3125 629.102 99.8125C629.716 100.307 630.216 100.914 630.602 101.633C630.992 102.352 631.242 103.174 631.352 104.102ZM633.777 114.5V98.5H637.16V111.711H644.02V114.5H633.777ZM649.643 98.5V114.5H646.26V98.5H649.643ZM665.809 98.5V114.5H662.887L655.926 104.43H655.809V114.5H652.426V98.5H655.395L662.301 108.562H662.441V98.5H665.809ZM671.986 98.5V114.5H668.604V98.5H671.986ZM688.887 104.102H685.465C685.402 103.659 685.275 103.266 685.082 102.922C684.889 102.573 684.642 102.276 684.34 102.031C684.038 101.786 683.689 101.599 683.293 101.469C682.902 101.339 682.478 101.273 682.02 101.273C681.191 101.273 680.47 101.479 679.855 101.891C679.241 102.297 678.764 102.891 678.426 103.672C678.087 104.448 677.918 105.391 677.918 106.5C677.918 107.641 678.087 108.599 678.426 109.375C678.77 110.151 679.249 110.737 679.863 111.133C680.478 111.529 681.189 111.727 681.996 111.727C682.449 111.727 682.868 111.667 683.254 111.547C683.645 111.427 683.991 111.253 684.293 111.023C684.595 110.789 684.845 110.505 685.043 110.172C685.246 109.839 685.387 109.458 685.465 109.031L688.887 109.047C688.798 109.781 688.577 110.49 688.223 111.172C687.874 111.849 687.402 112.456 686.809 112.992C686.22 113.523 685.517 113.945 684.699 114.258C683.887 114.565 682.967 114.719 681.941 114.719C680.514 114.719 679.238 114.396 678.113 113.75C676.993 113.104 676.108 112.169 675.457 110.945C674.811 109.721 674.488 108.24 674.488 106.5C674.488 104.755 674.816 103.271 675.473 102.047C676.129 100.823 677.02 99.8906 678.145 99.25C679.27 98.6042 680.535 98.2812 681.941 98.2812C682.868 98.2812 683.728 98.4115 684.52 98.6719C685.316 98.9323 686.022 99.3125 686.637 99.8125C687.251 100.307 687.751 100.914 688.137 101.633C688.527 102.352 688.777 103.174 688.887 104.102ZM693.77 114.5H690.145L695.668 98.5H700.027L705.543 114.5H701.918L697.91 102.156H697.785L693.77 114.5ZM693.543 108.211H702.105V110.852H693.543V108.211ZM707.469 114.5V98.5H710.852V111.711H717.711V114.5H707.469Z" fill="black"/>
<path d="M1132.16 96.8182V115H1128.32V100.467H1128.21L1124.04 103.077V99.668L1128.55 96.8182H1132.16ZM1143.46 115.249C1142.52 115.243 1141.62 115.086 1140.75 114.778C1139.89 114.47 1139.11 113.97 1138.42 113.278C1137.74 112.585 1137.19 111.668 1136.79 110.526C1136.39 109.383 1136.2 107.981 1136.2 106.317C1136.2 104.79 1136.38 103.426 1136.72 102.225C1137.07 101.017 1137.57 99.9935 1138.21 99.1531C1138.86 98.3126 1139.64 97.6734 1140.55 97.2354C1141.45 96.7915 1142.47 96.5696 1143.59 96.5696C1144.81 96.5696 1145.88 96.8063 1146.81 97.2798C1147.73 97.7474 1148.48 98.3836 1149.04 99.1886C1149.61 99.9935 1149.95 100.896 1150.07 101.896H1146.28C1146.13 101.263 1145.82 100.766 1145.35 100.405C1144.88 100.044 1144.29 99.8633 1143.59 99.8633C1142.41 99.8633 1141.51 100.378 1140.89 101.408C1140.28 102.438 1139.97 103.838 1139.96 105.607H1140.08C1140.36 105.069 1140.72 104.61 1141.19 104.231C1141.65 103.846 1142.18 103.554 1142.77 103.352C1143.37 103.145 1144 103.042 1144.67 103.042C1145.74 103.042 1146.7 103.296 1147.54 103.805C1148.38 104.308 1149.05 105.001 1149.53 105.882C1150.02 106.764 1150.26 107.773 1150.26 108.91C1150.26 110.141 1149.97 111.236 1149.4 112.195C1148.83 113.153 1148.03 113.905 1147.01 114.45C1145.99 114.988 1144.81 115.254 1143.46 115.249ZM1143.44 112.23C1144.03 112.23 1144.56 112.088 1145.03 111.804C1145.5 111.52 1145.86 111.135 1146.13 110.65C1146.4 110.165 1146.53 109.62 1146.53 109.016C1146.53 108.413 1146.4 107.871 1146.13 107.392C1145.87 106.912 1145.51 106.531 1145.05 106.246C1144.59 105.962 1144.06 105.82 1143.47 105.82C1143.02 105.82 1142.61 105.903 1142.23 106.069C1141.86 106.235 1141.53 106.465 1141.25 106.761C1140.97 107.057 1140.75 107.401 1140.59 107.791C1140.43 108.176 1140.35 108.587 1140.35 109.025C1140.35 109.611 1140.48 110.147 1140.75 110.632C1141.02 111.117 1141.39 111.505 1141.85 111.795C1142.32 112.085 1142.85 112.23 1143.44 112.23ZM1160.11 115.4C1158.59 115.394 1157.27 115.018 1156.17 114.272C1155.08 113.526 1154.23 112.446 1153.64 111.032C1153.06 109.617 1152.77 107.915 1152.77 105.927C1152.77 103.944 1153.06 102.254 1153.65 100.858C1154.24 99.4608 1155.09 98.3984 1156.18 97.6705C1157.28 96.9366 1158.59 96.5696 1160.11 96.5696C1161.63 96.5696 1162.94 96.9366 1164.04 97.6705C1165.14 98.4044 1165.98 99.4697 1166.58 100.866C1167.17 102.257 1167.46 103.944 1167.46 105.927C1167.46 107.921 1167.16 109.626 1166.57 111.04C1165.98 112.455 1165.14 113.535 1164.05 114.281C1162.95 115.027 1161.64 115.4 1160.11 115.4ZM1160.11 112.212C1161.16 112.212 1161.99 111.689 1162.61 110.641C1163.23 109.593 1163.54 108.022 1163.53 105.927C1163.53 104.548 1163.39 103.4 1163.11 102.482C1162.83 101.565 1162.43 100.875 1161.92 100.414C1161.41 99.9521 1160.81 99.7212 1160.11 99.7212C1159.08 99.7212 1158.25 100.239 1157.63 101.275C1157.01 102.311 1156.69 103.861 1156.69 105.927C1156.69 107.324 1156.83 108.49 1157.1 109.425C1157.39 110.354 1157.79 111.052 1158.3 111.52C1158.82 111.982 1159.42 112.212 1160.11 112.212ZM1177.33 115.4C1175.8 115.394 1174.48 115.018 1173.38 114.272C1172.29 113.526 1171.45 112.446 1170.85 111.032C1170.27 109.617 1169.98 107.915 1169.98 105.927C1169.98 103.944 1170.28 102.254 1170.86 100.858C1171.45 99.4608 1172.3 98.3984 1173.39 97.6705C1174.49 96.9366 1175.8 96.5696 1177.33 96.5696C1178.85 96.5696 1180.15 96.9366 1181.25 97.6705C1182.35 98.4044 1183.2 99.4697 1183.79 100.866C1184.38 102.257 1184.67 103.944 1184.67 105.927C1184.67 107.921 1184.37 109.626 1183.78 111.04C1183.19 112.455 1182.35 113.535 1181.26 114.281C1180.16 115.027 1178.85 115.4 1177.33 115.4ZM1177.33 112.212C1178.37 112.212 1179.2 111.689 1179.82 110.641C1180.44 109.593 1180.75 108.022 1180.74 105.927C1180.74 104.548 1180.6 103.4 1180.32 102.482C1180.04 101.565 1179.64 100.875 1179.13 100.414C1178.62 99.9521 1178.02 99.7212 1177.33 99.7212C1176.29 99.7212 1175.46 100.239 1174.84 101.275C1174.22 102.311 1173.9 103.861 1173.9 105.927C1173.9 107.324 1174.04 108.49 1174.32 109.425C1174.6 110.354 1175 111.052 1175.51 111.52C1176.03 111.982 1176.63 112.212 1177.33 112.212ZM1201.22 99.6946C1200.53 99.6946 1200 99.8337 1199.65 100.112C1199.3 100.39 1199.11 100.79 1199.09 101.31H1195.22C1195.28 100.292 1195.54 99.4312 1196 98.7269C1196.46 98.0226 1197.11 97.487 1197.96 97.12C1198.82 96.7531 1199.88 96.5696 1201.15 96.5696C1202.41 96.5696 1203.48 96.7442 1204.35 97.0934C1205.24 97.4426 1205.9 97.9279 1206.36 98.5494C1206.82 99.1708 1207.04 99.8988 1207.04 100.733C1207.04 101.13 1206.97 101.509 1206.81 101.87C1206.66 102.225 1206.45 102.55 1206.2 102.846C1205.95 103.136 1205.67 103.391 1205.37 103.61L1202.31 102.793C1202.63 102.556 1202.86 102.296 1203.01 102.012C1203.17 101.728 1203.25 101.402 1203.24 101.035C1203.25 100.627 1203.08 100.301 1202.74 100.059C1202.39 99.8159 1201.89 99.6946 1201.22 99.6946ZM1208.22 105.146H1193.98V102.598H1208.22V105.146ZM1208.22 108.972H1193.98V106.486H1208.22V108.972ZM1201.15 115.249C1199.11 115.249 1197.56 114.858 1196.51 114.077C1195.47 113.295 1194.95 112.224 1194.94 110.863C1194.95 110.455 1195.04 110.058 1195.21 109.673C1195.38 109.289 1195.61 108.942 1195.88 108.635C1196.16 108.327 1196.47 108.087 1196.8 107.915L1199.84 108.661C1199.49 108.898 1199.23 109.191 1199.05 109.54C1198.88 109.889 1198.78 110.23 1198.78 110.561C1198.78 111.07 1199 111.464 1199.42 111.742C1199.84 112.02 1200.42 112.159 1201.15 112.159C1201.88 112.159 1202.46 112.02 1202.91 111.742C1203.36 111.464 1203.6 110.984 1203.63 110.304H1207.55C1207.48 111.446 1207.22 112.381 1206.74 113.109C1206.27 113.837 1205.58 114.376 1204.66 114.725C1203.73 115.074 1202.56 115.249 1201.15 115.249Z" fill="#14142A"/>
</svg>
