<svg width="1253" height="141" viewBox="0 0 1253 141" fill="none" xmlns="http://www.w3.org/2000/svg">
<path d="M0.775391 20C0.775391 8.9543 9.7297 0 20.7754 0H1232.78C1243.82 0 1252.78 8.95431 1252.78 20V71H0.775391V20Z" fill="#FFA7CA"/>
<path d="M27.4189 26.0909H32.3493L37.5566 38.7955H37.7782L42.9856 26.0909H47.916V45H44.0382V32.6925H43.8812L38.9877 44.9077H36.3471L31.4537 32.6463H31.2967V45H27.4189V26.0909ZM57.5991 45.277C56.1403 45.277 54.8846 44.9815 53.832 44.3906C52.7856 43.7936 51.9793 42.9503 51.413 41.8608C50.8467 40.7652 50.5636 39.4695 50.5636 37.9737C50.5636 36.5149 50.8467 35.2346 51.413 34.1328C51.9793 33.031 52.7764 32.1723 53.8043 31.5568C54.8384 30.9413 56.051 30.6335 57.4421 30.6335C58.3777 30.6335 59.2487 30.7843 60.055 31.0859C60.8675 31.3814 61.5754 31.8277 62.1786 32.4247C62.788 33.0218 63.262 33.7727 63.6005 34.6776C63.939 35.5762 64.1083 36.6288 64.1083 37.8352V38.9155H52.1332V36.478H60.4059C60.4059 35.9117 60.2828 35.41 60.0366 34.973C59.7904 34.536 59.4487 34.1944 59.0117 33.9482C58.5808 33.6958 58.0792 33.5696 57.5067 33.5696C56.9097 33.5696 56.3803 33.7081 55.9187 33.9851C55.4632 34.2559 55.1062 34.6222 54.8477 35.0838C54.5891 35.5393 54.4568 36.0471 54.4506 36.6072V38.9247C54.4506 39.6264 54.5799 40.2327 54.8384 40.7436C55.1031 41.2545 55.4755 41.6484 55.9556 41.9254C56.4357 42.2024 57.0051 42.3409 57.6637 42.3409C58.1007 42.3409 58.5008 42.2794 58.864 42.1562C59.2272 42.0331 59.538 41.8485 59.7965 41.6023C60.055 41.3561 60.252 41.0545 60.3874 40.6974L64.0252 40.9375C63.8406 41.8116 63.462 42.5748 62.8896 43.2273C62.3233 43.8736 61.5908 44.3783 60.6921 44.7415C59.7996 45.0985 58.7686 45.277 57.5991 45.277ZM65.9457 40.9837H69.7589C69.7773 41.4515 69.9866 41.8208 70.3867 42.0916C70.7868 42.3625 71.3039 42.4979 71.9379 42.4979C72.578 42.4979 73.1166 42.3501 73.5536 42.0547C73.9906 41.7531 74.2092 41.3222 74.2092 40.7621C74.2092 40.4174 74.123 40.1188 73.9506 39.8665C73.7783 39.608 73.5382 39.4048 73.2305 39.2571C72.9227 39.1094 72.5657 39.0355 72.1594 39.0355H70.119V36.4595H72.1594C72.7688 36.4595 73.2366 36.3179 73.5629 36.0348C73.8952 35.7517 74.0614 35.3977 74.0614 34.973C74.0614 34.4929 73.8891 34.1082 73.5444 33.8189C73.2058 33.5234 72.7473 33.3757 72.1687 33.3757C71.5839 33.3757 71.0977 33.508 70.7099 33.7727C70.3282 34.0312 70.1313 34.3698 70.119 34.7884H66.3242C66.3365 33.9389 66.592 33.2034 67.0906 32.5817C67.5953 31.96 68.2724 31.4799 69.1218 31.1413C69.9774 30.8028 70.9345 30.6335 71.9933 30.6335C73.1505 30.6335 74.1476 30.7966 74.9847 31.1229C75.828 31.4429 76.4743 31.9015 76.9237 32.4986C77.3791 33.0956 77.6069 33.8066 77.6069 34.6314C77.6069 35.3823 77.3607 36.0102 76.8683 36.5149C76.3758 37.0196 75.6864 37.3797 74.8001 37.5952V37.7429C75.3848 37.7798 75.9142 37.9368 76.3881 38.2138C76.8621 38.4908 77.2406 38.8724 77.5238 39.3587C77.8069 39.8388 77.9485 40.4081 77.9485 41.0668C77.9485 41.947 77.69 42.701 77.1729 43.3288C76.6621 43.9567 75.9542 44.4399 75.0494 44.7784C74.1507 45.1108 73.1197 45.277 71.9563 45.277C70.8237 45.277 69.8081 45.1139 68.9094 44.7876C68.0169 44.4553 67.306 43.969 66.7766 43.3288C66.2534 42.6887 65.9764 41.907 65.9457 40.9837ZM86.7683 45.277C85.3341 45.277 84.0938 44.9723 83.0474 44.3629C82.0072 43.7474 81.2039 42.8918 80.6376 41.7962C80.0713 40.6944 79.7882 39.4171 79.7882 37.9645C79.7882 36.4995 80.0713 35.2192 80.6376 34.1236C81.2039 33.0218 82.0072 32.1662 83.0474 31.5568C84.0938 30.9413 85.3341 30.6335 86.7683 30.6335C88.2025 30.6335 89.4397 30.9413 90.4799 31.5568C91.5263 32.1662 92.3327 33.0218 92.899 34.1236C93.4653 35.2192 93.7484 36.4995 93.7484 37.9645C93.7484 39.4171 93.4653 40.6944 92.899 41.7962C92.3327 42.8918 91.5263 43.7474 90.4799 44.3629C89.4397 44.9723 88.2025 45.277 86.7683 45.277ZM86.7868 42.2301C87.4392 42.2301 87.984 42.0455 88.421 41.6761C88.858 41.3007 89.1873 40.7898 89.4089 40.1435C89.6367 39.4972 89.7505 38.7616 89.7505 37.9368C89.7505 37.112 89.6367 36.3764 89.4089 35.7301C89.1873 35.0838 88.858 34.5729 88.421 34.1974C87.984 33.822 87.4392 33.6342 86.7868 33.6342C86.1281 33.6342 85.5742 33.822 85.1248 34.1974C84.6816 34.5729 84.3462 35.0838 84.1184 35.7301C83.8968 36.3764 83.786 37.112 83.786 37.9368C83.786 38.7616 83.8968 39.4972 84.1184 40.1435C84.3462 40.7898 84.6816 41.3007 85.1248 41.6761C85.5742 42.0455 86.1281 42.2301 86.7868 42.2301ZM94.9325 33.9112V30.8182H107.785V33.9112H103.214V45H99.4659V33.9112H94.9325ZM116.124 45.277C114.666 45.277 113.41 44.9815 112.357 44.3906C111.311 43.7936 110.505 42.9503 109.938 41.8608C109.372 40.7652 109.089 39.4695 109.089 37.9737C109.089 36.5149 109.372 35.2346 109.938 34.1328C110.505 33.031 111.302 32.1723 112.33 31.5568C113.364 30.9413 114.576 30.6335 115.968 30.6335C116.903 30.6335 117.774 30.7843 118.58 31.0859C119.393 31.3814 120.101 31.8277 120.704 32.4247C121.313 33.0218 121.787 33.7727 122.126 34.6776C122.464 35.5762 122.634 36.6288 122.634 37.8352V38.9155H110.659V36.478H118.931C118.931 35.9117 118.808 35.41 118.562 34.973C118.316 34.536 117.974 34.1944 117.537 33.9482C117.106 33.6958 116.605 33.5696 116.032 33.5696C115.435 33.5696 114.906 33.7081 114.444 33.9851C113.989 34.2559 113.632 34.6222 113.373 35.0838C113.115 35.5393 112.982 36.0471 112.976 36.6072V38.9247C112.976 39.6264 113.105 40.2327 113.364 40.7436C113.628 41.2545 114.001 41.6484 114.481 41.9254C114.961 42.2024 115.53 42.3409 116.189 42.3409C116.626 42.3409 117.026 42.2794 117.389 42.1562C117.753 42.0331 118.063 41.8485 118.322 41.6023C118.58 41.3561 118.777 41.0545 118.913 40.6974L122.551 40.9375C122.366 41.8116 121.987 42.5748 121.415 43.2273C120.849 43.8736 120.116 44.3783 119.218 44.7415C118.325 45.0985 117.294 45.277 116.124 45.277ZM125.2 50.3182V30.8182H129.078V33.2003H129.254C129.426 32.8187 129.675 32.4309 130.002 32.0369C130.334 31.6368 130.765 31.3045 131.294 31.0398C131.83 30.7689 132.494 30.6335 133.289 30.6335C134.323 30.6335 135.277 30.9044 136.151 31.446C137.025 31.9815 137.723 32.791 138.247 33.8743C138.77 34.9515 139.031 36.3026 139.031 37.9276C139.031 39.5095 138.776 40.8452 138.265 41.9347C137.76 43.018 137.071 43.8397 136.197 44.3999C135.329 44.9538 134.356 45.2308 133.279 45.2308C132.516 45.2308 131.867 45.1046 131.331 44.8523C130.802 44.5999 130.368 44.2829 130.029 43.9013C129.691 43.5135 129.432 43.1226 129.254 42.7287H129.134V50.3182H125.2ZM129.051 37.9091C129.051 38.7524 129.168 39.4879 129.401 40.1158C129.635 40.7436 129.974 41.233 130.417 41.5838C130.86 41.9285 131.399 42.1009 132.033 42.1009C132.673 42.1009 133.215 41.9254 133.658 41.5746C134.101 41.2176 134.436 40.7251 134.664 40.0973C134.898 39.4633 135.015 38.7339 135.015 37.9091C135.015 37.0904 134.901 36.3703 134.673 35.7486C134.446 35.1269 134.11 34.6406 133.667 34.2898C133.224 33.9389 132.679 33.7635 132.033 33.7635C131.393 33.7635 130.851 33.9328 130.408 34.2713C129.971 34.6098 129.635 35.09 129.401 35.7116C129.168 36.3333 129.051 37.0658 129.051 37.9091ZM145.698 45.2678C144.793 45.2678 143.986 45.1108 143.279 44.7969C142.571 44.4768 142.011 44.0059 141.598 43.3842C141.192 42.7564 140.989 41.9747 140.989 41.0391C140.989 40.2512 141.133 39.5895 141.423 39.054C141.712 38.5185 142.106 38.0876 142.605 37.7614C143.103 37.4351 143.669 37.1889 144.303 37.0227C144.944 36.8565 145.615 36.7396 146.316 36.6719C147.141 36.5857 147.806 36.5057 148.311 36.4318C148.815 36.3518 149.182 36.2348 149.409 36.081C149.637 35.9271 149.751 35.6993 149.751 35.3977V35.3423C149.751 34.7576 149.566 34.3052 149.197 33.9851C148.834 33.665 148.317 33.505 147.646 33.505C146.938 33.505 146.375 33.6619 145.956 33.9759C145.538 34.2836 145.261 34.6714 145.125 35.1392L141.487 34.8438C141.672 33.982 142.035 33.2372 142.577 32.6094C143.119 31.9754 143.817 31.4891 144.673 31.1506C145.535 30.8059 146.532 30.6335 147.664 30.6335C148.452 30.6335 149.206 30.7259 149.926 30.9105C150.653 31.0952 151.296 31.3814 151.856 31.7692C152.422 32.157 152.869 32.6555 153.195 33.2649C153.521 33.8681 153.684 34.5914 153.684 35.4347V45H149.954V43.0334H149.843C149.615 43.4766 149.311 43.8674 148.929 44.206C148.548 44.5384 148.089 44.8 147.553 44.9908C147.018 45.1754 146.399 45.2678 145.698 45.2678ZM146.824 42.5533C147.403 42.5533 147.914 42.4394 148.357 42.2116C148.8 41.9777 149.148 41.6638 149.4 41.2699C149.652 40.8759 149.779 40.4297 149.779 39.9311V38.4261C149.655 38.5062 149.486 38.58 149.271 38.6477C149.061 38.7093 148.825 38.7678 148.56 38.8232C148.295 38.8724 148.03 38.9186 147.766 38.9616C147.501 38.9986 147.261 39.0324 147.046 39.0632C146.584 39.1309 146.181 39.2386 145.836 39.3864C145.491 39.5341 145.224 39.7341 145.033 39.9865C144.842 40.2327 144.747 40.5405 144.747 40.9098C144.747 41.4453 144.941 41.8546 145.328 42.1378C145.722 42.4148 146.221 42.5533 146.824 42.5533ZM156.736 45V30.8182H169.135V45H165.378V33.9112H160.447V45H156.736ZM172.275 45V30.8182H176.208V45H172.275ZM174.251 28.9901C173.666 28.9901 173.164 28.7962 172.746 28.4084C172.333 28.0144 172.127 27.5436 172.127 26.9957C172.127 26.4541 172.333 25.9893 172.746 25.6016C173.164 25.2076 173.666 25.0107 174.251 25.0107C174.835 25.0107 175.334 25.2076 175.746 25.6016C176.165 25.9893 176.374 26.4541 176.374 26.9957C176.374 27.5436 176.165 28.0144 175.746 28.4084C175.334 28.7962 174.835 28.9901 174.251 28.9901ZM187.668 45V33.902H185.009C184.289 33.902 183.741 34.0682 183.366 34.4006C182.99 34.733 182.806 35.1269 182.812 35.5824C182.806 36.044 182.984 36.4349 183.347 36.755C183.717 37.0689 184.258 37.2259 184.972 37.2259H188.979V39.8849H184.972C183.76 39.8849 182.71 39.7003 181.824 39.331C180.938 38.9616 180.254 38.4477 179.774 37.7891C179.294 37.1243 179.057 36.3518 179.063 35.4716C179.057 34.5483 179.294 33.7389 179.774 33.0433C180.254 32.3416 180.941 31.7969 181.833 31.4091C182.732 31.0152 183.79 30.8182 185.009 30.8182H191.334V45H187.668ZM178.657 45L182.599 37.6136H186.357L182.424 45H178.657ZM199.678 40.9837H203.491C203.51 41.4515 203.719 41.8208 204.119 42.0916C204.519 42.3625 205.036 42.4979 205.67 42.4979C206.31 42.4979 206.849 42.3501 207.286 42.0547C207.723 41.7531 207.942 41.3222 207.942 40.7621C207.942 40.4174 207.855 40.1188 207.683 39.8665C207.511 39.608 207.271 39.4048 206.963 39.2571C206.655 39.1094 206.298 39.0355 205.892 39.0355H203.851V36.4595H205.892C206.501 36.4595 206.969 36.3179 207.295 36.0348C207.628 35.7517 207.794 35.3977 207.794 34.973C207.794 34.4929 207.622 34.1082 207.277 33.8189C206.938 33.5234 206.48 33.3757 205.901 33.3757C205.316 33.3757 204.83 33.508 204.442 33.7727C204.061 34.0312 203.864 34.3698 203.851 34.7884H200.057C200.069 33.9389 200.324 33.2034 200.823 32.5817C201.328 31.96 202.005 31.4799 202.854 31.1413C203.71 30.8028 204.667 30.6335 205.726 30.6335C206.883 30.6335 207.88 30.7966 208.717 31.1229C209.56 31.4429 210.207 31.9015 210.656 32.4986C211.112 33.0956 211.339 33.8066 211.339 34.6314C211.339 35.3823 211.093 36.0102 210.601 36.5149C210.108 37.0196 209.419 37.3797 208.532 37.5952V37.7429C209.117 37.7798 209.647 37.9368 210.121 38.2138C210.595 38.4908 210.973 38.8724 211.256 39.3587C211.539 39.8388 211.681 40.4081 211.681 41.0668C211.681 41.947 211.422 42.701 210.905 43.3288C210.394 43.9567 209.687 44.4399 208.782 44.7784C207.883 45.1108 206.852 45.277 205.689 45.277C204.556 45.277 203.541 45.1139 202.642 44.7876C201.749 44.4553 201.038 43.969 200.509 43.3288C199.986 42.6887 199.709 41.907 199.678 40.9837ZM220.501 45.277C219.067 45.277 217.826 44.9723 216.78 44.3629C215.74 43.7474 214.936 42.8918 214.37 41.7962C213.804 40.6944 213.521 39.4171 213.521 37.9645C213.521 36.4995 213.804 35.2192 214.37 34.1236C214.936 33.0218 215.74 32.1662 216.78 31.5568C217.826 30.9413 219.067 30.6335 220.501 30.6335C221.935 30.6335 223.172 30.9413 224.212 31.5568C225.259 32.1662 226.065 33.0218 226.631 34.1236C227.198 35.2192 227.481 36.4995 227.481 37.9645C227.481 39.4171 227.198 40.6944 226.631 41.7962C226.065 42.8918 225.259 43.7474 224.212 44.3629C223.172 44.9723 221.935 45.277 220.501 45.277ZM220.519 42.2301C221.172 42.2301 221.716 42.0455 222.153 41.6761C222.59 41.3007 222.92 40.7898 223.141 40.1435C223.369 39.4972 223.483 38.7616 223.483 37.9368C223.483 37.112 223.369 36.3764 223.141 35.7301C222.92 35.0838 222.59 34.5729 222.153 34.1974C221.716 33.822 221.172 33.6342 220.519 33.6342C219.861 33.6342 219.307 33.822 218.857 34.1974C218.414 34.5729 218.079 35.0838 217.851 35.7301C217.629 36.3764 217.518 37.112 217.518 37.9368C217.518 38.7616 217.629 39.4972 217.851 40.1435C218.079 40.7898 218.414 41.3007 218.857 41.6761C219.307 42.0455 219.861 42.2301 220.519 42.2301ZM239.908 36.3395V39.4325H232.504V36.3395H239.908ZM233.796 30.8182V45H230.038V30.8182H233.796ZM242.374 30.8182V45H238.643V30.8182H242.374ZM249.183 39.8111L254.289 30.8182H258.167V45H254.418V35.9794L249.331 45H245.425V30.8182H249.183V39.8111ZM277.207 36.3395V39.4325H269.802V36.3395H277.207ZM271.095 30.8182V45H267.337V30.8182H271.095ZM279.672 30.8182V45H275.942V30.8182H279.672ZM286.768 45.2678C285.863 45.2678 285.057 45.1108 284.349 44.7969C283.641 44.4768 283.081 44.0059 282.669 43.3842C282.262 42.7564 282.059 41.9747 282.059 41.0391C282.059 40.2512 282.204 39.5895 282.493 39.054C282.782 38.5185 283.176 38.0876 283.675 37.7614C284.173 37.4351 284.74 37.1889 285.374 37.0227C286.014 36.8565 286.685 36.7396 287.387 36.6719C288.211 36.5857 288.876 36.5057 289.381 36.4318C289.886 36.3518 290.252 36.2348 290.48 36.081C290.707 35.9271 290.821 35.6993 290.821 35.3977V35.3423C290.821 34.7576 290.637 34.3052 290.267 33.9851C289.904 33.665 289.387 33.505 288.716 33.505C288.008 33.505 287.445 33.6619 287.026 33.9759C286.608 34.2836 286.331 34.6714 286.195 35.1392L282.558 34.8438C282.742 33.982 283.106 33.2372 283.647 32.6094C284.189 31.9754 284.887 31.4891 285.743 31.1506C286.605 30.8059 287.602 30.6335 288.735 30.6335C289.522 30.6335 290.276 30.7259 290.997 30.9105C291.723 31.0952 292.366 31.3814 292.926 31.7692C293.493 32.157 293.939 32.6555 294.265 33.2649C294.591 33.8681 294.754 34.5914 294.754 35.4347V45H291.024V43.0334H290.914C290.686 43.4766 290.381 43.8674 289.999 44.206C289.618 44.5384 289.159 44.8 288.624 44.9908C288.088 45.1754 287.47 45.2678 286.768 45.2678ZM287.894 42.5533C288.473 42.5533 288.984 42.4394 289.427 42.2116C289.87 41.9777 290.218 41.6638 290.47 41.2699C290.723 40.8759 290.849 40.4297 290.849 39.9311V38.4261C290.726 38.5062 290.557 38.58 290.341 38.6477C290.132 38.7093 289.895 38.7678 289.63 38.8232C289.365 38.8724 289.101 38.9186 288.836 38.9616C288.571 38.9986 288.331 39.0324 288.116 39.0632C287.654 39.1309 287.251 39.2386 286.906 39.3864C286.562 39.5341 286.294 39.7341 286.103 39.9865C285.912 40.2327 285.817 40.5405 285.817 40.9098C285.817 41.4453 286.011 41.8546 286.399 42.1378C286.793 42.4148 287.291 42.5533 287.894 42.5533ZM297.806 45V30.8182H303.854C305.602 30.8182 306.983 31.1506 307.999 31.8153C309.015 32.4801 309.523 33.425 309.523 34.6499C309.523 35.4193 309.236 36.0594 308.664 36.5703C308.091 37.0812 307.297 37.4259 306.282 37.6044C307.131 37.666 307.854 37.8598 308.452 38.1861C309.055 38.5062 309.513 38.9216 309.827 39.4325C310.147 39.9434 310.307 40.5097 310.307 41.1314C310.307 41.9377 310.092 42.6302 309.661 43.2088C309.236 43.7874 308.612 44.2306 307.787 44.5384C306.968 44.8461 305.968 45 304.786 45H297.806ZM301.471 42.0547H304.786C305.334 42.0547 305.762 41.9254 306.069 41.6669C306.383 41.4022 306.54 41.0421 306.54 40.5866C306.54 40.0819 306.383 39.6849 306.069 39.3956C305.762 39.1063 305.334 38.9616 304.786 38.9616H301.471V42.0547ZM301.471 36.6534H303.937C304.331 36.6534 304.666 36.598 304.943 36.4872C305.226 36.3703 305.442 36.2041 305.589 35.9886C305.743 35.7732 305.82 35.5178 305.82 35.2223C305.82 34.7853 305.645 34.4437 305.294 34.1974C304.943 33.9512 304.463 33.8281 303.854 33.8281H301.471V36.6534ZM312.786 45V30.8182H316.72V36.321H317.828L321.687 30.8182H326.303L321.29 37.8537L326.359 45H321.687L318.188 39.968H316.72V45H312.786ZM333.844 45.277C332.41 45.277 331.17 44.9723 330.124 44.3629C329.083 43.7474 328.28 42.8918 327.714 41.7962C327.147 40.6944 326.864 39.4171 326.864 37.9645C326.864 36.4995 327.147 35.2192 327.714 34.1236C328.28 33.0218 329.083 32.1662 330.124 31.5568C331.17 30.9413 332.41 30.6335 333.844 30.6335C335.279 30.6335 336.516 30.9413 337.556 31.5568C338.603 32.1662 339.409 33.0218 339.975 34.1236C340.541 35.2192 340.825 36.4995 340.825 37.9645C340.825 39.4171 340.541 40.6944 339.975 41.7962C339.409 42.8918 338.603 43.7474 337.556 44.3629C336.516 44.9723 335.279 45.277 333.844 45.277ZM333.863 42.2301C334.515 42.2301 335.06 42.0455 335.497 41.6761C335.934 41.3007 336.263 40.7898 336.485 40.1435C336.713 39.4972 336.827 38.7616 336.827 37.9368C336.827 37.112 336.713 36.3764 336.485 35.7301C336.263 35.0838 335.934 34.5729 335.497 34.1974C335.06 33.822 334.515 33.6342 333.863 33.6342C333.204 33.6342 332.65 33.822 332.201 34.1974C331.758 34.5729 331.422 35.0838 331.195 35.7301C330.973 36.3764 330.862 37.112 330.862 37.9368C330.862 38.7616 330.973 39.4972 331.195 40.1435C331.422 40.7898 331.758 41.3007 332.201 41.6761C332.65 42.0455 333.204 42.2301 333.863 42.2301ZM342.551 45L342.533 41.8793H343.004C343.336 41.8793 343.622 41.7992 343.862 41.6392C344.108 41.473 344.312 41.2053 344.472 40.8359C344.632 40.4666 344.758 39.9773 344.85 39.3679C344.942 38.7524 345.004 37.9953 345.035 37.0966L345.266 30.8182H356.05V45H352.301V33.9112H348.802L348.58 38.2415C348.525 39.4295 348.38 40.4512 348.146 41.3068C347.919 42.1624 347.602 42.8641 347.195 43.4119C346.789 43.9536 346.3 44.3537 345.727 44.6122C345.155 44.8707 344.49 45 343.733 45H342.551ZM365.507 45.277C364.072 45.277 362.832 44.9723 361.786 44.3629C360.745 43.7474 359.942 42.8918 359.376 41.7962C358.81 40.6944 358.526 39.4171 358.526 37.9645C358.526 36.4995 358.81 35.2192 359.376 34.1236C359.942 33.0218 360.745 32.1662 361.786 31.5568C362.832 30.9413 364.072 30.6335 365.507 30.6335C366.941 30.6335 368.178 30.9413 369.218 31.5568C370.265 32.1662 371.071 33.0218 371.637 34.1236C372.204 35.2192 372.487 36.4995 372.487 37.9645C372.487 39.4171 372.204 40.6944 371.637 41.7962C371.071 42.8918 370.265 43.7474 369.218 44.3629C368.178 44.9723 366.941 45.277 365.507 45.277ZM365.525 42.2301C366.177 42.2301 366.722 42.0455 367.159 41.6761C367.596 41.3007 367.926 40.7898 368.147 40.1435C368.375 39.4972 368.489 38.7616 368.489 37.9368C368.489 37.112 368.375 36.3764 368.147 35.7301C367.926 35.0838 367.596 34.5729 367.159 34.1974C366.722 33.822 366.177 33.6342 365.525 33.6342C364.866 33.6342 364.312 33.822 363.863 34.1974C363.42 34.5729 363.084 35.0838 362.857 35.7301C362.635 36.3764 362.524 37.112 362.524 37.9368C362.524 38.7616 362.635 39.4972 362.857 40.1435C363.084 40.7898 363.42 41.3007 363.863 41.6761C364.312 42.0455 364.866 42.2301 365.525 42.2301ZM387.469 45.277C386.035 45.277 384.795 44.9723 383.749 44.3629C382.708 43.7474 381.905 42.8918 381.339 41.7962C380.772 40.6944 380.489 39.4171 380.489 37.9645C380.489 36.4995 380.772 35.2192 381.339 34.1236C381.905 33.0218 382.708 32.1662 383.749 31.5568C384.795 30.9413 386.035 30.6335 387.469 30.6335C388.904 30.6335 390.141 30.9413 391.181 31.5568C392.228 32.1662 393.034 33.0218 393.6 34.1236C394.166 35.2192 394.45 36.4995 394.45 37.9645C394.45 39.4171 394.166 40.6944 393.6 41.7962C393.034 42.8918 392.228 43.7474 391.181 44.3629C390.141 44.9723 388.904 45.277 387.469 45.277ZM387.488 42.2301C388.14 42.2301 388.685 42.0455 389.122 41.6761C389.559 41.3007 389.888 40.7898 390.11 40.1435C390.338 39.4972 390.452 38.7616 390.452 37.9368C390.452 37.112 390.338 36.3764 390.11 35.7301C389.888 35.0838 389.559 34.5729 389.122 34.1974C388.685 33.822 388.14 33.6342 387.488 33.6342C386.829 33.6342 386.275 33.822 385.826 34.1974C385.383 34.5729 385.047 35.0838 384.82 35.7301C384.598 36.3764 384.487 37.112 384.487 37.9368C384.487 38.7616 384.598 39.4972 384.82 40.1435C385.047 40.7898 385.383 41.3007 385.826 41.6761C386.275 42.0455 386.829 42.2301 387.488 42.2301ZM409.315 30.8182V45H405.585V30.8182H409.315ZM407.496 37.0412V40.1435C407.194 40.2789 406.819 40.4081 406.369 40.5312C405.92 40.6482 405.449 40.7436 404.957 40.8175C404.464 40.8913 404.003 40.9283 403.572 40.9283C401.534 40.9283 399.931 40.5097 398.761 39.6726C397.592 38.8293 397.007 37.4844 397.007 35.6378V30.7997H400.719V35.6378C400.719 36.1856 400.811 36.6196 400.996 36.9396C401.187 37.2597 401.488 37.4905 401.901 37.6321C402.319 37.7675 402.876 37.8352 403.572 37.8352C404.218 37.8352 404.852 37.7675 405.474 37.6321C406.095 37.4967 406.769 37.2997 407.496 37.0412ZM418.831 45.277C417.373 45.277 416.117 44.9815 415.064 44.3906C414.018 43.7936 413.212 42.9503 412.645 41.8608C412.079 40.7652 411.796 39.4695 411.796 37.9737C411.796 36.5149 412.079 35.2346 412.645 34.1328C413.212 33.031 414.009 32.1723 415.037 31.5568C416.071 30.9413 417.283 30.6335 418.675 30.6335C419.61 30.6335 420.481 30.7843 421.287 31.0859C422.1 31.3814 422.808 31.8277 423.411 32.4247C424.02 33.0218 424.494 33.7727 424.833 34.6776C425.171 35.5762 425.341 36.6288 425.341 37.8352V38.9155H413.366V36.478H421.638C421.638 35.9117 421.515 35.41 421.269 34.973C421.023 34.536 420.681 34.1944 420.244 33.9482C419.813 33.6958 419.312 33.5696 418.739 33.5696C418.142 33.5696 417.613 33.7081 417.151 33.9851C416.696 34.2559 416.339 34.6222 416.08 35.0838C415.822 35.5393 415.689 36.0471 415.683 36.6072V38.9247C415.683 39.6264 415.812 40.2327 416.071 40.7436C416.336 41.2545 416.708 41.6484 417.188 41.9254C417.668 42.2024 418.238 42.3409 418.896 42.3409C419.333 42.3409 419.733 42.2794 420.096 42.1562C420.46 42.0331 420.77 41.8485 421.029 41.6023C421.287 41.3561 421.484 41.0545 421.62 40.6974L425.258 40.9375C425.073 41.8116 424.694 42.5748 424.122 43.2273C423.556 43.8736 422.823 44.3783 421.925 44.7415C421.032 45.0985 420.001 45.277 418.831 45.277ZM431.665 39.8111L436.771 30.8182H440.649V45H436.9V35.9794L431.813 45H427.907V30.8182H431.665V39.8111ZM436.097 25.8693H438.839C438.833 26.9896 438.418 27.8913 437.593 28.5746C436.774 29.2578 435.666 29.5994 434.269 29.5994C432.866 29.5994 431.755 29.2578 430.936 28.5746C430.117 27.8913 429.708 26.9896 429.708 25.8693H432.432C432.425 26.294 432.561 26.6757 432.838 27.0142C433.121 27.3527 433.598 27.522 434.269 27.522C434.921 27.522 435.389 27.3558 435.672 27.0234C435.956 26.6911 436.097 26.3063 436.097 25.8693Z" fill="#14142A"/>
<path d="M1135.35 28V44H1132.07V28H1135.35ZM1122.41 44L1127.42 35.5625L1122.62 28H1126.78L1130.38 34.5859H1137.13L1140.63 28H1144.78L1140.1 35.5391L1145.02 44H1140.98L1137.6 37.7109H1129.88L1126.42 44H1122.41ZM1146.97 44V32H1150.3V44H1146.97ZM1148.64 30.4531C1148.15 30.4531 1147.73 30.2891 1147.37 29.9609C1147.02 29.6276 1146.85 29.2292 1146.85 28.7656C1146.85 28.3073 1147.02 27.9141 1147.37 27.5859C1147.73 27.2526 1148.15 27.0859 1148.64 27.0859C1149.14 27.0859 1149.56 27.2526 1149.91 27.5859C1150.26 27.9141 1150.44 28.3073 1150.44 28.7656C1150.44 29.2292 1150.26 29.6276 1149.91 29.9609C1149.56 30.2891 1149.14 30.4531 1148.64 30.4531ZM1161.32 36.6719V39.2891H1155.05V36.6719H1161.32ZM1156.15 32V44H1152.97V32H1156.15ZM1163.4 32V44H1160.25V32H1163.4ZM1172.96 27.25L1167.8 46.4062H1164.93L1170.09 27.25H1172.96ZM1175.27 28H1178.56V33.1562C1178.56 33.7708 1178.67 34.2656 1178.88 34.6406C1179.09 35.0104 1179.42 35.2786 1179.87 35.4453C1180.32 35.6068 1180.9 35.6875 1181.61 35.6875C1181.86 35.6875 1182.16 35.6797 1182.5 35.6641C1182.83 35.6432 1183.18 35.6146 1183.54 35.5781C1183.91 35.5417 1184.25 35.4974 1184.57 35.4453C1184.9 35.3932 1185.17 35.3333 1185.38 35.2656V37.9375C1185.16 38.0104 1184.89 38.0755 1184.56 38.1328C1184.24 38.1849 1183.89 38.2318 1183.54 38.2734C1183.18 38.3099 1182.83 38.3385 1182.49 38.3594C1182.15 38.3802 1181.86 38.3906 1181.61 38.3906C1180.33 38.3906 1179.21 38.2083 1178.25 37.8437C1177.3 37.474 1176.56 36.9036 1176.04 36.1328C1175.53 35.362 1175.27 34.3698 1175.27 33.1562V28ZM1184.79 28H1188.1V44H1184.79V28ZM1196.8 44.2344C1195.59 44.2344 1194.54 43.9766 1193.65 43.4609C1192.77 42.9401 1192.09 42.2161 1191.62 41.2891C1191.14 40.3568 1190.9 39.276 1190.9 38.0469C1190.9 36.8073 1191.14 35.724 1191.62 34.7969C1192.09 33.8646 1192.77 33.1406 1193.65 32.625C1194.54 32.1042 1195.59 31.8438 1196.8 31.8438C1198.02 31.8438 1199.06 32.1042 1199.94 32.625C1200.83 33.1406 1201.51 33.8646 1201.99 34.7969C1202.47 35.724 1202.71 36.8073 1202.71 38.0469C1202.71 39.276 1202.47 40.3568 1201.99 41.2891C1201.51 42.2161 1200.83 42.9401 1199.94 43.4609C1199.06 43.9766 1198.02 44.2344 1196.8 44.2344ZM1196.82 41.6562C1197.37 41.6562 1197.83 41.5 1198.2 41.1875C1198.57 40.8698 1198.85 40.4375 1199.04 39.8906C1199.23 39.3437 1199.33 38.7214 1199.33 38.0234C1199.33 37.3255 1199.23 36.7031 1199.04 36.1562C1198.85 35.6094 1198.57 35.1771 1198.2 34.8594C1197.83 34.5417 1197.37 34.3828 1196.82 34.3828C1196.26 34.3828 1195.79 34.5417 1195.41 34.8594C1195.04 35.1771 1194.75 35.6094 1194.56 36.1562C1194.37 36.7031 1194.28 37.3255 1194.28 38.0234C1194.28 38.7214 1194.37 39.3437 1194.56 39.8906C1194.75 40.4375 1195.04 40.8698 1195.41 41.1875C1195.79 41.5 1196.26 41.6562 1196.82 41.6562ZM1204.17 44L1204.15 41.3594H1204.55C1204.83 41.3594 1205.08 41.2917 1205.28 41.1562C1205.49 41.0156 1205.66 40.7891 1205.79 40.4766C1205.93 40.1641 1206.04 39.75 1206.12 39.2344C1206.19 38.7135 1206.25 38.0729 1206.27 37.3125L1206.47 32H1215.59V44H1212.42V34.6172H1209.46L1209.27 38.2812C1209.22 39.2865 1209.1 40.151 1208.9 40.875C1208.71 41.599 1208.44 42.1927 1208.1 42.6562C1207.76 43.1146 1207.34 43.4531 1206.86 43.6719C1206.37 43.8906 1205.81 44 1205.17 44H1204.17Z" fill="#14142A"/>
<mask id="path-4-inside-1_292_2084" fill="white">
<path d="M0.775391 71H1252.78V121C1252.78 132.046 1243.82 141 1232.78 141H20.7754C9.72972 141 0.775391 132.046 0.775391 121V71Z"/>
</mask>
<path d="M0.775391 71H1252.78V121C1252.78 132.046 1243.82 141 1232.78 141H20.7754C9.72972 141 0.775391 132.046 0.775391 121V71Z" fill="white"/>
<path d="M0.775391 71H1252.78H0.775391ZM1253.78 121C1253.78 132.598 1244.37 142 1232.78 142H20.7754C9.17741 142 -0.224609 132.598 -0.224609 121H1.77539C1.77539 131.493 10.282 140 20.7754 140H1232.78C1243.27 140 1251.78 131.493 1251.78 121H1253.78ZM20.7754 142C9.17741 142 -0.224609 132.598 -0.224609 121V71H1.77539V121C1.77539 131.493 10.282 140 20.7754 140V142ZM1253.78 71V121C1253.78 132.598 1244.37 142 1232.78 142V140C1243.27 140 1251.78 131.493 1251.78 121V71H1253.78Z" fill="#FE68A4" mask="url(#path-4-inside-1_292_2084)"/>
<path d="M27.166 114.5V98.5H33.4785C34.6868 98.5 35.7181 98.7161 36.5723 99.1484C37.4316 99.5755 38.0853 100.182 38.5332 100.969C38.9863 101.75 39.2129 102.669 39.2129 103.727C39.2129 104.789 38.9837 105.703 38.5254 106.469C38.0671 107.229 37.403 107.812 36.5332 108.219C35.6686 108.625 34.6217 108.828 33.3926 108.828H29.166V106.109H32.8457C33.4915 106.109 34.028 106.021 34.4551 105.844C34.8822 105.667 35.1999 105.401 35.4082 105.047C35.6217 104.693 35.7285 104.253 35.7285 103.727C35.7285 103.195 35.6217 102.747 35.4082 102.383C35.1999 102.018 34.8796 101.742 34.4473 101.555C34.0202 101.362 33.4811 101.266 32.8301 101.266H30.5488V114.5H27.166ZM35.8066 107.219L39.7832 114.5H36.0488L32.1582 107.219H35.8066ZM46.8164 114.734C45.582 114.734 44.5195 114.484 43.6289 113.984C42.7435 113.479 42.0612 112.766 41.582 111.844C41.1029 110.917 40.8633 109.82 40.8633 108.555C40.8633 107.32 41.1029 106.237 41.582 105.305C42.0612 104.372 42.7357 103.646 43.6055 103.125C44.4805 102.604 45.5065 102.344 46.6836 102.344C47.4753 102.344 48.2122 102.471 48.8945 102.727C49.582 102.977 50.181 103.354 50.6914 103.859C51.207 104.365 51.6081 105 51.8945 105.766C52.181 106.526 52.3242 107.417 52.3242 108.437V109.352H42.1914V107.289H49.1914C49.1914 106.81 49.0872 106.385 48.8789 106.016C48.6706 105.646 48.3815 105.357 48.0117 105.148C47.6471 104.935 47.2227 104.828 46.7383 104.828C46.2331 104.828 45.7852 104.945 45.3945 105.18C45.0091 105.409 44.707 105.719 44.4883 106.109C44.2695 106.495 44.1576 106.924 44.1523 107.398V109.359C44.1523 109.953 44.2617 110.466 44.4805 110.898C44.7044 111.331 45.0195 111.664 45.4258 111.898C45.832 112.133 46.3138 112.25 46.8711 112.25C47.2409 112.25 47.5794 112.198 47.8867 112.094C48.194 111.99 48.457 111.833 48.6758 111.625C48.8945 111.417 49.0612 111.161 49.1758 110.859L52.2539 111.062C52.0977 111.802 51.7773 112.448 51.293 113C50.8138 113.547 50.194 113.974 49.4336 114.281C48.6784 114.583 47.806 114.734 46.8164 114.734ZM54.4961 102.5H57.8242V115.094C57.8242 116.021 57.6419 116.771 57.2773 117.344C56.9128 117.917 56.3893 118.336 55.707 118.602C55.0299 118.867 54.2201 119 53.2773 119C53.1628 119 53.0534 118.997 52.9492 118.992C52.8398 118.992 52.7253 118.99 52.6055 118.984V116.383C52.694 116.388 52.7721 116.391 52.8398 116.391C52.9023 116.396 52.9701 116.398 53.043 116.398C53.5794 116.398 53.9544 116.284 54.168 116.055C54.3867 115.831 54.4961 115.492 54.4961 115.039V102.5ZM56.1523 100.953C55.6628 100.953 55.2409 100.789 54.8867 100.461C54.5326 100.128 54.3555 99.7292 54.3555 99.2656C54.3555 98.8073 54.5326 98.4141 54.8867 98.0859C55.2409 97.7526 55.6628 97.5859 56.1523 97.5859C56.6523 97.5859 57.0768 97.7526 57.4258 98.0859C57.7799 98.4141 57.957 98.8073 57.957 99.2656C57.957 99.7292 57.7799 100.128 57.4258 100.461C57.0768 100.789 56.6523 100.953 56.1523 100.953ZM68.1855 109.391V102.5H71.5137V114.5H68.3184V112.32H68.1934C67.9225 113.023 67.472 113.589 66.8418 114.016C66.2168 114.443 65.4538 114.656 64.5527 114.656C63.7507 114.656 63.0449 114.474 62.4355 114.109C61.8262 113.745 61.3496 113.227 61.0059 112.555C60.6673 111.883 60.4954 111.078 60.4902 110.141V102.5H63.8184V109.547C63.8236 110.255 64.0137 110.815 64.3887 111.227C64.7637 111.638 65.2663 111.844 65.8965 111.844C66.2975 111.844 66.6725 111.753 67.0215 111.57C67.3704 111.383 67.6517 111.107 67.8652 110.742C68.084 110.378 68.1908 109.927 68.1855 109.391ZM74.1758 114.5V102.5H77.4023V104.594H77.5273C77.7461 103.849 78.1133 103.286 78.6289 102.906C79.1445 102.521 79.7383 102.328 80.4102 102.328C80.5768 102.328 80.7565 102.339 80.9492 102.359C81.1419 102.38 81.3112 102.409 81.457 102.445V105.398C81.3008 105.352 81.0846 105.31 80.8086 105.273C80.5326 105.237 80.2799 105.219 80.0508 105.219C79.5612 105.219 79.1237 105.326 78.7383 105.539C78.3581 105.747 78.056 106.039 77.832 106.414C77.6133 106.789 77.5039 107.221 77.5039 107.711V114.5H74.1758ZM86.2559 114.727C85.4902 114.727 84.8079 114.594 84.209 114.328C83.61 114.057 83.1361 113.659 82.7871 113.133C82.4434 112.602 82.2715 111.94 82.2715 111.148C82.2715 110.482 82.3939 109.922 82.6387 109.469C82.8835 109.016 83.2168 108.651 83.6387 108.375C84.0605 108.099 84.5397 107.891 85.0762 107.75C85.6178 107.609 86.1855 107.51 86.7793 107.453C87.4772 107.38 88.0397 107.312 88.4668 107.25C88.8939 107.182 89.2038 107.083 89.3965 106.953C89.5892 106.823 89.6855 106.63 89.6855 106.375V106.328C89.6855 105.833 89.5293 105.451 89.2168 105.18C88.9095 104.909 88.472 104.773 87.9043 104.773C87.3053 104.773 86.8288 104.906 86.4746 105.172C86.1204 105.432 85.8861 105.76 85.7715 106.156L82.6934 105.906C82.8496 105.177 83.1569 104.547 83.6152 104.016C84.0736 103.479 84.6647 103.068 85.3887 102.781C86.1178 102.49 86.9616 102.344 87.9199 102.344C88.5866 102.344 89.2246 102.422 89.834 102.578C90.4486 102.734 90.9928 102.977 91.4668 103.305C91.946 103.633 92.3236 104.055 92.5996 104.57C92.8757 105.081 93.0137 105.693 93.0137 106.406V114.5H89.8574V112.836H89.7637C89.571 113.211 89.3132 113.542 88.9902 113.828C88.6673 114.109 88.2793 114.331 87.8262 114.492C87.373 114.648 86.8496 114.727 86.2559 114.727ZM87.209 112.43C87.6986 112.43 88.1309 112.333 88.5059 112.141C88.8809 111.943 89.1751 111.677 89.3887 111.344C89.6022 111.01 89.709 110.633 89.709 110.211V108.938C89.6048 109.005 89.4616 109.068 89.2793 109.125C89.1022 109.177 88.9017 109.227 88.6777 109.273C88.4538 109.315 88.2298 109.354 88.0059 109.391C87.7819 109.422 87.5788 109.451 87.3965 109.477C87.0059 109.534 86.6647 109.625 86.373 109.75C86.0814 109.875 85.8548 110.044 85.6934 110.258C85.5319 110.466 85.4512 110.727 85.4512 111.039C85.4512 111.492 85.6152 111.839 85.9434 112.078C86.2767 112.312 86.6986 112.43 87.209 112.43ZM98.9238 107.563V114.5H95.5957V102.5H98.7676V104.617H98.9082C99.1738 103.919 99.6191 103.367 100.244 102.961C100.869 102.549 101.627 102.344 102.518 102.344C103.351 102.344 104.077 102.526 104.697 102.891C105.317 103.255 105.799 103.776 106.143 104.453C106.486 105.125 106.658 105.927 106.658 106.859V114.5H103.33V107.453C103.335 106.719 103.148 106.146 102.768 105.734C102.387 105.318 101.864 105.109 101.197 105.109C100.749 105.109 100.354 105.206 100.01 105.398C99.6712 105.591 99.4056 105.872 99.2129 106.242C99.0254 106.607 98.929 107.047 98.9238 107.563ZM114.373 114.5V102.5H117.701V114.5H114.373ZM116.045 100.953C115.55 100.953 115.126 100.789 114.771 100.461C114.423 100.128 114.248 99.7292 114.248 99.2656C114.248 98.8073 114.423 98.4141 114.771 98.0859C115.126 97.7526 115.55 97.5859 116.045 97.5859C116.54 97.5859 116.962 97.7526 117.311 98.0859C117.665 98.4141 117.842 98.8073 117.842 99.2656C117.842 99.7292 117.665 100.128 117.311 100.461C116.962 100.789 116.54 100.953 116.045 100.953ZM132.389 98.5V114.5H129.006V101.711H128.912L125.248 104.008V101.008L129.209 98.5H132.389ZM141.314 114.5V102.5H144.486V104.617H144.627C144.877 103.914 145.294 103.359 145.877 102.953C146.46 102.547 147.158 102.344 147.971 102.344C148.794 102.344 149.494 102.549 150.072 102.961C150.65 103.367 151.036 103.919 151.229 104.617H151.354C151.598 103.93 152.041 103.38 152.682 102.969C153.327 102.552 154.09 102.344 154.971 102.344C156.09 102.344 156.999 102.701 157.697 103.414C158.4 104.122 158.752 105.128 158.752 106.43V114.5H155.432V107.086C155.432 106.419 155.255 105.919 154.9 105.586C154.546 105.253 154.104 105.086 153.572 105.086C152.968 105.086 152.497 105.279 152.158 105.664C151.82 106.044 151.65 106.547 151.65 107.172V114.5H148.424V107.016C148.424 106.427 148.255 105.958 147.916 105.609C147.583 105.26 147.143 105.086 146.596 105.086C146.226 105.086 145.893 105.18 145.596 105.367C145.304 105.549 145.072 105.807 144.9 106.141C144.729 106.469 144.643 106.854 144.643 107.297V114.5H141.314ZM164.709 98.5V114.5H161.381V98.5H164.709Z" fill="black"/>
<path d="M1130.97 115.249C1129.64 115.249 1128.46 115.021 1127.43 114.565C1126.4 114.103 1125.58 113.47 1124.99 112.665C1124.39 111.854 1124.09 110.919 1124.07 109.86H1127.94C1127.97 110.304 1128.11 110.694 1128.38 111.032C1128.65 111.363 1129.01 111.621 1129.46 111.804C1129.91 111.987 1130.42 112.079 1130.98 112.079C1131.56 112.079 1132.08 111.976 1132.53 111.768C1132.98 111.561 1133.33 111.274 1133.59 110.907C1133.84 110.54 1133.97 110.117 1133.97 109.638C1133.97 109.152 1133.83 108.723 1133.56 108.35C1133.3 107.972 1132.91 107.676 1132.41 107.463C1131.91 107.25 1131.32 107.143 1130.63 107.143H1128.94V104.32H1130.63C1131.21 104.32 1131.72 104.219 1132.17 104.018C1132.62 103.817 1132.97 103.539 1133.22 103.184C1133.46 102.823 1133.59 102.402 1133.59 101.923C1133.59 101.467 1133.48 101.068 1133.26 100.724C1133.05 100.375 1132.75 100.103 1132.35 99.9077C1131.97 99.7124 1131.52 99.6147 1131.01 99.6147C1130.48 99.6147 1130.01 99.7094 1129.58 99.8988C1129.14 100.082 1128.8 100.346 1128.54 100.689C1128.28 101.032 1128.14 101.435 1128.12 101.896H1124.44C1124.45 100.849 1124.75 99.9254 1125.33 99.1264C1125.91 98.3274 1126.69 97.703 1127.68 97.2532C1128.66 96.7975 1129.78 96.5696 1131.02 96.5696C1132.28 96.5696 1133.38 96.7975 1134.32 97.2532C1135.26 97.7089 1135.99 98.3245 1136.51 99.0998C1137.04 99.8692 1137.3 100.733 1137.29 101.692C1137.3 102.71 1136.98 103.559 1136.34 104.24C1135.71 104.921 1134.88 105.353 1133.86 105.536V105.678C1135.2 105.85 1136.22 106.315 1136.92 107.072C1137.62 107.824 1137.97 108.765 1137.97 109.895C1137.97 110.931 1137.67 111.851 1137.07 112.656C1136.47 113.461 1135.65 114.094 1134.59 114.556C1133.54 115.018 1132.33 115.249 1130.97 115.249ZM1147.37 115.249C1146.11 115.249 1145 115.018 1144.01 114.556C1143.04 114.094 1142.26 113.458 1141.69 112.647C1141.11 111.837 1140.81 110.907 1140.79 109.86H1144.52C1144.56 110.564 1144.86 111.135 1145.41 111.573C1145.96 112.011 1146.61 112.23 1147.37 112.23C1147.97 112.23 1148.51 112.097 1148.97 111.831C1149.43 111.558 1149.8 111.183 1150.06 110.703C1150.33 110.218 1150.46 109.661 1150.46 109.034C1150.46 108.395 1150.32 107.833 1150.05 107.347C1149.78 106.862 1149.41 106.483 1148.94 106.211C1148.47 105.939 1147.93 105.8 1147.32 105.794C1146.78 105.794 1146.27 105.903 1145.76 106.122C1145.27 106.341 1144.88 106.64 1144.6 107.019L1141.18 106.406L1142.04 96.8182H1153.16V99.9609H1145.21L1144.74 104.515H1144.85C1145.17 104.065 1145.65 103.693 1146.3 103.397C1146.94 103.101 1147.66 102.953 1148.46 102.953C1149.56 102.953 1150.53 103.21 1151.39 103.725C1152.25 104.24 1152.93 104.947 1153.42 105.847C1153.92 106.741 1154.17 107.77 1154.16 108.936C1154.17 110.162 1153.88 111.251 1153.31 112.203C1152.74 113.15 1151.94 113.896 1150.92 114.441C1149.9 114.979 1148.72 115.249 1147.37 115.249ZM1163.97 115.4C1162.44 115.394 1161.13 115.018 1160.03 114.272C1158.93 113.526 1158.09 112.446 1157.5 111.032C1156.91 109.617 1156.62 107.915 1156.63 105.927C1156.63 103.944 1156.92 102.254 1157.51 100.858C1158.1 99.4608 1158.94 98.3984 1160.04 97.6705C1161.14 96.9366 1162.45 96.5696 1163.97 96.5696C1165.49 96.5696 1166.8 96.9366 1167.89 97.6705C1169 98.4044 1169.84 99.4697 1170.43 100.866C1171.03 102.257 1171.32 103.944 1171.31 105.927C1171.31 107.921 1171.02 109.626 1170.42 111.04C1169.84 112.455 1169 113.535 1167.9 114.281C1166.81 115.027 1165.5 115.4 1163.97 115.4ZM1163.97 112.212C1165.01 112.212 1165.84 111.689 1166.47 110.641C1167.09 109.593 1167.39 108.022 1167.39 105.927C1167.39 104.548 1167.25 103.4 1166.96 102.482C1166.68 101.565 1166.29 100.875 1165.77 100.414C1165.26 99.9521 1164.66 99.7212 1163.97 99.7212C1162.94 99.7212 1162.11 100.239 1161.48 101.275C1160.86 102.311 1160.55 103.861 1160.54 105.927C1160.54 107.324 1160.68 108.49 1160.96 109.425C1161.25 110.354 1161.64 111.052 1162.16 111.52C1162.67 111.982 1163.28 112.212 1163.97 112.212ZM1181.18 115.4C1179.66 115.394 1178.34 115.018 1177.24 114.272C1176.15 113.526 1175.3 112.446 1174.71 111.032C1174.12 109.617 1173.83 107.915 1173.84 105.927C1173.84 103.944 1174.13 102.254 1174.72 100.858C1175.31 99.4608 1176.15 98.3984 1177.25 97.6705C1178.35 96.9366 1179.66 96.5696 1181.18 96.5696C1182.7 96.5696 1184.01 96.9366 1185.11 97.6705C1186.21 98.4044 1187.05 99.4697 1187.65 100.866C1188.24 102.257 1188.53 103.944 1188.52 105.927C1188.52 107.921 1188.23 109.626 1187.64 111.04C1187.05 112.455 1186.21 113.535 1185.12 114.281C1184.02 115.027 1182.71 115.4 1181.18 115.4ZM1181.18 112.212C1182.22 112.212 1183.06 111.689 1183.68 110.641C1184.3 109.593 1184.61 108.022 1184.6 105.927C1184.6 104.548 1184.46 103.4 1184.17 102.482C1183.9 101.565 1183.5 100.875 1182.98 100.414C1182.48 99.9521 1181.88 99.7212 1181.18 99.7212C1180.15 99.7212 1179.32 100.239 1178.7 101.275C1178.08 102.311 1177.76 103.861 1177.76 105.927C1177.76 107.324 1177.89 108.49 1178.17 109.425C1178.46 110.354 1178.86 111.052 1179.37 111.52C1179.89 111.982 1180.49 112.212 1181.18 112.212ZM1205.08 99.6946C1204.38 99.6946 1203.86 99.8337 1203.51 100.112C1203.16 100.39 1202.97 100.79 1202.95 101.31H1199.08C1199.14 100.292 1199.4 99.4312 1199.86 98.7269C1200.31 98.0226 1200.97 97.487 1201.82 97.12C1202.68 96.7531 1203.74 96.5696 1205.01 96.5696C1206.27 96.5696 1207.34 96.7442 1208.21 97.0934C1209.09 97.4426 1209.76 97.9279 1210.22 98.5494C1210.67 99.1708 1210.9 99.8988 1210.9 100.733C1210.9 101.13 1210.82 101.509 1210.67 101.87C1210.52 102.225 1210.31 102.55 1210.06 102.846C1209.8 103.136 1209.53 103.391 1209.23 103.61L1206.17 102.793C1206.48 102.556 1206.72 102.296 1206.87 102.012C1207.03 101.728 1207.11 101.402 1207.1 101.035C1207.11 100.627 1206.94 100.301 1206.6 100.059C1206.25 99.8159 1205.75 99.6946 1205.08 99.6946ZM1212.07 105.146H1197.84V102.598H1212.07V105.146ZM1212.07 108.972H1197.84V106.486H1212.07V108.972ZM1205.01 115.249C1202.96 115.249 1201.42 114.858 1200.37 114.077C1199.33 113.295 1198.81 112.224 1198.8 110.863C1198.81 110.455 1198.9 110.058 1199.07 109.673C1199.24 109.289 1199.46 108.942 1199.74 108.635C1200.02 108.327 1200.32 108.087 1200.66 107.915L1203.69 108.661C1203.35 108.898 1203.09 109.191 1202.91 109.54C1202.73 109.889 1202.64 110.23 1202.64 110.561C1202.64 111.07 1202.85 111.464 1203.28 111.742C1203.7 112.02 1204.28 112.159 1205.01 112.159C1205.73 112.159 1206.32 112.02 1206.76 111.742C1207.21 111.464 1207.46 110.984 1207.49 110.304H1211.41C1211.34 111.446 1211.07 112.381 1210.6 113.109C1210.13 113.837 1209.44 114.376 1208.51 114.725C1207.59 115.074 1206.42 115.249 1205.01 115.249Z" fill="#14142A"/>
</svg>
