<svg width="1253" height="279" viewBox="0 0 1253 279" fill="none" xmlns="http://www.w3.org/2000/svg">
<path d="M0.775391 20C0.775391 8.9543 9.7297 0 20.7754 0H1232.78C1243.82 0 1252.78 8.95431 1252.78 20V71H0.775391V20Z" fill="#FFA7CA"/>
<path d="M27.4189 26.0909H32.3493L37.5566 38.7955H37.7782L42.9856 26.0909H47.916V45H44.0382V32.6925H43.8812L38.9877 44.9077H36.3471L31.4537 32.6463H31.2967V45H27.4189V26.0909ZM57.5991 45.277C56.1403 45.277 54.8846 44.9815 53.832 44.3906C52.7856 43.7936 51.9793 42.9503 51.413 41.8608C50.8467 40.7652 50.5636 39.4695 50.5636 37.9737C50.5636 36.5149 50.8467 35.2346 51.413 34.1328C51.9793 33.031 52.7764 32.1723 53.8043 31.5568C54.8384 30.9413 56.051 30.6335 57.4421 30.6335C58.3777 30.6335 59.2487 30.7843 60.055 31.0859C60.8675 31.3814 61.5754 31.8277 62.1786 32.4247C62.788 33.0218 63.262 33.7727 63.6005 34.6776C63.939 35.5762 64.1083 36.6288 64.1083 37.8352V38.9155H52.1332V36.478H60.4059C60.4059 35.9117 60.2828 35.41 60.0366 34.973C59.7904 34.536 59.4487 34.1944 59.0117 33.9482C58.5808 33.6958 58.0792 33.5696 57.5067 33.5696C56.9097 33.5696 56.3803 33.7081 55.9187 33.9851C55.4632 34.2559 55.1062 34.6222 54.8477 35.0838C54.5891 35.5393 54.4568 36.0471 54.4506 36.6072V38.9247C54.4506 39.6264 54.5799 40.2327 54.8384 40.7436C55.1031 41.2545 55.4755 41.6484 55.9556 41.9254C56.4357 42.2024 57.0051 42.3409 57.6637 42.3409C58.1007 42.3409 58.5008 42.2794 58.864 42.1562C59.2272 42.0331 59.538 41.8485 59.7965 41.6023C60.055 41.3561 60.252 41.0545 60.3874 40.6974L64.0252 40.9375C63.8406 41.8116 63.462 42.5748 62.8896 43.2273C62.3233 43.8736 61.5908 44.3783 60.6921 44.7415C59.7996 45.0985 58.7686 45.277 57.5991 45.277ZM65.9457 40.9837H69.7589C69.7773 41.4515 69.9866 41.8208 70.3867 42.0916C70.7868 42.3625 71.3039 42.4979 71.9379 42.4979C72.578 42.4979 73.1166 42.3501 73.5536 42.0547C73.9906 41.7531 74.2092 41.3222 74.2092 40.7621C74.2092 40.4174 74.123 40.1188 73.9506 39.8665C73.7783 39.608 73.5382 39.4048 73.2305 39.2571C72.9227 39.1094 72.5657 39.0355 72.1594 39.0355H70.119V36.4595H72.1594C72.7688 36.4595 73.2366 36.3179 73.5629 36.0348C73.8952 35.7517 74.0614 35.3977 74.0614 34.973C74.0614 34.4929 73.8891 34.1082 73.5444 33.8189C73.2058 33.5234 72.7473 33.3757 72.1687 33.3757C71.5839 33.3757 71.0977 33.508 70.7099 33.7727C70.3282 34.0312 70.1313 34.3698 70.119 34.7884H66.3242C66.3365 33.9389 66.592 33.2034 67.0906 32.5817C67.5953 31.96 68.2724 31.4799 69.1218 31.1413C69.9774 30.8028 70.9345 30.6335 71.9933 30.6335C73.1505 30.6335 74.1476 30.7966 74.9847 31.1229C75.828 31.4429 76.4743 31.9015 76.9237 32.4986C77.3791 33.0956 77.6069 33.8066 77.6069 34.6314C77.6069 35.3823 77.3607 36.0102 76.8683 36.5149C76.3758 37.0196 75.6864 37.3797 74.8001 37.5952V37.7429C75.3848 37.7798 75.9142 37.9368 76.3881 38.2138C76.8621 38.4908 77.2406 38.8724 77.5238 39.3587C77.8069 39.8388 77.9485 40.4081 77.9485 41.0668C77.9485 41.947 77.69 42.701 77.1729 43.3288C76.6621 43.9567 75.9542 44.4399 75.0494 44.7784C74.1507 45.1108 73.1197 45.277 71.9563 45.277C70.8237 45.277 69.8081 45.1139 68.9094 44.7876C68.0169 44.4553 67.306 43.969 66.7766 43.3288C66.2534 42.6887 65.9764 41.907 65.9457 40.9837ZM86.7683 45.277C85.3341 45.277 84.0938 44.9723 83.0474 44.3629C82.0072 43.7474 81.2039 42.8918 80.6376 41.7962C80.0713 40.6944 79.7882 39.4171 79.7882 37.9645C79.7882 36.4995 80.0713 35.2192 80.6376 34.1236C81.2039 33.0218 82.0072 32.1662 83.0474 31.5568C84.0938 30.9413 85.3341 30.6335 86.7683 30.6335C88.2025 30.6335 89.4397 30.9413 90.4799 31.5568C91.5263 32.1662 92.3327 33.0218 92.899 34.1236C93.4653 35.2192 93.7484 36.4995 93.7484 37.9645C93.7484 39.4171 93.4653 40.6944 92.899 41.7962C92.3327 42.8918 91.5263 43.7474 90.4799 44.3629C89.4397 44.9723 88.2025 45.277 86.7683 45.277ZM86.7868 42.2301C87.4392 42.2301 87.984 42.0455 88.421 41.6761C88.858 41.3007 89.1873 40.7898 89.4089 40.1435C89.6367 39.4972 89.7505 38.7616 89.7505 37.9368C89.7505 37.112 89.6367 36.3764 89.4089 35.7301C89.1873 35.0838 88.858 34.5729 88.421 34.1974C87.984 33.822 87.4392 33.6342 86.7868 33.6342C86.1281 33.6342 85.5742 33.822 85.1248 34.1974C84.6816 34.5729 84.3462 35.0838 84.1184 35.7301C83.8968 36.3764 83.786 37.112 83.786 37.9368C83.786 38.7616 83.8968 39.4972 84.1184 40.1435C84.3462 40.7898 84.6816 41.3007 85.1248 41.6761C85.5742 42.0455 86.1281 42.2301 86.7868 42.2301ZM94.9325 33.9112V30.8182H107.785V33.9112H103.214V45H99.4659V33.9112H94.9325ZM116.124 45.277C114.666 45.277 113.41 44.9815 112.357 44.3906C111.311 43.7936 110.505 42.9503 109.938 41.8608C109.372 40.7652 109.089 39.4695 109.089 37.9737C109.089 36.5149 109.372 35.2346 109.938 34.1328C110.505 33.031 111.302 32.1723 112.33 31.5568C113.364 30.9413 114.576 30.6335 115.968 30.6335C116.903 30.6335 117.774 30.7843 118.58 31.0859C119.393 31.3814 120.101 31.8277 120.704 32.4247C121.313 33.0218 121.787 33.7727 122.126 34.6776C122.464 35.5762 122.634 36.6288 122.634 37.8352V38.9155H110.659V36.478H118.931C118.931 35.9117 118.808 35.41 118.562 34.973C118.316 34.536 117.974 34.1944 117.537 33.9482C117.106 33.6958 116.605 33.5696 116.032 33.5696C115.435 33.5696 114.906 33.7081 114.444 33.9851C113.989 34.2559 113.632 34.6222 113.373 35.0838C113.115 35.5393 112.982 36.0471 112.976 36.6072V38.9247C112.976 39.6264 113.105 40.2327 113.364 40.7436C113.628 41.2545 114.001 41.6484 114.481 41.9254C114.961 42.2024 115.53 42.3409 116.189 42.3409C116.626 42.3409 117.026 42.2794 117.389 42.1562C117.753 42.0331 118.063 41.8485 118.322 41.6023C118.58 41.3561 118.777 41.0545 118.913 40.6974L122.551 40.9375C122.366 41.8116 121.987 42.5748 121.415 43.2273C120.849 43.8736 120.116 44.3783 119.218 44.7415C118.325 45.0985 117.294 45.277 116.124 45.277ZM125.2 50.3182V30.8182H129.078V33.2003H129.254C129.426 32.8187 129.675 32.4309 130.002 32.0369C130.334 31.6368 130.765 31.3045 131.294 31.0398C131.83 30.7689 132.494 30.6335 133.289 30.6335C134.323 30.6335 135.277 30.9044 136.151 31.446C137.025 31.9815 137.723 32.791 138.247 33.8743C138.77 34.9515 139.031 36.3026 139.031 37.9276C139.031 39.5095 138.776 40.8452 138.265 41.9347C137.76 43.018 137.071 43.8397 136.197 44.3999C135.329 44.9538 134.356 45.2308 133.279 45.2308C132.516 45.2308 131.867 45.1046 131.331 44.8523C130.802 44.5999 130.368 44.2829 130.029 43.9013C129.691 43.5135 129.432 43.1226 129.254 42.7287H129.134V50.3182H125.2ZM129.051 37.9091C129.051 38.7524 129.168 39.4879 129.401 40.1158C129.635 40.7436 129.974 41.233 130.417 41.5838C130.86 41.9285 131.399 42.1009 132.033 42.1009C132.673 42.1009 133.215 41.9254 133.658 41.5746C134.101 41.2176 134.436 40.7251 134.664 40.0973C134.898 39.4633 135.015 38.7339 135.015 37.9091C135.015 37.0904 134.901 36.3703 134.673 35.7486C134.446 35.1269 134.11 34.6406 133.667 34.2898C133.224 33.9389 132.679 33.7635 132.033 33.7635C131.393 33.7635 130.851 33.9328 130.408 34.2713C129.971 34.6098 129.635 35.09 129.401 35.7116C129.168 36.3333 129.051 37.0658 129.051 37.9091ZM145.698 45.2678C144.793 45.2678 143.986 45.1108 143.279 44.7969C142.571 44.4768 142.011 44.0059 141.598 43.3842C141.192 42.7564 140.989 41.9747 140.989 41.0391C140.989 40.2512 141.133 39.5895 141.423 39.054C141.712 38.5185 142.106 38.0876 142.605 37.7614C143.103 37.4351 143.669 37.1889 144.303 37.0227C144.944 36.8565 145.615 36.7396 146.316 36.6719C147.141 36.5857 147.806 36.5057 148.311 36.4318C148.815 36.3518 149.182 36.2348 149.409 36.081C149.637 35.9271 149.751 35.6993 149.751 35.3977V35.3423C149.751 34.7576 149.566 34.3052 149.197 33.9851C148.834 33.665 148.317 33.505 147.646 33.505C146.938 33.505 146.375 33.6619 145.956 33.9759C145.538 34.2836 145.261 34.6714 145.125 35.1392L141.487 34.8438C141.672 33.982 142.035 33.2372 142.577 32.6094C143.119 31.9754 143.817 31.4891 144.673 31.1506C145.535 30.8059 146.532 30.6335 147.664 30.6335C148.452 30.6335 149.206 30.7259 149.926 30.9105C150.653 31.0952 151.296 31.3814 151.856 31.7692C152.422 32.157 152.869 32.6555 153.195 33.2649C153.521 33.8681 153.684 34.5914 153.684 35.4347V45H149.954V43.0334H149.843C149.615 43.4766 149.311 43.8674 148.929 44.206C148.548 44.5384 148.089 44.8 147.553 44.9908C147.018 45.1754 146.399 45.2678 145.698 45.2678ZM146.824 42.5533C147.403 42.5533 147.914 42.4394 148.357 42.2116C148.8 41.9777 149.148 41.6638 149.4 41.2699C149.652 40.8759 149.779 40.4297 149.779 39.9311V38.4261C149.655 38.5062 149.486 38.58 149.271 38.6477C149.061 38.7093 148.825 38.7678 148.56 38.8232C148.295 38.8724 148.03 38.9186 147.766 38.9616C147.501 38.9986 147.261 39.0324 147.046 39.0632C146.584 39.1309 146.181 39.2386 145.836 39.3864C145.491 39.5341 145.224 39.7341 145.033 39.9865C144.842 40.2327 144.747 40.5405 144.747 40.9098C144.747 41.4453 144.941 41.8546 145.328 42.1378C145.722 42.4148 146.221 42.5533 146.824 42.5533ZM156.736 45V30.8182H169.135V45H165.378V33.9112H160.447V45H156.736ZM172.275 45V30.8182H176.208V45H172.275ZM174.251 28.9901C173.666 28.9901 173.164 28.7962 172.746 28.4084C172.333 28.0144 172.127 27.5436 172.127 26.9957C172.127 26.4541 172.333 25.9893 172.746 25.6016C173.164 25.2076 173.666 25.0107 174.251 25.0107C174.835 25.0107 175.334 25.2076 175.746 25.6016C176.165 25.9893 176.374 26.4541 176.374 26.9957C176.374 27.5436 176.165 28.0144 175.746 28.4084C175.334 28.7962 174.835 28.9901 174.251 28.9901ZM187.668 45V33.902H185.009C184.289 33.902 183.741 34.0682 183.366 34.4006C182.99 34.733 182.806 35.1269 182.812 35.5824C182.806 36.044 182.984 36.4349 183.347 36.755C183.717 37.0689 184.258 37.2259 184.972 37.2259H188.979V39.8849H184.972C183.76 39.8849 182.71 39.7003 181.824 39.331C180.938 38.9616 180.254 38.4477 179.774 37.7891C179.294 37.1243 179.057 36.3518 179.063 35.4716C179.057 34.5483 179.294 33.7389 179.774 33.0433C180.254 32.3416 180.941 31.7969 181.833 31.4091C182.732 31.0152 183.79 30.8182 185.009 30.8182H191.334V45H187.668ZM178.657 45L182.599 37.6136H186.357L182.424 45H178.657ZM200.407 30.8182H204.165V41.8793H208.163V30.8182H211.921V41.8793H215.919V30.8182H219.677V45H200.407V30.8182ZM222.726 45V30.8182H226.659V36.321H227.767L231.626 30.8182H236.243L231.229 37.8537L236.298 45H231.626L228.127 39.968H226.659V45H222.726ZM237.96 45V30.8182H241.893V45H237.96ZM239.936 28.9901C239.351 28.9901 238.85 28.7962 238.431 28.4084C238.019 28.0144 237.812 27.5436 237.812 26.9957C237.812 26.4541 238.019 25.9893 238.431 25.6016C238.85 25.2076 239.351 25.0107 239.936 25.0107C240.521 25.0107 241.019 25.2076 241.432 25.6016C241.85 25.9893 242.06 26.4541 242.06 26.9957C242.06 27.5436 241.85 28.0144 241.432 28.4084C241.019 28.7962 240.521 28.9901 239.936 28.9901ZM245.044 50.3182V30.8182H248.922V33.2003H249.097C249.27 32.8187 249.519 32.4309 249.845 32.0369C250.178 31.6368 250.609 31.3045 251.138 31.0398C251.673 30.7689 252.338 30.6335 253.132 30.6335C254.166 30.6335 255.12 30.9044 255.994 31.446C256.869 31.9815 257.567 32.791 258.09 33.8743C258.614 34.9515 258.875 36.3026 258.875 37.9276C258.875 39.5095 258.62 40.8452 258.109 41.9347C257.604 43.018 256.915 43.8397 256.041 44.3999C255.173 44.9538 254.2 45.2308 253.123 45.2308C252.36 45.2308 251.71 45.1046 251.175 44.8523C250.646 44.5999 250.212 44.2829 249.873 43.9013C249.535 43.5135 249.276 43.1226 249.097 42.7287H248.977V50.3182H245.044ZM248.894 37.9091C248.894 38.7524 249.011 39.4879 249.245 40.1158C249.479 40.7436 249.818 41.233 250.261 41.5838C250.704 41.9285 251.243 42.1009 251.877 42.1009C252.517 42.1009 253.058 41.9254 253.502 41.5746C253.945 41.2176 254.28 40.7251 254.508 40.0973C254.742 39.4633 254.859 38.7339 254.859 37.9091C254.859 37.0904 254.745 36.3703 254.517 35.7486C254.289 35.1269 253.954 34.6406 253.511 34.2898C253.068 33.9389 252.523 33.7635 251.877 33.7635C251.236 33.7635 250.695 33.9328 250.252 34.2713C249.815 34.6098 249.479 35.09 249.245 35.7116C249.011 36.3333 248.894 37.0658 248.894 37.9091ZM265.255 39.8111L270.361 30.8182H274.239V45H270.49V35.9794L265.403 45H261.497V30.8182H265.255V39.8111ZM293.123 30.8182V33.9112H287.232V45H283.409V30.8182H293.123ZM301.421 45.277C299.986 45.277 298.746 44.9723 297.7 44.3629C296.66 43.7474 295.856 42.8918 295.29 41.7962C294.724 40.6944 294.441 39.4171 294.441 37.9645C294.441 36.4995 294.724 35.2192 295.29 34.1236C295.856 33.0218 296.66 32.1662 297.7 31.5568C298.746 30.9413 299.986 30.6335 301.421 30.6335C302.855 30.6335 304.092 30.9413 305.132 31.5568C306.179 32.1662 306.985 33.0218 307.551 34.1236C308.118 35.2192 308.401 36.4995 308.401 37.9645C308.401 39.4171 308.118 40.6944 307.551 41.7962C306.985 42.8918 306.179 43.7474 305.132 44.3629C304.092 44.9723 302.855 45.277 301.421 45.277ZM301.439 42.2301C302.092 42.2301 302.636 42.0455 303.073 41.6761C303.51 41.3007 303.84 40.7898 304.061 40.1435C304.289 39.4972 304.403 38.7616 304.403 37.9368C304.403 37.112 304.289 36.3764 304.061 35.7301C303.84 35.0838 303.51 34.5729 303.073 34.1974C302.636 33.822 302.092 33.6342 301.439 33.6342C300.78 33.6342 300.227 33.822 299.777 34.1974C299.334 34.5729 298.999 35.0838 298.771 35.7301C298.549 36.3764 298.438 37.112 298.438 37.9368C298.438 38.7616 298.549 39.4972 298.771 40.1435C298.999 40.7898 299.334 41.3007 299.777 41.6761C300.227 42.0455 300.78 42.2301 301.439 42.2301ZM310.127 45L310.109 41.8793H310.58C310.912 41.8793 311.198 41.7992 311.438 41.6392C311.685 41.473 311.888 41.2053 312.048 40.8359C312.208 40.4666 312.334 39.9773 312.426 39.3679C312.519 38.7524 312.58 37.9953 312.611 37.0966L312.842 30.8182H323.626V45H319.877V33.9112H316.378L316.156 38.2415C316.101 39.4295 315.956 40.4512 315.722 41.3068C315.495 42.1624 315.178 42.8641 314.771 43.4119C314.365 43.9536 313.876 44.3537 313.303 44.6122C312.731 44.8707 312.066 45 311.309 45H310.127ZM333.083 45.277C331.649 45.277 330.408 44.9723 329.362 44.3629C328.322 43.7474 327.518 42.8918 326.952 41.7962C326.386 40.6944 326.103 39.4171 326.103 37.9645C326.103 36.4995 326.386 35.2192 326.952 34.1236C327.518 33.0218 328.322 32.1662 329.362 31.5568C330.408 30.9413 331.649 30.6335 333.083 30.6335C334.517 30.6335 335.754 30.9413 336.794 31.5568C337.841 32.1662 338.647 33.0218 339.213 34.1236C339.78 35.2192 340.063 36.4995 340.063 37.9645C340.063 39.4171 339.78 40.6944 339.213 41.7962C338.647 42.8918 337.841 43.7474 336.794 44.3629C335.754 44.9723 334.517 45.277 333.083 45.277ZM333.101 42.2301C333.754 42.2301 334.298 42.0455 334.735 41.6761C335.172 41.3007 335.502 40.7898 335.723 40.1435C335.951 39.4972 336.065 38.7616 336.065 37.9368C336.065 37.112 335.951 36.3764 335.723 35.7301C335.502 35.0838 335.172 34.5729 334.735 34.1974C334.298 33.822 333.754 33.6342 333.101 33.6342C332.443 33.6342 331.889 33.822 331.439 34.1974C330.996 34.5729 330.661 35.0838 330.433 35.7301C330.211 36.3764 330.1 37.112 330.1 37.9368C330.1 38.7616 330.211 39.4972 330.433 40.1435C330.661 40.7898 330.996 41.3007 331.439 41.6761C331.889 42.0455 332.443 42.2301 333.101 42.2301ZM342.62 45V30.8182H348.668C350.416 30.8182 351.798 31.1506 352.814 31.8153C353.829 32.4801 354.337 33.425 354.337 34.6499C354.337 35.4193 354.051 36.0594 353.478 36.5703C352.906 37.0812 352.112 37.4259 351.096 37.6044C351.946 37.666 352.669 37.8598 353.266 38.1861C353.869 38.5062 354.328 38.9216 354.642 39.4325C354.962 39.9434 355.122 40.5097 355.122 41.1314C355.122 41.9377 354.906 42.6302 354.475 43.2088C354.051 43.7874 353.426 44.2306 352.601 44.5384C351.783 44.8461 350.782 45 349.6 45H342.62ZM346.286 42.0547H349.6C350.148 42.0547 350.576 41.9254 350.884 41.6669C351.198 41.4022 351.355 41.0421 351.355 40.5866C351.355 40.0819 351.198 39.6849 350.884 39.3956C350.576 39.1063 350.148 38.9616 349.6 38.9616H346.286V42.0547ZM346.286 36.6534H348.751C349.145 36.6534 349.48 36.598 349.757 36.4872C350.041 36.3703 350.256 36.2041 350.404 35.9886C350.558 35.7732 350.635 35.5178 350.635 35.2223C350.635 34.7853 350.459 34.4437 350.108 34.1974C349.757 33.9512 349.277 33.8281 348.668 33.8281H346.286V36.6534ZM361.359 39.8111L366.464 30.8182H370.342V45H366.594V35.9794L361.506 45H357.601V30.8182H361.359V39.8111Z" fill="#14142A"/>
<path d="M1135.35 28V44H1132.07V28H1135.35ZM1122.41 44L1127.42 35.5625L1122.62 28H1126.78L1130.38 34.5859H1137.13L1140.63 28H1144.78L1140.1 35.5391L1145.02 44H1140.98L1137.6 37.7109H1129.88L1126.42 44H1122.41ZM1146.97 44V32H1150.3V44H1146.97ZM1148.64 30.4531C1148.15 30.4531 1147.73 30.2891 1147.37 29.9609C1147.02 29.6276 1146.85 29.2292 1146.85 28.7656C1146.85 28.3073 1147.02 27.9141 1147.37 27.5859C1147.73 27.2526 1148.15 27.0859 1148.64 27.0859C1149.14 27.0859 1149.56 27.2526 1149.91 27.5859C1150.26 27.9141 1150.44 28.3073 1150.44 28.7656C1150.44 29.2292 1150.26 29.6276 1149.91 29.9609C1149.56 30.2891 1149.14 30.4531 1148.64 30.4531ZM1161.32 36.6719V39.2891H1155.05V36.6719H1161.32ZM1156.15 32V44H1152.97V32H1156.15ZM1163.4 32V44H1160.25V32H1163.4ZM1172.96 27.25L1167.8 46.4062H1164.93L1170.09 27.25H1172.96ZM1175.27 28H1178.56V33.1562C1178.56 33.7708 1178.67 34.2656 1178.88 34.6406C1179.09 35.0104 1179.42 35.2786 1179.87 35.4453C1180.32 35.6068 1180.9 35.6875 1181.61 35.6875C1181.86 35.6875 1182.16 35.6797 1182.5 35.6641C1182.83 35.6432 1183.18 35.6146 1183.54 35.5781C1183.91 35.5417 1184.25 35.4974 1184.57 35.4453C1184.9 35.3932 1185.17 35.3333 1185.38 35.2656V37.9375C1185.16 38.0104 1184.89 38.0755 1184.56 38.1328C1184.24 38.1849 1183.89 38.2318 1183.54 38.2734C1183.18 38.3099 1182.83 38.3385 1182.49 38.3594C1182.15 38.3802 1181.86 38.3906 1181.61 38.3906C1180.33 38.3906 1179.21 38.2083 1178.25 37.8437C1177.3 37.474 1176.56 36.9036 1176.04 36.1328C1175.53 35.362 1175.27 34.3698 1175.27 33.1562V28ZM1184.79 28H1188.1V44H1184.79V28ZM1196.8 44.2344C1195.59 44.2344 1194.54 43.9766 1193.65 43.4609C1192.77 42.9401 1192.09 42.2161 1191.62 41.2891C1191.14 40.3568 1190.9 39.276 1190.9 38.0469C1190.9 36.8073 1191.14 35.724 1191.62 34.7969C1192.09 33.8646 1192.77 33.1406 1193.65 32.625C1194.54 32.1042 1195.59 31.8438 1196.8 31.8438C1198.02 31.8438 1199.06 32.1042 1199.94 32.625C1200.83 33.1406 1201.51 33.8646 1201.99 34.7969C1202.47 35.724 1202.71 36.8073 1202.71 38.0469C1202.71 39.276 1202.47 40.3568 1201.99 41.2891C1201.51 42.2161 1200.83 42.9401 1199.94 43.4609C1199.06 43.9766 1198.02 44.2344 1196.8 44.2344ZM1196.82 41.6562C1197.37 41.6562 1197.83 41.5 1198.2 41.1875C1198.57 40.8698 1198.85 40.4375 1199.04 39.8906C1199.23 39.3437 1199.33 38.7214 1199.33 38.0234C1199.33 37.3255 1199.23 36.7031 1199.04 36.1562C1198.85 35.6094 1198.57 35.1771 1198.2 34.8594C1197.83 34.5417 1197.37 34.3828 1196.82 34.3828C1196.26 34.3828 1195.79 34.5417 1195.41 34.8594C1195.04 35.1771 1194.75 35.6094 1194.56 36.1562C1194.37 36.7031 1194.28 37.3255 1194.28 38.0234C1194.28 38.7214 1194.37 39.3437 1194.56 39.8906C1194.75 40.4375 1195.04 40.8698 1195.41 41.1875C1195.79 41.5 1196.26 41.6562 1196.82 41.6562ZM1204.17 44L1204.15 41.3594H1204.55C1204.83 41.3594 1205.08 41.2917 1205.28 41.1562C1205.49 41.0156 1205.66 40.7891 1205.79 40.4766C1205.93 40.1641 1206.04 39.75 1206.12 39.2344C1206.19 38.7135 1206.25 38.0729 1206.27 37.3125L1206.47 32H1215.59V44H1212.42V34.6172H1209.46L1209.27 38.2812C1209.22 39.2865 1209.1 40.151 1208.9 40.875C1208.71 41.599 1208.44 42.1927 1208.1 42.6562C1207.76 43.1146 1207.34 43.4531 1206.86 43.6719C1206.37 43.8906 1205.81 44 1205.17 44H1204.17Z" fill="#14142A"/>
<mask id="path-4-inside-1_292_2005" fill="white">
<path d="M0.775391 71H1252.78V141H0.775391V71Z"/>
</mask>
<path d="M0.775391 71H1252.78V141H0.775391V71Z" fill="white"/>
<path d="M1252.78 141V142H1253.78V141H1252.78ZM0.775391 141H-0.224609V142H0.775391V141ZM1251.78 71V141H1253.78V71H1251.78ZM1252.78 140H0.775391V142H1252.78V140ZM1.77539 141V71H-0.224609V141H1.77539Z" fill="#FE68A4" mask="url(#path-4-inside-1_292_2005)"/>
<path d="M27.166 114.5V98.5H33.4785C34.6868 98.5 35.7181 98.7161 36.5723 99.1484C37.4316 99.5755 38.0853 100.182 38.5332 100.969C38.9863 101.75 39.2129 102.669 39.2129 103.727C39.2129 104.789 38.9837 105.703 38.5254 106.469C38.0671 107.229 37.403 107.812 36.5332 108.219C35.6686 108.625 34.6217 108.828 33.3926 108.828H29.166V106.109H32.8457C33.4915 106.109 34.028 106.021 34.4551 105.844C34.8822 105.667 35.1999 105.401 35.4082 105.047C35.6217 104.693 35.7285 104.253 35.7285 103.727C35.7285 103.195 35.6217 102.747 35.4082 102.383C35.1999 102.018 34.8796 101.742 34.4473 101.555C34.0202 101.362 33.4811 101.266 32.8301 101.266H30.5488V114.5H27.166ZM35.8066 107.219L39.7832 114.5H36.0488L32.1582 107.219H35.8066ZM46.8164 114.734C45.582 114.734 44.5195 114.484 43.6289 113.984C42.7435 113.479 42.0612 112.766 41.582 111.844C41.1029 110.917 40.8633 109.82 40.8633 108.555C40.8633 107.32 41.1029 106.237 41.582 105.305C42.0612 104.372 42.7357 103.646 43.6055 103.125C44.4805 102.604 45.5065 102.344 46.6836 102.344C47.4753 102.344 48.2122 102.471 48.8945 102.727C49.582 102.977 50.181 103.354 50.6914 103.859C51.207 104.365 51.6081 105 51.8945 105.766C52.181 106.526 52.3242 107.417 52.3242 108.437V109.352H42.1914V107.289H49.1914C49.1914 106.81 49.0872 106.385 48.8789 106.016C48.6706 105.646 48.3815 105.357 48.0117 105.148C47.6471 104.935 47.2227 104.828 46.7383 104.828C46.2331 104.828 45.7852 104.945 45.3945 105.18C45.0091 105.409 44.707 105.719 44.4883 106.109C44.2695 106.495 44.1576 106.924 44.1523 107.398V109.359C44.1523 109.953 44.2617 110.466 44.4805 110.898C44.7044 111.331 45.0195 111.664 45.4258 111.898C45.832 112.133 46.3138 112.25 46.8711 112.25C47.2409 112.25 47.5794 112.198 47.8867 112.094C48.194 111.99 48.457 111.833 48.6758 111.625C48.8945 111.417 49.0612 111.161 49.1758 110.859L52.2539 111.062C52.0977 111.802 51.7773 112.448 51.293 113C50.8138 113.547 50.194 113.974 49.4336 114.281C48.6784 114.583 47.806 114.734 46.8164 114.734ZM54.4961 102.5H57.8242V115.094C57.8242 116.021 57.6419 116.771 57.2773 117.344C56.9128 117.917 56.3893 118.336 55.707 118.602C55.0299 118.867 54.2201 119 53.2773 119C53.1628 119 53.0534 118.997 52.9492 118.992C52.8398 118.992 52.7253 118.99 52.6055 118.984V116.383C52.694 116.388 52.7721 116.391 52.8398 116.391C52.9023 116.396 52.9701 116.398 53.043 116.398C53.5794 116.398 53.9544 116.284 54.168 116.055C54.3867 115.831 54.4961 115.492 54.4961 115.039V102.5ZM56.1523 100.953C55.6628 100.953 55.2409 100.789 54.8867 100.461C54.5326 100.128 54.3555 99.7292 54.3555 99.2656C54.3555 98.8073 54.5326 98.4141 54.8867 98.0859C55.2409 97.7526 55.6628 97.5859 56.1523 97.5859C56.6523 97.5859 57.0768 97.7526 57.4258 98.0859C57.7799 98.4141 57.957 98.8073 57.957 99.2656C57.957 99.7292 57.7799 100.128 57.4258 100.461C57.0768 100.789 56.6523 100.953 56.1523 100.953ZM68.1855 109.391V102.5H71.5137V114.5H68.3184V112.32H68.1934C67.9225 113.023 67.472 113.589 66.8418 114.016C66.2168 114.443 65.4538 114.656 64.5527 114.656C63.7507 114.656 63.0449 114.474 62.4355 114.109C61.8262 113.745 61.3496 113.227 61.0059 112.555C60.6673 111.883 60.4954 111.078 60.4902 110.141V102.5H63.8184V109.547C63.8236 110.255 64.0137 110.815 64.3887 111.227C64.7637 111.638 65.2663 111.844 65.8965 111.844C66.2975 111.844 66.6725 111.753 67.0215 111.57C67.3704 111.383 67.6517 111.107 67.8652 110.742C68.084 110.378 68.1908 109.927 68.1855 109.391ZM74.1758 114.5V102.5H77.4023V104.594H77.5273C77.7461 103.849 78.1133 103.286 78.6289 102.906C79.1445 102.521 79.7383 102.328 80.4102 102.328C80.5768 102.328 80.7565 102.339 80.9492 102.359C81.1419 102.38 81.3112 102.409 81.457 102.445V105.398C81.3008 105.352 81.0846 105.31 80.8086 105.273C80.5326 105.237 80.2799 105.219 80.0508 105.219C79.5612 105.219 79.1237 105.326 78.7383 105.539C78.3581 105.747 78.056 106.039 77.832 106.414C77.6133 106.789 77.5039 107.221 77.5039 107.711V114.5H74.1758ZM86.2559 114.727C85.4902 114.727 84.8079 114.594 84.209 114.328C83.61 114.057 83.1361 113.659 82.7871 113.133C82.4434 112.602 82.2715 111.94 82.2715 111.148C82.2715 110.482 82.3939 109.922 82.6387 109.469C82.8835 109.016 83.2168 108.651 83.6387 108.375C84.0605 108.099 84.5397 107.891 85.0762 107.75C85.6178 107.609 86.1855 107.51 86.7793 107.453C87.4772 107.38 88.0397 107.312 88.4668 107.25C88.8939 107.182 89.2038 107.083 89.3965 106.953C89.5892 106.823 89.6855 106.63 89.6855 106.375V106.328C89.6855 105.833 89.5293 105.451 89.2168 105.18C88.9095 104.909 88.472 104.773 87.9043 104.773C87.3053 104.773 86.8288 104.906 86.4746 105.172C86.1204 105.432 85.8861 105.76 85.7715 106.156L82.6934 105.906C82.8496 105.177 83.1569 104.547 83.6152 104.016C84.0736 103.479 84.6647 103.068 85.3887 102.781C86.1178 102.49 86.9616 102.344 87.9199 102.344C88.5866 102.344 89.2246 102.422 89.834 102.578C90.4486 102.734 90.9928 102.977 91.4668 103.305C91.946 103.633 92.3236 104.055 92.5996 104.57C92.8757 105.081 93.0137 105.693 93.0137 106.406V114.5H89.8574V112.836H89.7637C89.571 113.211 89.3132 113.542 88.9902 113.828C88.6673 114.109 88.2793 114.331 87.8262 114.492C87.373 114.648 86.8496 114.727 86.2559 114.727ZM87.209 112.43C87.6986 112.43 88.1309 112.333 88.5059 112.141C88.8809 111.943 89.1751 111.677 89.3887 111.344C89.6022 111.01 89.709 110.633 89.709 110.211V108.938C89.6048 109.005 89.4616 109.068 89.2793 109.125C89.1022 109.177 88.9017 109.227 88.6777 109.273C88.4538 109.315 88.2298 109.354 88.0059 109.391C87.7819 109.422 87.5788 109.451 87.3965 109.477C87.0059 109.534 86.6647 109.625 86.373 109.75C86.0814 109.875 85.8548 110.044 85.6934 110.258C85.5319 110.466 85.4512 110.727 85.4512 111.039C85.4512 111.492 85.6152 111.839 85.9434 112.078C86.2767 112.312 86.6986 112.43 87.209 112.43ZM98.9238 107.563V114.5H95.5957V102.5H98.7676V104.617H98.9082C99.1738 103.919 99.6191 103.367 100.244 102.961C100.869 102.549 101.627 102.344 102.518 102.344C103.351 102.344 104.077 102.526 104.697 102.891C105.317 103.255 105.799 103.776 106.143 104.453C106.486 105.125 106.658 105.927 106.658 106.859V114.5H103.33V107.453C103.335 106.719 103.148 106.146 102.768 105.734C102.387 105.318 101.864 105.109 101.197 105.109C100.749 105.109 100.354 105.206 100.01 105.398C99.6712 105.591 99.4056 105.872 99.2129 106.242C99.0254 106.607 98.929 107.047 98.9238 107.563ZM123.115 103.102C123.053 102.471 122.785 101.982 122.311 101.633C121.837 101.284 121.193 101.109 120.381 101.109C119.829 101.109 119.363 101.187 118.982 101.344C118.602 101.495 118.311 101.706 118.107 101.977C117.91 102.247 117.811 102.555 117.811 102.898C117.8 103.185 117.86 103.435 117.99 103.648C118.126 103.862 118.311 104.047 118.545 104.203C118.779 104.354 119.05 104.487 119.357 104.602C119.665 104.711 119.993 104.805 120.342 104.883L121.779 105.227C122.477 105.383 123.118 105.591 123.701 105.852C124.285 106.112 124.79 106.432 125.217 106.812C125.644 107.193 125.975 107.641 126.209 108.156C126.449 108.672 126.571 109.263 126.576 109.93C126.571 110.909 126.321 111.758 125.826 112.477C125.337 113.19 124.628 113.745 123.701 114.141C122.779 114.531 121.667 114.727 120.365 114.727C119.074 114.727 117.949 114.529 116.99 114.133C116.037 113.737 115.292 113.151 114.756 112.375C114.225 111.594 113.946 110.628 113.92 109.477H117.193C117.23 110.013 117.383 110.461 117.654 110.82C117.93 111.174 118.298 111.443 118.756 111.625C119.219 111.802 119.743 111.891 120.326 111.891C120.899 111.891 121.396 111.807 121.818 111.641C122.245 111.474 122.576 111.242 122.811 110.945C123.045 110.648 123.162 110.307 123.162 109.922C123.162 109.562 123.055 109.26 122.842 109.016C122.633 108.771 122.326 108.562 121.92 108.391C121.519 108.219 121.027 108.062 120.443 107.922L118.701 107.484C117.352 107.156 116.287 106.643 115.506 105.945C114.725 105.247 114.337 104.307 114.342 103.125C114.337 102.156 114.594 101.31 115.115 100.586C115.641 99.862 116.363 99.2969 117.279 98.8906C118.196 98.4844 119.238 98.2812 120.404 98.2812C121.592 98.2812 122.628 98.4844 123.514 98.8906C124.404 99.2969 125.097 99.862 125.592 100.586C126.087 101.31 126.342 102.148 126.357 103.102H123.115ZM140.811 98.5V114.5H137.428V101.711H137.334L133.67 104.008V101.008L137.631 98.5H140.811ZM149.736 114.5V102.5H152.908V104.617H153.049C153.299 103.914 153.715 103.359 154.299 102.953C154.882 102.547 155.58 102.344 156.393 102.344C157.215 102.344 157.916 102.549 158.494 102.961C159.072 103.367 159.458 103.919 159.65 104.617H159.775C160.02 103.93 160.463 103.38 161.104 102.969C161.749 102.552 162.512 102.344 163.393 102.344C164.512 102.344 165.421 102.701 166.119 103.414C166.822 104.122 167.174 105.128 167.174 106.43V114.5H163.854V107.086C163.854 106.419 163.676 105.919 163.322 105.586C162.968 105.253 162.525 105.086 161.994 105.086C161.39 105.086 160.919 105.279 160.58 105.664C160.242 106.044 160.072 106.547 160.072 107.172V114.5H156.846V107.016C156.846 106.427 156.676 105.958 156.338 105.609C156.005 105.26 155.564 105.086 155.018 105.086C154.648 105.086 154.314 105.18 154.018 105.367C153.726 105.549 153.494 105.807 153.322 106.141C153.15 106.469 153.064 106.854 153.064 107.297V114.5H149.736ZM173.131 98.5V114.5H169.803V98.5H173.131Z" fill="black"/>
<path d="M1130.97 115.249C1129.64 115.249 1128.46 115.021 1127.43 114.565C1126.4 114.103 1125.58 113.47 1124.99 112.665C1124.39 111.854 1124.09 110.919 1124.07 109.86H1127.94C1127.97 110.304 1128.11 110.694 1128.38 111.032C1128.65 111.363 1129.01 111.621 1129.46 111.804C1129.91 111.987 1130.42 112.079 1130.98 112.079C1131.56 112.079 1132.08 111.976 1132.53 111.768C1132.98 111.561 1133.33 111.274 1133.59 110.907C1133.84 110.54 1133.97 110.117 1133.97 109.638C1133.97 109.152 1133.83 108.723 1133.56 108.35C1133.3 107.972 1132.91 107.676 1132.41 107.463C1131.91 107.25 1131.32 107.143 1130.63 107.143H1128.94V104.32H1130.63C1131.21 104.32 1131.72 104.219 1132.17 104.018C1132.62 103.817 1132.97 103.539 1133.22 103.184C1133.46 102.823 1133.59 102.402 1133.59 101.923C1133.59 101.467 1133.48 101.068 1133.26 100.724C1133.05 100.375 1132.75 100.103 1132.35 99.9077C1131.97 99.7124 1131.52 99.6147 1131.01 99.6147C1130.48 99.6147 1130.01 99.7094 1129.58 99.8988C1129.14 100.082 1128.8 100.346 1128.54 100.689C1128.28 101.032 1128.14 101.435 1128.12 101.896H1124.44C1124.45 100.849 1124.75 99.9254 1125.33 99.1264C1125.91 98.3274 1126.69 97.703 1127.68 97.2532C1128.66 96.7975 1129.78 96.5696 1131.02 96.5696C1132.28 96.5696 1133.38 96.7975 1134.32 97.2532C1135.26 97.7089 1135.99 98.3245 1136.51 99.0998C1137.04 99.8692 1137.3 100.733 1137.29 101.692C1137.3 102.71 1136.98 103.559 1136.34 104.24C1135.71 104.921 1134.88 105.353 1133.86 105.536V105.678C1135.2 105.85 1136.22 106.315 1136.92 107.072C1137.62 107.824 1137.97 108.765 1137.97 109.895C1137.97 110.931 1137.67 111.851 1137.07 112.656C1136.47 113.461 1135.65 114.094 1134.59 114.556C1133.54 115.018 1132.33 115.249 1130.97 115.249ZM1147.37 115.249C1146.11 115.249 1145 115.018 1144.01 114.556C1143.04 114.094 1142.26 113.458 1141.69 112.647C1141.11 111.837 1140.81 110.907 1140.79 109.86H1144.52C1144.56 110.564 1144.86 111.135 1145.41 111.573C1145.96 112.011 1146.61 112.23 1147.37 112.23C1147.97 112.23 1148.51 112.097 1148.97 111.831C1149.43 111.558 1149.8 111.183 1150.06 110.703C1150.33 110.218 1150.46 109.661 1150.46 109.034C1150.46 108.395 1150.32 107.833 1150.05 107.347C1149.78 106.862 1149.41 106.483 1148.94 106.211C1148.47 105.939 1147.93 105.8 1147.32 105.794C1146.78 105.794 1146.27 105.903 1145.76 106.122C1145.27 106.341 1144.88 106.64 1144.6 107.019L1141.18 106.406L1142.04 96.8182H1153.16V99.9609H1145.21L1144.74 104.515H1144.85C1145.17 104.065 1145.65 103.693 1146.3 103.397C1146.94 103.101 1147.66 102.953 1148.46 102.953C1149.56 102.953 1150.53 103.21 1151.39 103.725C1152.25 104.24 1152.93 104.947 1153.42 105.847C1153.92 106.741 1154.17 107.77 1154.16 108.936C1154.17 110.162 1153.88 111.251 1153.31 112.203C1152.74 113.15 1151.94 113.896 1150.92 114.441C1149.9 114.979 1148.72 115.249 1147.37 115.249ZM1163.97 115.4C1162.44 115.394 1161.13 115.018 1160.03 114.272C1158.93 113.526 1158.09 112.446 1157.5 111.032C1156.91 109.617 1156.62 107.915 1156.63 105.927C1156.63 103.944 1156.92 102.254 1157.51 100.858C1158.1 99.4608 1158.94 98.3984 1160.04 97.6705C1161.14 96.9366 1162.45 96.5696 1163.97 96.5696C1165.49 96.5696 1166.8 96.9366 1167.89 97.6705C1169 98.4044 1169.84 99.4697 1170.43 100.866C1171.03 102.257 1171.32 103.944 1171.31 105.927C1171.31 107.921 1171.02 109.626 1170.42 111.04C1169.84 112.455 1169 113.535 1167.9 114.281C1166.81 115.027 1165.5 115.4 1163.97 115.4ZM1163.97 112.212C1165.01 112.212 1165.84 111.689 1166.47 110.641C1167.09 109.593 1167.39 108.022 1167.39 105.927C1167.39 104.548 1167.25 103.4 1166.96 102.482C1166.68 101.565 1166.29 100.875 1165.77 100.414C1165.26 99.9521 1164.66 99.7212 1163.97 99.7212C1162.94 99.7212 1162.11 100.239 1161.48 101.275C1160.86 102.311 1160.55 103.861 1160.54 105.927C1160.54 107.324 1160.68 108.49 1160.96 109.425C1161.25 110.354 1161.64 111.052 1162.16 111.52C1162.67 111.982 1163.28 112.212 1163.97 112.212ZM1181.18 115.4C1179.66 115.394 1178.34 115.018 1177.24 114.272C1176.15 113.526 1175.3 112.446 1174.71 111.032C1174.12 109.617 1173.83 107.915 1173.84 105.927C1173.84 103.944 1174.13 102.254 1174.72 100.858C1175.31 99.4608 1176.15 98.3984 1177.25 97.6705C1178.35 96.9366 1179.66 96.5696 1181.18 96.5696C1182.7 96.5696 1184.01 96.9366 1185.11 97.6705C1186.21 98.4044 1187.05 99.4697 1187.65 100.866C1188.24 102.257 1188.53 103.944 1188.52 105.927C1188.52 107.921 1188.23 109.626 1187.64 111.04C1187.05 112.455 1186.21 113.535 1185.12 114.281C1184.02 115.027 1182.71 115.4 1181.18 115.4ZM1181.18 112.212C1182.22 112.212 1183.06 111.689 1183.68 110.641C1184.3 109.593 1184.61 108.022 1184.6 105.927C1184.6 104.548 1184.46 103.4 1184.17 102.482C1183.9 101.565 1183.5 100.875 1182.98 100.414C1182.48 99.9521 1181.88 99.7212 1181.18 99.7212C1180.15 99.7212 1179.32 100.239 1178.7 101.275C1178.08 102.311 1177.76 103.861 1177.76 105.927C1177.76 107.324 1177.89 108.49 1178.17 109.425C1178.46 110.354 1178.86 111.052 1179.37 111.52C1179.89 111.982 1180.49 112.212 1181.18 112.212ZM1205.08 99.6946C1204.38 99.6946 1203.86 99.8337 1203.51 100.112C1203.16 100.39 1202.97 100.79 1202.95 101.31H1199.08C1199.14 100.292 1199.4 99.4312 1199.86 98.7269C1200.31 98.0226 1200.97 97.487 1201.82 97.12C1202.68 96.7531 1203.74 96.5696 1205.01 96.5696C1206.27 96.5696 1207.34 96.7442 1208.21 97.0934C1209.09 97.4426 1209.76 97.9279 1210.22 98.5494C1210.67 99.1708 1210.9 99.8988 1210.9 100.733C1210.9 101.13 1210.82 101.509 1210.67 101.87C1210.52 102.225 1210.31 102.55 1210.06 102.846C1209.8 103.136 1209.53 103.391 1209.23 103.61L1206.17 102.793C1206.48 102.556 1206.72 102.296 1206.87 102.012C1207.03 101.728 1207.11 101.402 1207.1 101.035C1207.11 100.627 1206.94 100.301 1206.6 100.059C1206.25 99.8159 1205.75 99.6946 1205.08 99.6946ZM1212.07 105.146H1197.84V102.598H1212.07V105.146ZM1212.07 108.972H1197.84V106.486H1212.07V108.972ZM1205.01 115.249C1202.96 115.249 1201.42 114.858 1200.37 114.077C1199.33 113.295 1198.81 112.224 1198.8 110.863C1198.81 110.455 1198.9 110.058 1199.07 109.673C1199.24 109.289 1199.46 108.942 1199.74 108.635C1200.02 108.327 1200.32 108.087 1200.66 107.915L1203.69 108.661C1203.35 108.898 1203.09 109.191 1202.91 109.54C1202.73 109.889 1202.64 110.23 1202.64 110.561C1202.64 111.07 1202.85 111.464 1203.28 111.742C1203.7 112.02 1204.28 112.159 1205.01 112.159C1205.73 112.159 1206.32 112.02 1206.76 111.742C1207.21 111.464 1207.46 110.984 1207.49 110.304H1211.41C1211.34 111.446 1211.07 112.381 1210.6 113.109C1210.13 113.837 1209.44 114.376 1208.51 114.725C1207.59 115.074 1206.42 115.249 1205.01 115.249Z" fill="#14142A"/>
<mask id="path-8-inside-2_292_2005" fill="white">
<path d="M0.775391 140H1252.78V210H0.775391V140Z"/>
</mask>
<path d="M0.775391 140H1252.78V210H0.775391V140Z" fill="white"/>
<path d="M0.775391 140V139H-0.224609V140H0.775391ZM1252.78 140H1253.78V139H1252.78V140ZM1252.78 210V211H1253.78V210H1252.78ZM0.775391 210H-0.224609V211H0.775391V210ZM0.775391 141H1252.78V139H0.775391V141ZM1251.78 140V210H1253.78V140H1251.78ZM1252.78 209H0.775391V211H1252.78V209ZM1.77539 210V140H-0.224609V210H1.77539Z" fill="#FE68A4" mask="url(#path-8-inside-2_292_2005)"/>
<path d="M27.166 183.5V167.5H30.5488V174.102H37.416V167.5H40.791V183.5H37.416V176.891H30.5488V183.5H27.166ZM46.9395 183.727C46.1738 183.727 45.4915 183.594 44.8926 183.328C44.2936 183.057 43.8197 182.659 43.4707 182.133C43.127 181.602 42.9551 180.94 42.9551 180.148C42.9551 179.482 43.0775 178.922 43.3223 178.469C43.5671 178.016 43.9004 177.651 44.3223 177.375C44.7441 177.099 45.2233 176.891 45.7598 176.75C46.3014 176.609 46.8691 176.51 47.4629 176.453C48.1608 176.38 48.7233 176.312 49.1504 176.25C49.5775 176.182 49.8874 176.083 50.0801 175.953C50.2728 175.823 50.3691 175.63 50.3691 175.375V175.328C50.3691 174.833 50.2129 174.451 49.9004 174.18C49.5931 173.909 49.1556 173.773 48.5879 173.773C47.9889 173.773 47.5124 173.906 47.1582 174.172C46.804 174.432 46.5697 174.76 46.4551 175.156L43.377 174.906C43.5332 174.177 43.8405 173.547 44.2988 173.016C44.7572 172.479 45.3483 172.068 46.0723 171.781C46.8014 171.49 47.6452 171.344 48.6035 171.344C49.2702 171.344 49.9082 171.422 50.5176 171.578C51.1322 171.734 51.6764 171.977 52.1504 172.305C52.6296 172.633 53.0072 173.055 53.2832 173.57C53.5592 174.081 53.6973 174.693 53.6973 175.406V183.5H50.541V181.836H50.4473C50.2546 182.211 49.9967 182.542 49.6738 182.828C49.3509 183.109 48.9629 183.331 48.5098 183.492C48.0566 183.648 47.5332 183.727 46.9395 183.727ZM47.8926 181.43C48.3822 181.43 48.8145 181.333 49.1895 181.141C49.5645 180.943 49.8587 180.677 50.0723 180.344C50.2858 180.01 50.3926 179.633 50.3926 179.211V177.938C50.2884 178.005 50.1452 178.068 49.9629 178.125C49.7858 178.177 49.5853 178.227 49.3613 178.273C49.1374 178.315 48.9134 178.354 48.6895 178.391C48.4655 178.422 48.2624 178.451 48.0801 178.477C47.6895 178.534 47.3483 178.625 47.0566 178.75C46.765 178.875 46.5384 179.044 46.377 179.258C46.2155 179.466 46.1348 179.727 46.1348 180.039C46.1348 180.492 46.2988 180.839 46.627 181.078C46.9603 181.312 47.3822 181.43 47.8926 181.43ZM56.2793 183.5V171.5H59.6074V183.5H56.2793ZM57.9512 169.953C57.4564 169.953 57.0319 169.789 56.6777 169.461C56.3288 169.128 56.1543 168.729 56.1543 168.266C56.1543 167.807 56.3288 167.414 56.6777 167.086C57.0319 166.753 57.4564 166.586 57.9512 166.586C58.446 166.586 58.8678 166.753 59.2168 167.086C59.571 167.414 59.748 167.807 59.748 168.266C59.748 168.729 59.571 169.128 59.2168 169.461C58.8678 169.789 58.446 169.953 57.9512 169.953ZM62.2734 183.5V171.5H65.5V173.594H65.625C65.8438 172.849 66.2109 172.286 66.7266 171.906C67.2422 171.521 67.8359 171.328 68.5078 171.328C68.6745 171.328 68.8542 171.339 69.0469 171.359C69.2396 171.38 69.4089 171.409 69.5547 171.445V174.398C69.3984 174.352 69.1823 174.31 68.9063 174.273C68.6302 174.237 68.3776 174.219 68.1484 174.219C67.6589 174.219 67.2214 174.326 66.8359 174.539C66.4557 174.747 66.1536 175.039 65.9297 175.414C65.7109 175.789 65.6016 176.221 65.6016 176.711V183.5H62.2734ZM76.4297 183.5V167.5H87.0234V170.289H79.8125V174.102H86.3203V176.891H79.8125V183.5H76.4297ZM89.2363 183.5V171.5H92.5645V183.5H89.2363ZM90.9082 169.953C90.4134 169.953 89.9889 169.789 89.6348 169.461C89.2858 169.128 89.1113 168.729 89.1113 168.266C89.1113 167.807 89.2858 167.414 89.6348 167.086C89.9889 166.753 90.4134 166.586 90.9082 166.586C91.403 166.586 91.8249 166.753 92.1738 167.086C92.528 167.414 92.7051 167.807 92.7051 168.266C92.7051 168.729 92.528 169.128 92.1738 169.461C91.8249 169.789 91.403 169.953 90.9082 169.953ZM98.5586 167.5V183.5H95.2305V167.5H98.5586ZM104.553 167.5V183.5H101.225V167.5H104.553ZM112.688 183.734C111.453 183.734 110.391 183.484 109.5 182.984C108.615 182.479 107.932 181.766 107.453 180.844C106.974 179.917 106.734 178.82 106.734 177.555C106.734 176.32 106.974 175.237 107.453 174.305C107.932 173.372 108.607 172.646 109.477 172.125C110.352 171.604 111.378 171.344 112.555 171.344C113.346 171.344 114.083 171.471 114.766 171.727C115.453 171.977 116.052 172.354 116.563 172.859C117.078 173.365 117.479 174 117.766 174.766C118.052 175.526 118.195 176.417 118.195 177.437V178.352H108.063V176.289H115.063C115.063 175.81 114.958 175.385 114.75 175.016C114.542 174.646 114.253 174.357 113.883 174.148C113.518 173.935 113.094 173.828 112.609 173.828C112.104 173.828 111.656 173.945 111.266 174.18C110.88 174.409 110.578 174.719 110.359 175.109C110.141 175.495 110.029 175.924 110.023 176.398V178.359C110.023 178.953 110.133 179.466 110.352 179.898C110.576 180.331 110.891 180.664 111.297 180.898C111.703 181.133 112.185 181.25 112.742 181.25C113.112 181.25 113.451 181.198 113.758 181.094C114.065 180.99 114.328 180.833 114.547 180.625C114.766 180.417 114.932 180.161 115.047 179.859L118.125 180.062C117.969 180.802 117.648 181.448 117.164 182C116.685 182.547 116.065 182.974 115.305 183.281C114.549 183.583 113.677 183.734 112.688 183.734ZM120.367 183.5V171.5H123.594V173.594H123.719C123.938 172.849 124.305 172.286 124.82 171.906C125.336 171.521 125.93 171.328 126.602 171.328C126.768 171.328 126.948 171.339 127.141 171.359C127.333 171.38 127.503 171.409 127.648 171.445V174.398C127.492 174.352 127.276 174.31 127 174.273C126.724 174.237 126.471 174.219 126.242 174.219C125.753 174.219 125.315 174.326 124.93 174.539C124.549 174.747 124.247 175.039 124.023 175.414C123.805 175.789 123.695 176.221 123.695 176.711V183.5H120.367ZM141.391 167.5V183.5H138.008V170.711H137.914L134.25 173.008V170.008L138.211 167.5H141.391ZM150.316 183.5V171.5H153.488V173.617H153.629C153.879 172.914 154.296 172.359 154.879 171.953C155.462 171.547 156.16 171.344 156.973 171.344C157.796 171.344 158.496 171.549 159.074 171.961C159.652 172.367 160.038 172.919 160.23 173.617H160.355C160.6 172.93 161.043 172.38 161.684 171.969C162.329 171.552 163.092 171.344 163.973 171.344C165.092 171.344 166.001 171.701 166.699 172.414C167.402 173.122 167.754 174.128 167.754 175.43V183.5H164.434V176.086C164.434 175.419 164.257 174.919 163.902 174.586C163.548 174.253 163.105 174.086 162.574 174.086C161.97 174.086 161.499 174.279 161.16 174.664C160.822 175.044 160.652 175.547 160.652 176.172V183.5H157.426V176.016C157.426 175.427 157.257 174.958 156.918 174.609C156.585 174.26 156.145 174.086 155.598 174.086C155.228 174.086 154.895 174.18 154.598 174.367C154.306 174.549 154.074 174.807 153.902 175.141C153.73 175.469 153.645 175.854 153.645 176.297V183.5H150.316ZM173.711 167.5V183.5H170.383V167.5H173.711Z" fill="black"/>
<path d="M1130.97 184.249C1129.64 184.249 1128.46 184.021 1127.43 183.565C1126.4 183.103 1125.58 182.47 1124.99 181.665C1124.39 180.854 1124.09 179.919 1124.07 178.86H1127.94C1127.97 179.304 1128.11 179.694 1128.38 180.032C1128.65 180.363 1129.01 180.621 1129.46 180.804C1129.91 180.987 1130.42 181.079 1130.98 181.079C1131.56 181.079 1132.08 180.976 1132.53 180.768C1132.98 180.561 1133.33 180.274 1133.59 179.907C1133.84 179.54 1133.97 179.117 1133.97 178.638C1133.97 178.152 1133.83 177.723 1133.56 177.35C1133.3 176.972 1132.91 176.676 1132.41 176.463C1131.91 176.25 1131.32 176.143 1130.63 176.143H1128.94V173.32H1130.63C1131.21 173.32 1131.72 173.219 1132.17 173.018C1132.62 172.817 1132.97 172.539 1133.22 172.184C1133.46 171.823 1133.59 171.402 1133.59 170.923C1133.59 170.467 1133.48 170.068 1133.26 169.724C1133.05 169.375 1132.75 169.103 1132.35 168.908C1131.97 168.712 1131.52 168.615 1131.01 168.615C1130.48 168.615 1130.01 168.709 1129.58 168.899C1129.14 169.082 1128.8 169.346 1128.54 169.689C1128.28 170.032 1128.14 170.435 1128.12 170.896H1124.44C1124.45 169.849 1124.75 168.925 1125.33 168.126C1125.91 167.327 1126.69 166.703 1127.68 166.253C1128.66 165.797 1129.78 165.57 1131.02 165.57C1132.28 165.57 1133.38 165.797 1134.32 166.253C1135.26 166.709 1135.99 167.324 1136.51 168.1C1137.04 168.869 1137.3 169.733 1137.29 170.692C1137.3 171.71 1136.98 172.559 1136.34 173.24C1135.71 173.921 1134.88 174.353 1133.86 174.536V174.678C1135.2 174.85 1136.22 175.315 1136.92 176.072C1137.62 176.824 1137.97 177.765 1137.97 178.895C1137.97 179.931 1137.67 180.851 1137.07 181.656C1136.47 182.461 1135.65 183.094 1134.59 183.556C1133.54 184.018 1132.33 184.249 1130.97 184.249ZM1147.86 184.4C1146.33 184.394 1145.02 184.018 1143.92 183.272C1142.82 182.526 1141.98 181.446 1141.39 180.032C1140.8 178.617 1140.51 176.915 1140.52 174.927C1140.52 172.944 1140.81 171.254 1141.39 169.858C1141.99 168.461 1142.83 167.398 1143.92 166.67C1145.03 165.937 1146.34 165.57 1147.86 165.57C1149.38 165.57 1150.69 165.937 1151.78 166.67C1152.88 167.404 1153.73 168.47 1154.32 169.866C1154.91 171.257 1155.21 172.944 1155.2 174.927C1155.2 176.921 1154.9 178.626 1154.31 180.04C1153.73 181.455 1152.89 182.535 1151.79 183.281C1150.7 184.027 1149.38 184.4 1147.86 184.4ZM1147.86 181.212C1148.9 181.212 1149.73 180.689 1150.35 179.641C1150.97 178.593 1151.28 177.022 1151.28 174.927C1151.28 173.548 1151.13 172.4 1150.85 171.482C1150.57 170.565 1150.17 169.875 1149.66 169.414C1149.15 168.952 1148.55 168.721 1147.86 168.721C1146.82 168.721 1145.99 169.239 1145.37 170.275C1144.75 171.311 1144.44 172.861 1144.43 174.927C1144.43 176.324 1144.57 177.49 1144.85 178.425C1145.13 179.354 1145.53 180.052 1146.05 180.52C1146.56 180.982 1147.17 181.212 1147.86 181.212ZM1165.07 184.4C1163.54 184.394 1162.23 184.018 1161.13 183.272C1160.03 182.526 1159.19 181.446 1158.6 180.032C1158.01 178.617 1157.72 176.915 1157.73 174.927C1157.73 172.944 1158.02 171.254 1158.61 169.858C1159.2 168.461 1160.04 167.398 1161.14 166.67C1162.24 165.937 1163.55 165.57 1165.07 165.57C1166.59 165.57 1167.9 165.937 1168.99 166.67C1170.09 167.404 1170.94 168.47 1171.53 169.866C1172.12 171.257 1172.42 172.944 1172.41 174.927C1172.41 176.921 1172.12 178.626 1171.52 180.04C1170.94 181.455 1170.1 182.535 1169 183.281C1167.91 184.027 1166.6 184.4 1165.07 184.4ZM1165.07 181.212C1166.11 181.212 1166.94 180.689 1167.56 179.641C1168.19 178.593 1168.49 177.022 1168.49 174.927C1168.49 173.548 1168.35 172.4 1168.06 171.482C1167.78 170.565 1167.39 169.875 1166.87 169.414C1166.36 168.952 1165.76 168.721 1165.07 168.721C1164.03 168.721 1163.21 169.239 1162.58 170.275C1161.96 171.311 1161.65 172.861 1161.64 174.927C1161.64 176.324 1161.78 177.49 1162.06 178.425C1162.34 179.354 1162.74 180.052 1163.26 180.52C1163.77 180.982 1164.38 181.212 1165.07 181.212ZM1182.28 184.4C1180.75 184.394 1179.44 184.018 1178.34 183.272C1177.24 182.526 1176.4 181.446 1175.81 180.032C1175.22 178.617 1174.93 176.915 1174.94 174.927C1174.94 172.944 1175.23 171.254 1175.82 169.858C1176.41 168.461 1177.25 167.398 1178.35 166.67C1179.45 165.937 1180.76 165.57 1182.28 165.57C1183.8 165.57 1185.11 165.937 1186.21 166.67C1187.31 167.404 1188.15 168.47 1188.74 169.866C1189.34 171.257 1189.63 172.944 1189.62 174.927C1189.62 176.921 1189.33 178.626 1188.74 180.04C1188.15 181.455 1187.31 182.535 1186.21 183.281C1185.12 184.027 1183.81 184.4 1182.28 184.4ZM1182.28 181.212C1183.32 181.212 1184.15 180.689 1184.78 179.641C1185.4 178.593 1185.71 177.022 1185.7 174.927C1185.7 173.548 1185.56 172.4 1185.27 171.482C1184.99 170.565 1184.6 169.875 1184.08 169.414C1183.57 168.952 1182.97 168.721 1182.28 168.721C1181.25 168.721 1180.42 169.239 1179.8 170.275C1179.17 171.311 1178.86 172.861 1178.85 174.927C1178.85 176.324 1178.99 177.49 1179.27 178.425C1179.56 179.354 1179.96 180.052 1180.47 180.52C1180.99 180.982 1181.59 181.212 1182.28 181.212ZM1206.18 168.695C1205.48 168.695 1204.96 168.834 1204.6 169.112C1204.26 169.39 1204.07 169.79 1204.05 170.31H1200.17C1200.24 169.292 1200.5 168.431 1200.96 167.727C1201.41 167.023 1202.07 166.487 1202.92 166.12C1203.78 165.753 1204.84 165.57 1206.11 165.57C1207.37 165.57 1208.43 165.744 1209.31 166.093C1210.19 166.443 1210.86 166.928 1211.32 167.549C1211.77 168.171 1212 168.899 1212 169.733C1212 170.13 1211.92 170.509 1211.77 170.87C1211.62 171.225 1211.41 171.55 1211.16 171.846C1210.9 172.136 1210.63 172.391 1210.33 172.61L1207.27 171.793C1207.58 171.556 1207.82 171.296 1207.97 171.012C1208.13 170.728 1208.21 170.402 1208.2 170.035C1208.21 169.627 1208.04 169.301 1207.69 169.059C1207.35 168.816 1206.84 168.695 1206.18 168.695ZM1213.17 174.146H1198.94V171.598H1213.17V174.146ZM1213.17 177.972H1198.94V175.486H1213.17V177.972ZM1206.11 184.249C1204.06 184.249 1202.52 183.858 1201.47 183.077C1200.43 182.295 1199.91 181.224 1199.9 179.863C1199.91 179.455 1199.99 179.058 1200.17 178.673C1200.34 178.289 1200.56 177.942 1200.84 177.635C1201.12 177.327 1201.42 177.087 1201.75 176.915L1204.79 177.661C1204.45 177.898 1204.19 178.191 1204.01 178.54C1203.83 178.889 1203.74 179.23 1203.73 179.561C1203.74 180.07 1203.95 180.464 1204.37 180.742C1204.8 181.02 1205.38 181.159 1206.11 181.159C1206.83 181.159 1207.42 181.02 1207.86 180.742C1208.31 180.464 1208.56 179.984 1208.59 179.304H1212.51C1212.44 180.446 1212.17 181.381 1211.7 182.109C1211.23 182.837 1210.54 183.376 1209.61 183.725C1208.69 184.074 1207.52 184.249 1206.11 184.249Z" fill="#14142A"/>
<path d="M1.27539 209.5H1252.28V259C1252.28 269.77 1243.54 278.5 1232.78 278.5H20.7754C10.0059 278.5 1.27539 269.77 1.27539 259V209.5Z" fill="white"/>
<path d="M1.27539 209.5H1252.28V259C1252.28 269.77 1243.54 278.5 1232.78 278.5H20.7754C10.0059 278.5 1.27539 269.77 1.27539 259V209.5Z" stroke="#FE68A4"/>
<path d="M36.8457 252.5L31.7051 245.68H30.5488V252.5H27.166V236.5H30.5488V242.891H31.2285L36.541 236.5H40.752L34.5098 243.922L41.041 252.5H36.8457ZM43.8535 257C43.4316 257 43.0358 256.966 42.666 256.898C42.3014 256.836 41.9993 256.755 41.7598 256.656L42.5098 254.172C42.9004 254.292 43.252 254.357 43.5645 254.367C43.8822 254.378 44.1556 254.305 44.3848 254.148C44.6191 253.992 44.8092 253.727 44.9551 253.352L45.1504 252.844L40.8457 240.5H44.3457L46.8301 249.312H46.9551L49.4629 240.5H52.9863L48.3223 253.797C48.0983 254.443 47.7936 255.005 47.4082 255.484C47.028 255.969 46.5462 256.341 45.9629 256.602C45.3796 256.867 44.6764 257 43.8535 257ZM54.6895 257V240.5H57.9707V242.516H58.1191C58.265 242.193 58.4759 241.865 58.752 241.531C59.0332 241.193 59.3978 240.911 59.8457 240.688C60.2988 240.458 60.8613 240.344 61.5332 240.344C62.4082 240.344 63.2155 240.573 63.9551 241.031C64.6947 241.484 65.2858 242.169 65.7285 243.086C66.1712 243.997 66.3926 245.141 66.3926 246.516C66.3926 247.854 66.1764 248.984 65.7441 249.906C65.3171 250.823 64.7337 251.518 63.9941 251.992C63.2598 252.461 62.4368 252.695 61.5254 252.695C60.8796 252.695 60.3301 252.589 59.877 252.375C59.429 252.161 59.0618 251.893 58.7754 251.57C58.4889 251.242 58.2702 250.911 58.1191 250.578H58.0176V257H54.6895ZM57.9473 246.5C57.9473 247.214 58.0462 247.836 58.2441 248.367C58.4421 248.898 58.7285 249.312 59.1035 249.609C59.4785 249.901 59.9342 250.047 60.4707 250.047C61.0124 250.047 61.4707 249.898 61.8457 249.602C62.2207 249.299 62.5046 248.883 62.6973 248.352C62.8952 247.815 62.9941 247.198 62.9941 246.5C62.9941 245.807 62.8978 245.198 62.7051 244.672C62.5124 244.146 62.2285 243.734 61.8535 243.437C61.4785 243.141 61.0176 242.992 60.4707 242.992C59.929 242.992 59.4707 243.135 59.0957 243.422C58.7259 243.708 58.4421 244.115 58.2441 244.641C58.0462 245.167 57.9473 245.786 57.9473 246.5ZM74.0332 252.734C72.804 252.734 71.7467 252.474 70.8613 251.953C69.9811 251.427 69.304 250.698 68.8301 249.766C68.3613 248.833 68.127 247.76 68.127 246.547C68.127 245.318 68.3639 244.24 68.8379 243.312C69.3171 242.38 69.9967 241.654 70.877 241.133C71.7572 240.607 72.804 240.344 74.0176 240.344C75.0645 240.344 75.9811 240.534 76.7676 240.914C77.554 241.294 78.1764 241.828 78.6348 242.516C79.0931 243.203 79.3457 244.01 79.3926 244.938H76.252C76.1634 244.339 75.929 243.857 75.5488 243.492C75.1738 243.122 74.6816 242.937 74.0723 242.937C73.5566 242.937 73.1061 243.078 72.7207 243.359C72.3405 243.635 72.0436 244.039 71.8301 244.57C71.6165 245.102 71.5098 245.745 71.5098 246.5C71.5098 247.266 71.6139 247.917 71.8223 248.453C72.0358 248.99 72.3353 249.398 72.7207 249.68C73.1061 249.961 73.5566 250.102 74.0723 250.102C74.4525 250.102 74.7936 250.023 75.0957 249.867C75.403 249.711 75.6556 249.484 75.8535 249.187C76.0566 248.885 76.1895 248.523 76.252 248.102H79.3926C79.3405 249.018 79.0905 249.826 78.6426 250.523C78.1999 251.216 77.5879 251.758 76.8066 252.148C76.0254 252.539 75.1009 252.734 74.0332 252.734ZM86.3418 249.688V247.023L93.0215 236.5H95.3184V240.187H93.959L89.748 246.852V246.977H99.2402V249.688H86.3418ZM94.0215 252.5V248.875L94.084 247.695V236.5H97.2559V252.5H94.0215ZM109.002 243.18V245.82H101.705V243.18H109.002ZM117.947 252.719C117.124 252.714 116.33 252.576 115.564 252.305C114.804 252.034 114.122 251.594 113.518 250.984C112.913 250.375 112.434 249.568 112.08 248.562C111.731 247.557 111.557 246.323 111.557 244.859C111.562 243.516 111.715 242.315 112.018 241.258C112.325 240.195 112.762 239.294 113.33 238.555C113.903 237.815 114.588 237.253 115.385 236.867C116.182 236.477 117.075 236.281 118.064 236.281C119.132 236.281 120.075 236.49 120.893 236.906C121.71 237.318 122.367 237.878 122.861 238.586C123.361 239.294 123.663 240.089 123.768 240.969H120.432C120.301 240.411 120.028 239.974 119.611 239.656C119.195 239.339 118.679 239.18 118.064 239.18C117.023 239.18 116.231 239.633 115.689 240.539C115.153 241.445 114.88 242.677 114.869 244.234H114.979C115.218 243.76 115.541 243.357 115.947 243.023C116.359 242.685 116.825 242.427 117.346 242.25C117.872 242.068 118.426 241.977 119.01 241.977C119.958 241.977 120.801 242.201 121.541 242.648C122.281 243.091 122.864 243.701 123.291 244.477C123.718 245.253 123.932 246.141 123.932 247.141C123.932 248.224 123.679 249.187 123.174 250.031C122.674 250.875 121.973 251.536 121.072 252.016C120.176 252.49 119.135 252.724 117.947 252.719ZM117.932 250.062C118.452 250.062 118.919 249.937 119.33 249.688C119.742 249.437 120.064 249.099 120.299 248.672C120.533 248.245 120.65 247.766 120.65 247.234C120.65 246.703 120.533 246.227 120.299 245.805C120.07 245.383 119.752 245.047 119.346 244.797C118.939 244.547 118.476 244.422 117.955 244.422C117.564 244.422 117.202 244.495 116.869 244.641C116.541 244.786 116.252 244.99 116.002 245.25C115.757 245.51 115.564 245.812 115.424 246.156C115.283 246.495 115.213 246.857 115.213 247.242C115.213 247.758 115.33 248.229 115.564 248.656C115.804 249.083 116.127 249.424 116.533 249.68C116.945 249.935 117.411 250.062 117.932 250.062ZM130.836 249.102H134.063C134.078 249.497 134.255 249.81 134.594 250.039C134.932 250.268 135.37 250.383 135.906 250.383C136.448 250.383 136.904 250.258 137.273 250.008C137.643 249.753 137.828 249.388 137.828 248.914C137.828 248.622 137.755 248.37 137.609 248.156C137.464 247.937 137.26 247.766 137 247.641C136.74 247.516 136.437 247.453 136.094 247.453H134.367V245.273H136.094C136.609 245.273 137.005 245.154 137.281 244.914C137.563 244.674 137.703 244.375 137.703 244.016C137.703 243.609 137.557 243.284 137.266 243.039C136.979 242.789 136.591 242.664 136.102 242.664C135.607 242.664 135.195 242.776 134.867 243C134.544 243.219 134.378 243.505 134.367 243.859H131.156C131.167 243.141 131.383 242.518 131.805 241.992C132.232 241.466 132.805 241.06 133.523 240.773C134.247 240.487 135.057 240.344 135.953 240.344C136.932 240.344 137.776 240.482 138.484 240.758C139.198 241.029 139.745 241.417 140.125 241.922C140.51 242.427 140.703 243.029 140.703 243.727C140.703 244.362 140.495 244.893 140.078 245.32C139.661 245.747 139.078 246.052 138.328 246.234V246.359C138.823 246.391 139.271 246.523 139.672 246.758C140.073 246.992 140.393 247.315 140.633 247.727C140.872 248.133 140.992 248.615 140.992 249.172C140.992 249.917 140.773 250.555 140.336 251.086C139.904 251.617 139.305 252.026 138.539 252.312C137.779 252.594 136.906 252.734 135.922 252.734C134.964 252.734 134.104 252.596 133.344 252.32C132.589 252.039 131.987 251.628 131.539 251.086C131.096 250.544 130.862 249.883 130.836 249.102ZM148.125 252.5V240.5H151.453V252.5H148.125ZM149.797 238.953C149.302 238.953 148.878 238.789 148.523 238.461C148.174 238.128 148 237.729 148 237.266C148 236.807 148.174 236.414 148.523 236.086C148.878 235.753 149.302 235.586 149.797 235.586C150.292 235.586 150.714 235.753 151.063 236.086C151.417 236.414 151.594 236.807 151.594 237.266C151.594 237.729 151.417 238.128 151.063 238.461C150.714 238.789 150.292 238.953 149.797 238.953ZM162.471 245.172V247.789H156.205V245.172H162.471ZM157.299 240.5V252.5H154.119V240.5H157.299ZM164.557 240.5V252.5H161.4V240.5H164.557ZM165.934 243.117V240.5H176.809V243.117H172.941V252.5H169.77V243.117H165.934ZM183.865 252.734C182.631 252.734 181.568 252.484 180.678 251.984C179.792 251.479 179.11 250.766 178.631 249.844C178.152 248.917 177.912 247.82 177.912 246.555C177.912 245.32 178.152 244.237 178.631 243.305C179.11 242.372 179.785 241.646 180.654 241.125C181.529 240.604 182.555 240.344 183.732 240.344C184.524 240.344 185.261 240.471 185.943 240.727C186.631 240.977 187.23 241.354 187.74 241.859C188.256 242.365 188.657 243 188.943 243.766C189.23 244.526 189.373 245.417 189.373 246.437V247.352H179.24V245.289H186.24C186.24 244.81 186.136 244.385 185.928 244.016C185.719 243.646 185.43 243.357 185.061 243.148C184.696 242.935 184.271 242.828 183.787 242.828C183.282 242.828 182.834 242.945 182.443 243.18C182.058 243.409 181.756 243.719 181.537 244.109C181.318 244.495 181.206 244.924 181.201 245.398V247.359C181.201 247.953 181.311 248.466 181.529 248.898C181.753 249.331 182.068 249.664 182.475 249.898C182.881 250.133 183.363 250.25 183.92 250.25C184.29 250.25 184.628 250.198 184.936 250.094C185.243 249.99 185.506 249.833 185.725 249.625C185.943 249.417 186.11 249.161 186.225 248.859L189.303 249.062C189.146 249.802 188.826 250.448 188.342 251C187.863 251.547 187.243 251.974 186.482 252.281C185.727 252.583 184.855 252.734 183.865 252.734ZM191.545 257V240.5H194.826V242.516H194.975C195.12 242.193 195.331 241.865 195.607 241.531C195.889 241.193 196.253 240.911 196.701 240.688C197.154 240.458 197.717 240.344 198.389 240.344C199.264 240.344 200.071 240.573 200.811 241.031C201.55 241.484 202.141 242.169 202.584 243.086C203.027 243.997 203.248 245.141 203.248 246.516C203.248 247.854 203.032 248.984 202.6 249.906C202.173 250.823 201.589 251.518 200.85 251.992C200.115 252.461 199.292 252.695 198.381 252.695C197.735 252.695 197.186 252.589 196.732 252.375C196.285 252.161 195.917 251.893 195.631 251.57C195.344 251.242 195.126 250.911 194.975 250.578H194.873V257H191.545ZM194.803 246.5C194.803 247.214 194.902 247.836 195.1 248.367C195.298 248.898 195.584 249.312 195.959 249.609C196.334 249.901 196.79 250.047 197.326 250.047C197.868 250.047 198.326 249.898 198.701 249.602C199.076 249.299 199.36 248.883 199.553 248.352C199.751 247.815 199.85 247.198 199.85 246.5C199.85 245.807 199.753 245.198 199.561 244.672C199.368 244.146 199.084 243.734 198.709 243.437C198.334 243.141 197.873 242.992 197.326 242.992C196.785 242.992 196.326 243.135 195.951 243.422C195.581 243.708 195.298 244.115 195.1 244.641C194.902 245.167 194.803 245.786 194.803 246.5ZM205.467 252.5V240.5H210.584C212.063 240.5 213.232 240.781 214.092 241.344C214.951 241.906 215.381 242.706 215.381 243.742C215.381 244.393 215.139 244.935 214.654 245.367C214.17 245.799 213.498 246.091 212.639 246.242C213.357 246.294 213.969 246.458 214.475 246.734C214.985 247.005 215.373 247.357 215.639 247.789C215.91 248.221 216.045 248.701 216.045 249.227C216.045 249.909 215.863 250.495 215.498 250.984C215.139 251.474 214.61 251.849 213.912 252.109C213.219 252.37 212.373 252.5 211.373 252.5H205.467ZM208.568 250.008H211.373C211.837 250.008 212.199 249.898 212.459 249.68C212.725 249.456 212.857 249.151 212.857 248.766C212.857 248.339 212.725 248.003 212.459 247.758C212.199 247.513 211.837 247.391 211.373 247.391H208.568V250.008ZM208.568 245.437H210.654C210.988 245.437 211.271 245.391 211.506 245.297C211.745 245.198 211.928 245.057 212.053 244.875C212.183 244.693 212.248 244.477 212.248 244.227C212.248 243.857 212.1 243.568 211.803 243.359C211.506 243.151 211.1 243.047 210.584 243.047H208.568V245.437ZM221.564 252.727C220.799 252.727 220.117 252.594 219.518 252.328C218.919 252.057 218.445 251.659 218.096 251.133C217.752 250.602 217.58 249.94 217.58 249.148C217.58 248.482 217.702 247.922 217.947 247.469C218.192 247.016 218.525 246.651 218.947 246.375C219.369 246.099 219.848 245.891 220.385 245.75C220.926 245.609 221.494 245.51 222.088 245.453C222.786 245.38 223.348 245.312 223.775 245.25C224.202 245.182 224.512 245.083 224.705 244.953C224.898 244.823 224.994 244.63 224.994 244.375V244.328C224.994 243.833 224.838 243.451 224.525 243.18C224.218 242.909 223.781 242.773 223.213 242.773C222.614 242.773 222.137 242.906 221.783 243.172C221.429 243.432 221.195 243.76 221.08 244.156L218.002 243.906C218.158 243.177 218.465 242.547 218.924 242.016C219.382 241.479 219.973 241.068 220.697 240.781C221.426 240.49 222.27 240.344 223.229 240.344C223.895 240.344 224.533 240.422 225.143 240.578C225.757 240.734 226.301 240.977 226.775 241.305C227.255 241.633 227.632 242.055 227.908 242.57C228.184 243.081 228.322 243.693 228.322 244.406V252.5H225.166V250.836H225.072C224.88 251.211 224.622 251.542 224.299 251.828C223.976 252.109 223.588 252.331 223.135 252.492C222.682 252.648 222.158 252.727 221.564 252.727ZM222.518 250.43C223.007 250.43 223.439 250.333 223.814 250.141C224.189 249.943 224.484 249.677 224.697 249.344C224.911 249.01 225.018 248.633 225.018 248.211V246.938C224.913 247.005 224.77 247.068 224.588 247.125C224.411 247.177 224.21 247.227 223.986 247.273C223.762 247.315 223.538 247.354 223.314 247.391C223.09 247.422 222.887 247.451 222.705 247.477C222.314 247.534 221.973 247.625 221.682 247.75C221.39 247.875 221.163 248.044 221.002 248.258C220.84 248.466 220.76 248.727 220.76 249.039C220.76 249.492 220.924 249.839 221.252 250.078C221.585 250.312 222.007 250.43 222.518 250.43ZM230.201 252.5L230.186 249.859H230.584C230.865 249.859 231.107 249.792 231.311 249.656C231.519 249.516 231.691 249.289 231.826 248.977C231.962 248.664 232.068 248.25 232.146 247.734C232.225 247.214 232.277 246.573 232.303 245.812L232.498 240.5H241.623V252.5H238.451V243.117H235.49L235.303 246.781C235.256 247.786 235.133 248.651 234.936 249.375C234.743 250.099 234.475 250.693 234.131 251.156C233.787 251.615 233.373 251.953 232.889 252.172C232.404 252.391 231.842 252.5 231.201 252.5H230.201ZM249.625 252.734C248.411 252.734 247.362 252.477 246.477 251.961C245.596 251.44 244.917 250.716 244.437 249.789C243.958 248.857 243.719 247.776 243.719 246.547C243.719 245.307 243.958 244.224 244.437 243.297C244.917 242.365 245.596 241.641 246.477 241.125C247.362 240.604 248.411 240.344 249.625 240.344C250.839 240.344 251.885 240.604 252.766 241.125C253.651 241.641 254.333 242.365 254.812 243.297C255.292 244.224 255.531 245.307 255.531 246.547C255.531 247.776 255.292 248.857 254.812 249.789C254.333 250.716 253.651 251.44 252.766 251.961C251.885 252.477 250.839 252.734 249.625 252.734ZM249.641 250.156C250.193 250.156 250.654 250 251.023 249.688C251.393 249.37 251.672 248.937 251.859 248.391C252.052 247.844 252.148 247.221 252.148 246.523C252.148 245.826 252.052 245.203 251.859 244.656C251.672 244.109 251.393 243.677 251.023 243.359C250.654 243.042 250.193 242.883 249.641 242.883C249.083 242.883 248.615 243.042 248.234 243.359C247.859 243.677 247.576 244.109 247.383 244.656C247.195 245.203 247.102 245.826 247.102 246.523C247.102 247.221 247.195 247.844 247.383 248.391C247.576 248.937 247.859 249.37 248.234 249.688C248.615 250 249.083 250.156 249.641 250.156ZM264.789 248.82L268.039 240.5H270.57L265.891 252.5H263.68L259.109 240.5H261.633L264.789 248.82ZM260.875 240.5V252.5H257.695V240.5H260.875ZM268.867 252.5V240.5H272.008V252.5H268.867ZM279.643 252.5V250.062L285.338 244.789C285.822 244.32 286.229 243.898 286.557 243.523C286.89 243.148 287.143 242.781 287.314 242.422C287.486 242.057 287.572 241.664 287.572 241.242C287.572 240.773 287.465 240.37 287.252 240.031C287.038 239.687 286.747 239.424 286.377 239.242C286.007 239.055 285.588 238.961 285.119 238.961C284.63 238.961 284.202 239.06 283.838 239.258C283.473 239.456 283.192 239.74 282.994 240.109C282.796 240.479 282.697 240.919 282.697 241.43H279.486C279.486 240.383 279.723 239.474 280.197 238.703C280.671 237.932 281.335 237.336 282.189 236.914C283.044 236.492 284.028 236.281 285.143 236.281C286.288 236.281 287.286 236.484 288.135 236.891C288.989 237.292 289.653 237.849 290.127 238.562C290.601 239.276 290.838 240.094 290.838 241.016C290.838 241.62 290.718 242.216 290.479 242.805C290.244 243.393 289.825 244.047 289.221 244.766C288.617 245.479 287.765 246.336 286.666 247.336L284.33 249.625V249.734H291.049V252.5H279.643ZM301.008 243.18V245.82H293.711V243.18H301.008ZM309.619 252.719C308.452 252.719 307.413 252.518 306.502 252.117C305.596 251.711 304.88 251.154 304.354 250.445C303.833 249.732 303.564 248.909 303.549 247.977H306.955C306.976 248.367 307.104 248.711 307.338 249.008C307.577 249.299 307.895 249.526 308.291 249.688C308.687 249.849 309.132 249.93 309.627 249.93C310.143 249.93 310.598 249.839 310.994 249.656C311.39 249.474 311.7 249.221 311.924 248.898C312.148 248.576 312.26 248.203 312.26 247.781C312.26 247.354 312.14 246.977 311.9 246.648C311.666 246.315 311.327 246.055 310.885 245.867C310.447 245.68 309.926 245.586 309.322 245.586H307.83V243.102H309.322C309.833 243.102 310.283 243.013 310.674 242.836C311.07 242.659 311.377 242.414 311.596 242.102C311.814 241.784 311.924 241.414 311.924 240.992C311.924 240.591 311.827 240.24 311.635 239.937C311.447 239.63 311.182 239.391 310.838 239.219C310.499 239.047 310.104 238.961 309.65 238.961C309.192 238.961 308.773 239.044 308.393 239.211C308.012 239.372 307.708 239.604 307.479 239.906C307.249 240.208 307.127 240.562 307.111 240.969H303.869C303.885 240.047 304.148 239.234 304.658 238.531C305.169 237.828 305.856 237.279 306.721 236.883C307.59 236.482 308.572 236.281 309.666 236.281C310.77 236.281 311.736 236.482 312.564 236.883C313.393 237.284 314.036 237.826 314.494 238.508C314.958 239.185 315.187 239.945 315.182 240.789C315.187 241.685 314.908 242.432 314.346 243.031C313.788 243.63 313.062 244.01 312.166 244.172V244.297C313.343 244.448 314.239 244.857 314.854 245.523C315.473 246.185 315.781 247.013 315.775 248.008C315.781 248.919 315.518 249.729 314.986 250.438C314.46 251.146 313.734 251.703 312.807 252.109C311.88 252.516 310.817 252.719 309.619 252.719ZM322.705 243.117V240.5H333.58V243.117H329.713V252.5H326.541V243.117H322.705ZM338.777 248.109L343.098 240.5H346.379V252.5H343.207V244.867L338.902 252.5H335.598V240.5H338.777V248.109ZM348.266 252.5L352.461 246.258L348.289 240.5H352.086L355.203 245.195H355.719V240.5H359.047V245.195H359.547L362.664 240.5H366.461L362.297 246.258L366.484 252.5H362.602L359.516 247.812H359.047V252.5H355.719V247.812H355.25L352.148 252.5H348.266ZM376.713 245.172V247.789H370.447V245.172H376.713ZM371.541 240.5V252.5H368.361V240.5H371.541ZM378.799 240.5V252.5H375.643V240.5H378.799ZM381.381 252.5V240.5H384.709V252.5H381.381ZM383.053 238.953C382.558 238.953 382.133 238.789 381.779 238.461C381.43 238.128 381.256 237.729 381.256 237.266C381.256 236.807 381.43 236.414 381.779 236.086C382.133 235.753 382.558 235.586 383.053 235.586C383.548 235.586 383.969 235.753 384.318 236.086C384.673 236.414 384.85 236.807 384.85 237.266C384.85 237.729 384.673 238.128 384.318 238.461C383.969 238.789 383.548 238.953 383.053 238.953ZM392.529 252.5V236.5H398.842C400.05 236.5 401.081 236.716 401.936 237.148C402.795 237.576 403.449 238.182 403.896 238.969C404.35 239.75 404.576 240.669 404.576 241.727C404.576 242.789 404.347 243.703 403.889 244.469C403.43 245.229 402.766 245.812 401.896 246.219C401.032 246.625 399.985 246.828 398.756 246.828H394.529V244.109H398.209C398.855 244.109 399.391 244.021 399.818 243.844C400.245 243.667 400.563 243.401 400.771 243.047C400.985 242.693 401.092 242.253 401.092 241.727C401.092 241.195 400.985 240.747 400.771 240.383C400.563 240.018 400.243 239.742 399.811 239.555C399.383 239.362 398.844 239.266 398.193 239.266H395.912V252.5H392.529ZM401.17 245.219L405.146 252.5H401.412L397.521 245.219H401.17ZM412.18 252.734C410.945 252.734 409.883 252.484 408.992 251.984C408.107 251.479 407.424 250.766 406.945 249.844C406.466 248.917 406.227 247.82 406.227 246.555C406.227 245.32 406.466 244.237 406.945 243.305C407.424 242.372 408.099 241.646 408.969 241.125C409.844 240.604 410.87 240.344 412.047 240.344C412.839 240.344 413.576 240.471 414.258 240.727C414.945 240.977 415.544 241.354 416.055 241.859C416.57 242.365 416.971 243 417.258 243.766C417.544 244.526 417.688 245.417 417.688 246.437V247.352H407.555V245.289H414.555C414.555 244.81 414.451 244.385 414.242 244.016C414.034 243.646 413.745 243.357 413.375 243.148C413.01 242.935 412.586 242.828 412.102 242.828C411.596 242.828 411.148 242.945 410.758 243.18C410.372 243.409 410.07 243.719 409.852 244.109C409.633 244.495 409.521 244.924 409.516 245.398V247.359C409.516 247.953 409.625 248.466 409.844 248.898C410.068 249.331 410.383 249.664 410.789 249.898C411.195 250.133 411.677 250.25 412.234 250.25C412.604 250.25 412.943 250.198 413.25 250.094C413.557 249.99 413.82 249.833 414.039 249.625C414.258 249.417 414.424 249.161 414.539 248.859L417.617 249.062C417.461 249.802 417.141 250.448 416.656 251C416.177 251.547 415.557 251.974 414.797 252.281C414.042 252.583 413.169 252.734 412.18 252.734ZM419.859 240.5H423.188V253.094C423.188 254.021 423.005 254.771 422.641 255.344C422.276 255.917 421.753 256.336 421.07 256.602C420.393 256.867 419.583 257 418.641 257C418.526 257 418.417 256.997 418.313 256.992C418.203 256.992 418.089 256.99 417.969 256.984V254.383C418.057 254.388 418.135 254.391 418.203 254.391C418.266 254.396 418.333 254.398 418.406 254.398C418.943 254.398 419.318 254.284 419.531 254.055C419.75 253.831 419.859 253.492 419.859 253.039V240.5ZM421.516 238.953C421.026 238.953 420.604 238.789 420.25 238.461C419.896 238.128 419.719 237.729 419.719 237.266C419.719 236.807 419.896 236.414 420.25 236.086C420.604 235.753 421.026 235.586 421.516 235.586C422.016 235.586 422.44 235.753 422.789 236.086C423.143 236.414 423.32 236.807 423.32 237.266C423.32 237.729 423.143 238.128 422.789 238.461C422.44 238.789 422.016 238.953 421.516 238.953ZM433.549 247.391V240.5H436.877V252.5H433.682V250.32H433.557C433.286 251.023 432.835 251.589 432.205 252.016C431.58 252.443 430.817 252.656 429.916 252.656C429.114 252.656 428.408 252.474 427.799 252.109C427.189 251.745 426.713 251.227 426.369 250.555C426.031 249.883 425.859 249.078 425.854 248.141V240.5H429.182V247.547C429.187 248.255 429.377 248.815 429.752 249.227C430.127 249.638 430.63 249.844 431.26 249.844C431.661 249.844 432.036 249.753 432.385 249.57C432.734 249.383 433.015 249.107 433.229 248.742C433.447 248.378 433.554 247.927 433.549 247.391ZM439.539 252.5V240.5H442.766V242.594H442.891C443.109 241.849 443.477 241.286 443.992 240.906C444.508 240.521 445.102 240.328 445.773 240.328C445.94 240.328 446.12 240.339 446.313 240.359C446.505 240.38 446.674 240.409 446.82 240.445V243.398C446.664 243.352 446.448 243.31 446.172 243.273C445.896 243.237 445.643 243.219 445.414 243.219C444.924 243.219 444.487 243.326 444.102 243.539C443.721 243.747 443.419 244.039 443.195 244.414C442.977 244.789 442.867 245.221 442.867 245.711V252.5H439.539ZM451.619 252.727C450.854 252.727 450.171 252.594 449.572 252.328C448.973 252.057 448.499 251.659 448.15 251.133C447.807 250.602 447.635 249.94 447.635 249.148C447.635 248.482 447.757 247.922 448.002 247.469C448.247 247.016 448.58 246.651 449.002 246.375C449.424 246.099 449.903 245.891 450.439 245.75C450.981 245.609 451.549 245.51 452.143 245.453C452.84 245.38 453.403 245.312 453.83 245.25C454.257 245.182 454.567 245.083 454.76 244.953C454.952 244.823 455.049 244.63 455.049 244.375V244.328C455.049 243.833 454.893 243.451 454.58 243.18C454.273 242.909 453.835 242.773 453.268 242.773C452.669 242.773 452.192 242.906 451.838 243.172C451.484 243.432 451.249 243.76 451.135 244.156L448.057 243.906C448.213 243.177 448.52 242.547 448.979 242.016C449.437 241.479 450.028 241.068 450.752 240.781C451.481 240.49 452.325 240.344 453.283 240.344C453.95 240.344 454.588 240.422 455.197 240.578C455.812 240.734 456.356 240.977 456.83 241.305C457.309 241.633 457.687 242.055 457.963 242.57C458.239 243.081 458.377 243.693 458.377 244.406V252.5H455.221V250.836H455.127C454.934 251.211 454.676 251.542 454.354 251.828C454.031 252.109 453.643 252.331 453.189 252.492C452.736 252.648 452.213 252.727 451.619 252.727ZM452.572 250.43C453.062 250.43 453.494 250.333 453.869 250.141C454.244 249.943 454.538 249.677 454.752 249.344C454.965 249.01 455.072 248.633 455.072 248.211V246.938C454.968 247.005 454.825 247.068 454.643 247.125C454.465 247.177 454.265 247.227 454.041 247.273C453.817 247.315 453.593 247.354 453.369 247.391C453.145 247.422 452.942 247.451 452.76 247.477C452.369 247.534 452.028 247.625 451.736 247.75C451.445 247.875 451.218 248.044 451.057 248.258C450.895 248.466 450.814 248.727 450.814 249.039C450.814 249.492 450.979 249.839 451.307 250.078C451.64 250.312 452.062 250.43 452.572 250.43ZM464.287 245.563V252.5H460.959V240.5H464.131V242.617H464.271C464.537 241.919 464.982 241.367 465.607 240.961C466.232 240.549 466.99 240.344 467.881 240.344C468.714 240.344 469.441 240.526 470.061 240.891C470.68 241.255 471.162 241.776 471.506 242.453C471.85 243.125 472.021 243.927 472.021 244.859V252.5H468.693V245.453C468.699 244.719 468.511 244.146 468.131 243.734C467.751 243.318 467.227 243.109 466.561 243.109C466.113 243.109 465.717 243.206 465.373 243.398C465.035 243.591 464.769 243.872 464.576 244.242C464.389 244.607 464.292 245.047 464.287 245.563ZM479.799 252.5V236.5H483.182V243.102H490.049V236.5H493.424V252.5H490.049V245.891H483.182V252.5H479.799ZM501.619 252.734C500.385 252.734 499.322 252.484 498.432 251.984C497.546 251.479 496.864 250.766 496.385 249.844C495.906 248.917 495.666 247.82 495.666 246.555C495.666 245.32 495.906 244.237 496.385 243.305C496.864 242.372 497.538 241.646 498.408 241.125C499.283 240.604 500.309 240.344 501.486 240.344C502.278 240.344 503.015 240.471 503.697 240.727C504.385 240.977 504.984 241.354 505.494 241.859C506.01 242.365 506.411 243 506.697 243.766C506.984 244.526 507.127 245.417 507.127 246.437V247.352H496.994V245.289H503.994C503.994 244.81 503.89 244.385 503.682 244.016C503.473 243.646 503.184 243.357 502.814 243.148C502.45 242.935 502.025 242.828 501.541 242.828C501.036 242.828 500.588 242.945 500.197 243.18C499.812 243.409 499.51 243.719 499.291 244.109C499.072 244.495 498.96 244.924 498.955 245.398V247.359C498.955 247.953 499.064 248.466 499.283 248.898C499.507 249.331 499.822 249.664 500.229 249.898C500.635 250.133 501.117 250.25 501.674 250.25C502.044 250.25 502.382 250.198 502.689 250.094C502.997 249.99 503.26 249.833 503.479 249.625C503.697 249.417 503.864 249.161 503.979 248.859L507.057 249.062C506.9 249.802 506.58 250.448 506.096 251C505.617 251.547 504.997 251.974 504.236 252.281C503.481 252.583 502.609 252.734 501.619 252.734ZM512.721 252.727C511.955 252.727 511.273 252.594 510.674 252.328C510.075 252.057 509.601 251.659 509.252 251.133C508.908 250.602 508.736 249.94 508.736 249.148C508.736 248.482 508.859 247.922 509.104 247.469C509.348 247.016 509.682 246.651 510.104 246.375C510.525 246.099 511.005 245.891 511.541 245.75C512.083 245.609 512.65 245.51 513.244 245.453C513.942 245.38 514.505 245.312 514.932 245.25C515.359 245.182 515.669 245.083 515.861 244.953C516.054 244.823 516.15 244.63 516.15 244.375V244.328C516.15 243.833 515.994 243.451 515.682 243.18C515.374 242.909 514.937 242.773 514.369 242.773C513.77 242.773 513.294 242.906 512.939 243.172C512.585 243.432 512.351 243.76 512.236 244.156L509.158 243.906C509.314 243.177 509.622 242.547 510.08 242.016C510.538 241.479 511.13 241.068 511.854 240.781C512.583 240.49 513.426 240.344 514.385 240.344C515.051 240.344 515.689 240.422 516.299 240.578C516.913 240.734 517.458 240.977 517.932 241.305C518.411 241.633 518.788 242.055 519.064 242.57C519.34 243.081 519.479 243.693 519.479 244.406V252.5H516.322V250.836H516.229C516.036 251.211 515.778 251.542 515.455 251.828C515.132 252.109 514.744 252.331 514.291 252.492C513.838 252.648 513.314 252.727 512.721 252.727ZM513.674 250.43C514.163 250.43 514.596 250.333 514.971 250.141C515.346 249.943 515.64 249.677 515.854 249.344C516.067 249.01 516.174 248.633 516.174 248.211V246.938C516.07 247.005 515.926 247.068 515.744 247.125C515.567 247.177 515.367 247.227 515.143 247.273C514.919 247.315 514.695 247.354 514.471 247.391C514.247 247.422 514.044 247.451 513.861 247.477C513.471 247.534 513.13 247.625 512.838 247.75C512.546 247.875 512.32 248.044 512.158 248.258C511.997 248.466 511.916 248.727 511.916 249.039C511.916 249.492 512.08 249.839 512.408 250.078C512.742 250.312 513.163 250.43 513.674 250.43ZM525.389 236.5V252.5H522.061V236.5H525.389ZM533.523 252.734C532.289 252.734 531.227 252.484 530.336 251.984C529.451 251.479 528.768 250.766 528.289 249.844C527.81 248.917 527.57 247.82 527.57 246.555C527.57 245.32 527.81 244.237 528.289 243.305C528.768 242.372 529.443 241.646 530.313 241.125C531.188 240.604 532.214 240.344 533.391 240.344C534.182 240.344 534.919 240.471 535.602 240.727C536.289 240.977 536.888 241.354 537.398 241.859C537.914 242.365 538.315 243 538.602 243.766C538.888 244.526 539.031 245.417 539.031 246.437V247.352H528.898V245.289H535.898C535.898 244.81 535.794 244.385 535.586 244.016C535.378 243.646 535.089 243.357 534.719 243.148C534.354 242.935 533.93 242.828 533.445 242.828C532.94 242.828 532.492 242.945 532.102 243.18C531.716 243.409 531.414 243.719 531.195 244.109C530.977 244.495 530.865 244.924 530.859 245.398V247.359C530.859 247.953 530.969 248.466 531.188 248.898C531.411 249.331 531.727 249.664 532.133 249.898C532.539 250.133 533.021 250.25 533.578 250.25C533.948 250.25 534.286 250.198 534.594 250.094C534.901 249.99 535.164 249.833 535.383 249.625C535.602 249.417 535.768 249.161 535.883 248.859L538.961 249.062C538.805 249.802 538.484 250.448 538 251C537.521 251.547 536.901 251.974 536.141 252.281C535.385 252.583 534.513 252.734 533.523 252.734ZM541.203 252.5V240.5H544.43V242.594H544.555C544.773 241.849 545.141 241.286 545.656 240.906C546.172 240.521 546.766 240.328 547.438 240.328C547.604 240.328 547.784 240.339 547.977 240.359C548.169 240.38 548.339 240.409 548.484 240.445V243.398C548.328 243.352 548.112 243.31 547.836 243.273C547.56 243.237 547.307 243.219 547.078 243.219C546.589 243.219 546.151 243.326 545.766 243.539C545.385 243.747 545.083 244.039 544.859 244.414C544.641 244.789 544.531 245.221 544.531 245.711V252.5H541.203ZM555.266 252.5V250.062L560.961 244.789C561.445 244.32 561.852 243.898 562.18 243.523C562.513 243.148 562.766 242.781 562.938 242.422C563.109 242.057 563.195 241.664 563.195 241.242C563.195 240.773 563.089 240.37 562.875 240.031C562.661 239.687 562.37 239.424 562 239.242C561.63 239.055 561.211 238.961 560.742 238.961C560.253 238.961 559.826 239.06 559.461 239.258C559.096 239.456 558.815 239.74 558.617 240.109C558.419 240.479 558.32 240.919 558.32 241.43H555.109C555.109 240.383 555.346 239.474 555.82 238.703C556.294 237.932 556.958 237.336 557.813 236.914C558.667 236.492 559.651 236.281 560.766 236.281C561.911 236.281 562.909 236.484 563.758 236.891C564.612 237.292 565.276 237.849 565.75 238.562C566.224 239.276 566.461 240.094 566.461 241.016C566.461 241.62 566.341 242.216 566.102 242.805C565.867 243.393 565.448 244.047 564.844 244.766C564.24 245.479 563.388 246.336 562.289 247.336L559.953 249.625V249.734H566.672V252.5H555.266ZM574.246 252.5V240.5H577.418V242.617H577.559C577.809 241.914 578.225 241.359 578.809 240.953C579.392 240.547 580.09 240.344 580.902 240.344C581.725 240.344 582.426 240.549 583.004 240.961C583.582 241.367 583.967 241.919 584.16 242.617H584.285C584.53 241.93 584.973 241.38 585.613 240.969C586.259 240.552 587.022 240.344 587.902 240.344C589.022 240.344 589.931 240.701 590.629 241.414C591.332 242.122 591.684 243.128 591.684 244.43V252.5H588.363V245.086C588.363 244.419 588.186 243.919 587.832 243.586C587.478 243.253 587.035 243.086 586.504 243.086C585.9 243.086 585.428 243.279 585.09 243.664C584.751 244.044 584.582 244.547 584.582 245.172V252.5H581.355V245.016C581.355 244.427 581.186 243.958 580.848 243.609C580.514 243.26 580.074 243.086 579.527 243.086C579.158 243.086 578.824 243.18 578.527 243.367C578.236 243.549 578.004 243.807 577.832 244.141C577.66 244.469 577.574 244.854 577.574 245.297V252.5H574.246ZM597.641 236.5V252.5H594.313V236.5H597.641Z" fill="black"/>
<path d="M1130.89 253.249C1129.64 253.249 1128.52 253.018 1127.53 252.556C1126.56 252.094 1125.78 251.458 1125.21 250.647C1124.63 249.837 1124.33 248.907 1124.31 247.86H1128.04C1128.08 248.564 1128.38 249.135 1128.93 249.573C1129.48 250.011 1130.13 250.23 1130.89 250.23C1131.49 250.23 1132.03 250.097 1132.49 249.831C1132.96 249.558 1133.32 249.183 1133.58 248.703C1133.85 248.218 1133.98 247.661 1133.98 247.034C1133.98 246.395 1133.84 245.833 1133.57 245.347C1133.3 244.862 1132.93 244.483 1132.46 244.211C1131.99 243.939 1131.45 243.8 1130.84 243.794C1130.3 243.794 1129.79 243.903 1129.28 244.122C1128.79 244.341 1128.4 244.64 1128.12 245.019L1124.7 244.406L1125.56 234.818H1136.68V237.961H1128.73L1128.26 242.515H1128.37C1128.69 242.065 1129.17 241.693 1129.82 241.397C1130.46 241.101 1131.18 240.953 1131.98 240.953C1133.08 240.953 1134.05 241.21 1134.91 241.725C1135.77 242.24 1136.45 242.947 1136.94 243.847C1137.44 244.741 1137.69 245.77 1137.68 246.936C1137.69 248.162 1137.4 249.251 1136.83 250.203C1136.26 251.15 1135.46 251.896 1134.44 252.441C1133.42 252.979 1132.24 253.249 1130.89 253.249ZM1140.36 253V250.23L1146.83 244.238C1147.38 243.705 1147.85 243.225 1148.22 242.799C1148.6 242.373 1148.89 241.956 1149.08 241.548C1149.28 241.133 1149.37 240.686 1149.37 240.207C1149.37 239.674 1149.25 239.216 1149.01 238.831C1148.77 238.44 1148.44 238.141 1148.02 237.934C1147.59 237.721 1147.12 237.615 1146.59 237.615C1146.03 237.615 1145.54 237.727 1145.13 237.952C1144.72 238.177 1144.4 238.5 1144.17 238.92C1143.95 239.34 1143.83 239.84 1143.83 240.42H1140.18C1140.18 239.23 1140.45 238.198 1140.99 237.322C1141.53 236.446 1142.29 235.768 1143.26 235.289C1144.23 234.809 1145.35 234.57 1146.61 234.57C1147.91 234.57 1149.05 234.8 1150.01 235.262C1150.98 235.718 1151.74 236.351 1152.28 237.162C1152.82 237.973 1153.08 238.902 1153.08 239.95C1153.08 240.636 1152.95 241.314 1152.68 241.983C1152.41 242.651 1151.93 243.394 1151.25 244.211C1150.56 245.022 1149.59 245.995 1148.34 247.132L1145.69 249.733V249.857H1153.32V253H1140.36ZM1163.24 253.4C1161.71 253.394 1160.4 253.018 1159.3 252.272C1158.2 251.526 1157.36 250.446 1156.77 249.032C1156.18 247.617 1155.89 245.915 1155.9 243.927C1155.9 241.944 1156.19 240.254 1156.78 238.858C1157.37 237.461 1158.21 236.398 1159.31 235.67C1160.41 234.937 1161.72 234.57 1163.24 234.57C1164.76 234.57 1166.07 234.937 1167.16 235.67C1168.26 236.404 1169.11 237.47 1169.7 238.866C1170.29 240.257 1170.59 241.944 1170.58 243.927C1170.58 245.921 1170.28 247.626 1169.69 249.04C1169.11 250.455 1168.27 251.535 1167.17 252.281C1166.08 253.027 1164.77 253.4 1163.24 253.4ZM1163.24 250.212C1164.28 250.212 1165.11 249.689 1165.73 248.641C1166.35 247.593 1166.66 246.022 1166.66 243.927C1166.66 242.548 1166.51 241.4 1166.23 240.482C1165.95 239.565 1165.56 238.875 1165.04 238.414C1164.53 237.952 1163.93 237.721 1163.24 237.721C1162.2 237.721 1161.37 238.239 1160.75 239.275C1160.13 240.311 1159.82 241.861 1159.81 243.927C1159.81 245.324 1159.95 246.49 1160.23 247.425C1160.51 248.354 1160.91 249.052 1161.43 249.52C1161.94 249.982 1162.55 250.212 1163.24 250.212ZM1180.45 253.4C1178.92 253.394 1177.61 253.018 1176.51 252.272C1175.41 251.526 1174.57 250.446 1173.98 249.032C1173.39 247.617 1173.1 245.915 1173.11 243.927C1173.11 241.944 1173.4 240.254 1173.99 238.858C1174.58 237.461 1175.42 236.398 1176.52 235.67C1177.62 234.937 1178.93 234.57 1180.45 234.57C1181.97 234.57 1183.28 234.937 1184.37 235.67C1185.48 236.404 1186.32 237.47 1186.91 238.866C1187.51 240.257 1187.8 241.944 1187.79 243.927C1187.79 245.921 1187.5 247.626 1186.9 249.04C1186.32 250.455 1185.48 251.535 1184.38 252.281C1183.29 253.027 1181.98 253.4 1180.45 253.4ZM1180.45 250.212C1181.49 250.212 1182.32 249.689 1182.94 248.641C1183.57 247.593 1183.87 246.022 1183.87 243.927C1183.87 242.548 1183.73 241.4 1183.44 240.482C1183.16 239.565 1182.77 238.875 1182.25 238.414C1181.74 237.952 1181.14 237.721 1180.45 237.721C1179.41 237.721 1178.59 238.239 1177.96 239.275C1177.34 240.311 1177.03 241.861 1177.02 243.927C1177.02 245.324 1177.16 246.49 1177.44 247.425C1177.72 248.354 1178.12 249.052 1178.64 249.52C1179.15 249.982 1179.76 250.212 1180.45 250.212ZM1204.34 237.695C1203.65 237.695 1203.13 237.834 1202.77 238.112C1202.42 238.39 1202.24 238.79 1202.21 239.31H1198.34C1198.41 238.292 1198.67 237.431 1199.12 236.727C1199.58 236.023 1200.23 235.487 1201.09 235.12C1201.95 234.753 1203.01 234.57 1204.27 234.57C1205.53 234.57 1206.6 234.744 1207.48 235.093C1208.36 235.443 1209.03 235.928 1209.49 236.549C1209.94 237.171 1210.17 237.899 1210.17 238.733C1210.17 239.13 1210.09 239.509 1209.94 239.87C1209.78 240.225 1209.58 240.55 1209.33 240.846C1209.07 241.136 1208.8 241.391 1208.5 241.61L1205.44 240.793C1205.75 240.556 1205.98 240.296 1206.14 240.012C1206.3 239.728 1206.38 239.402 1206.37 239.035C1206.38 238.627 1206.21 238.301 1205.86 238.059C1205.52 237.816 1205.01 237.695 1204.34 237.695ZM1211.34 243.146H1197.11V240.598H1211.34V243.146ZM1211.34 246.972H1197.11V244.486H1211.34V246.972ZM1204.27 253.249C1202.23 253.249 1200.69 252.858 1199.64 252.077C1198.6 251.295 1198.07 250.224 1198.07 248.863C1198.07 248.455 1198.16 248.058 1198.33 247.673C1198.51 247.289 1198.73 246.942 1199.01 246.635C1199.29 246.327 1199.59 246.087 1199.92 245.915L1202.96 246.661C1202.62 246.898 1202.36 247.191 1202.18 247.54C1202 247.889 1201.91 248.23 1201.9 248.561C1201.91 249.07 1202.12 249.464 1202.54 249.742C1202.97 250.02 1203.55 250.159 1204.27 250.159C1205 250.159 1205.59 250.02 1206.03 249.742C1206.48 249.464 1206.72 248.984 1206.76 248.304H1210.67C1210.61 249.446 1210.34 250.381 1209.87 251.109C1209.4 251.837 1208.7 252.376 1207.78 252.725C1206.86 253.074 1205.69 253.249 1204.27 253.249Z" fill="#14142A"/>
</svg>
