<svg width="1253" height="141" viewBox="0 0 1253 141" fill="none" xmlns="http://www.w3.org/2000/svg">
<path d="M0.775391 20C0.775391 8.9543 9.7297 0 20.7754 0H1232.78C1243.82 0 1252.78 8.95431 1252.78 20V71H0.775391V20Z" fill="#FFA7CA"/>
<path d="M43.4934 26.0909V45H39.5417V29.3409H31.8968V45H27.9451V26.0909H43.4934ZM47.2259 45V30.8182H51.1591V45H47.2259ZM49.2017 28.9901C48.617 28.9901 48.1153 28.7962 47.6967 28.4084C47.2843 28.0144 47.0781 27.5436 47.0781 26.9957C47.0781 26.4541 47.2843 25.9893 47.6967 25.6016C48.1153 25.2076 48.617 25.0107 49.2017 25.0107C49.7865 25.0107 50.285 25.2076 50.6974 25.6016C51.116 25.9893 51.3253 26.4541 51.3253 26.9957C51.3253 27.5436 51.116 28.0144 50.6974 28.4084C50.285 28.7962 49.7865 28.9901 49.2017 28.9901ZM53.4789 45L53.4604 41.8793H53.9313C54.2637 41.8793 54.5499 41.7992 54.79 41.6392C55.0362 41.473 55.2393 41.2053 55.3993 40.8359C55.5594 40.4666 55.6855 39.9773 55.7779 39.3679C55.8702 38.7524 55.9318 37.9953 55.9625 37.0966L56.1934 30.8182H66.9775V45H63.2289V33.9112H59.7296L59.508 38.2415C59.4526 39.4295 59.3079 40.4512 59.074 41.3068C58.8463 42.1624 58.5293 42.8641 58.123 43.4119C57.7168 43.9536 57.2275 44.3537 56.655 44.6122C56.0826 44.8707 55.4178 45 54.6607 45H53.4789ZM70.0266 45V30.8182H73.9599V45H70.0266ZM72.0025 28.9901C71.4177 28.9901 70.9161 28.7962 70.4975 28.4084C70.0851 28.0144 69.8789 27.5436 69.8789 26.9957C69.8789 26.4541 70.0851 25.9893 70.4975 25.6016C70.9161 25.2076 71.4177 25.0107 72.0025 25.0107C72.5872 25.0107 73.0858 25.2076 73.4982 25.6016C73.9168 25.9893 74.1261 26.4541 74.1261 26.9957C74.1261 27.5436 73.9168 28.0144 73.4982 28.4084C73.0858 28.7962 72.5872 28.9901 72.0025 28.9901ZM86.9806 36.3395V39.4325H79.5758V36.3395H86.9806ZM80.8684 30.8182V45H77.1106V30.8182H80.8684ZM89.4458 30.8182V45H85.7157V30.8182H89.4458ZM102.21 30.8182V33.9112H96.3198V45H92.4973V30.8182H102.21ZM108.366 39.8111L113.472 30.8182H117.35V45H113.602V35.9794L108.514 45H104.609V30.8182H108.366V39.8111Z" fill="#14142A"/>
<path d="M1135.35 28V44H1132.07V28H1135.35ZM1122.41 44L1127.42 35.5625L1122.62 28H1126.78L1130.38 34.5859H1137.13L1140.63 28H1144.78L1140.1 35.5391L1145.02 44H1140.98L1137.6 37.7109H1129.88L1126.42 44H1122.41ZM1146.97 44V32H1150.3V44H1146.97ZM1148.64 30.4531C1148.15 30.4531 1147.73 30.2891 1147.37 29.9609C1147.02 29.6276 1146.85 29.2292 1146.85 28.7656C1146.85 28.3073 1147.02 27.9141 1147.37 27.5859C1147.73 27.2526 1148.15 27.0859 1148.64 27.0859C1149.14 27.0859 1149.56 27.2526 1149.91 27.5859C1150.26 27.9141 1150.44 28.3073 1150.44 28.7656C1150.44 29.2292 1150.26 29.6276 1149.91 29.9609C1149.56 30.2891 1149.14 30.4531 1148.64 30.4531ZM1161.32 36.6719V39.2891H1155.05V36.6719H1161.32ZM1156.15 32V44H1152.97V32H1156.15ZM1163.4 32V44H1160.25V32H1163.4ZM1172.96 27.25L1167.8 46.4062H1164.93L1170.09 27.25H1172.96ZM1175.27 28H1178.56V33.1562C1178.56 33.7708 1178.67 34.2656 1178.88 34.6406C1179.09 35.0104 1179.42 35.2786 1179.87 35.4453C1180.32 35.6068 1180.9 35.6875 1181.61 35.6875C1181.86 35.6875 1182.16 35.6797 1182.5 35.6641C1182.83 35.6432 1183.18 35.6146 1183.54 35.5781C1183.91 35.5417 1184.25 35.4974 1184.57 35.4453C1184.9 35.3932 1185.17 35.3333 1185.38 35.2656V37.9375C1185.16 38.0104 1184.89 38.0755 1184.56 38.1328C1184.24 38.1849 1183.89 38.2318 1183.54 38.2734C1183.18 38.3099 1182.83 38.3385 1182.49 38.3594C1182.15 38.3802 1181.86 38.3906 1181.61 38.3906C1180.33 38.3906 1179.21 38.2083 1178.25 37.8437C1177.3 37.474 1176.56 36.9036 1176.04 36.1328C1175.53 35.362 1175.27 34.3698 1175.27 33.1562V28ZM1184.79 28H1188.1V44H1184.79V28ZM1196.8 44.2344C1195.59 44.2344 1194.54 43.9766 1193.65 43.4609C1192.77 42.9401 1192.09 42.2161 1191.62 41.2891C1191.14 40.3568 1190.9 39.276 1190.9 38.0469C1190.9 36.8073 1191.14 35.724 1191.62 34.7969C1192.09 33.8646 1192.77 33.1406 1193.65 32.625C1194.54 32.1042 1195.59 31.8438 1196.8 31.8438C1198.02 31.8438 1199.06 32.1042 1199.94 32.625C1200.83 33.1406 1201.51 33.8646 1201.99 34.7969C1202.47 35.724 1202.71 36.8073 1202.71 38.0469C1202.71 39.276 1202.47 40.3568 1201.99 41.2891C1201.51 42.2161 1200.83 42.9401 1199.94 43.4609C1199.06 43.9766 1198.02 44.2344 1196.8 44.2344ZM1196.82 41.6562C1197.37 41.6562 1197.83 41.5 1198.2 41.1875C1198.57 40.8698 1198.85 40.4375 1199.04 39.8906C1199.23 39.3437 1199.33 38.7214 1199.33 38.0234C1199.33 37.3255 1199.23 36.7031 1199.04 36.1562C1198.85 35.6094 1198.57 35.1771 1198.2 34.8594C1197.83 34.5417 1197.37 34.3828 1196.82 34.3828C1196.26 34.3828 1195.79 34.5417 1195.41 34.8594C1195.04 35.1771 1194.75 35.6094 1194.56 36.1562C1194.37 36.7031 1194.28 37.3255 1194.28 38.0234C1194.28 38.7214 1194.37 39.3437 1194.56 39.8906C1194.75 40.4375 1195.04 40.8698 1195.41 41.1875C1195.79 41.5 1196.26 41.6562 1196.82 41.6562ZM1204.17 44L1204.15 41.3594H1204.55C1204.83 41.3594 1205.08 41.2917 1205.28 41.1562C1205.49 41.0156 1205.66 40.7891 1205.79 40.4766C1205.93 40.1641 1206.04 39.75 1206.12 39.2344C1206.19 38.7135 1206.25 38.0729 1206.27 37.3125L1206.47 32H1215.59V44H1212.42V34.6172H1209.46L1209.27 38.2812C1209.22 39.2865 1209.1 40.151 1208.9 40.875C1208.71 41.599 1208.44 42.1927 1208.1 42.6562C1207.76 43.1146 1207.34 43.4531 1206.86 43.6719C1206.37 43.8906 1205.81 44 1205.17 44H1204.17Z" fill="#14142A"/>
<mask id="path-4-inside-1_292_2102" fill="white">
<path d="M0.775391 71H1252.78V121C1252.78 132.046 1243.82 141 1232.78 141H20.7754C9.72972 141 0.775391 132.046 0.775391 121V71Z"/>
</mask>
<path d="M0.775391 71H1252.78V121C1252.78 132.046 1243.82 141 1232.78 141H20.7754C9.72972 141 0.775391 132.046 0.775391 121V71Z" fill="white"/>
<path d="M0.775391 71H1252.78H0.775391ZM1253.78 121C1253.78 132.598 1244.37 142 1232.78 142H20.7754C9.17741 142 -0.224609 132.598 -0.224609 121H1.77539C1.77539 131.493 10.282 140 20.7754 140H1232.78C1243.27 140 1251.78 131.493 1251.78 121H1253.78ZM20.7754 142C9.17741 142 -0.224609 132.598 -0.224609 121V71H1.77539V121C1.77539 131.493 10.282 140 20.7754 140V142ZM1253.78 71V121C1253.78 132.598 1244.37 142 1232.78 142V140C1243.27 140 1251.78 131.493 1251.78 121V71H1253.78Z" fill="#FE68A4" mask="url(#path-4-inside-1_292_2102)"/>
<path d="M27.166 114.5V98.5H33.5723C34.7493 98.5 35.7311 98.6745 36.5176 99.0234C37.304 99.3724 37.8952 99.8568 38.291 100.477C38.6868 101.091 38.8848 101.799 38.8848 102.602C38.8848 103.227 38.7598 103.776 38.5098 104.25C38.2598 104.719 37.916 105.104 37.4785 105.406C37.0462 105.703 36.5514 105.914 35.9941 106.039V106.195C36.6035 106.221 37.1738 106.393 37.7051 106.711C38.2415 107.029 38.6764 107.474 39.0098 108.047C39.3431 108.615 39.5098 109.292 39.5098 110.078C39.5098 110.927 39.2988 111.685 38.877 112.352C38.4603 113.013 37.8431 113.536 37.0254 113.922C36.2077 114.307 35.1999 114.5 34.002 114.5H27.166ZM30.5488 111.734H33.3066C34.2493 111.734 34.9368 111.555 35.3691 111.195C35.8014 110.831 36.0176 110.346 36.0176 109.742C36.0176 109.299 35.9108 108.909 35.6973 108.57C35.4837 108.232 35.179 107.966 34.7832 107.773C34.3926 107.581 33.9264 107.484 33.3848 107.484H30.5488V111.734ZM30.5488 105.195H33.0566C33.5202 105.195 33.9316 105.115 34.291 104.953C34.6556 104.786 34.9421 104.552 35.1504 104.25C35.3639 103.948 35.4707 103.586 35.4707 103.164C35.4707 102.586 35.265 102.12 34.8535 101.766C34.4473 101.411 33.8691 101.234 33.1191 101.234H30.5488V105.195ZM41.6484 114.5V102.5H44.9766V114.5H41.6484ZM43.3203 100.953C42.8255 100.953 42.401 100.789 42.0469 100.461C41.6979 100.128 41.5234 99.7292 41.5234 99.2656C41.5234 98.8073 41.6979 98.4141 42.0469 98.0859C42.401 97.7526 42.8255 97.5859 43.3203 97.5859C43.8151 97.5859 44.237 97.7526 44.5859 98.0859C44.9401 98.4141 45.1172 98.8073 45.1172 99.2656C45.1172 99.7292 44.9401 100.128 44.5859 100.461C44.237 100.789 43.8151 100.953 43.3203 100.953ZM53.0645 114.734C51.8509 114.734 50.8014 114.477 49.916 113.961C49.0358 113.44 48.3561 112.716 47.877 111.789C47.3978 110.857 47.1582 109.776 47.1582 108.547C47.1582 107.307 47.3978 106.224 47.877 105.297C48.3561 104.365 49.0358 103.641 49.916 103.125C50.8014 102.604 51.8509 102.344 53.0645 102.344C54.278 102.344 55.3249 102.604 56.2051 103.125C57.0905 103.641 57.7728 104.365 58.252 105.297C58.7311 106.224 58.9707 107.307 58.9707 108.547C58.9707 109.776 58.7311 110.857 58.252 111.789C57.7728 112.716 57.0905 113.44 56.2051 113.961C55.3249 114.477 54.278 114.734 53.0645 114.734ZM53.0801 112.156C53.6322 112.156 54.0931 112 54.4629 111.688C54.8327 111.37 55.1113 110.937 55.2988 110.391C55.4915 109.844 55.5879 109.221 55.5879 108.523C55.5879 107.826 55.4915 107.203 55.2988 106.656C55.1113 106.109 54.8327 105.677 54.4629 105.359C54.0931 105.042 53.6322 104.883 53.0801 104.883C52.5228 104.883 52.054 105.042 51.6738 105.359C51.2988 105.677 51.015 106.109 50.8223 106.656C50.6348 107.203 50.541 107.826 50.541 108.523C50.541 109.221 50.6348 109.844 50.8223 110.391C51.015 110.937 51.2988 111.37 51.6738 111.688C52.054 112 52.5228 112.156 53.0801 112.156ZM61.1973 114.5V98.5H67.5098C68.7181 98.5 69.7493 98.7161 70.6035 99.1484C71.4629 99.5755 72.1165 100.182 72.5645 100.969C73.0176 101.75 73.2441 102.669 73.2441 103.727C73.2441 104.789 73.015 105.703 72.5566 106.469C72.0983 107.229 71.4342 107.812 70.5645 108.219C69.6999 108.625 68.653 108.828 67.4238 108.828H63.1973V106.109H66.877C67.5228 106.109 68.0592 106.021 68.4863 105.844C68.9134 105.667 69.2311 105.401 69.4395 105.047C69.653 104.693 69.7598 104.253 69.7598 103.727C69.7598 103.195 69.653 102.747 69.4395 102.383C69.2311 102.018 68.9108 101.742 68.4785 101.555C68.0514 101.362 67.5124 101.266 66.8613 101.266H64.5801V114.5H61.1973ZM69.8379 107.219L73.8145 114.5H70.0801L66.1895 107.219H69.8379ZM80.8477 114.734C79.6133 114.734 78.5508 114.484 77.6602 113.984C76.7747 113.479 76.0924 112.766 75.6133 111.844C75.1341 110.917 74.8945 109.82 74.8945 108.555C74.8945 107.32 75.1341 106.237 75.6133 105.305C76.0924 104.372 76.7669 103.646 77.6367 103.125C78.5117 102.604 79.5378 102.344 80.7148 102.344C81.5065 102.344 82.2435 102.471 82.9258 102.727C83.6133 102.977 84.2122 103.354 84.7227 103.859C85.2383 104.365 85.6393 105 85.9258 105.766C86.2122 106.526 86.3555 107.417 86.3555 108.437V109.352H76.2227V107.289H83.2227C83.2227 106.81 83.1185 106.385 82.9102 106.016C82.7018 105.646 82.4128 105.357 82.043 105.148C81.6784 104.935 81.2539 104.828 80.7695 104.828C80.2643 104.828 79.8164 104.945 79.4258 105.18C79.0404 105.409 78.7383 105.719 78.5195 106.109C78.3008 106.495 78.1888 106.924 78.1836 107.398V109.359C78.1836 109.953 78.293 110.466 78.5117 110.898C78.7357 111.331 79.0508 111.664 79.457 111.898C79.8633 112.133 80.3451 112.25 80.9023 112.25C81.2721 112.25 81.6107 112.198 81.918 112.094C82.2253 111.99 82.4883 111.833 82.707 111.625C82.9258 111.417 83.0924 111.161 83.207 110.859L86.2852 111.062C86.1289 111.802 85.8086 112.448 85.3242 113C84.8451 113.547 84.2253 113.974 83.4648 114.281C82.7096 114.583 81.8372 114.734 80.8477 114.734ZM88.5898 114.5V98.5H94.9023C96.1159 98.5 97.1497 98.7318 98.0039 99.1953C98.8581 99.6536 99.5091 100.292 99.957 101.109C100.41 101.922 100.637 102.859 100.637 103.922C100.637 104.984 100.408 105.922 99.9492 106.734C99.4909 107.547 98.8268 108.18 97.957 108.633C97.0924 109.086 96.0456 109.312 94.8164 109.312H90.793V106.602H94.2695C94.9206 106.602 95.457 106.49 95.8789 106.266C96.306 106.036 96.6237 105.721 96.832 105.32C97.0456 104.914 97.1523 104.448 97.1523 103.922C97.1523 103.391 97.0456 102.927 96.832 102.531C96.6237 102.13 96.306 101.82 95.8789 101.602C95.4518 101.378 94.9102 101.266 94.2539 101.266H91.9727V114.5H88.5898ZM108.047 114.734C106.813 114.734 105.75 114.484 104.859 113.984C103.974 113.479 103.292 112.766 102.812 111.844C102.333 110.917 102.094 109.82 102.094 108.555C102.094 107.32 102.333 106.237 102.812 105.305C103.292 104.372 103.966 103.646 104.836 103.125C105.711 102.604 106.737 102.344 107.914 102.344C108.706 102.344 109.443 102.471 110.125 102.727C110.813 102.977 111.411 103.354 111.922 103.859C112.438 104.365 112.839 105 113.125 105.766C113.411 106.526 113.555 107.417 113.555 108.437V109.352H103.422V107.289H110.422C110.422 106.81 110.318 106.385 110.109 106.016C109.901 105.646 109.612 105.357 109.242 105.148C108.878 104.935 108.453 104.828 107.969 104.828C107.464 104.828 107.016 104.945 106.625 105.18C106.24 105.409 105.938 105.719 105.719 106.109C105.5 106.495 105.388 106.924 105.383 107.398V109.359C105.383 109.953 105.492 110.466 105.711 110.898C105.935 111.331 106.25 111.664 106.656 111.898C107.063 112.133 107.544 112.25 108.102 112.25C108.471 112.25 108.81 112.198 109.117 112.094C109.424 111.99 109.688 111.833 109.906 111.625C110.125 111.417 110.292 111.161 110.406 110.859L113.484 111.062C113.328 111.802 113.008 112.448 112.523 113C112.044 113.547 111.424 113.974 110.664 114.281C109.909 114.583 109.036 114.734 108.047 114.734ZM121.195 114.734C119.961 114.734 118.898 114.484 118.008 113.984C117.122 113.479 116.44 112.766 115.961 111.844C115.482 110.917 115.242 109.82 115.242 108.555C115.242 107.32 115.482 106.237 115.961 105.305C116.44 104.372 117.115 103.646 117.984 103.125C118.859 102.604 119.885 102.344 121.063 102.344C121.854 102.344 122.591 102.471 123.273 102.727C123.961 102.977 124.56 103.354 125.07 103.859C125.586 104.365 125.987 105 126.273 105.766C126.56 106.526 126.703 107.417 126.703 108.437V109.352H116.57V107.289H123.57C123.57 106.81 123.466 106.385 123.258 106.016C123.049 105.646 122.76 105.357 122.391 105.148C122.026 104.935 121.602 104.828 121.117 104.828C120.612 104.828 120.164 104.945 119.773 105.18C119.388 105.409 119.086 105.719 118.867 106.109C118.648 106.495 118.536 106.924 118.531 107.398V109.359C118.531 109.953 118.641 110.466 118.859 110.898C119.083 111.331 119.398 111.664 119.805 111.898C120.211 112.133 120.693 112.25 121.25 112.25C121.62 112.25 121.958 112.198 122.266 112.094C122.573 111.99 122.836 111.833 123.055 111.625C123.273 111.417 123.44 111.161 123.555 110.859L126.633 111.062C126.477 111.802 126.156 112.448 125.672 113C125.193 113.547 124.573 113.974 123.813 114.281C123.057 114.583 122.185 114.734 121.195 114.734ZM132.203 98.5V114.5H128.875V98.5H132.203ZM140.695 108.086C140.695 106.148 140.953 104.365 141.469 102.734C141.99 101.104 142.784 99.5937 143.852 98.2031H147.031C146.625 98.7187 146.247 99.349 145.898 100.094C145.549 100.833 145.245 101.646 144.984 102.531C144.724 103.417 144.521 104.333 144.375 105.281C144.229 106.224 144.156 107.159 144.156 108.086C144.156 109.32 144.281 110.568 144.531 111.828C144.786 113.083 145.13 114.25 145.563 115.328C146 116.406 146.49 117.289 147.031 117.977H143.852C142.784 116.586 141.99 115.076 141.469 113.445C140.953 111.815 140.695 110.029 140.695 108.086ZM152.408 98.5V114.5H149.025V98.5H152.408ZM154.504 105.117V102.5H165.379V105.117H161.512V114.5H158.34V105.117H154.504ZM170.389 114.727C169.623 114.727 168.941 114.594 168.342 114.328C167.743 114.057 167.269 113.659 166.92 113.133C166.576 112.602 166.404 111.94 166.404 111.148C166.404 110.482 166.527 109.922 166.771 109.469C167.016 109.016 167.35 108.651 167.771 108.375C168.193 108.099 168.673 107.891 169.209 107.75C169.751 107.609 170.318 107.51 170.912 107.453C171.61 107.38 172.173 107.312 172.6 107.25C173.027 107.182 173.337 107.083 173.529 106.953C173.722 106.823 173.818 106.63 173.818 106.375V106.328C173.818 105.833 173.662 105.451 173.35 105.18C173.042 104.909 172.605 104.773 172.037 104.773C171.438 104.773 170.962 104.906 170.607 105.172C170.253 105.432 170.019 105.76 169.904 106.156L166.826 105.906C166.982 105.177 167.29 104.547 167.748 104.016C168.206 103.479 168.798 103.068 169.521 102.781C170.251 102.49 171.094 102.344 172.053 102.344C172.719 102.344 173.357 102.422 173.967 102.578C174.581 102.734 175.126 102.977 175.6 103.305C176.079 103.633 176.456 104.055 176.732 104.57C177.008 105.081 177.146 105.693 177.146 106.406V114.5H173.99V112.836H173.896C173.704 113.211 173.446 113.542 173.123 113.828C172.8 114.109 172.412 114.331 171.959 114.492C171.506 114.648 170.982 114.727 170.389 114.727ZM171.342 112.43C171.831 112.43 172.264 112.333 172.639 112.141C173.014 111.943 173.308 111.677 173.521 111.344C173.735 111.01 173.842 110.633 173.842 110.211V108.938C173.738 109.005 173.594 109.068 173.412 109.125C173.235 109.177 173.035 109.227 172.811 109.273C172.587 109.315 172.363 109.354 172.139 109.391C171.915 109.422 171.712 109.451 171.529 109.477C171.139 109.534 170.798 109.625 170.506 109.75C170.214 109.875 169.988 110.044 169.826 110.258C169.665 110.466 169.584 110.727 169.584 111.039C169.584 111.492 169.748 111.839 170.076 112.078C170.41 112.312 170.831 112.43 171.342 112.43ZM179.025 114.5L179.01 111.859H179.408C179.689 111.859 179.932 111.792 180.135 111.656C180.343 111.516 180.515 111.289 180.65 110.977C180.786 110.664 180.893 110.25 180.971 109.734C181.049 109.214 181.101 108.573 181.127 107.812L181.322 102.5H190.447V114.5H187.275V105.117H184.314L184.127 108.781C184.08 109.786 183.958 110.651 183.76 111.375C183.567 112.099 183.299 112.693 182.955 113.156C182.611 113.615 182.197 113.953 181.713 114.172C181.229 114.391 180.666 114.5 180.025 114.5H179.025ZM193.027 114.5V102.5H196.355V114.5H193.027ZM194.699 100.953C194.204 100.953 193.78 100.789 193.426 100.461C193.077 100.128 192.902 99.7292 192.902 99.2656C192.902 98.8073 193.077 98.4141 193.426 98.0859C193.78 97.7526 194.204 97.5859 194.699 97.5859C195.194 97.5859 195.616 97.7526 195.965 98.0859C196.319 98.4141 196.496 98.8073 196.496 99.2656C196.496 99.7292 196.319 100.128 195.965 100.461C195.616 100.789 195.194 100.953 194.699 100.953ZM206.053 114.5V105.109H203.803C203.193 105.109 202.73 105.25 202.412 105.531C202.094 105.812 201.938 106.146 201.943 106.531C201.938 106.922 202.089 107.253 202.396 107.523C202.709 107.789 203.167 107.922 203.771 107.922H207.162V110.172H203.771C202.745 110.172 201.857 110.016 201.107 109.703C200.357 109.391 199.779 108.956 199.373 108.398C198.967 107.836 198.766 107.182 198.771 106.437C198.766 105.656 198.967 104.971 199.373 104.383C199.779 103.789 200.36 103.328 201.115 103C201.876 102.667 202.771 102.5 203.803 102.5H209.154V114.5H206.053ZM198.428 114.5L201.764 108.25H204.943L201.615 114.5H198.428ZM217.35 108.086C217.35 110.029 217.089 111.815 216.568 113.445C216.053 115.076 215.261 116.586 214.193 117.977H211.014C211.42 117.461 211.798 116.831 212.146 116.086C212.495 115.341 212.8 114.529 213.061 113.648C213.321 112.763 213.524 111.846 213.67 110.898C213.816 109.951 213.889 109.013 213.889 108.086C213.889 106.852 213.761 105.607 213.506 104.352C213.256 103.091 212.912 101.924 212.475 100.852C212.042 99.7734 211.555 98.8906 211.014 98.2031H214.193C215.261 99.5937 216.053 101.104 216.568 102.734C217.089 104.365 217.35 106.148 217.35 108.086Z" fill="black"/>
<path d="M1132.16 96.8182V115H1128.32V100.467H1128.21L1124.04 103.077V99.668L1128.55 96.8182H1132.16ZM1143.26 115.249C1141.9 115.249 1140.68 115.027 1139.61 114.583C1138.56 114.133 1137.72 113.52 1137.12 112.745C1136.52 111.97 1136.21 111.091 1136.21 110.108C1136.21 109.351 1136.39 108.655 1136.73 108.022C1137.08 107.383 1137.55 106.853 1138.15 106.433C1138.75 106.007 1139.42 105.734 1140.16 105.616V105.492C1139.19 105.297 1138.4 104.826 1137.79 104.08C1137.19 103.329 1136.89 102.456 1136.89 101.461C1136.89 100.52 1137.16 99.6828 1137.71 98.9489C1138.27 98.209 1139.02 97.629 1139.98 97.2088C1140.94 96.7827 1142.04 96.5696 1143.26 96.5696C1144.49 96.5696 1145.58 96.7827 1146.54 97.2088C1147.5 97.6349 1148.26 98.2179 1148.81 98.9577C1149.36 99.6916 1149.64 100.526 1149.65 101.461C1149.64 102.462 1149.33 103.335 1148.72 104.08C1148.11 104.826 1147.33 105.297 1146.38 105.492V105.616C1147.11 105.734 1147.77 106.007 1148.36 106.433C1148.96 106.853 1149.43 107.383 1149.78 108.022C1150.13 108.655 1150.32 109.351 1150.32 110.108C1150.32 111.091 1150.01 111.97 1149.41 112.745C1148.8 113.52 1147.97 114.133 1146.9 114.583C1145.84 115.027 1144.63 115.249 1143.26 115.249ZM1143.26 112.425C1143.87 112.425 1144.41 112.316 1144.86 112.097C1145.32 111.872 1145.67 111.564 1145.93 111.174C1146.19 110.777 1146.32 110.321 1146.32 109.806C1146.32 109.28 1146.18 108.815 1145.92 108.413C1145.65 108.004 1145.29 107.685 1144.83 107.454C1144.38 107.217 1143.86 107.099 1143.26 107.099C1142.68 107.099 1142.15 107.217 1141.69 107.454C1141.23 107.685 1140.87 108.004 1140.6 108.413C1140.34 108.815 1140.21 109.28 1140.21 109.806C1140.21 110.321 1140.34 110.777 1140.59 111.174C1140.85 111.564 1141.2 111.872 1141.67 112.097C1142.13 112.316 1142.66 112.425 1143.26 112.425ZM1143.26 104.302C1143.77 104.302 1144.22 104.199 1144.62 103.991C1145.02 103.784 1145.33 103.497 1145.55 103.13C1145.78 102.763 1145.89 102.34 1145.89 101.861C1145.89 101.387 1145.78 100.973 1145.55 100.618C1145.33 100.257 1145.02 99.9757 1144.63 99.7745C1144.24 99.5674 1143.78 99.4638 1143.26 99.4638C1142.75 99.4638 1142.29 99.5674 1141.9 99.7745C1141.5 99.9757 1141.19 100.257 1140.96 100.618C1140.74 100.973 1140.64 101.387 1140.64 101.861C1140.64 102.34 1140.75 102.763 1140.97 103.13C1141.2 103.497 1141.51 103.784 1141.9 103.991C1142.3 104.199 1142.75 104.302 1143.26 104.302ZM1160.14 115.4C1158.61 115.394 1157.3 115.018 1156.2 114.272C1155.1 113.526 1154.26 112.446 1153.67 111.032C1153.08 109.617 1152.79 107.915 1152.8 105.927C1152.8 103.944 1153.09 102.254 1153.67 100.858C1154.27 99.4608 1155.11 98.3984 1156.2 97.6705C1157.31 96.9366 1158.62 96.5696 1160.14 96.5696C1161.66 96.5696 1162.97 96.9366 1164.06 97.6705C1165.16 98.4044 1166.01 99.4697 1166.6 100.866C1167.19 102.257 1167.49 103.944 1167.48 105.927C1167.48 107.921 1167.18 109.626 1166.59 111.04C1166.01 112.455 1165.17 113.535 1164.07 114.281C1162.98 115.027 1161.66 115.4 1160.14 115.4ZM1160.14 112.212C1161.18 112.212 1162.01 111.689 1162.63 110.641C1163.25 109.593 1163.56 108.022 1163.56 105.927C1163.56 104.548 1163.41 103.4 1163.13 102.482C1162.85 101.565 1162.45 100.875 1161.94 100.414C1161.43 99.9521 1160.83 99.7212 1160.14 99.7212C1159.1 99.7212 1158.27 100.239 1157.65 101.275C1157.03 102.311 1156.72 103.861 1156.71 105.927C1156.71 107.324 1156.85 108.49 1157.13 109.425C1157.41 110.354 1157.81 111.052 1158.33 111.52C1158.84 111.982 1159.45 112.212 1160.14 112.212ZM1177.35 115.4C1175.82 115.394 1174.51 115.018 1173.41 114.272C1172.31 113.526 1171.47 112.446 1170.88 111.032C1170.29 109.617 1170 107.915 1170.01 105.927C1170.01 103.944 1170.3 102.254 1170.89 100.858C1171.48 99.4608 1172.32 98.3984 1173.42 97.6705C1174.52 96.9366 1175.83 96.5696 1177.35 96.5696C1178.87 96.5696 1180.18 96.9366 1181.27 97.6705C1182.37 98.4044 1183.22 99.4697 1183.81 100.866C1184.4 102.257 1184.7 103.944 1184.69 105.927C1184.69 107.921 1184.4 109.626 1183.8 111.04C1183.22 112.455 1182.38 113.535 1181.28 114.281C1180.19 115.027 1178.88 115.4 1177.35 115.4ZM1177.35 112.212C1178.39 112.212 1179.22 111.689 1179.84 110.641C1180.47 109.593 1180.77 108.022 1180.77 105.927C1180.77 104.548 1180.63 103.4 1180.34 102.482C1180.06 101.565 1179.67 100.875 1179.15 100.414C1178.64 99.9521 1178.04 99.7212 1177.35 99.7212C1176.31 99.7212 1175.49 100.239 1174.86 101.275C1174.24 102.311 1173.93 103.861 1173.92 105.927C1173.92 107.324 1174.06 108.49 1174.34 109.425C1174.62 110.354 1175.02 111.052 1175.54 111.52C1176.05 111.982 1176.66 112.212 1177.35 112.212ZM1201.24 99.6946C1200.55 99.6946 1200.03 99.8337 1199.67 100.112C1199.32 100.39 1199.14 100.79 1199.11 101.31H1195.24C1195.31 100.292 1195.57 99.4312 1196.02 98.7269C1196.48 98.0226 1197.13 97.487 1197.99 97.12C1198.84 96.7531 1199.91 96.5696 1201.17 96.5696C1202.43 96.5696 1203.5 96.7442 1204.38 97.0934C1205.26 97.4426 1205.93 97.9279 1206.38 98.5494C1206.84 99.1708 1207.07 99.8988 1207.07 100.733C1207.07 101.13 1206.99 101.509 1206.84 101.87C1206.68 102.225 1206.48 102.55 1206.22 102.846C1205.97 103.136 1205.7 103.391 1205.4 103.61L1202.34 102.793C1202.65 102.556 1202.88 102.296 1203.04 102.012C1203.2 101.728 1203.27 101.402 1203.27 101.035C1203.27 100.627 1203.11 100.301 1202.76 100.059C1202.42 99.8159 1201.91 99.6946 1201.24 99.6946ZM1208.24 105.146H1194.01V102.598H1208.24V105.146ZM1208.24 108.972H1194.01V106.486H1208.24V108.972ZM1201.17 115.249C1199.13 115.249 1197.59 114.858 1196.54 114.077C1195.5 113.295 1194.97 112.224 1194.97 110.863C1194.97 110.455 1195.06 110.058 1195.23 109.673C1195.41 109.289 1195.63 108.942 1195.91 108.635C1196.19 108.327 1196.49 108.087 1196.82 107.915L1199.86 108.661C1199.52 108.898 1199.26 109.191 1199.08 109.54C1198.9 109.889 1198.81 110.23 1198.8 110.561C1198.81 111.07 1199.02 111.464 1199.44 111.742C1199.87 112.02 1200.45 112.159 1201.17 112.159C1201.9 112.159 1202.49 112.02 1202.93 111.742C1203.38 111.464 1203.62 110.984 1203.66 110.304H1207.57C1207.51 111.446 1207.24 112.381 1206.77 113.109C1206.3 113.837 1205.6 114.376 1204.68 114.725C1203.76 115.074 1202.59 115.249 1201.17 115.249Z" fill="#14142A"/>
</svg>
