<svg width="91" height="91" viewBox="0 0 91 91" fill="none" xmlns="http://www.w3.org/2000/svg">
<circle cx="45.2051" cy="45.5591" r="45" fill="#FE68A4"/>
<path d="M52.1945 63.2141L41.9059 56.8891C39.6692 55.5141 38.439 52.8741 38.1594 49.0241L36.2583 21.5791C36.2583 21.1391 35.8669 20.8091 35.4195 20.8091H23.2856C22.9501 20.8091 22.6146 21.0291 22.5028 21.3591C19.2037 31.0391 19.5951 40.9391 23.7889 51.4991C25.3545 55.4591 25.8578 57.7691 24.4599 60.2441C23.006 62.8841 22.9501 65.0291 24.348 67.2291C25.0749 68.3841 26.9761 70.1991 30.9462 69.0991L31.4494 68.9891C34.1334 68.4391 36.4819 67.9441 39.9488 68.2741C41.9059 68.4391 42.9124 68.8241 43.9748 69.2641C45.2049 69.7591 46.4351 70.2541 48.9514 70.2541C49.5105 70.2541 50.1256 70.2541 50.7966 70.1991C53.7602 69.9791 54.5989 68.5491 54.7667 67.7241C55.1581 66.2391 54.0957 64.3691 52.1945 63.2141ZM36.3701 47.4841L32.1764 47.7591C31.8409 47.7591 31.5613 47.7041 31.2817 47.4841C31.058 47.2641 30.8903 46.9891 30.8903 46.6591L30.1074 34.9991C30.1074 34.6691 30.2193 34.3941 30.387 34.1191C30.6107 33.8991 30.8903 33.7341 31.2258 33.7341L35.4195 33.4591L36.3701 47.4841ZM53.1451 67.3941C52.9774 68.0541 52.0827 68.4941 50.6848 68.6041C47.2179 68.8791 45.9878 68.3841 44.6458 67.7791C43.5834 67.3391 42.3532 66.8441 40.1165 66.6791C39.3337 66.6241 38.6068 66.5691 37.9358 66.5691C35.3636 66.5691 33.4065 66.9541 31.1139 67.4491L30.5548 67.5591C28.2622 68.1641 26.6406 67.7791 25.7459 66.4041C24.6835 64.7541 24.7394 63.2141 25.9137 61.0691C27.5912 57.9891 27.032 55.2391 25.3545 50.9491C21.3844 40.8841 20.8812 31.5891 23.9007 22.4591H34.6367L35.3077 31.7541L31.1139 32.0291C30.3311 32.0841 29.6601 32.4141 29.1009 33.0191C28.5977 33.5691 28.3181 34.3391 28.374 35.1091L29.1569 46.7691C29.2128 47.5391 29.5483 48.1991 30.1634 48.7491C30.7225 49.1891 31.3376 49.4641 32.0645 49.4641H32.2882L36.4819 49.1891C36.8734 54.6891 39.1659 57.1641 41.0112 58.3191L51.2999 64.6441C52.53 65.3591 53.3129 66.5691 53.1451 67.3941Z" fill="white"/>
<path d="M34.0224 63.269C33.0159 63.049 32.1771 62.444 31.618 61.619C31.0588 60.794 30.891 59.749 31.1147 58.814C31.2265 58.374 30.947 57.934 30.4996 57.824C30.0523 57.714 29.605 57.989 29.4931 58.429C29.1576 59.859 29.4372 61.289 30.22 62.499C31.0029 63.709 32.233 64.534 33.631 64.864H33.7987C34.1901 64.864 34.5256 64.589 34.6375 64.204C34.7493 63.819 34.4697 63.379 34.0224 63.269ZM66.3422 25.814H45.2616C43.1927 25.814 41.4593 27.464 41.4593 29.554V38.354C41.4593 39.949 42.8013 41.269 44.4229 41.269C46.0445 41.269 47.3865 39.949 47.3865 38.354V34.559C47.3865 33.844 47.9456 33.294 48.6725 33.294C49.3995 33.294 49.9586 33.844 49.9586 34.559V36.869C49.9586 38.464 51.3006 39.784 52.9222 39.784C54.5438 39.784 55.8858 38.464 55.8858 36.869V34.559C55.8858 33.844 56.445 33.294 57.1719 33.294H66.2304C68.2993 33.294 70.0327 31.644 70.0327 29.554C70.0327 27.464 68.467 25.814 66.3422 25.814ZM54.3201 34.504V36.814C54.3201 37.529 53.761 38.079 53.034 38.079C52.3071 38.079 51.748 37.529 51.748 36.814V34.504C51.748 32.909 50.406 31.589 48.7844 31.589C47.1628 31.589 45.8208 32.909 45.8208 34.504V38.299C45.8208 39.014 45.2616 39.564 44.5347 39.564C43.8078 39.564 43.2486 39.014 43.2486 38.299V29.499C43.2486 28.344 44.1992 27.409 45.3735 27.409H56.6127V31.644C55.2707 32.084 54.3201 33.184 54.3201 34.504ZM66.3422 31.589H58.1784V27.464H66.3981C67.5724 27.464 68.5229 28.399 68.5229 29.554C68.467 30.654 67.5165 31.589 66.3422 31.589ZM53.034 42.204C51.4125 42.204 50.0705 43.524 50.0705 45.119V46.769C50.0705 48.364 51.4125 49.684 53.034 49.684C54.6556 49.684 55.9976 48.364 55.9976 46.769V45.119C55.9976 43.524 54.6556 42.204 53.034 42.204ZM54.3201 46.769C54.3201 47.484 53.761 48.034 53.034 48.034C52.3071 48.034 51.748 47.484 51.748 46.769V45.119C51.748 44.404 52.3071 43.854 53.034 43.854C53.761 43.854 54.3201 44.404 54.3201 45.119V46.769Z" fill="white"/>
</svg>
