<svg width="157" height="89" viewBox="0 0 157 89" fill="none" xmlns="http://www.w3.org/2000/svg">
<path d="M48.0863 46.3148C47.9661 46.2752 47.8507 46.2246 47.7384 46.1669C47.6269 46.1084 47.521 46.0396 47.4198 45.9629C47.3201 45.8846 47.2284 45.7961 47.1438 45.6996C47.0624 45.6015 46.9904 45.4948 46.9288 45.3809C47.015 45.683 47.196 45.9716 47.4419 46.2096C47.687 46.4484 47.9946 46.6382 48.3377 46.7631C48.6825 46.8888 49.0541 46.9473 49.4304 46.9544C49.8076 46.9608 50.1871 46.9189 50.5618 46.8477C51.3074 46.7046 52.0586 46.4516 52.7891 46.0949C53.5189 45.7383 54.2226 45.2702 54.8757 44.7104C56.185 43.5924 57.2635 42.0734 57.9284 40.4279C58.0952 40.0168 58.2383 39.5977 58.3538 39.1762C58.4044 38.9651 58.4558 38.7548 58.5064 38.5468C58.5507 38.3365 58.5847 38.127 58.6234 37.919C58.7562 37.0848 58.7965 36.2672 58.7689 35.4994C58.761 35.3366 58.7539 35.1753 58.7444 35.0171C58.7286 34.859 58.7119 34.7032 58.6969 34.5482C58.6882 34.4715 58.6819 34.3948 58.6716 34.3189C58.6606 34.243 58.6487 34.1679 58.6368 34.092C58.6139 33.9425 58.5918 33.7931 58.568 33.646C58.5388 33.5005 58.5087 33.355 58.4803 33.2111C58.4653 33.1384 58.451 33.0664 58.4352 32.9953L58.3838 32.7826C58.3482 32.641 58.3135 32.5003 58.2795 32.3595C58.2415 32.2196 58.1988 32.0804 58.1593 31.9413C57.8375 30.8271 57.4129 29.7375 56.8721 28.5254C57.4034 30.2871 57.7133 32.1579 57.7205 34.0825C57.7213 35.044 57.6501 36.0189 57.4754 36.9915C57.3829 37.4754 57.2793 37.9633 57.1354 38.444C57.0998 38.5642 57.0666 38.686 57.0286 38.8062C56.9883 38.9256 56.9527 39.0458 56.9085 39.1636C56.8666 39.2822 56.8246 39.4016 56.7772 39.5194C56.7321 39.638 56.6839 39.7566 56.6341 39.8736C56.1779 40.9545 55.5881 41.9532 54.886 42.8333C54.5373 43.2753 54.1562 43.6825 53.7553 44.0628C53.3521 44.4384 52.9259 44.7824 52.4768 45.086C52.0269 45.3873 51.5589 45.6561 51.071 45.8728C50.5824 46.0886 50.0819 46.2776 49.5798 46.3741C49.0778 46.4713 48.5631 46.4769 48.0847 46.3156L48.0863 46.3148Z" fill="#FE68A4"/>
<path d="M60.1383 28.7967C60.3249 30.1638 60.4815 31.4772 60.585 32.7526C60.6886 34.028 60.7361 35.2662 60.7029 36.4578C60.963 35.781 61.216 35.029 61.3884 34.2027C61.4856 33.79 61.5481 33.3598 61.6121 32.9139C61.6406 32.6901 61.6588 32.4632 61.6793 32.2331C61.6888 32.1176 61.7007 32.0022 61.707 31.8844C61.7102 31.7666 61.7141 31.6487 61.7188 31.5309C61.722 31.4123 61.7252 31.2921 61.7283 31.172C61.7283 31.1119 61.7299 31.051 61.7307 30.9901C61.7307 30.93 61.7291 30.8699 61.7275 30.809C61.722 30.5663 61.7125 30.3204 61.7015 30.0744C61.6619 29.5842 61.6184 29.0892 61.5338 28.6045C61.5133 28.4827 61.4935 28.3626 61.473 28.2416C61.4524 28.1206 61.4239 28.0028 61.3986 27.8842C61.3457 27.6478 61.2951 27.4145 61.2334 27.1868C61.1686 26.9598 61.1021 26.7369 61.0334 26.5202C61.016 26.4664 60.9986 26.4119 60.982 26.3581C60.963 26.3059 60.9432 26.2529 60.9234 26.2C60.8839 26.0964 60.8444 25.9936 60.8056 25.8916C60.7376 25.72 60.6744 25.5516 60.5993 25.3919C60.525 25.2314 60.4506 25.0764 60.3763 24.923C60.2332 24.6162 60.064 24.3276 59.9067 24.0358C59.8671 23.9631 59.8276 23.8895 59.7865 23.8168C59.7438 23.7448 59.7011 23.6729 59.6584 23.6001C59.573 23.4554 59.4884 23.3083 59.4046 23.1573C59.3232 23.0063 59.2283 22.8569 59.1389 22.7011C59.0488 22.5453 58.9587 22.3848 58.8677 22.2188C59.1619 23.234 59.3975 24.2872 59.6007 25.38C59.8047 26.4736 59.977 27.6059 60.1399 28.7974L60.1383 28.7967Z" fill="#FE68A4"/>
<path d="M62.8312 21.6781C62.8834 23.0199 62.9546 24.3048 63.0099 25.5462C63.0652 26.7876 63.1048 27.9856 63.0977 29.1361C63.3475 28.4813 63.5895 27.7594 63.776 26.9703C63.8765 26.5765 63.9532 26.1654 64.0298 25.7407C64.0662 25.528 64.0947 25.3122 64.1247 25.0932C64.139 24.9832 64.1548 24.8726 64.1674 24.7611C64.1785 24.6496 64.1888 24.5373 64.1998 24.4242C64.2101 24.3104 64.2188 24.1965 64.2283 24.0826C64.2386 23.968 64.2465 23.8525 64.2512 23.7355C64.2615 23.5038 64.2702 23.269 64.2757 23.0334C64.2773 22.5621 64.2734 22.0877 64.2378 21.6196C64.2236 21.3855 64.2062 21.1523 64.1777 20.923C64.1516 20.6937 64.1263 20.4659 64.0923 20.2429C64.0559 20.02 64.0172 19.8009 63.9769 19.5867C63.9666 19.5337 63.9571 19.4807 63.946 19.4277C63.9342 19.3755 63.9223 19.3234 63.9105 19.2704C63.8852 19.1676 63.8606 19.0648 63.8369 18.9636C63.7927 18.792 63.7515 18.6252 63.7025 18.4631C63.6527 18.301 63.6029 18.1428 63.5531 17.9871C63.4558 17.6755 63.3404 17.3758 63.2337 17.0746C63.2068 16.9995 63.1799 16.9243 63.1522 16.8484C63.1238 16.7733 63.0945 16.6982 63.066 16.6223C63.0091 16.4705 62.9514 16.3171 62.8945 16.1605C62.8407 16.0032 62.7782 15.845 62.7205 15.6813C62.6612 15.5177 62.6043 15.3492 62.5482 15.1753C62.6335 16.1929 62.6794 17.2375 62.7174 18.3152C62.7553 19.3945 62.7838 20.5078 62.8304 21.6773L62.8312 21.6781Z" fill="#FE68A4"/>
<path d="M66.896 15.2402C66.9688 15.0821 67.0439 14.9223 67.1166 14.7594C67.1886 14.5966 67.2621 14.4321 67.3356 14.2652C67.4787 13.93 67.6282 13.5876 67.7681 13.2381C67.9136 12.891 68.0488 12.5368 68.1856 12.1881C68.4528 11.4867 68.6971 10.7917 68.8893 10.1464C68.9683 9.87049 69.0403 9.60797 69.1075 9.34862C69.1723 9.08847 69.2403 8.83545 69.3075 8.58005C69.3724 8.32307 69.4506 8.07004 69.5344 7.80436C69.6198 7.54106 69.7226 7.27301 69.8396 6.99072C69.2964 7.64701 68.7541 8.346 68.2488 9.11378C67.7436 9.88235 67.2739 10.7213 66.8842 11.648C66.4382 12.7131 66.1409 13.7845 65.9456 14.8243C65.7503 15.8656 65.6563 16.8746 65.6072 17.8321C65.8879 17.315 66.1686 16.7552 66.4604 16.1606C66.6019 15.8617 66.7521 15.5565 66.8952 15.2394L66.896 15.2402Z" fill="#FE68A4"/>
<path d="M57.458 27.7856C57.7766 28.1019 58.1205 28.3937 58.4494 28.6838C58.5143 28.1264 58.4763 27.4978 58.2589 26.8771C58.0438 26.2556 57.6351 25.6467 57.1298 25.2822C56.6997 24.9699 56.2317 24.8394 55.8079 24.5239C56.0198 25.2664 56.1961 26.0342 56.6072 26.7276C56.8444 27.1277 57.1377 27.4685 57.458 27.7856Z" fill="#FE68A4"/>
<path d="M60.9044 21.7282C61.0554 21.2886 61.1392 20.8094 61.0878 20.3279C61.0365 19.8455 60.8388 19.3608 60.5012 19.0256C60.2126 18.7393 59.837 18.5701 59.5801 18.2515C59.4797 18.8556 59.3808 19.4945 59.5753 20.0946C59.7983 20.7841 60.362 21.2854 60.9044 21.729V21.7282Z" fill="#FE68A4"/>
<path d="M64.7565 15.0861C64.9976 14.7192 65.1969 14.3342 65.2941 13.9301C65.389 13.5245 65.3748 13.0959 65.1984 12.7124C65.0474 12.3874 64.7802 12.102 64.6995 11.7319C64.5153 11.9486 64.3327 12.1834 64.1927 12.4436C64.0528 12.7029 63.9547 12.986 63.9405 13.2888C63.9247 13.636 64.0188 13.9688 64.1722 14.2709C64.3256 14.573 64.5382 14.845 64.7557 15.0861H64.7565Z" fill="#FE68A4"/>
<path d="M94.2299 11.743C93.8416 11.743 93.3151 11.9889 92.6509 12.4775C91.986 12.967 91.5345 13.4058 91.2941 13.7933C90.7019 14.7532 90.324 15.3162 90.1588 15.4822C89.4559 15.9812 88.9119 16.3504 88.5237 16.5908C86.6783 18.086 85.3935 19.2413 84.674 20.0525C82.9385 22.0111 81.4149 23.9586 80.1032 25.8974C77.8324 29.2216 75.7553 32.9332 73.872 37.0322C73.7233 37.3643 73.5763 37.5122 73.4284 37.475C72.837 33.1546 71.5909 27.3555 69.6894 20.0794C69.3233 18.6727 69.1146 17.7476 68.9612 16.979C68.9739 16.9419 68.9841 16.9031 68.9976 16.866C69.3423 15.9068 69.7519 14.9777 70.2318 14.0961C70.7117 13.2153 71.2644 12.3811 71.8969 11.6236C72.5287 10.8668 73.2403 10.1853 74.0246 9.61358C74.2238 9.47441 74.416 9.32576 74.6263 9.20478C74.8334 9.07906 75.0374 8.94543 75.2462 8.84026C75.666 8.62203 76.1103 8.44649 76.565 8.31918C77.0188 8.19188 77.4853 8.11281 77.9494 8.09383C78.4127 8.07644 78.8753 8.12072 79.3086 8.24644C79.7411 8.37216 80.1514 8.58249 80.4859 8.86873C80.8219 9.15734 81.086 9.52976 81.267 9.94409C81.4489 10.3584 81.5532 10.8131 81.592 11.2725C81.6307 11.7343 81.6062 12.2024 81.5264 12.6602C81.4465 13.1188 81.3097 13.564 81.1144 13.9862C80.9199 14.4084 80.6788 14.8141 80.3965 15.181C80.1142 15.5486 79.7861 15.8839 79.4042 16.1369C79.0263 16.39 78.5819 16.5528 78.1289 16.537C77.6774 16.5173 77.2291 16.3346 76.882 16.0373C76.7097 15.8871 76.5634 15.7052 76.4693 15.4957C76.3744 15.2877 76.3373 15.0521 76.3657 14.8228C76.3167 15.0979 76.361 15.3929 76.4946 15.6483C76.6251 15.9052 76.8298 16.1235 77.0678 16.2927C77.3066 16.4619 77.581 16.5868 77.8727 16.6525C78.1661 16.7189 78.4792 16.7102 78.7764 16.6414C78.9251 16.605 79.0706 16.5568 79.2105 16.4951C79.3497 16.4319 79.4849 16.3599 79.6145 16.2785C79.8731 16.1148 80.1095 15.9187 80.3277 15.702C80.7626 15.2671 81.1247 14.7619 81.4212 14.2108C81.5691 13.9364 81.6963 13.643 81.7983 13.3418C81.9011 13.0405 81.9762 12.7282 82.0316 12.4111C82.1352 11.777 82.147 11.1143 82.0189 10.4557C81.8932 9.80018 81.6102 9.14231 81.1381 8.60938C81.0219 8.47495 80.8907 8.35398 80.7547 8.23853C80.6139 8.12704 80.4716 8.02188 80.3174 7.93253C80.0138 7.74671 79.681 7.60913 79.341 7.5095C78.6563 7.31498 77.9376 7.28019 77.2394 7.35768C76.5389 7.43438 75.8534 7.61703 75.1956 7.88983C75.0311 7.95704 74.8682 8.03216 74.7077 8.11123L74.5868 8.1729L74.4729 8.23695L74.2428 8.36742C73.9313 8.53268 73.6411 8.73589 73.3446 8.93119L73.2893 8.96836L73.2363 9.00789L73.1296 9.08854L72.9169 9.24985L72.7034 9.41194C72.6338 9.46729 72.5674 9.5266 72.5002 9.58511C72.365 9.70134 72.2282 9.816 72.0938 9.93539C71.9657 10.0595 71.8368 10.1845 71.7072 10.3094C71.2012 10.8178 70.7212 11.3603 70.2943 11.947L70.1306 12.1644C70.0784 12.2387 70.0278 12.3146 69.9772 12.389C69.8752 12.54 69.7709 12.6894 69.6712 12.8413C69.4815 13.152 69.2822 13.4596 69.1083 13.7822C68.9241 14.0985 68.7628 14.4274 68.5944 14.7556C68.5129 14.9208 68.4386 15.0892 68.3595 15.2561L68.2441 15.5075L68.1374 15.7629C67.844 16.4414 67.5934 17.1443 67.3673 17.8551C67.1395 18.5644 66.9482 19.2879 66.7711 20.0169C66.594 20.746 66.4422 21.4821 66.2999 22.2206C66.0152 23.6977 65.7859 25.1882 65.5369 26.6684C65.2902 28.151 65.0206 29.6185 64.6703 31.0671C64.3232 32.5157 63.905 33.9437 63.4061 35.3322C62.9071 36.7207 62.33 38.0696 61.6634 39.3537C60.9985 40.6394 60.2403 41.8563 59.3982 42.9815C58.9768 43.5445 58.534 44.083 58.0723 44.5961C57.6105 45.1101 57.1243 45.5924 56.6262 46.051C55.6276 46.9588 54.5586 47.7439 53.4208 48.3093C52.9385 48.5513 52.4467 48.7545 51.947 48.9102C51.4497 49.066 50.9429 49.1767 50.4353 49.24C49.4225 49.3649 48.4033 49.3024 47.4569 49.0257C46.9857 48.8873 46.5287 48.6952 46.1112 48.4485C45.6929 48.201 45.3071 47.8966 44.9655 47.5486C44.284 46.8536 43.774 45.9767 43.5669 45.0176C43.5155 44.778 43.4815 44.5345 43.4696 44.2886L43.4649 44.1035C43.4641 44.0727 43.4625 44.0411 43.4625 44.011L43.4657 43.9193C43.4672 43.8584 43.4728 43.7967 43.4775 43.7351C43.4815 43.6734 43.4902 43.6117 43.4989 43.5508C43.5653 43.0598 43.7242 42.5774 43.9614 42.1291C44.1986 41.6824 44.5133 41.268 44.8975 40.9201C45.2802 40.573 45.7333 40.2907 46.2353 40.1168C46.486 40.0298 46.7477 39.9689 47.0165 39.9428C47.2837 39.9167 47.5581 39.927 47.8285 39.9705C48.3685 40.0598 48.8959 40.282 49.3553 40.6125C49.8139 40.9423 50.2179 41.3764 50.4907 41.8982C50.6274 42.1592 50.7358 42.4391 50.7943 42.734C50.8551 43.0297 50.871 43.3365 50.837 43.6425C50.8978 43.2211 50.8694 42.7838 50.7452 42.3727C50.6235 41.9599 50.4211 41.5725 50.1578 41.2301C49.6336 40.5445 48.8785 40.0235 48.0183 39.8029C47.8032 39.7491 47.5818 39.7143 47.3581 39.7016C47.1335 39.6874 46.9074 39.7024 46.6852 39.7341C46.2409 39.7965 45.8092 39.9444 45.4115 40.1547C44.6153 40.5785 43.9614 41.2506 43.521 42.0461C43.3036 42.4462 43.1328 42.8763 43.0371 43.3294C42.9881 43.5556 42.9557 43.788 42.943 44.0205L42.9367 44.3684C42.9383 44.4839 42.9494 44.5993 42.9557 44.7155C42.9968 45.1781 43.102 45.6343 43.2601 46.0716C43.302 46.1783 43.3399 46.289 43.3882 46.3958L43.536 46.7113L43.7052 47.0173C43.7321 47.0687 43.7645 47.1177 43.7962 47.1659L43.8902 47.313C44.4065 48.0871 45.0928 48.7592 45.9127 49.2423C46.7271 49.7255 47.6411 50.0331 48.5796 50.1627C49.5181 50.2956 50.478 50.2718 51.4141 50.0979C52.3542 49.9255 53.2627 49.6108 54.1206 49.1957C54.9776 48.7782 55.7849 48.2634 56.5423 47.687C56.9219 47.3984 57.2879 47.094 57.6437 46.7769C57.8208 46.618 57.994 46.4551 58.1695 46.2938C58.3387 46.1262 58.5127 45.9625 58.6795 45.7901C59.3492 45.1077 59.9793 44.3787 60.5676 43.6117C61.1551 42.8439 61.6959 42.0358 62.1963 41.1992C62.4486 40.7818 62.685 40.354 62.9174 39.9223C63.1436 39.4874 63.3665 39.0501 63.5729 38.6026C63.9888 37.7114 64.3699 36.7982 64.7091 35.8628C65.4926 33.7176 66.0595 31.5305 66.4778 29.3497C66.8921 27.1697 67.1696 25.0166 67.523 22.922C67.5293 22.8848 67.5372 22.8477 67.5428 22.8105C67.8709 23.5459 68.188 24.2907 68.4149 24.8972C68.9501 26.3561 69.6428 28.7108 70.4919 31.9598C71.5815 36.1521 72.1262 38.9592 72.1262 40.3817C72.1262 40.6402 71.7941 41.5812 71.1292 43.2061C70.4643 44.831 70.1322 46.1056 70.1322 47.0291C70.1322 48.1923 70.4832 48.7735 71.1853 48.7735C71.8131 48.7735 72.3666 48.1274 72.8473 46.8346C73.1794 45.9482 73.3636 45.2659 73.4016 44.7851C73.4933 42.8091 73.5494 41.3321 73.5668 40.3532C74.6192 37.0662 76.3918 33.4005 78.8848 29.356C81.8948 24.4813 85.0891 20.6226 88.4683 17.7784L88.6067 17.9176C84.2122 26.4304 82.0142 34.2505 82.0142 41.3779C82.0142 46.1791 83.4453 48.5797 86.3075 48.5797C87.3235 48.5797 88.3197 48.1741 89.2985 47.3612C90.241 46.6037 90.8688 45.7174 91.1819 44.7021C91.2934 44.5542 91.3479 44.3795 91.3479 44.1755V43.8157H91.1273C90.887 44.5724 90.4165 45.3014 89.7144 46.0036C88.9388 46.7975 88.1908 47.1952 87.4713 47.1952C85.5318 47.1952 84.5633 44.831 84.5633 40.1041C84.5633 36.5214 85.3002 32.0523 86.7787 26.6976C87.6642 23.4842 88.6067 20.7238 89.6045 18.415C90.1588 17.1229 90.49 16.4026 90.6007 16.254C91.5985 15.5162 92.3465 14.9619 92.8446 14.5927C94.1002 13.6501 94.728 12.8934 94.728 12.321C94.728 11.9335 94.5619 11.7398 94.2299 11.7398V11.743Z" fill="#FE68A4"/>
<path d="M49.2358 33.4375C46.7729 20.8487 53.7402 7.96563 65.6009 3.09012C80.7934 -3.32411 98.5642 5.44564 102.711 21.4116C106.967 37.4362 96.1282 53.6409 79.6596 55.7102C73.4916 56.4978 67.0936 55.0935 61.8271 51.797C63.1554 52.5917 64.5454 53.2812 65.9836 53.8457C67.4257 54.4032 68.9114 54.8444 70.4231 55.1559C90.2085 59.1538 107.372 41.0916 102.2 21.5476C98.0226 5.84337 80.791 -2.69945 65.7622 3.48073C54.0162 8.1902 46.969 20.9855 49.2358 33.4368V33.4375Z" fill="#FE68A4"/>
<path d="M6.08259 85.899C6.08259 84.8118 5.64219 84.1373 4.7614 83.8787C4.50206 83.8012 4.02292 83.7625 3.32398 83.7625V87.6227C3.32398 87.8734 3.35007 88.0149 3.40147 88.0497C3.48765 88.1106 3.72959 88.1406 4.12729 88.1406C4.72266 88.1406 5.19784 87.9509 5.55206 87.5705C5.90548 87.191 6.08259 86.6343 6.08259 85.8998V85.899ZM5.70703 81.573C5.70703 80.7443 5.51727 80.1916 5.13775 79.9149C4.93851 79.7678 4.56294 79.6943 4.01106 79.6943C3.864 79.6943 3.6355 79.7069 3.32398 79.733V83.4889H3.44021L4.15338 83.4628C4.64517 83.4462 5.02706 83.2707 5.29905 82.9378C5.57182 82.6065 5.70782 82.151 5.70782 81.5722L5.70703 81.573ZM7.44252 86.0413C7.44252 86.9222 7.04087 87.5745 6.23756 87.9967C5.84934 88.2047 5.29272 88.3336 4.5669 88.385C4.36765 88.3945 3.78098 88.3984 2.80531 88.3984H1.22558C1.07851 88.3984 1.00577 88.3612 1.00577 88.2877C1.00577 88.2142 1.13939 88.1778 1.40743 88.1778C1.71895 88.1778 1.90159 88.1446 1.95852 88.0805C2.01386 88.0157 2.04312 87.8188 2.04312 87.4907V80.4842C2.04312 80.1047 2.02572 79.8841 1.99093 79.824C1.93005 79.7212 1.71104 79.6642 1.33073 79.6563C1.09828 79.6563 0.981262 79.6105 0.981262 79.5195C0.981262 79.4389 1.08879 79.397 1.30543 79.397H1.46119C1.55528 79.4231 1.64225 79.4357 1.72053 79.4357H4.2451C5.17808 79.4444 5.87227 79.6002 6.33085 79.9022C6.86534 80.2565 7.13337 80.7696 7.13337 81.4425C7.13337 82.0308 6.91278 82.5116 6.47317 82.8872C6.03357 83.2628 5.41606 83.4976 4.62145 83.5933V83.6708C5.40816 83.7222 6.02013 83.8866 6.46052 84.1626C7.11677 84.5769 7.44489 85.2032 7.44489 86.0405L7.44252 86.0413Z" fill="#FE68A4"/>
<path d="M16.2227 86.3131C16.2227 86.3479 16.214 86.5598 16.1967 86.9472C16.18 87.3362 16.1714 87.7071 16.1714 88.0613V88.4883C15.3253 88.4369 13.6499 88.4108 11.1459 88.4108H9.52824C9.36378 88.4108 9.28156 88.376 9.28156 88.3064C9.28156 88.2606 9.30765 88.2329 9.35904 88.225C9.38513 88.225 9.5488 88.2131 9.85162 88.1902C10.0754 88.1728 10.2114 88.1254 10.2588 88.0471C10.3062 87.9688 10.33 87.7656 10.33 87.4367V80.136C10.33 79.8846 10.2936 79.7351 10.2201 79.6877C10.1465 79.6403 9.91171 79.6165 9.51401 79.6165C9.37643 79.6165 9.30686 79.5794 9.30686 79.5058C9.30686 79.4323 9.40094 79.3959 9.59149 79.3959H15.0826C15.3419 79.3959 15.5791 79.3778 15.7942 79.3438C15.8116 79.7146 15.8503 80.2293 15.9112 80.8848L15.9626 81.4415C15.9713 81.4858 15.9753 81.5411 15.9753 81.6107C15.9753 81.6969 15.9365 81.7396 15.859 81.7396C15.765 81.7396 15.6954 81.6313 15.6519 81.4138C15.4874 80.6318 15.2202 80.1368 14.8486 79.9281C14.5718 79.7723 13.846 79.6932 12.6727 79.6932H11.61V83.5005H11.9208C12.8885 83.5005 13.4776 83.427 13.6895 83.2799C13.9006 83.1328 14.0453 82.7051 14.1228 81.9974C14.1401 81.8155 14.1876 81.7254 14.2651 81.7254C14.3607 81.7254 14.4074 81.8029 14.4074 81.9578C14.4074 82.1128 14.3987 82.3429 14.3813 82.645C14.3647 82.947 14.3552 83.1755 14.3552 83.3305C14.3552 84.2556 14.3694 84.8898 14.3971 85.2345C14.4034 85.3207 14.4074 85.3943 14.4074 85.4551C14.4074 85.5674 14.36 85.6244 14.2659 85.6244C14.205 85.6244 14.1647 85.5872 14.1433 85.5137C14.1212 85.4401 14.0856 85.2005 14.0334 84.7949C13.9638 84.2849 13.7543 83.9702 13.4017 83.8492C13.2467 83.7978 12.8435 83.7717 12.1904 83.7717H11.61V88.1103C13.5092 88.1103 14.6232 88.0724 14.9522 87.9949C15.5214 87.8676 15.8456 87.322 15.9231 86.3581C15.9397 86.1446 15.9966 86.0387 16.0923 86.0387C16.1785 86.0387 16.2212 86.1288 16.2212 86.3107L16.2227 86.3131Z" fill="#FE68A4"/>
<path d="M22.2453 85.2123C22.1045 84.8241 21.8721 84.1836 21.5479 83.2861L20.9264 81.4904C20.5651 82.4448 20.1318 83.6846 19.6258 85.2123H22.2461H22.2453ZM25.7676 88.3142C25.7676 88.3878 25.7028 88.425 25.5731 88.425C25.4862 88.425 25.4087 88.421 25.3391 88.4123L23.6953 88.3601L22.05 88.4123C21.9891 88.421 21.925 88.425 21.8563 88.425C21.6831 88.425 21.5969 88.3791 21.5969 88.289C21.5969 88.1893 21.7131 88.1395 21.9464 88.1395C22.707 88.1308 23.0865 88.0549 23.0865 87.9118C23.0865 87.9031 23.0778 87.8691 23.0604 87.8098L22.9545 87.4674L22.8889 87.2871C22.8114 87.0191 22.6216 86.4276 22.3196 85.5112H19.5507C19.0336 86.8933 18.7751 87.6872 18.7751 87.8936C18.7751 88.0154 18.8272 88.0889 18.93 88.1142C18.9561 88.1237 19.172 88.1403 19.5776 88.1664C19.8282 88.1751 19.9531 88.2178 19.9531 88.2961C19.9531 88.3823 19.8409 88.425 19.6163 88.425C19.2194 88.425 18.7577 88.4076 18.2311 88.3728C18.1006 88.3649 17.967 88.3601 17.8294 88.3601C17.6919 88.3601 17.5574 88.3743 17.4278 88.4028C17.359 88.417 17.3029 88.425 17.2594 88.425C17.1384 88.425 17.0791 88.3862 17.0791 88.3071C17.0791 88.2281 17.2151 88.1869 17.4863 88.1775C17.7583 88.1688 17.9544 88.1276 18.0761 88.0541C18.1963 87.9806 18.2912 87.8398 18.36 87.6319C19.4708 84.4445 20.3746 81.8834 21.0719 79.9517C21.0925 79.8505 21.132 79.7358 21.1929 79.6085L21.2474 79.3721C21.2735 79.2764 21.3083 79.229 21.351 79.229C21.3771 79.229 21.3985 79.2543 21.4159 79.3065C21.5281 79.6433 21.7827 80.3471 22.1804 81.4177C22.4912 82.2558 23.2636 84.3583 24.4978 87.7252C24.5674 87.9213 24.656 88.0446 24.7635 88.0984C24.871 88.1514 25.0932 88.183 25.4308 88.1925C25.6554 88.2012 25.7676 88.2415 25.7676 88.315V88.3142Z" fill="#FE68A4"/>
<path d="M34.5993 79.5257C34.5993 79.5961 34.5218 79.6301 34.3668 79.6301H33.9264C33.7106 79.6301 33.5809 79.6854 33.5374 79.7977C33.5208 79.8586 33.5113 79.9567 33.5113 80.0958V84.9452C33.5113 86.204 33.2757 87.1197 32.806 87.6929C32.3356 88.2662 31.5782 88.5524 30.5337 88.5524C29.2813 88.5524 28.4005 88.199 27.8913 87.4905C27.5545 87.0161 27.3869 86.2349 27.3869 85.1469V79.9535C27.36 79.7977 27.2556 79.7028 27.0714 79.668C27.0192 79.6593 26.8571 79.6546 26.5859 79.6546C26.4373 79.638 26.363 79.5945 26.363 79.5257C26.363 79.4482 26.4231 79.4095 26.544 79.4095H29.4576C29.6039 79.4095 29.6782 79.4569 29.6782 79.551C29.6782 79.6111 29.6521 79.6451 29.6007 79.6546C29.5485 79.6633 29.3754 79.6712 29.0821 79.6799C28.9611 79.6799 28.8796 79.6886 28.8362 79.706C28.75 79.7408 28.7017 79.8001 28.6938 79.8863C28.6851 79.9211 28.6812 80.1662 28.6812 80.6216V85.2449C28.6812 86.3812 28.8615 87.1561 29.2252 87.5696C29.5873 87.9831 30.1273 88.1895 30.8436 88.1895C32.1561 88.1895 32.8986 87.4455 33.0717 85.9589C33.097 85.7352 33.1105 84.7895 33.1105 83.1219V80.0405C33.1105 79.8507 33.0195 79.7353 32.8377 79.6918C32.7776 79.6752 32.6005 79.6657 32.3071 79.6657C32.134 79.6657 32.0478 79.6182 32.0478 79.5241C32.0478 79.4466 32.1087 79.4087 32.2297 79.4087H34.2988C34.4988 79.4087 34.5985 79.4466 34.5985 79.5241L34.5993 79.5257Z" fill="#FE68A4"/>
<path d="M43.0174 81.715C43.0174 81.8273 42.966 81.8842 42.8624 81.8842C42.7588 81.8842 42.6853 81.772 42.6418 81.5466C42.6244 81.3916 42.607 81.2359 42.5896 81.0809C42.5295 80.7701 42.4299 80.506 42.2916 80.2902C42.1105 80.0055 41.8124 79.8244 41.3981 79.747C41.1309 79.6948 40.915 79.6734 40.7514 79.6821C40.345 79.694 40.0983 79.7019 40.0121 79.7082V87.5291C40.0121 87.8407 40.0951 88.0352 40.2588 88.1135C40.345 88.1561 40.5869 88.1822 40.9846 88.1909C41.0882 88.1996 41.1396 88.2368 41.1396 88.3016C41.1396 88.3752 41.0708 88.4116 40.9324 88.4116C40.8628 88.4116 40.8035 88.4076 40.7521 88.3989C40.2335 88.3823 39.8658 88.3728 39.6508 88.3728C39.3653 88.3728 39.0981 88.3791 38.8475 88.3926C38.5968 88.406 38.2774 88.4116 37.8892 88.4116C37.6899 88.4116 37.5911 88.3768 37.5911 88.308C37.5911 88.2305 37.7769 88.1878 38.1477 88.1791C38.415 88.1791 38.5881 88.1229 38.6656 88.0107C38.7083 87.9411 38.7304 87.764 38.7304 87.4785V79.7098C37.8757 79.7185 37.3444 79.7612 37.1373 79.8387C36.5933 80.0379 36.2739 80.5685 36.179 81.4312C36.1529 81.6905 36.092 81.8202 35.9971 81.8202C35.8936 81.8202 35.8414 81.7293 35.8414 81.5482C35.8414 81.4541 35.8461 81.3584 35.8548 81.2635L35.8809 80.9654C35.9062 80.5677 35.9449 80.0458 35.9971 79.3975H36.5791L39.2214 79.4362C39.533 79.4449 40.0153 79.4449 40.6715 79.4362L42.8221 79.3975C42.8387 79.8814 42.8956 80.5978 42.9897 81.5474C42.9897 81.5735 42.9937 81.6051 43.0031 81.6447C43.0118 81.6842 43.0158 81.7079 43.0158 81.7158L43.0174 81.715Z" fill="#FE68A4"/>
<path d="M52.1345 79.4932C52.1345 79.5581 52.0609 79.5913 51.9139 79.5913C51.4387 79.6 51.1453 79.683 51.0331 79.8403C50.9295 79.9368 50.5579 80.6785 49.9198 82.0646C49.6344 82.6782 49.3672 83.2175 49.1165 83.684C48.9434 84.005 48.8445 84.2232 48.8184 84.3395C48.7923 84.4573 48.7797 84.7103 48.7797 85.1001V87.5553C48.7797 87.8407 48.8169 88.0092 48.8904 88.0613C48.9631 88.1135 49.2201 88.1523 49.6605 88.1792C49.8929 88.195 50.01 88.2353 50.01 88.3009C50.01 88.3666 49.9499 88.3998 49.8289 88.3998H49.6731L47.8602 88.361C47.3502 88.361 46.9319 88.3697 46.6038 88.3863C46.5524 88.3958 46.4915 88.3998 46.4227 88.3998C46.3018 88.3998 46.2409 88.3586 46.2409 88.2764C46.2409 88.1942 46.3405 88.1491 46.539 88.1404C47.0142 88.123 47.2948 88.0795 47.381 88.0107C47.4672 87.9419 47.5115 87.7356 47.5115 87.3916V84.6692C47.4245 84.4802 47.1739 83.975 46.7596 83.155L45.4645 80.5899C45.3356 80.3393 45.1798 80.0594 44.9988 79.7478C44.9031 79.6616 44.6983 79.6189 44.3828 79.6189C44.0674 79.6189 43.91 79.5715 43.91 79.4766C43.91 79.4078 43.9788 79.373 44.118 79.373C44.299 79.373 44.6612 79.3817 45.2051 79.3991C45.5167 79.4078 45.7412 79.4118 45.878 79.4118L47.3802 79.392C47.4411 79.3794 47.5107 79.373 47.5882 79.373C47.7431 79.373 47.8214 79.4157 47.8214 79.5035C47.8214 79.581 47.6744 79.6197 47.381 79.6197C46.845 79.6197 46.5777 79.7162 46.5777 79.9068C46.5777 80.0546 46.8497 80.6492 47.3929 81.6922L48.5765 83.9331C48.7923 83.5448 49.039 83.0664 49.3158 82.4971L50.0811 80.9552C50.3618 80.3978 50.5033 80.0317 50.5033 79.8569C50.5033 79.7439 50.4298 79.6782 50.2827 79.6601C49.9799 79.6166 49.7775 79.5992 49.6739 79.6079C49.4842 79.6166 49.3885 79.5731 49.3885 79.4774C49.3885 79.4078 49.4699 79.373 49.6352 79.373H50.8141C51.6949 79.3477 52.1352 79.3881 52.1352 79.4956L52.1345 79.4932Z" fill="#FE68A4"/>
<path d="M64.0876 85.4976C64.0876 85.4889 64.0789 85.6059 64.0615 85.8479C64.0267 86.331 64.0101 86.8149 64.0101 87.298C64.0101 87.3581 64.0188 87.4688 64.0362 87.6277C64.0528 87.7883 64.0615 87.9796 64.0615 88.2042V88.3204C64.0615 88.4327 64.0267 88.4896 63.9587 88.4896C63.8908 88.4896 63.8283 88.4248 63.7769 88.2951C63.6551 87.993 63.535 87.8072 63.414 87.7384C62.7925 88.2825 62.0454 88.5545 61.1733 88.5545C59.9043 88.5545 58.8535 88.1125 58.0201 87.2261C57.1875 86.3413 56.7709 85.2256 56.7709 83.8782C56.7709 82.5308 57.1528 81.4159 57.9173 80.5564C58.6811 79.6977 59.6671 79.2676 60.876 79.2676C61.3164 79.2676 61.6682 79.3047 61.9315 79.3783C62.1948 79.4518 62.5213 79.6013 62.9095 79.8242C63.0993 79.9373 63.2416 79.9934 63.3373 79.9934C63.4148 79.9934 63.4883 79.9247 63.5571 79.7855C63.6694 79.5443 63.7595 79.4226 63.8291 79.4226C63.8987 79.4226 63.9327 79.4573 63.9327 79.5261C63.9327 79.5609 63.924 79.6171 63.9066 79.6953C63.8109 80.1097 63.7642 80.887 63.7642 82.0264C63.7642 82.1908 63.7516 82.2857 63.7255 82.3118C63.7002 82.3379 63.6654 82.3506 63.6219 82.3506C63.5357 82.3506 63.4804 82.2691 63.4543 82.1039C63.342 81.4136 63.1823 80.8996 62.9752 80.5635C62.5514 79.8725 61.8872 79.5269 60.9811 79.5269C60.2814 79.5269 59.7295 79.761 59.3231 80.2259C58.5894 81.0641 58.2217 82.2897 58.2217 83.9043C58.2217 85.3466 58.5238 86.4638 59.1286 87.2585C59.6552 87.9496 60.3541 88.2943 61.2262 88.2943C61.6761 88.2943 62.0857 88.182 62.4573 87.9575C62.8281 87.7329 63.1151 87.4237 63.3183 87.0308C63.5207 86.6386 63.6789 86.1649 63.7911 85.6122C63.8338 85.4059 63.8907 85.3015 63.9603 85.3015C64.0465 85.3015 64.0892 85.3663 64.0892 85.4952L64.0876 85.4976Z" fill="#FE68A4"/>
<path d="M72.894 84.0218C72.894 82.4372 72.5698 81.2029 71.9231 80.3197C71.5167 79.7654 70.9513 79.4887 70.2263 79.4887C69.5013 79.4887 68.9992 79.7006 68.6197 80.1252C67.92 80.9048 67.5713 82.1739 67.5713 83.9309C67.5713 85.3257 67.8148 86.4082 68.3026 87.1783C68.7905 87.9493 69.4744 88.3343 70.3552 88.3343C71.1751 88.3343 71.7926 87.9706 72.2069 87.2432C72.6655 86.4382 72.894 85.3644 72.894 84.0218ZM74.3441 83.957C74.3441 85.2435 73.9574 86.3315 73.1849 87.2202C72.4117 88.1098 71.4645 88.5542 70.3425 88.5542C69.1502 88.5542 68.1493 88.1035 67.3372 87.2005C66.5252 86.2983 66.1196 85.1865 66.1196 83.8653C66.1196 82.544 66.5102 81.4164 67.2922 80.5561C68.0733 79.6974 69.0727 79.2681 70.2904 79.2681C71.4384 79.2681 72.4014 79.7172 73.1778 80.6146C73.9551 81.5129 74.3433 82.627 74.3433 83.957H74.3441Z" fill="#FE68A4"/>
<path d="M81.8687 85.8728C81.8687 86.6153 81.5864 87.2478 81.0203 87.7705C80.455 88.2932 79.775 88.5541 78.9812 88.5541C78.5147 88.5541 77.9581 88.411 77.3105 88.1263C77.1374 88.0488 77.0077 88.0101 76.9215 88.0101C76.818 88.0101 76.7523 88.1303 76.7278 88.3683C76.7183 88.4916 76.663 88.5541 76.5586 88.5541C76.4724 88.5541 76.4297 88.5019 76.4297 88.3983C76.4297 88.3295 76.4337 88.2766 76.4424 88.2426C76.5112 87.7159 76.546 87.2281 76.546 86.7797C76.546 86.6936 76.5365 86.4516 76.5199 86.0539C76.5112 86.0025 76.5072 85.9329 76.5072 85.8467C76.5072 85.717 76.5586 85.6522 76.6622 85.6522C76.7484 85.6522 76.8093 85.7566 76.8433 85.9661C77.0678 87.5183 77.7976 88.2947 79.0318 88.2947C79.5584 88.2947 79.9664 88.1453 80.2557 87.8472C80.5443 87.5491 80.6898 87.1284 80.6898 86.5844C80.6898 86.1021 80.5499 85.6894 80.2684 85.3478C79.9877 85.007 79.507 84.6678 78.8246 84.3309C78.0039 83.9253 77.4347 83.5331 77.1145 83.1528C76.7958 82.7724 76.6353 82.302 76.6353 81.7406C76.6353 81.0242 76.8662 80.4327 77.3279 79.9662C77.7905 79.5005 78.3748 79.2664 79.0832 79.2664C79.3757 79.2664 79.7813 79.3661 80.3008 79.5645C80.4819 79.6333 80.6155 79.6681 80.7017 79.6681C80.7973 79.6681 80.8598 79.6515 80.8898 79.6167C80.9199 79.5819 80.9484 79.491 80.9744 79.3447C80.9911 79.2585 81.0393 79.2158 81.1168 79.2158C81.2029 79.2158 81.2456 79.2672 81.2456 79.3708C81.2456 79.4396 81.2417 79.4918 81.233 79.5258C81.2069 79.7337 81.1943 79.9844 81.1943 80.2777C81.1943 80.6921 81.2156 81.0202 81.2591 81.2614L81.2717 81.4693C81.2804 81.5642 81.2417 81.6117 81.1555 81.6117C81.0606 81.6117 80.995 81.512 80.9618 81.3136C80.8661 80.8036 80.6424 80.379 80.2874 80.0382C79.9332 79.6966 79.537 79.5258 79.0958 79.5258C78.6547 79.5258 78.3202 79.6642 78.0664 79.9409C77.8118 80.2169 77.6845 80.5924 77.6845 81.0677C77.6845 81.6204 77.8703 82.0647 78.2411 82.4016C78.4483 82.5914 78.8966 82.8602 79.5876 83.2049C80.3996 83.6106 80.9824 84.0233 81.3366 84.4416C81.69 84.8599 81.8671 85.3375 81.8671 85.8728H81.8687Z" fill="#FE68A4"/>
<path d="M92.824 88.3142C92.824 88.3878 92.7339 88.4249 92.5536 88.4249H89.327C89.1467 88.4249 89.0566 88.3862 89.0566 88.3071C89.0566 88.2209 89.1815 88.1782 89.4321 88.1782C89.8725 88.1782 90.1398 88.13 90.2354 88.0351C90.2781 87.9916 90.3003 87.7022 90.3003 87.1653V80.4459C90.3003 80.4554 90.2481 80.6064 90.1437 80.8998C89.7966 81.9435 89.2946 83.5146 88.6351 85.6116L88.0335 87.673C87.9117 88.0786 87.8255 88.2826 87.7741 88.2826C87.7124 88.2826 87.6484 88.179 87.5788 87.9711C87.329 87.1851 86.6245 85.2241 85.4638 82.0882L84.9491 80.706C84.9491 80.8697 84.9499 81.0943 84.9499 81.3789V85.5879C84.9499 87.1685 84.9625 87.9663 84.9886 87.9837C85.0487 88.096 85.2559 88.1514 85.6101 88.1514C85.8947 88.1514 86.037 88.1941 86.037 88.2802C86.037 88.3759 85.9469 88.4234 85.7651 88.4234C85.6528 88.4234 85.5492 88.4139 85.4543 88.3973C85.3326 88.3799 85.225 88.3712 85.1302 88.3712L83.6406 88.4234C83.4856 88.4234 83.4073 88.3846 83.4073 88.3055C83.4073 88.2194 83.654 88.1711 84.1458 88.1632C84.3537 88.1632 84.4739 88.1284 84.5087 88.0596C84.5435 87.9908 84.5601 87.7663 84.5601 87.3859V81.1726C84.5601 80.4546 84.5514 80.0656 84.534 80.0047C84.5 79.8837 84.4257 79.8023 84.315 79.758C84.2027 79.7153 83.9608 79.6805 83.5892 79.6544C83.4508 79.6457 83.3812 79.607 83.3812 79.5382C83.3812 79.4425 83.5077 79.395 83.7615 79.395H84.6653C85.18 79.395 85.5429 79.3919 85.7516 79.3848C85.7943 79.4978 86.045 80.1771 86.5035 81.4232C86.7012 81.9427 87.2539 83.4577 88.1623 85.9674C88.3284 85.4036 88.4992 84.8494 88.6739 84.3038L90.0583 80.0237C90.1445 79.7754 90.2204 79.5706 90.2876 79.4077L92.1978 79.395C92.4777 79.395 92.639 79.4085 92.6817 79.4338C92.7244 79.4599 92.745 79.4986 92.745 79.5508C92.745 79.6378 92.6714 79.6805 92.5244 79.6805C92.2824 79.6805 92.1188 79.6892 92.0326 79.7066C91.8254 79.7414 91.6823 79.8102 91.6049 79.9145C91.5622 79.9754 91.54 80.4815 91.54 81.4343V87.4745C91.54 87.8216 91.5748 88.0248 91.6436 88.0857C91.7559 88.164 92.0366 88.2028 92.4856 88.2028H92.5631C92.7363 88.2028 92.8225 88.2391 92.8225 88.3127L92.824 88.3142Z" fill="#FE68A4"/>
<path d="M101.113 86.3131C101.113 86.3479 101.104 86.5598 101.086 86.9472C101.07 87.3362 101.061 87.7071 101.061 88.0613V88.4883C100.215 88.4369 98.5398 88.4108 96.0358 88.4108H94.4181C94.2536 88.4108 94.1714 88.376 94.1714 88.3064C94.1714 88.2606 94.1975 88.2329 94.2489 88.225C94.275 88.225 94.4386 88.2131 94.7414 88.1902C94.9652 88.1728 95.102 88.1254 95.1486 88.0471C95.1961 87.9688 95.2198 87.7656 95.2198 87.4367V80.136C95.2198 79.8846 95.1834 79.7351 95.1099 79.6877C95.0364 79.6403 94.8015 79.6165 94.4038 79.6165C94.2663 79.6165 94.1975 79.5794 94.1975 79.5058C94.1975 79.4323 94.2916 79.3959 94.4821 79.3959H99.9732C100.233 79.3959 100.471 79.3778 100.685 79.3438C100.702 79.7146 100.742 80.2293 100.803 80.8848L100.854 81.4415C100.863 81.4858 100.867 81.5411 100.867 81.6107C100.867 81.6969 100.828 81.7396 100.75 81.7396C100.656 81.7396 100.587 81.6313 100.544 81.4138C100.38 80.6318 100.112 80.1368 99.7408 79.9281C99.464 79.7723 98.7382 79.6932 97.5649 79.6932H96.503V83.5005H96.8138C97.7815 83.5005 98.3706 83.427 98.5817 83.2799C98.7936 83.1328 98.9375 82.7051 99.015 81.9974C99.0324 81.8155 99.0798 81.7254 99.1581 81.7254C99.2529 81.7254 99.3004 81.8029 99.3004 81.9578C99.3004 82.1128 99.2917 82.3429 99.2743 82.645C99.2577 82.947 99.2482 83.1755 99.2482 83.3305C99.2482 84.2556 99.2624 84.8898 99.2901 85.2345C99.2972 85.3207 99.3004 85.3943 99.3004 85.4551C99.3004 85.5674 99.2529 85.6244 99.1589 85.6244C99.098 85.6244 99.0577 85.5872 99.0363 85.5137C99.0142 85.4401 98.9778 85.2005 98.9264 84.7949C98.8576 84.2849 98.6473 83.9702 98.2947 83.8492C98.1397 83.7978 97.7357 83.7717 97.0834 83.7717H96.503V88.1103C98.4022 88.1103 99.5162 88.0724 99.8444 87.9949C100.414 87.8676 100.738 87.322 100.815 86.3581C100.832 86.1446 100.889 86.0387 100.984 86.0387C101.07 86.0387 101.113 86.1288 101.113 86.3107V86.3131Z" fill="#FE68A4"/>
<path d="M109.673 81.715C109.673 81.8273 109.622 81.8842 109.518 81.8842C109.414 81.8842 109.341 81.772 109.297 81.5466C109.28 81.3916 109.263 81.2359 109.245 81.0809C109.185 80.7701 109.086 80.506 108.947 80.2902C108.766 80.0055 108.468 79.8244 108.054 79.747C107.787 79.6948 107.571 79.6734 107.407 79.6821C107.001 79.694 106.754 79.7019 106.668 79.7082V87.5291C106.668 87.8407 106.751 88.0352 106.914 88.1135C107.001 88.1561 107.243 88.1822 107.64 88.1909C107.744 88.1996 107.795 88.2368 107.795 88.3016C107.795 88.3752 107.726 88.4116 107.587 88.4116C107.518 88.4116 107.458 88.4076 107.407 88.3989C106.888 88.3823 106.521 88.3728 106.306 88.3728C106.021 88.3728 105.754 88.3791 105.503 88.3926C105.252 88.406 104.933 88.4116 104.545 88.4116C104.346 88.4116 104.247 88.3768 104.247 88.308C104.247 88.2305 104.433 88.1878 104.803 88.1791C105.071 88.1791 105.244 88.1229 105.321 88.0107C105.364 87.9411 105.386 87.764 105.386 87.4785V79.7098C104.531 79.7185 104 79.7612 103.794 79.8387C103.25 80.0379 102.93 80.5685 102.835 81.4312C102.809 81.6905 102.748 81.8202 102.654 81.8202C102.551 81.8202 102.499 81.7293 102.499 81.5482C102.499 81.4541 102.503 81.3584 102.512 81.2635L102.538 80.9654C102.563 80.5677 102.602 80.0458 102.654 79.3975H103.236L105.879 79.4362C106.19 79.4449 106.672 79.4449 107.329 79.4362L109.479 79.3975C109.496 79.8814 109.553 80.5978 109.647 81.5474C109.647 81.5735 109.651 81.6051 109.66 81.6447C109.669 81.6842 109.673 81.7079 109.673 81.7158V81.715Z" fill="#FE68A4"/>
<path d="M118.104 84.0218C118.104 82.4372 117.78 81.2029 117.133 80.3197C116.727 79.7654 116.161 79.4887 115.436 79.4887C114.711 79.4887 114.21 79.7006 113.83 80.1252C113.131 80.9048 112.781 82.1739 112.781 83.9309C112.781 85.3257 113.025 86.4082 113.512 87.1783C114 87.9493 114.684 88.3343 115.565 88.3343C116.385 88.3343 117.002 87.9706 117.417 87.2432C117.875 86.4382 118.104 85.3644 118.104 84.0218ZM119.554 83.957C119.554 85.2435 119.168 86.3315 118.395 87.2202C117.622 88.1098 116.674 88.5542 115.552 88.5542C114.36 88.5542 113.359 88.1035 112.547 87.2005C111.735 86.2983 111.33 85.1865 111.33 83.8653C111.33 82.544 111.721 81.4164 112.503 80.5561C113.284 79.6974 114.283 79.2681 115.501 79.2681C116.649 79.2681 117.612 79.7172 118.388 80.6146C119.166 81.5129 119.554 82.627 119.554 83.957Z" fill="#FE68A4"/>
<path d="M128.179 87.3756C128.179 87.6002 128.166 87.971 128.14 88.4897H127.998C127.947 88.4897 127.822 88.481 127.623 88.4644C127.425 88.447 127.201 88.4383 126.952 88.4383L121.575 88.3996C121.428 88.3996 121.354 88.3608 121.354 88.2833C121.354 88.2225 121.47 88.1837 121.704 88.1663C122.032 88.1497 122.229 88.1133 122.293 88.0564C122.358 88.0003 122.391 87.839 122.391 87.5701V80.2916C122.391 79.973 122.358 79.7864 122.293 79.735C122.229 79.6836 121.997 79.6575 121.601 79.6575C121.436 79.6575 121.354 79.61 121.354 79.5152C121.354 79.4377 121.406 79.3989 121.509 79.3989H121.625C121.911 79.425 122.476 79.4377 123.322 79.4377C123.4 79.4377 123.551 79.4313 123.775 79.4179C124 79.4045 124.186 79.3989 124.333 79.3989H124.475C124.63 79.3989 124.708 79.4416 124.708 79.5278C124.708 79.58 124.684 79.6124 124.636 79.6251C124.589 79.6385 124.44 79.6496 124.19 79.6575C123.94 79.6662 123.79 79.7073 123.743 79.7808C123.695 79.8544 123.672 80.0805 123.672 80.4608V88.1023C123.904 88.111 124.228 88.1149 124.643 88.1149C125.652 88.1149 126.365 88.0635 126.78 87.9599C127.194 87.8563 127.475 87.6618 127.622 87.3772C127.768 87.0917 127.854 86.7082 127.881 86.2243C127.888 86.112 127.939 86.0551 128.03 86.0551C128.137 86.0551 128.187 86.12 128.179 86.2496V87.3764V87.3756Z" fill="#FE68A4"/>
<path d="M136.545 84.0218C136.545 82.4372 136.221 81.2029 135.574 80.3197C135.168 79.7654 134.602 79.4887 133.877 79.4887C133.152 79.4887 132.651 79.7006 132.271 80.1252C131.572 80.9048 131.222 82.1739 131.222 83.9309C131.222 85.3257 131.466 86.4082 131.954 87.1783C132.442 87.9493 133.126 88.3343 134.006 88.3343C134.826 88.3343 135.444 87.9706 135.858 87.2432C136.317 86.4382 136.545 85.3644 136.545 84.0218ZM137.995 83.957C137.995 85.2435 137.609 86.3315 136.836 87.2202C136.064 88.1098 135.116 88.5542 133.994 88.5542C132.801 88.5542 131.8 88.1035 130.988 87.2005C130.176 86.2983 129.771 85.1865 129.771 83.8653C129.771 82.544 130.161 81.4164 130.943 80.5561C131.724 79.6974 132.724 79.2681 133.941 79.2681C135.09 79.2681 136.052 79.7172 136.829 80.6146C137.606 81.5129 137.994 82.627 137.994 83.957H137.995Z" fill="#FE68A4"/>
<path d="M148.343 85.685C148.343 85.7498 148.239 85.783 148.032 85.783C147.565 85.783 147.306 85.8518 147.255 85.9894C147.219 86.0835 147.202 86.4575 147.202 87.1106V87.5234C146.753 87.9013 146.326 88.1678 145.92 88.322C145.514 88.4762 145.026 88.5537 144.457 88.5537C143.093 88.5537 142.009 88.1464 141.207 87.3304C140.404 86.5136 140.002 85.4066 140.002 84.0079C140.002 82.6091 140.395 81.4484 141.181 80.5754C141.967 79.704 143.002 79.2676 144.289 79.2676C144.85 79.2676 145.463 79.4226 146.128 79.7333C146.326 79.829 146.491 79.8764 146.62 79.8764C146.784 79.8764 146.892 79.7728 146.944 79.5657C146.987 79.4439 147.039 79.3846 147.099 79.3846C147.168 79.3846 147.202 79.4233 147.202 79.5008C147.202 79.5095 147.194 79.591 147.179 79.7475C147.126 80.2575 147.103 80.6323 147.112 80.8735V81.5733C147.121 81.9275 147.116 82.1473 147.099 82.2335C147.082 82.3197 147.035 82.3632 146.957 82.3632C146.88 82.3632 146.836 82.3023 146.828 82.1813C146.785 81.3487 146.542 80.6916 146.102 80.2101C145.661 79.7294 145.083 79.489 144.366 79.489C143.469 79.489 142.758 79.8899 142.236 80.6901C141.714 81.4911 141.453 82.5838 141.453 83.9699C141.453 85.356 141.718 86.3753 142.249 87.1589C142.78 87.9424 143.499 88.3339 144.406 88.3339C145.096 88.3339 145.571 88.1346 145.83 87.7361C145.959 87.536 146.024 87.1755 146.024 86.6552C146.024 86.2211 145.983 85.9649 145.9 85.8874C145.819 85.8091 145.536 85.7743 145.053 85.783C144.931 85.783 144.853 85.7783 144.819 85.7656C144.784 85.7546 144.767 85.7293 144.767 85.6905C144.767 85.6059 144.862 85.5632 145.053 85.5632H145.286C145.476 85.5727 145.951 85.5727 146.711 85.5632H148.083C148.256 85.5632 148.343 85.6043 148.343 85.6858V85.685Z" fill="#FE68A4"/>
<path d="M156.98 79.4932C156.98 79.5581 156.907 79.5913 156.761 79.5913C156.285 79.6 155.992 79.683 155.88 79.8403C155.776 79.9368 155.405 80.6785 154.766 82.0646C154.48 82.6782 154.213 83.2175 153.963 83.684C153.789 84.005 153.691 84.2232 153.664 84.3395C153.638 84.4573 153.626 84.7103 153.626 85.1001V87.5553C153.626 87.8407 153.663 88.0092 153.736 88.0613C153.809 88.1135 154.066 88.1523 154.506 88.1792C154.74 88.195 154.856 88.2353 154.856 88.3009C154.856 88.3666 154.796 88.3998 154.675 88.3998H154.52L152.707 88.361C152.197 88.361 151.779 88.3697 151.451 88.3863C151.399 88.3958 151.338 88.3998 151.269 88.3998C151.149 88.3998 151.088 88.3586 151.088 88.2764C151.088 88.1942 151.187 88.1491 151.386 88.1404C151.861 88.123 152.142 88.0795 152.228 88.0107C152.314 87.9419 152.357 87.7356 152.357 87.3916V84.6692C152.271 84.4802 152.02 83.975 151.606 83.155L150.31 80.5899C150.182 80.3393 150.026 80.0594 149.845 79.7478C149.75 79.6616 149.544 79.6189 149.229 79.6189C148.913 79.6189 148.757 79.5715 148.757 79.4766C148.757 79.4078 148.826 79.373 148.964 79.373C149.146 79.373 149.507 79.3817 150.052 79.3991C150.363 79.4078 150.588 79.4118 150.725 79.4118L152.227 79.392C152.288 79.3794 152.356 79.373 152.435 79.373C152.59 79.373 152.667 79.4157 152.667 79.5035C152.667 79.581 152.52 79.6197 152.227 79.6197C151.691 79.6197 151.424 79.7162 151.424 79.9068C151.424 80.0546 151.696 80.6492 152.239 81.6922L153.423 83.9331C153.638 83.5448 153.885 83.0664 154.162 82.4971L154.927 80.9552C155.208 80.3978 155.349 80.0317 155.349 79.8569C155.349 79.7439 155.276 79.6782 155.129 79.6601C154.826 79.6166 154.624 79.5992 154.52 79.6079C154.33 79.6166 154.235 79.5731 154.235 79.4774C154.235 79.4078 154.317 79.373 154.481 79.373H155.66C156.541 79.3477 156.981 79.3881 156.981 79.4956L156.98 79.4932Z" fill="#FE68A4"/>
</svg>
