<svg width="196" height="52" viewBox="0 0 196 52" fill="none" xmlns="http://www.w3.org/2000/svg">
<path d="M4.90849 42.3187C4.79871 42.2826 4.69326 42.2364 4.59071 42.1836C4.48887 42.1302 4.39209 42.0674 4.29964 41.9973C4.20864 41.9258 4.12486 41.8449 4.04758 41.7568C3.97319 41.6672 3.90747 41.5697 3.85114 41.4657C3.92986 41.7416 4.09525 42.0052 4.31987 42.2226C4.54376 42.4408 4.82471 42.6141 5.13816 42.7282C5.45306 42.8431 5.79251 42.8965 6.1363 42.903C6.4808 42.9088 6.82748 42.8705 7.16982 42.8055C7.85089 42.6748 8.53701 42.4437 9.20436 42.1179C9.87099 41.7922 10.5138 41.3646 11.1103 40.8532C12.3064 39.8319 13.2915 38.4444 13.8989 36.9413C14.0513 36.5657 14.182 36.1829 14.2875 35.7979C14.3337 35.6051 14.3806 35.4129 14.4269 35.223C14.4673 35.0309 14.4984 34.8395 14.5338 34.6495C14.6551 33.8875 14.6919 33.1406 14.6666 32.4393C14.6594 32.2905 14.6529 32.1432 14.6443 31.9987C14.6298 31.8543 14.6146 31.712 14.6009 31.5704C14.593 31.5003 14.5872 31.4303 14.5778 31.3609C14.5677 31.2916 14.5569 31.223 14.546 31.1536C14.5251 31.0171 14.5049 30.8806 14.4832 30.7463C14.4565 30.6134 14.429 30.4805 14.403 30.349C14.3893 30.2826 14.3763 30.2168 14.3619 30.1518L14.3149 29.9575C14.2824 29.8282 14.2506 29.6997 14.2196 29.5711C14.1849 29.4433 14.1459 29.3161 14.1098 29.189C13.8158 28.1713 13.428 27.176 12.934 26.0688C13.4193 27.678 13.7025 29.3869 13.709 31.145C13.7097 32.0233 13.6447 32.9138 13.4851 33.8023C13.4006 34.2443 13.3059 34.6899 13.1745 35.1291C13.142 35.2389 13.1117 35.3501 13.077 35.4599C13.0402 35.569 13.0077 35.6787 12.9672 35.7864C12.9289 35.8947 12.8907 36.0038 12.8473 36.1114C12.8062 36.2197 12.7621 36.3281 12.7166 36.435C12.2999 37.4223 11.7611 38.3346 11.1197 39.1385C10.8012 39.5422 10.4531 39.9142 10.0869 40.2616C9.71859 40.6047 9.32931 40.9189 8.91908 41.1963C8.50812 41.4715 8.08056 41.717 7.63494 41.915C7.1886 42.1121 6.73142 42.2848 6.2728 42.3729C5.81418 42.4617 5.344 42.4668 4.90705 42.3194L4.90849 42.3187Z" fill="#FE68A4"/>
<path d="M15.9175 26.3166C16.088 27.5654 16.231 28.7652 16.3256 29.9302C16.4202 31.0952 16.4635 32.2263 16.4332 33.3148C16.6708 32.6965 16.9019 32.0097 17.0594 31.2549C17.1482 30.8778 17.2053 30.4849 17.2638 30.0775C17.2898 29.8731 17.3064 29.6658 17.3252 29.4557C17.3338 29.3502 17.3447 29.2447 17.3505 29.1371C17.3533 29.0295 17.357 28.9219 17.3613 28.8143C17.3642 28.7059 17.3671 28.5961 17.37 28.4864C17.37 28.4315 17.3714 28.3758 17.3721 28.3202C17.3721 28.2653 17.3707 28.2104 17.3692 28.1548C17.3642 27.9331 17.3555 27.7085 17.3454 27.4838C17.3093 27.036 17.2696 26.5839 17.1923 26.1411C17.1735 26.0299 17.1554 25.9201 17.1367 25.8096C17.1179 25.6991 17.0919 25.5914 17.0688 25.4831C17.0204 25.2671 16.9742 25.0541 16.9178 24.846C16.8586 24.6387 16.7979 24.4351 16.7351 24.2371C16.7192 24.188 16.7033 24.1382 16.6882 24.0891C16.6708 24.0414 16.6528 23.993 16.6347 23.9446C16.5986 23.85 16.5625 23.7561 16.5271 23.6629C16.465 23.5062 16.4072 23.3524 16.3386 23.2065C16.2707 23.0598 16.2028 22.9183 16.1349 22.7781C16.0042 22.4979 15.8496 22.2343 15.7059 21.9677C15.6698 21.9013 15.6337 21.8341 15.5961 21.7677C15.5571 21.7019 15.5181 21.6362 15.4791 21.5698C15.4011 21.4376 15.3239 21.3032 15.2473 21.1653C15.1729 21.0273 15.0862 20.8908 15.0046 20.7485C14.9223 20.6062 14.84 20.4596 14.7569 20.3079C15.0256 21.2353 15.2408 22.1974 15.4264 23.1956C15.6127 24.1945 15.7702 25.2288 15.919 26.3173L15.9175 26.3166Z" fill="#FE68A4"/>
<path d="M18.3775 19.8141C18.4251 21.0398 18.4901 22.2135 18.5407 23.3475C18.5912 24.4815 18.6274 25.5758 18.6209 26.6267C18.8491 26.0286 19.0701 25.3692 19.2405 24.6483C19.3323 24.2886 19.4023 23.9131 19.4724 23.5252C19.5056 23.3309 19.5316 23.1337 19.559 22.9336C19.572 22.8332 19.5865 22.7321 19.598 22.6303C19.6081 22.5284 19.6175 22.4259 19.6277 22.3226C19.637 22.2186 19.645 22.1146 19.6537 22.0106C19.663 21.9058 19.6703 21.8004 19.6746 21.6935C19.684 21.4818 19.6919 21.2673 19.697 21.0521C19.6984 20.6216 19.6948 20.1882 19.6623 19.7606C19.6493 19.5468 19.6334 19.3338 19.6074 19.1243C19.5836 18.9148 19.5605 18.7068 19.5294 18.5031C19.4962 18.2995 19.4608 18.0994 19.424 17.9036C19.4146 17.8553 19.4059 17.8069 19.3958 17.7585C19.385 17.7108 19.3741 17.6631 19.3633 17.6147C19.3402 17.5208 19.3178 17.4269 19.2961 17.3345C19.2557 17.1778 19.2181 17.0254 19.1734 16.8773C19.1279 16.7292 19.0824 16.5848 19.0369 16.4425C18.948 16.1579 18.8426 15.8841 18.7451 15.609C18.7205 15.5403 18.696 15.4717 18.6707 15.4024C18.6447 15.3338 18.618 15.2651 18.592 15.1958C18.54 15.0571 18.4872 14.917 18.4352 14.774C18.3861 14.6303 18.3291 14.4858 18.2763 14.3363C18.2222 14.1868 18.1702 14.0329 18.1189 13.874C18.1969 14.8036 18.2388 15.7577 18.2735 16.7422C18.3081 17.7281 18.3341 18.7451 18.3767 19.8134L18.3775 19.8141Z" fill="#FE68A4"/>
<path d="M22.0905 13.9333C22.1569 13.7889 22.2255 13.643 22.292 13.4942C22.3577 13.3454 22.4249 13.1952 22.492 13.0428C22.6227 12.7365 22.7592 12.4238 22.8871 12.1045C23.02 11.7874 23.1435 11.4638 23.2684 11.1453C23.5125 10.5046 23.7357 9.86976 23.9112 9.28037C23.9834 9.0283 24.0492 8.7885 24.1106 8.55159C24.1698 8.31396 24.2319 8.08283 24.2933 7.84953C24.3525 7.61478 24.424 7.38365 24.5006 7.14097C24.5786 6.90045 24.6725 6.65559 24.7793 6.39774C24.2832 6.99723 23.7877 7.63573 23.3262 8.33707C22.8647 9.03913 22.4357 9.80547 22.0796 10.652C21.6723 11.6249 21.4007 12.6036 21.2223 13.5534C21.0439 14.5047 20.958 15.4263 20.9132 16.301C21.1696 15.8286 21.426 15.3172 21.6925 14.7741C21.8218 14.501 21.959 14.2222 22.0897 13.9326L22.0905 13.9333Z" fill="#FE68A4"/>
<path d="M13.4691 25.3932C13.7602 25.6822 14.0743 25.9487 14.3748 26.2138C14.434 25.7045 14.3993 25.1303 14.2007 24.5633C14.0043 23.9956 13.6309 23.4395 13.1694 23.1065C12.7765 22.8212 12.3489 22.702 11.9618 22.4138C12.1554 23.092 12.3164 23.7934 12.692 24.4268C12.9086 24.7923 13.1766 25.1036 13.4691 25.3932Z" fill="#FE68A4"/>
<path d="M16.6174 19.86C16.7554 19.4585 16.8319 19.0207 16.785 18.5809C16.738 18.1403 16.5575 17.6975 16.2491 17.3913C15.9854 17.1298 15.6424 16.9752 15.4077 16.6842C15.3159 17.236 15.2257 17.8196 15.4033 18.3678C15.607 18.9976 16.122 19.4556 16.6174 19.8608V19.86Z" fill="#FE68A4"/>
<path d="M20.1361 13.7928C20.3564 13.4577 20.5384 13.106 20.6273 12.7369C20.7139 12.3663 20.7009 11.9749 20.5399 11.6245C20.4019 11.3277 20.1578 11.0669 20.0841 10.7289C19.9159 10.9268 19.749 11.1413 19.6212 11.379C19.4934 11.6159 19.4038 11.8745 19.3908 12.1511C19.3764 12.4682 19.4623 12.7723 19.6024 13.0482C19.7425 13.3241 19.9368 13.5725 20.1354 13.7928H20.1361Z" fill="#FE68A4"/>
<path d="M47.059 10.7386C46.7044 10.7386 46.2234 10.9633 45.6167 11.4097C45.0093 11.8567 44.5969 12.2576 44.3773 12.6115C43.8364 13.4884 43.4911 14.0027 43.3402 14.1543C42.6981 14.6101 42.2012 14.9474 41.8466 15.167C40.1609 16.5328 38.9873 17.5881 38.33 18.3291C36.7447 20.1182 35.353 21.8972 34.1548 23.6683C32.0805 26.7047 30.1832 30.0951 28.4628 33.8395C28.327 34.1428 28.1927 34.2779 28.0576 34.2439C27.5174 30.2974 26.3791 25.0002 24.6422 18.3537C24.3078 17.0687 24.1171 16.2237 23.977 15.5216C23.9885 15.4877 23.9979 15.4523 24.0102 15.4183C24.3251 14.5422 24.6992 13.6935 25.1376 12.8882C25.576 12.0835 26.0809 11.3215 26.6587 10.6296C27.2357 9.93836 27.8857 9.31575 28.6022 8.79354C28.7842 8.66641 28.9597 8.53062 29.1518 8.42011C29.341 8.30527 29.5274 8.18321 29.7181 8.08714C30.1016 7.88779 30.5075 7.72744 30.9227 7.61116C31.3373 7.49487 31.7634 7.42264 32.1874 7.4053C32.6106 7.38941 33.0331 7.42986 33.4289 7.54471C33.824 7.65955 34.1988 7.85168 34.5043 8.11314C34.8113 8.37678 35.0525 8.71697 35.2179 9.09545C35.384 9.47393 35.4793 9.88924 35.5147 10.3089C35.5501 10.7307 35.5277 11.1583 35.4548 11.5765C35.3818 11.9954 35.2569 12.4021 35.0785 12.7878C34.9008 13.1735 34.6805 13.544 34.4227 13.8791C34.1649 14.215 33.8651 14.5213 33.5163 14.7524C33.1711 14.9835 32.7652 15.1323 32.3513 15.1179C31.9389 15.0998 31.5294 14.933 31.2124 14.6614C31.0549 14.5241 30.9213 14.358 30.8354 14.1666C30.7487 13.9766 30.7147 13.7614 30.7407 13.5519C30.696 13.8033 30.7364 14.0727 30.8585 14.306C30.9776 14.5408 31.1647 14.7401 31.3821 14.8947C31.6002 15.0492 31.8508 15.1634 32.1173 15.2233C32.3853 15.284 32.6713 15.276 32.9428 15.2132C33.0786 15.18 33.2115 15.1359 33.3394 15.0796C33.4665 15.0218 33.59 14.9561 33.7084 14.8817C33.9446 14.7322 34.1605 14.553 34.3599 14.3551C34.7571 13.9579 35.0879 13.4963 35.3587 12.9929C35.4938 12.7423 35.6101 12.4743 35.7032 12.1991C35.7971 11.9239 35.8657 11.6386 35.9163 11.349C36.0109 10.7697 36.0217 10.1644 35.9047 9.56277C35.7899 8.96399 35.5313 8.36305 35.1002 7.87623C34.994 7.75345 34.8741 7.64294 34.7499 7.53748C34.6213 7.43564 34.4913 7.33958 34.3505 7.25796C34.0731 7.08822 33.7691 6.96254 33.4585 6.87154C32.8331 6.69385 32.1766 6.66207 31.5388 6.73286C30.8989 6.80292 30.2727 6.96977 29.6718 7.21896C29.5216 7.28035 29.3728 7.34897 29.2262 7.4212L29.1157 7.47753L29.0117 7.53604L28.8015 7.65522C28.517 7.80617 28.2519 7.9918 27.9811 8.1702L27.9305 8.20415L27.8821 8.24027L27.7846 8.31394L27.5903 8.46128L27.3953 8.60935C27.3318 8.65991 27.2711 8.71408 27.2097 8.76753C27.0862 8.87371 26.9613 8.97844 26.8385 9.08751C26.7215 9.2009 26.6038 9.31503 26.4853 9.42915C26.0231 9.89357 25.5847 10.3891 25.1947 10.925L25.0452 11.1236C24.9975 11.1915 24.9513 11.2609 24.9051 11.3288C24.8119 11.4667 24.7166 11.6032 24.6256 11.7419C24.4522 12.0258 24.2702 12.3067 24.1113 12.6014C23.943 12.8903 23.7957 13.1908 23.6419 13.4906C23.5675 13.6415 23.4996 13.7954 23.4274 13.9478L23.3219 14.1774L23.2244 14.4107C22.9565 15.0305 22.7275 15.6726 22.521 16.3219C22.313 16.9698 22.1382 17.6307 21.9764 18.2966C21.8146 18.9626 21.6759 19.635 21.5459 20.3096C21.2859 21.6589 21.0765 23.0204 20.849 24.3725C20.6236 25.7268 20.3774 27.0673 20.0574 28.3906C19.7403 29.7138 19.3583 31.0182 18.9025 32.2866C18.4468 33.5549 17.9196 34.7871 17.3107 35.9601C16.7033 37.1345 16.0107 38.2461 15.2415 39.2739C14.8566 39.7882 14.4521 40.2801 14.0303 40.7488C13.6085 41.2183 13.1644 41.6589 12.7094 42.0779C11.7972 42.907 10.8207 43.6243 9.7814 44.1407C9.34084 44.3617 8.8916 44.5473 8.43515 44.6896C7.98086 44.8319 7.51791 44.933 7.05423 44.9908C6.12904 45.1049 5.19808 45.0479 4.33356 44.7951C3.90311 44.6687 3.48565 44.4932 3.10431 44.2678C2.72225 44.0417 2.3698 43.7637 2.05779 43.4459C1.43522 42.811 0.969377 42.01 0.78015 41.1338C0.733205 40.915 0.70215 40.6925 0.691316 40.4679L0.686983 40.2989C0.686261 40.2707 0.684814 40.2418 0.684814 40.2144L0.687706 40.1306C0.689151 40.075 0.694204 40.0186 0.698537 39.9623C0.702148 39.9059 0.710094 39.8496 0.718039 39.794C0.778707 39.3454 0.923875 38.9049 1.14055 38.4953C1.35722 38.0872 1.64467 37.7087 1.99568 37.3909C2.34524 37.0739 2.75908 36.816 3.2177 36.6571C3.44665 36.5777 3.68571 36.522 3.93127 36.4982C4.17539 36.4744 4.42601 36.4838 4.67301 36.5235C5.1663 36.6051 5.64803 36.8081 6.06766 37.11C6.48655 37.4112 6.85562 37.8077 7.10479 38.2844C7.22973 38.5228 7.32868 38.7785 7.38213 39.0479C7.43774 39.318 7.45218 39.5982 7.42113 39.8778C7.47674 39.4928 7.45074 39.0934 7.33735 38.7178C7.22612 38.3407 7.04123 37.9868 6.80072 37.6741C6.32188 37.0479 5.63214 36.5719 4.84635 36.3704C4.6499 36.3212 4.44767 36.2895 4.24328 36.2779C4.03817 36.2649 3.83161 36.2786 3.62866 36.3075C3.22276 36.3646 2.82842 36.4996 2.46513 36.6918C1.73784 37.0789 1.14055 37.6929 0.738259 38.4195C0.539644 38.785 0.383641 39.1779 0.29625 39.5917C0.251471 39.7983 0.221859 40.0107 0.210304 40.223L0.204529 40.5408C0.205973 40.6463 0.216084 40.7517 0.221862 40.8579C0.259418 41.2804 0.355474 41.6972 0.499922 42.0966C0.5382 42.1941 0.572867 42.2953 0.616924 42.3928L0.751982 42.681L0.906542 42.9605C0.931098 43.0074 0.960711 43.0522 0.989601 43.0963L1.07555 43.2306C1.54717 43.9377 2.17407 44.5517 2.92303 44.993C3.66693 45.4343 4.50184 45.7153 5.35914 45.8337C6.21644 45.9551 7.09323 45.9334 7.94836 45.7745C8.8071 45.617 9.63695 45.3296 10.4206 44.9504C11.2035 44.569 11.9409 44.0988 12.6328 43.5723C12.9795 43.3086 13.3139 43.0305 13.6389 42.7409C13.8007 42.5957 13.9588 42.4469 14.1192 42.2996C14.2737 42.1465 14.4326 41.997 14.585 41.8395C15.1967 41.2162 15.7724 40.5502 16.3097 39.8496C16.8463 39.1483 17.3403 38.4101 17.7975 37.6459C18.0279 37.2645 18.2439 36.8738 18.4562 36.4794C18.6628 36.0822 18.8664 35.6827 19.0549 35.2739C19.4348 34.4599 19.783 33.6257 20.0928 32.7712C20.8085 30.8117 21.3264 28.8138 21.7084 26.8218C22.0869 24.8304 22.3404 22.8636 22.6632 20.9503C22.669 20.9164 22.6762 20.8824 22.6813 20.8485C22.981 21.5202 23.2706 22.2006 23.4779 22.7546C23.9669 24.0872 24.5996 26.2381 25.3752 29.206C26.3705 33.0356 26.8681 35.5997 26.8681 36.8991C26.8681 37.1353 26.5648 37.9948 25.9574 39.4791C25.35 40.9634 25.0466 42.1277 25.0466 42.9713C25.0466 44.0338 25.3673 44.5647 26.0086 44.5647C26.5821 44.5647 27.0877 43.9746 27.5268 42.7936C27.8301 41.9839 27.9984 41.3606 28.0331 40.9215C28.1169 39.1165 28.1681 37.7673 28.184 36.8731C29.1453 33.8705 30.7646 30.522 33.0418 26.8275C35.7914 22.3746 38.7092 18.8499 41.796 16.2518L41.9224 16.379C37.9082 24.1551 35.9004 31.2985 35.9004 37.8091C35.9004 42.1949 37.2077 44.3877 39.8222 44.3877C40.7502 44.3877 41.6603 44.0172 42.5544 43.2747C43.4153 42.5827 43.9887 41.773 44.2748 40.8456C44.3766 40.7106 44.4264 40.5509 44.4264 40.3646V40.0359H44.2249C44.0054 40.7272 43.5756 41.3931 42.9343 42.0345C42.2258 42.7597 41.5425 43.123 40.8853 43.123C39.1136 43.123 38.2289 40.9634 38.2289 36.6455C38.2289 33.3729 38.902 29.2905 40.2526 24.3992C41.0615 21.4638 41.9224 18.9424 42.8339 16.8333C43.3402 15.6531 43.6428 14.9951 43.7439 14.8593C44.6554 14.1854 45.3386 13.6791 45.7936 13.3418C46.9405 12.4808 47.514 11.7896 47.514 11.2666C47.514 10.9127 47.3623 10.7358 47.059 10.7358V10.7386Z" fill="#FE68A4"/>
<path d="M5.95862 30.556C3.70885 19.0565 10.0732 7.28836 20.9075 2.83475C34.7853 -3.02442 51.0183 4.98644 54.8064 19.5708C58.6935 34.2086 48.7931 49.0111 33.7496 50.9013C28.1154 51.6207 22.2711 50.338 17.4603 47.3267C18.6736 48.0526 19.9433 48.6825 21.2571 49.1982C22.5744 49.7074 23.9315 50.1104 25.3124 50.395C43.3857 54.0469 59.064 37.5477 54.3399 19.695C50.5236 5.34975 34.7831 -2.45382 21.0548 3.19156C10.3253 7.49349 3.88796 19.1815 5.95862 30.5553V30.556Z" fill="#FE68A4"/>
<path d="M72.2601 20.5543C72.2601 19.1464 71.6898 18.273 70.5493 17.9382C70.2134 17.8378 69.593 17.7877 68.6879 17.7877V22.7864C68.6879 23.1109 68.7217 23.2942 68.7883 23.3393C68.8999 23.4181 69.2131 23.457 69.7281 23.457C70.4991 23.457 71.1144 23.2113 71.5731 22.7188C72.0307 22.2273 72.2601 21.5065 72.2601 20.5553V20.5543ZM71.7738 14.9525C71.7738 13.8794 71.528 13.1637 71.0366 12.8054C70.7786 12.6149 70.2923 12.5197 69.5776 12.5197C69.3872 12.5197 69.0913 12.5361 68.6879 12.5699V17.4334H68.8384L69.7619 17.3996C70.3987 17.3781 70.8933 17.1508 71.2455 16.7197C71.5987 16.2907 71.7748 15.701 71.7748 14.9515L71.7738 14.9525ZM74.0211 20.7386C74.0211 21.8792 73.501 22.7239 72.4608 23.2707C71.958 23.54 71.2373 23.7068 70.2974 23.7734C70.0394 23.7857 69.2797 23.7908 68.0163 23.7908H65.9707C65.7802 23.7908 65.686 23.7427 65.686 23.6475C65.686 23.5522 65.8591 23.5051 66.2061 23.5051C66.6095 23.5051 66.846 23.4621 66.9198 23.3792C66.9914 23.2952 67.0293 23.0403 67.0293 22.6154V13.5426C67.0293 13.0511 67.0068 12.7654 66.9617 12.6876C66.8829 12.5545 66.5993 12.4808 66.1068 12.4706C65.8058 12.4706 65.6543 12.4112 65.6543 12.2934C65.6543 12.189 65.7935 12.1347 66.0741 12.1347H66.2758C66.3976 12.1685 66.5102 12.1849 66.6116 12.1849H69.8807C71.0888 12.1962 71.9877 12.3979 72.5816 12.789C73.2737 13.2477 73.6208 13.9122 73.6208 14.7836C73.6208 15.5453 73.3351 16.1679 72.7659 16.6542C72.1966 17.1406 71.397 17.4447 70.368 17.5686V17.6689C71.3867 17.7355 72.1792 17.9484 72.7495 18.3058C73.5993 18.8423 74.0241 19.6532 74.0241 20.7375L74.0211 20.7386Z" fill="#FE68A4"/>
<path d="M85.3907 21.0905C85.3907 21.1356 85.3794 21.41 85.3569 21.9117C85.3354 22.4154 85.3241 22.8956 85.3241 23.3544V23.9073C84.2286 23.8407 82.0591 23.8069 78.8166 23.8069H76.7218C76.5089 23.8069 76.4024 23.7619 76.4024 23.6718C76.4024 23.6124 76.4362 23.5765 76.5027 23.5663C76.5365 23.5663 76.7485 23.5509 77.1406 23.5212C77.4303 23.4987 77.6064 23.4373 77.6679 23.3359C77.7293 23.2345 77.76 22.9714 77.76 22.5455V13.0918C77.76 12.7662 77.7129 12.5727 77.6177 12.5112C77.5225 12.4498 77.2184 12.4191 76.7034 12.4191C76.5253 12.4191 76.4352 12.371 76.4352 12.2757C76.4352 12.1805 76.557 12.1334 76.8037 12.1334H83.9143C84.2501 12.1334 84.5572 12.1099 84.8357 12.0658C84.8583 12.5461 84.9084 13.2126 84.9873 14.0614L85.0538 14.7823C85.0651 14.8396 85.0702 14.9113 85.0702 15.0014C85.0702 15.113 85.02 15.1683 84.9197 15.1683C84.7978 15.1683 84.7078 15.028 84.6514 14.7464C84.4385 13.7338 84.0924 13.0928 83.6112 12.8225C83.2529 12.6208 82.313 12.5184 80.7936 12.5184H79.4176V17.4485H79.82C81.0731 17.4485 81.8359 17.3533 82.1103 17.1628C82.3836 16.9724 82.571 16.4185 82.6713 15.5021C82.6939 15.2666 82.7553 15.1498 82.8556 15.1498C82.9795 15.1498 83.0399 15.2502 83.0399 15.4509C83.0399 15.6515 83.0287 15.9495 83.0061 16.3406C82.9846 16.7318 82.9724 17.0277 82.9724 17.2284C82.9724 18.4263 82.9908 19.2475 83.0266 19.6939C83.0348 19.8055 83.0399 19.9007 83.0399 19.9796C83.0399 20.125 82.9785 20.1987 82.8567 20.1987C82.7778 20.1987 82.7256 20.1506 82.698 20.0553C82.6693 19.9601 82.6232 19.6499 82.5557 19.1246C82.4656 18.4642 82.1942 18.0567 81.7376 17.9C81.5369 17.8335 81.0148 17.7997 80.1691 17.7997H79.4176V23.4178C81.8769 23.4178 83.3194 23.3687 83.7453 23.2683C84.4825 23.1035 84.9023 22.397 85.0026 21.1489C85.0241 20.8724 85.0978 20.7352 85.2217 20.7352C85.3333 20.7352 85.3886 20.8519 85.3886 21.0874L85.3907 21.0905Z" fill="#FE68A4"/>
<path d="M93.1894 19.6654C93.0072 19.1627 92.7062 18.3333 92.2864 17.1712L91.4817 14.8459C91.0138 16.0818 90.4527 17.6872 89.7975 19.6654H93.1905H93.1894ZM97.7506 23.6822C97.7506 23.7774 97.6667 23.8255 97.4988 23.8255C97.3861 23.8255 97.2858 23.8204 97.1957 23.8091L95.0671 23.7416L92.9365 23.8091C92.8577 23.8204 92.7748 23.8255 92.6857 23.8255C92.4615 23.8255 92.3499 23.7661 92.3499 23.6494C92.3499 23.5204 92.5004 23.4559 92.8024 23.4559C93.7874 23.4446 94.2788 23.3463 94.2788 23.161C94.2788 23.1497 94.2675 23.1057 94.245 23.0289L94.1078 22.5856L94.0228 22.3521C93.9225 22.005 93.6768 21.2391 93.2857 20.0524H89.7002C89.0306 21.8422 88.6958 22.8702 88.6958 23.1375C88.6958 23.2951 88.7634 23.3904 88.8965 23.4231C88.9303 23.4354 89.2098 23.4569 89.735 23.4907C90.0596 23.502 90.2213 23.5572 90.2213 23.6586C90.2213 23.7702 90.0759 23.8255 89.7852 23.8255C89.2712 23.8255 88.6733 23.803 87.9914 23.7579C87.8225 23.7477 87.6495 23.7416 87.4713 23.7416C87.2932 23.7416 87.1191 23.76 86.9512 23.7968C86.8621 23.8153 86.7894 23.8255 86.7331 23.8255C86.5765 23.8255 86.4997 23.7753 86.4997 23.6729C86.4997 23.5706 86.6758 23.5173 87.027 23.505C87.3792 23.4938 87.6331 23.4405 87.7908 23.3453C87.9464 23.2501 88.0692 23.0678 88.1583 22.7985C89.5968 18.6712 90.767 15.3548 91.6701 12.8534C91.6967 12.7223 91.7479 12.5739 91.8267 12.409L91.8974 12.1029C91.9311 11.979 91.9762 11.9175 92.0315 11.9175C92.0653 11.9175 92.0929 11.9503 92.1154 12.0179C92.2608 12.4541 92.5905 13.3653 93.1055 14.7517C93.5078 15.837 94.5081 18.5596 96.1063 22.9194C96.1964 23.1733 96.3111 23.333 96.4503 23.4026C96.5896 23.4712 96.8773 23.5122 97.3145 23.5245C97.6052 23.5358 97.7506 23.588 97.7506 23.6832V23.6822Z" fill="#FE68A4"/>
<path d="M109.187 12.3012C109.187 12.3924 109.086 12.4364 108.886 12.4364H108.315C108.036 12.4364 107.868 12.5081 107.812 12.6535C107.79 12.7323 107.778 12.8593 107.778 13.0395V19.3191C107.778 20.9491 107.473 22.1348 106.865 22.8771C106.255 23.6194 105.275 23.9901 103.922 23.9901C102.3 23.9901 101.16 23.5324 100.5 22.615C100.064 22.0007 99.8472 20.989 99.8472 19.5802V12.8552C99.8124 12.6535 99.6773 12.5306 99.4387 12.4855C99.3711 12.4743 99.1613 12.4681 98.8101 12.4681C98.6176 12.4466 98.5214 12.3903 98.5214 12.3012C98.5214 12.2009 98.5992 12.1507 98.7558 12.1507H102.529C102.718 12.1507 102.814 12.2122 102.814 12.334C102.814 12.4118 102.781 12.4558 102.714 12.4681C102.646 12.4794 102.422 12.4896 102.042 12.5009C101.886 12.5009 101.78 12.5122 101.724 12.5347C101.612 12.5797 101.55 12.6565 101.54 12.7681C101.528 12.8132 101.523 13.1306 101.523 13.7204V19.7071C101.523 21.1785 101.757 22.1819 102.228 22.7174C102.697 23.2529 103.396 23.5201 104.323 23.5201C106.023 23.5201 106.984 22.5566 107.209 20.6317C107.241 20.3419 107.259 19.1174 107.259 16.9579V12.9678C107.259 12.7221 107.141 12.5726 106.906 12.5163C106.828 12.4948 106.598 12.4825 106.219 12.4825C105.994 12.4825 105.883 12.421 105.883 12.2992C105.883 12.1989 105.962 12.1497 106.118 12.1497H108.798C109.057 12.1497 109.186 12.1989 109.186 12.2992L109.187 12.3012Z" fill="#FE68A4"/>
<path d="M120.087 15.1366C120.087 15.2819 120.021 15.3557 119.887 15.3557C119.753 15.3557 119.657 15.2103 119.601 14.9185C119.579 14.7178 119.556 14.5161 119.534 14.3154C119.456 13.913 119.327 13.571 119.148 13.2915C118.913 12.9229 118.527 12.6884 117.991 12.5881C117.645 12.5205 117.365 12.4928 117.153 12.5041C116.627 12.5195 116.307 12.5297 116.196 12.5379V22.6653C116.196 23.0687 116.303 23.3206 116.515 23.422C116.627 23.4773 116.94 23.511 117.455 23.5223C117.589 23.5336 117.656 23.5817 117.656 23.6657C117.656 23.7609 117.567 23.808 117.388 23.808C117.298 23.808 117.221 23.8029 117.154 23.7916C116.483 23.7701 116.006 23.7578 115.728 23.7578C115.358 23.7578 115.012 23.766 114.688 23.7834C114.363 23.8008 113.95 23.808 113.447 23.808C113.189 23.808 113.061 23.7629 113.061 23.6738C113.061 23.5735 113.302 23.5182 113.782 23.5069C114.128 23.5069 114.352 23.4342 114.452 23.2889C114.508 23.1987 114.536 22.9694 114.536 22.5998V12.5399C113.429 12.5512 112.741 12.6065 112.473 12.7068C111.769 12.9649 111.355 13.6519 111.232 14.769C111.199 15.1048 111.12 15.2727 110.997 15.2727C110.863 15.2727 110.795 15.155 110.795 14.9205C110.795 14.7987 110.801 14.6748 110.813 14.5519L110.846 14.1659C110.879 13.6509 110.929 12.9751 110.997 12.1355H111.75L115.172 12.1857C115.575 12.1969 116.2 12.1969 117.05 12.1857L119.835 12.1355C119.856 12.7621 119.93 13.6898 120.052 14.9195C120.052 14.9533 120.057 14.9942 120.069 15.0454C120.08 15.0966 120.085 15.1273 120.085 15.1376L120.087 15.1366Z" fill="#FE68A4"/>
<path d="M131.893 12.2594C131.893 12.3433 131.798 12.3863 131.608 12.3863C130.992 12.3976 130.613 12.5051 130.467 12.7089C130.333 12.8338 129.852 13.7942 129.026 15.5891C128.656 16.3836 128.31 17.0819 127.985 17.686C127.761 18.1017 127.633 18.3843 127.599 18.5349C127.566 18.6874 127.549 19.0151 127.549 19.5198V22.6991C127.549 23.0687 127.597 23.2868 127.693 23.3544C127.787 23.4219 128.12 23.4721 128.69 23.5069C128.991 23.5274 129.142 23.5796 129.142 23.6646C129.142 23.7496 129.065 23.7926 128.908 23.7926H128.706L126.359 23.7424C125.698 23.7424 125.157 23.7537 124.732 23.7752C124.665 23.7875 124.586 23.7926 124.497 23.7926C124.341 23.7926 124.262 23.7393 124.262 23.6329C124.262 23.5264 124.391 23.468 124.648 23.4567C125.263 23.4342 125.626 23.3779 125.738 23.2888C125.85 23.1997 125.907 22.9325 125.907 22.4871V18.9618C125.794 18.7171 125.47 18.0628 124.933 17.001L123.256 13.6795C123.089 13.3549 122.888 12.9925 122.653 12.5891C122.529 12.4775 122.264 12.4222 121.856 12.4222C121.447 12.4222 121.243 12.3607 121.243 12.2379C121.243 12.1488 121.333 12.1037 121.513 12.1037C121.747 12.1037 122.216 12.115 122.92 12.1375C123.324 12.1488 123.615 12.1539 123.792 12.1539L125.737 12.1283C125.816 12.1119 125.906 12.1037 126.006 12.1037C126.207 12.1037 126.308 12.159 126.308 12.2727C126.308 12.373 126.118 12.4232 125.738 12.4232C125.044 12.4232 124.698 12.5481 124.698 12.7949C124.698 12.9863 125.05 13.7563 125.753 15.1068L127.286 18.0086C127.566 17.5058 127.885 16.8864 128.243 16.1492L129.234 14.1526C129.598 13.4307 129.781 12.9566 129.781 12.7304C129.781 12.5839 129.686 12.499 129.496 12.4754C129.103 12.4191 128.841 12.3966 128.707 12.4078C128.461 12.4191 128.338 12.3628 128.338 12.2389C128.338 12.1488 128.443 12.1037 128.657 12.1037H130.184C131.324 12.071 131.894 12.1232 131.894 12.2624L131.893 12.2594Z" fill="#FE68A4"/>
<path d="M75.1289 36.1238C75.1289 36.1126 75.1176 36.2641 75.0951 36.5774C75.05 37.203 75.0285 37.8297 75.0285 38.4553C75.0285 38.5331 75.0398 38.6764 75.0623 38.8822C75.0838 39.0901 75.0951 39.3379 75.0951 39.6287V39.7792C75.0951 39.9246 75.05 39.9983 74.962 39.9983C74.8739 39.9983 74.793 39.9143 74.7265 39.7464C74.5688 39.3553 74.4132 39.1147 74.2566 39.0256C73.4518 39.73 72.4843 40.0822 71.355 40.0822C69.7118 40.0822 68.3511 39.5099 67.272 38.3621C66.1939 37.2164 65.6543 35.7716 65.6543 34.0269C65.6543 32.2822 66.1488 30.8385 67.1389 29.7255C68.1279 28.6135 69.4046 28.0565 70.97 28.0565C71.5403 28.0565 71.9959 28.1047 72.3369 28.1999C72.6778 28.2951 73.1006 28.4886 73.6034 28.7774C73.8491 28.9238 74.0334 28.9965 74.1572 28.9965C74.2576 28.9965 74.3528 28.9074 74.4419 28.7272C74.5873 28.4149 74.704 28.2572 74.7941 28.2572C74.8842 28.2572 74.9282 28.3023 74.9282 28.3913C74.9282 28.4364 74.9169 28.5091 74.8944 28.6105C74.7705 29.147 74.7101 30.1535 74.7101 31.6289C74.7101 31.8419 74.6937 31.9648 74.66 31.9986C74.6272 32.0323 74.5821 32.0487 74.5258 32.0487C74.4142 32.0487 74.3426 31.9433 74.3088 31.7293C74.1634 30.8354 73.9566 30.1699 73.6883 29.7347C73.1396 28.8398 72.2795 28.3924 71.1062 28.3924C70.2001 28.3924 69.4855 28.6954 68.9592 29.2975C68.0091 30.3828 67.533 31.9699 67.533 34.0607C67.533 35.9283 67.9241 37.3751 68.7074 38.4041C69.3892 39.299 70.2943 39.7454 71.4236 39.7454C72.0062 39.7454 72.5365 39.6 73.0177 39.3092C73.4979 39.0184 73.8695 38.6181 74.1327 38.1092C74.3948 37.6013 74.5995 36.988 74.7449 36.2723C74.8002 36.0051 74.8739 35.8699 74.964 35.8699C75.0756 35.8699 75.1309 35.9539 75.1309 36.1208L75.1289 36.1238Z" fill="#FE68A4"/>
<path d="M86.5324 34.2132C86.5324 32.1613 86.1126 30.563 85.2751 29.4193C84.7489 28.7015 84.0168 28.3432 83.078 28.3432C82.1391 28.3432 81.489 28.6176 80.9976 29.1674C80.0915 30.177 79.64 31.8203 79.64 34.0954C79.64 35.9016 79.9553 37.3033 80.587 38.3006C81.2187 39.2989 82.1043 39.7975 83.2449 39.7975C84.3066 39.7975 85.1062 39.3266 85.6427 38.3846C86.2365 37.3422 86.5324 35.9518 86.5324 34.2132ZM88.4101 34.1292C88.4101 35.7951 87.9095 37.204 86.9092 38.3549C85.9079 39.5068 84.6813 40.0822 83.2285 40.0822C81.6846 40.0822 80.3884 39.4986 79.3369 38.3293C78.2854 37.161 77.7602 35.7214 77.7602 34.0105C77.7602 32.2995 78.266 30.8394 79.2785 29.7254C80.2901 28.6135 81.5842 28.0575 83.1609 28.0575C84.6475 28.0575 85.8946 28.6391 86.9 29.8012C87.9064 30.9644 88.4091 32.407 88.4091 34.1292H88.4101Z" fill="#FE68A4"/>
<path d="M98.1539 36.6103C98.1539 37.5718 97.7884 38.3909 97.0553 39.0677C96.3232 39.7445 95.4427 40.0824 94.4148 40.0824C93.8108 40.0824 93.09 39.897 92.2515 39.5284C92.0272 39.4281 91.8593 39.3779 91.7477 39.3779C91.6136 39.3779 91.5286 39.5336 91.4969 39.8418C91.4846 40.0015 91.4129 40.0824 91.2778 40.0824C91.1662 40.0824 91.1109 40.0148 91.1109 39.8807C91.1109 39.7916 91.116 39.723 91.1273 39.679C91.2164 38.997 91.2614 38.3653 91.2614 37.7847C91.2614 37.6731 91.2491 37.3598 91.2276 36.8448C91.2164 36.7782 91.2112 36.6881 91.2112 36.5765C91.2112 36.4086 91.2778 36.3247 91.4119 36.3247C91.5235 36.3247 91.6023 36.4598 91.6464 36.7311C91.9371 38.7411 92.8821 39.7465 94.4803 39.7465C95.1622 39.7465 95.6905 39.553 96.0652 39.167C96.4389 38.781 96.6273 38.2363 96.6273 37.5318C96.6273 36.9072 96.4461 36.3728 96.0816 35.9305C95.7182 35.4892 95.0957 35.0499 94.2121 34.6137C93.1494 34.0884 92.4122 33.5806 91.9975 33.0881C91.5849 32.5956 91.3771 31.9864 91.3771 31.2594C91.3771 30.3318 91.6761 29.5659 92.274 28.9618C92.8729 28.3587 93.6295 28.0556 94.5469 28.0556C94.9257 28.0556 95.4509 28.1846 96.1236 28.4416C96.3581 28.5307 96.5311 28.5758 96.6427 28.5758C96.7666 28.5758 96.8474 28.5543 96.8864 28.5092C96.9253 28.4642 96.9621 28.3464 96.9959 28.157C97.0174 28.0454 97.0799 27.9901 97.1802 27.9901C97.2918 27.9901 97.3471 28.0567 97.3471 28.1908C97.3471 28.2799 97.342 28.3474 97.3307 28.3915C97.2969 28.6608 97.2805 28.9853 97.2805 29.3652C97.2805 29.9017 97.3082 30.3266 97.3645 30.6389L97.3809 30.9082C97.3921 31.0311 97.342 31.0925 97.2304 31.0925C97.1075 31.0925 97.0225 30.9635 96.9795 30.7065C96.8556 30.0461 96.5659 29.4963 96.1062 29.055C95.6475 28.6126 95.1346 28.3915 94.5633 28.3915C93.992 28.3915 93.5589 28.5706 93.2302 28.929C92.9006 29.2864 92.7357 29.7727 92.7357 30.3881C92.7357 31.1038 92.9763 31.6792 93.4565 32.1154C93.7247 32.3611 94.3053 32.7093 95.2001 33.1557C96.2516 33.6809 97.0061 34.2154 97.4648 34.7571C97.9225 35.2987 98.1518 35.9171 98.1518 36.6103H98.1539Z" fill="#FE68A4"/>
<path d="M112.34 39.7717C112.34 39.8669 112.223 39.915 111.99 39.915H107.812C107.578 39.915 107.462 39.8649 107.462 39.7625C107.462 39.6509 107.623 39.5956 107.948 39.5956C108.518 39.5956 108.864 39.5331 108.988 39.4103C109.043 39.3539 109.072 38.9792 109.072 38.284V29.5828C109.072 29.5951 109.005 29.7907 108.869 30.1706C108.42 31.5221 107.77 33.5566 106.916 36.272L106.137 38.9413C105.979 39.4666 105.868 39.7307 105.801 39.7307C105.721 39.7307 105.638 39.5966 105.548 39.3273C105.225 38.3096 104.312 35.7703 102.809 31.7095L102.143 29.9197C102.143 30.1317 102.144 30.4224 102.144 30.791V36.2413C102.144 38.288 102.16 39.3212 102.194 39.3437C102.272 39.4891 102.54 39.5608 102.999 39.5608C103.367 39.5608 103.552 39.6161 103.552 39.7277C103.552 39.8516 103.435 39.913 103.199 39.913C103.054 39.913 102.92 39.9007 102.797 39.8792C102.639 39.8567 102.5 39.8454 102.377 39.8454L100.448 39.913C100.248 39.913 100.146 39.8628 100.146 39.7604C100.146 39.6488 100.466 39.5864 101.103 39.5761C101.372 39.5761 101.527 39.5311 101.573 39.442C101.618 39.3529 101.639 39.0621 101.639 38.5696V30.5238C101.639 29.5941 101.628 29.0903 101.605 29.0115C101.561 28.8548 101.465 28.7494 101.322 28.692C101.176 28.6368 100.863 28.5917 100.382 28.5579C100.203 28.5467 100.113 28.4965 100.113 28.4074C100.113 28.2835 100.276 28.2221 100.605 28.2221H101.775C102.442 28.2221 102.912 28.218 103.182 28.2088C103.237 28.3552 103.562 29.2347 104.156 30.8484C104.412 31.5211 105.127 33.4829 106.304 36.7327C106.519 36.0027 106.74 35.2849 106.966 34.5785L108.759 29.0361C108.87 28.7146 108.969 28.4494 109.056 28.2385L111.529 28.2221C111.892 28.2221 112.101 28.2395 112.156 28.2723C112.211 28.306 112.238 28.3562 112.238 28.4238C112.238 28.5364 112.143 28.5917 111.952 28.5917C111.639 28.5917 111.427 28.603 111.315 28.6255C111.047 28.6706 110.862 28.7596 110.761 28.8948C110.706 28.9736 110.677 29.6289 110.677 30.8627V38.6843C110.677 39.1338 110.723 39.3969 110.812 39.4758C110.957 39.5771 111.32 39.6273 111.902 39.6273H112.002C112.227 39.6273 112.338 39.6744 112.338 39.7696L112.34 39.7717Z" fill="#FE68A4"/>
<path d="M123.073 37.1803C123.073 37.2253 123.062 37.4997 123.039 38.0014C123.018 38.5052 123.006 38.9854 123.006 39.4441V39.997C121.911 39.9305 119.741 39.8967 116.499 39.8967H114.404C114.191 39.8967 114.085 39.8516 114.085 39.7615C114.085 39.7021 114.119 39.6663 114.185 39.6561C114.219 39.6561 114.431 39.6407 114.823 39.611C115.113 39.5885 115.29 39.527 115.35 39.4257C115.412 39.3243 115.442 39.0612 115.442 38.6352V29.1816C115.442 28.856 115.395 28.6624 115.3 28.601C115.205 28.5396 114.901 28.5089 114.386 28.5089C114.208 28.5089 114.119 28.4607 114.119 28.3655C114.119 28.2703 114.24 28.2232 114.487 28.2232H121.598C121.933 28.2232 122.242 28.1996 122.519 28.1556C122.542 28.6358 122.593 29.3024 122.672 30.1512L122.738 30.872C122.749 30.9294 122.755 31.001 122.755 31.0911C122.755 31.2027 122.704 31.258 122.604 31.258C122.482 31.258 122.392 31.1178 122.337 30.8362C122.124 29.8235 121.778 29.1826 121.297 28.9123C120.938 28.7106 119.998 28.6082 118.479 28.6082H117.104V33.5383H117.506C118.76 33.5383 119.522 33.443 119.796 33.2526C120.07 33.0621 120.256 32.5082 120.357 31.5918C120.379 31.3563 120.441 31.2396 120.542 31.2396C120.665 31.2396 120.726 31.3399 120.726 31.5406C120.726 31.7413 120.715 32.0393 120.693 32.4304C120.671 32.8215 120.659 33.1174 120.659 33.3181C120.659 34.5161 120.677 35.3373 120.713 35.7837C120.722 35.8953 120.726 35.9905 120.726 36.0693C120.726 36.2147 120.665 36.2885 120.543 36.2885C120.464 36.2885 120.412 36.2403 120.384 36.1451C120.356 36.0499 120.309 35.7397 120.242 35.2144C120.153 34.554 119.881 34.1465 119.424 33.9898C119.223 33.9232 118.7 33.8895 117.856 33.8895H117.104V39.5076C119.563 39.5076 121.006 39.4585 121.431 39.3581C122.168 39.1933 122.588 38.4868 122.688 37.2386C122.71 36.9622 122.783 36.825 122.906 36.825C123.018 36.825 123.073 36.9417 123.073 37.1772V37.1803Z" fill="#FE68A4"/>
<path d="M134.158 31.2263C134.158 31.3717 134.092 31.4454 133.958 31.4454C133.823 31.4454 133.728 31.3 133.672 31.0082C133.649 30.8075 133.627 30.6058 133.604 30.4052C133.526 30.0028 133.398 29.6608 133.218 29.3813C132.984 29.0126 132.598 28.7782 132.061 28.6778C131.715 28.6103 131.436 28.5826 131.224 28.5939C130.698 28.6092 130.378 28.6195 130.267 28.6277V38.7551C130.267 39.1585 130.374 39.4104 130.586 39.5117C130.698 39.567 131.011 39.6008 131.526 39.6121C131.66 39.6233 131.727 39.6715 131.727 39.7554C131.727 39.8506 131.637 39.8977 131.457 39.8977C131.368 39.8977 131.29 39.8926 131.224 39.8814C130.552 39.8599 130.077 39.8476 129.799 39.8476C129.429 39.8476 129.083 39.8558 128.758 39.8732C128.434 39.8906 128.02 39.8977 127.518 39.8977C127.26 39.8977 127.132 39.8527 127.132 39.7636C127.132 39.6633 127.372 39.608 127.852 39.5967C128.198 39.5967 128.423 39.524 128.523 39.3786C128.578 39.2885 128.607 39.0592 128.607 38.6895V28.6297C127.5 28.641 126.812 28.6963 126.545 28.7966C125.841 29.0546 125.426 29.7417 125.304 30.8587C125.27 31.1946 125.191 31.3625 125.07 31.3625C124.935 31.3625 124.869 31.2448 124.869 31.0103C124.869 30.8884 124.874 30.7645 124.885 30.6417L124.919 30.2557C124.952 29.7406 125.002 29.0649 125.07 28.2253H125.823L129.245 28.2754C129.648 28.2867 130.273 28.2867 131.123 28.2754L133.907 28.2253C133.929 28.8519 134.003 29.7795 134.124 31.0093C134.124 31.043 134.13 31.084 134.142 31.1352C134.153 31.1864 134.158 31.2171 134.158 31.2273V31.2263Z" fill="#FE68A4"/>
<path d="M145.075 34.2132C145.075 32.1613 144.655 30.563 143.818 29.4193C143.292 28.7015 142.56 28.3432 141.621 28.3432C140.682 28.3432 140.033 28.6176 139.54 29.1674C138.635 30.177 138.183 31.8203 138.183 34.0954C138.183 35.9016 138.498 37.3033 139.13 38.3006C139.762 39.2989 140.647 39.7975 141.788 39.7975C142.849 39.7975 143.649 39.3266 144.185 38.3846C144.779 37.3422 145.075 35.9518 145.075 34.2132ZM146.953 34.1292C146.953 35.7951 146.453 37.204 145.452 38.3549C144.452 39.5068 143.224 40.0822 141.771 40.0822C140.227 40.0822 138.931 39.4986 137.88 38.3293C136.828 37.161 136.304 35.7214 136.304 34.0105C136.304 32.2995 136.81 30.8394 137.822 29.7254C138.834 28.6135 140.128 28.0575 141.705 28.0575C143.191 28.0575 144.438 28.6391 145.444 29.8012C146.45 30.9644 146.953 32.407 146.953 34.1292Z" fill="#FE68A4"/>
<path d="M158.122 38.5559C158.122 38.8467 158.106 39.3269 158.072 39.9986H157.887C157.821 39.9986 157.659 39.9873 157.402 39.9658C157.145 39.9433 156.855 39.932 156.533 39.932L149.57 39.8818C149.379 39.8818 149.284 39.8317 149.284 39.7313C149.284 39.6525 149.435 39.6023 149.738 39.5798C150.162 39.5583 150.417 39.5112 150.5 39.4375C150.584 39.3648 150.626 39.1559 150.626 38.8078V29.3828C150.626 28.9701 150.584 28.7285 150.5 28.6619C150.417 28.5954 150.117 28.5616 149.604 28.5616C149.391 28.5616 149.284 28.5002 149.284 28.3773C149.284 28.277 149.351 28.2268 149.485 28.2268H149.635C150.005 28.2606 150.737 28.2769 151.832 28.2769C151.933 28.2769 152.128 28.2688 152.419 28.2513C152.711 28.2339 152.952 28.2268 153.141 28.2268H153.325C153.526 28.2268 153.627 28.2821 153.627 28.3937C153.627 28.4612 153.596 28.5032 153.534 28.5196C153.473 28.537 153.28 28.5514 152.957 28.5616C152.632 28.5729 152.439 28.6261 152.377 28.7213C152.316 28.8165 152.285 29.1094 152.285 29.6019V39.4969C152.586 39.5081 153.006 39.5132 153.542 39.5132C154.85 39.5132 155.773 39.4467 156.31 39.3125C156.846 39.1784 157.21 38.9265 157.4 38.5579C157.589 38.1883 157.701 37.6917 157.736 37.0651C157.745 36.9197 157.811 36.846 157.928 36.846C158.068 36.846 158.132 36.9299 158.122 37.0979V38.5569V38.5559Z" fill="#FE68A4"/>
<path d="M168.955 34.2132C168.955 32.1613 168.535 30.563 167.698 29.4193C167.172 28.7015 166.44 28.3432 165.501 28.3432C164.562 28.3432 163.913 28.6176 163.42 29.1674C162.515 30.177 162.063 31.8203 162.063 34.0954C162.063 35.9016 162.378 37.3033 163.01 38.3006C163.641 39.2989 164.527 39.7975 165.668 39.7975C166.729 39.7975 167.529 39.3266 168.065 38.3846C168.659 37.3422 168.955 35.9518 168.955 34.2132ZM170.833 34.1292C170.833 35.7951 170.332 37.204 169.332 38.3549C168.332 39.5068 167.104 40.0822 165.651 40.0822C164.107 40.0822 162.811 39.4986 161.76 38.3293C160.708 37.161 160.183 35.7214 160.183 34.0105C160.183 32.2995 160.689 30.8394 161.701 29.7254C162.713 28.6135 164.007 28.0575 165.584 28.0575C167.07 28.0575 168.316 28.6391 169.323 29.8012C170.329 30.9644 170.832 32.407 170.832 34.1292H170.833Z" fill="#FE68A4"/>
<path d="M184.232 36.3667C184.232 36.4507 184.098 36.4937 183.829 36.4937C183.225 36.4937 182.89 36.5828 182.823 36.7609C182.777 36.8828 182.755 37.3671 182.755 38.2128V38.7473C182.174 39.2367 181.62 39.5818 181.095 39.7815C180.57 39.9811 179.938 40.0815 179.201 40.0815C177.435 40.0815 176.031 39.5541 174.992 38.4975C173.952 37.4398 173.431 36.0063 173.431 34.195C173.431 32.3838 173.94 30.8807 174.958 29.7503C175.976 28.622 177.317 28.0568 178.983 28.0568C179.71 28.0568 180.503 28.2574 181.364 28.6598C181.621 28.7837 181.834 28.8452 182.001 28.8452C182.214 28.8452 182.354 28.711 182.421 28.4428C182.476 28.2851 182.544 28.2083 182.621 28.2083C182.71 28.2083 182.755 28.2585 182.755 28.3588C182.755 28.3701 182.745 28.4755 182.726 28.6783C182.656 29.3387 182.626 29.824 182.639 30.1363V31.0425C182.65 31.5012 182.644 31.7858 182.621 31.8974C182.6 32.009 182.538 32.0653 182.438 32.0653C182.338 32.0653 182.28 31.9865 182.27 31.8298C182.215 30.7517 181.901 29.9008 181.33 29.2773C180.76 28.6547 180.012 28.3435 179.083 28.3435C177.921 28.3435 177 28.8626 176.325 29.8988C175.648 30.936 175.31 32.351 175.31 34.1459C175.31 35.9408 175.654 37.2606 176.341 38.2753C177.029 39.29 177.96 39.7968 179.134 39.7968C180.028 39.7968 180.643 39.5388 180.978 39.0227C181.146 38.7637 181.229 38.2968 181.229 37.6231C181.229 37.0609 181.177 36.7292 181.069 36.6289C180.964 36.5275 180.597 36.4824 179.972 36.4937C179.814 36.4937 179.714 36.4876 179.67 36.4712C179.624 36.4568 179.602 36.4241 179.602 36.3739C179.602 36.2644 179.725 36.2091 179.972 36.2091H180.274C180.519 36.2213 181.135 36.2213 182.119 36.2091H183.896C184.12 36.2091 184.232 36.2623 184.232 36.3678V36.3667Z" fill="#FE68A4"/>
<path d="M195.417 28.3491C195.417 28.4331 195.322 28.4761 195.133 28.4761C194.517 28.4874 194.137 28.5949 193.992 28.7986C193.858 28.9235 193.377 29.884 192.55 31.6789C192.18 32.4734 191.834 33.1717 191.509 33.7758C191.285 34.1915 191.158 34.4741 191.123 34.6246C191.09 34.7772 191.073 35.1048 191.073 35.6096V38.7888C191.073 39.1584 191.121 39.3765 191.216 39.4441C191.311 39.5117 191.643 39.5619 192.214 39.5967C192.516 39.6172 192.666 39.6694 192.666 39.7544C192.666 39.8393 192.588 39.8824 192.432 39.8824H192.231L189.883 39.8322C189.223 39.8322 188.681 39.8434 188.257 39.8649C188.19 39.8772 188.111 39.8824 188.021 39.8824C187.865 39.8824 187.787 39.8291 187.787 39.7226C187.787 39.6161 187.916 39.5578 188.173 39.5465C188.788 39.524 189.151 39.4677 189.263 39.3786C189.375 39.2895 189.43 39.0223 189.43 38.5769V35.0516C189.318 34.8069 188.994 34.1526 188.457 33.0908L186.78 29.7693C186.613 29.4447 186.412 29.0822 186.177 28.6788C186.054 28.5672 185.788 28.5119 185.38 28.5119C184.971 28.5119 184.768 28.4505 184.768 28.3276C184.768 28.2385 184.857 28.1935 185.037 28.1935C185.272 28.1935 185.74 28.2048 186.445 28.2273C186.849 28.2385 187.14 28.2437 187.317 28.2437L189.262 28.2181C189.341 28.2017 189.429 28.1935 189.531 28.1935C189.732 28.1935 189.832 28.2488 189.832 28.3624C189.832 28.4628 189.642 28.513 189.262 28.513C188.568 28.513 188.222 28.6379 188.222 28.8846C188.222 29.0761 188.574 29.8461 189.277 31.1966L190.81 34.0983C191.09 33.5956 191.409 32.9761 191.767 32.2389L192.758 30.2423C193.122 29.5205 193.305 29.0464 193.305 28.8201C193.305 28.6737 193.21 28.5887 193.019 28.5652C192.627 28.5089 192.365 28.4863 192.231 28.4976C191.985 28.5089 191.862 28.4525 191.862 28.3287C191.862 28.2385 191.968 28.1935 192.181 28.1935H193.707C194.848 28.1607 195.418 28.2129 195.418 28.3522L195.417 28.3491Z" fill="#FE68A4"/>
</svg>
