<svg width="21" height="20" viewBox="0 0 21 20" fill="none" xmlns="http://www.w3.org/2000/svg">
<path d="M15.8648 12.3893C15.4553 11.9629 14.9614 11.735 14.438 11.735C13.9188 11.735 13.4207 11.9587 12.9944 12.3851L11.6605 13.7147C11.5508 13.6556 11.441 13.6007 11.3355 13.5459C11.1835 13.4699 11.04 13.3981 10.9176 13.3222C9.66813 12.5286 8.53264 11.4944 7.44359 10.1563C6.91595 9.48936 6.56137 8.92795 6.30388 8.3581C6.65001 8.04151 6.97082 7.71226 7.28319 7.39568C7.40138 7.27749 7.51957 7.15507 7.63776 7.03688C8.5242 6.15044 8.5242 5.00229 7.63776 4.11585L6.48539 2.96348C6.35454 2.83263 6.21946 2.69755 6.09282 2.56248C5.83956 2.30077 5.57362 2.03061 5.29925 1.77734C4.8898 1.37211 4.40015 1.15684 3.88517 1.15684C3.37019 1.15684 2.8721 1.37211 2.44998 1.77734L2.44154 1.78579L1.00635 3.23364C0.466049 3.77394 0.157906 4.43244 0.0903674 5.19647C-0.0109399 6.42904 0.352078 7.57719 0.630673 8.32855C1.3145 10.1732 2.33601 11.8827 3.85984 13.7147C5.7087 15.9224 7.93324 17.6657 10.4744 18.8941C11.4452 19.3542 12.7411 19.8987 14.189 19.9915C14.2776 19.9958 14.3705 20 14.4549 20C15.43 20 16.2489 19.6496 16.8905 18.9531C16.8947 18.9447 16.9032 18.9405 16.9074 18.932C17.1269 18.6661 17.3801 18.4255 17.6461 18.168C17.8276 17.995 18.0133 17.8134 18.1948 17.6235C18.6127 17.1887 18.8322 16.6822 18.8322 16.163C18.8322 15.6396 18.6085 15.1372 18.1822 14.7151L15.8648 12.3893ZM17.3759 16.8341C17.3717 16.8341 17.3717 16.8384 17.3759 16.8341C17.2113 17.0114 17.0425 17.1718 16.8609 17.3491C16.5866 17.6108 16.308 17.8852 16.0463 18.1933C15.6199 18.6492 15.1176 18.8645 14.4591 18.8645C14.3958 18.8645 14.3283 18.8645 14.2649 18.8603C13.0113 18.7801 11.8462 18.2904 10.9725 17.8725C8.5833 16.7159 6.48539 15.0739 4.74206 12.9929C3.30265 11.258 2.34023 9.65399 1.70284 7.93176C1.31028 6.8807 1.16676 6.0618 1.23007 5.28933C1.27229 4.79546 1.46224 4.38601 1.81259 4.03565L3.252 2.59624C3.45883 2.40207 3.67833 2.29654 3.89361 2.29654C4.15954 2.29654 4.37482 2.45695 4.5099 2.59202L4.52256 2.60469C4.78005 2.84529 5.02488 3.09434 5.28237 3.36027C5.41322 3.49535 5.5483 3.63042 5.68337 3.76972L6.83574 4.92209C7.28319 5.36953 7.28319 5.7832 6.83574 6.23064C6.71333 6.35306 6.59514 6.47547 6.47273 6.59366C6.11815 6.95668 5.78046 7.29437 5.41322 7.62362C5.40478 7.63206 5.39634 7.63628 5.39212 7.64472C5.0291 8.00774 5.09664 8.36232 5.17262 8.60292L5.18528 8.64091C5.48498 9.36695 5.90709 10.0508 6.54871 10.8655L6.55293 10.8697C7.71796 12.3049 8.94631 13.4235 10.3013 14.2804C10.4744 14.3901 10.6517 14.4787 10.8205 14.5632C10.9725 14.6391 11.116 14.7109 11.2384 14.7869C11.2553 14.7953 11.2722 14.808 11.289 14.8164C11.4326 14.8882 11.5676 14.922 11.7069 14.922C12.0573 14.922 12.2768 14.7025 12.3485 14.6307L13.7922 13.1871C13.9357 13.0436 14.1636 12.8705 14.4296 12.8705C14.6913 12.8705 14.9066 13.0351 15.0374 13.1786L15.0459 13.1871L17.3717 15.5129C17.8065 15.9435 17.8065 16.3867 17.3759 16.8341ZM10.8669 4.75747C11.9729 4.9432 12.9775 5.46662 13.7795 6.26863C14.5815 7.07065 15.1007 8.07528 15.2907 9.18122C15.3371 9.45981 15.5777 9.65399 15.8521 9.65399C15.8859 9.65399 15.9154 9.64976 15.9492 9.64554C16.2615 9.59489 16.4684 9.29941 16.4177 8.98705C16.1898 7.64895 15.5566 6.42904 14.59 5.4624C13.6233 4.49576 12.4034 3.86259 11.0653 3.63464C10.753 3.58399 10.4617 3.79083 10.4068 4.09897C10.352 4.40711 10.5546 4.70681 10.8669 4.75747ZM20.0352 8.82242C19.6596 6.61899 18.6212 4.61395 17.0256 3.01836C15.43 1.42277 13.4249 0.384369 11.2215 0.00868772C10.9134 -0.0461871 10.6221 0.16487 10.5672 0.473013C10.5166 0.785377 10.7234 1.07664 11.0358 1.13151C13.0028 1.46498 14.7968 2.39785 16.2236 3.82037C17.6503 5.24712 18.5789 7.0411 18.9124 9.00815C18.9589 9.28675 19.1995 9.48092 19.4738 9.48092C19.5076 9.48092 19.5371 9.4767 19.5709 9.47248C19.8791 9.42604 20.0901 9.13056 20.0352 8.82242Z" fill="#14142A"/>
</svg>
